<svg width="1920" height="1080" viewBox="0 0 1920 1080" fill="none" xmlns="http://www.w3.org/2000/svg">
<rect width="1920" height="1080" fill="#767676"/>
<g clip-path="url(#clip0_10_2)">
<rect width="1920" height="1080" fill="#FAFEFF"/>
<path d="M1059.81 151.44L1069.53 148.389L1074.39 153.271L1081.67 153.881L1099.89 167.916L1097.46 177.069L1107.78 181.34L1110.21 193.545L1096.25 201.477L1092.6 211.851L1082.28 207.579L1074.39 215.512L1065.88 230.768L1064.67 241.141L1076.81 255.786L1070.13 266.16L1049.49 268.601L1032.48 252.735L1012.44 243.582L1002.12 242.972L999.693 230.768L996.049 227.106L1000.91 210.631L989.369 214.292L986.333 222.835L978.438 226.496L965.079 228.327L951.112 226.496L948.076 222.835L952.326 214.292L948.076 210.02L950.505 200.257L940.788 193.545L918.927 191.104L913.462 192.934L909.818 180.73L884.313 174.018L881.277 161.814L871.561 150.83L852.129 156.932L834.518 142.287V134.964L829.053 121.54L860.023 106.284L888.564 95.9107L890.386 103.843L897.673 108.115L904.96 104.454L928.643 111.166L948.076 102.013L951.719 94.6903L964.471 96.5209L963.257 91.0291L971.759 86.7575L980.867 91.6392L989.976 85.5371L996.656 93.4699L1011.84 88.5882L1014.87 98.3516L1030.66 106.895L1042.2 104.454L1052.52 112.386L1068.31 119.099L1062.24 136.795L1055.56 144.728L1059.81 151.44Z" fill="#CBD9E0" fill-opacity="0.7"/>
<path d="M1327.6 439.174L1332.46 445.874L1348.25 453.793H1355.53L1361 458.057L1354.93 476.33L1351.89 485.467L1352.5 495.822L1359.79 496.431L1379.82 501.304L1382.25 507.396L1391.36 512.269L1405.33 514.705L1417.47 503.132L1422.33 504.959L1425.36 514.096L1422.33 532.979L1425.36 543.943L1413.83 542.725L1407.75 537.243L1399.86 539.07L1396.22 550.034L1405.33 571.354L1398.04 573.181L1389.54 561.608L1385.29 560.999L1367.68 567.699L1355.53 562.826L1350.68 550.034L1338.53 550.643V568.308L1335.5 575.008L1322.14 590.846L1320.92 596.937L1325.17 607.292L1317.89 611.556L1312.42 603.028L1304.53 595.719L1306.96 588.409L1293.6 584.754L1279.03 572.572L1277.81 557.344L1271.74 553.689L1251.1 571.354L1254.74 580.49L1245.02 593.891L1230.45 602.419L1211.63 597.546L1195.84 603.637L1181.27 606.683L1172.77 602.419L1167.3 593.891L1153.34 579.881L1156.37 569.526L1151.51 556.126L1138.16 554.298L1126.62 554.907L1112.65 564.044L1115.69 571.963L1101.72 581.709L1093.22 581.1V575.008L1102.33 568.917L1104.15 559.78L1099.29 555.516L1105.97 537.852L1124.19 524.451L1127.23 506.787L1139.98 501.304L1163.05 476.94L1166.69 471.457L1158.8 464.757L1169.73 456.229H1176.41L1181.27 461.102L1197.66 459.275L1202.52 450.747L1211.63 446.483L1217.7 448.311L1234.7 448.92L1254.74 445.265L1270.53 446.483L1269.31 437.347L1277.21 430.037H1285.1L1293.6 436.128L1298.46 434.91L1305.14 440.392L1327.6 439.174Z" fill="#CBD9E0" fill-opacity="0.7"/>
<path d="M1654.6 -131.928L1633.95 -132.536L1632.73 -142.875L1626.05 -148.956L1625.44 -155.038L1653.99 -139.226L1654.6 -131.928ZM1443.22 -181.188H1432.29L1423.78 -185.445L1428.64 -191.527L1438.97 -189.094L1443.22 -181.188ZM1615.12 -178.147L1607.22 -173.89H1599.32L1591.43 -165.984L1578.67 -172.674L1575.63 -179.364L1576.24 -192.743L1579.89 -201.257L1592.03 -206.73L1597.5 -199.432L1607.83 -195.784L1604.79 -185.445L1615.12 -178.147ZM1332.06 -218.285L1343 -214.028L1352.71 -204.298L1353.32 -195.784L1343 -186.053L1362.43 -187.878L1367.29 -180.58L1377.62 -183.012L1404.95 -172.066L1424.39 -177.539L1428.64 -169.025L1425 -159.903L1411.63 -150.173L1420.14 -142.875L1432.89 -144.091L1454.76 -138.618L1474.8 -153.821L1481.49 -156.862L1503.35 -158.687L1534.33 -186.053L1566.52 -180.58L1575.63 -169.025L1598.11 -156.254L1617.55 -157.47L1625.44 -145.307L1630.3 -130.104L1641.84 -122.198L1658.85 -119.157L1663.1 -103.345L1674.03 -78.4113L1672.21 -61.9913L1660.67 -51.0447L1656.42 -41.3143L1666.14 -32.8003L1686.18 -20.0292L1694.69 -9.69069L1691.04 6.12111L1703.19 20.1085L1708.05 31.6633L1703.8 47.475L1698.94 54.1647L1710.48 73.0173V82.7476L1723.84 88.2209L1733.56 107.682L1731.13 121.669L1721.41 143.562L1715.95 147.819L1707.44 144.17V138.697L1698.33 129.575L1684.97 127.142L1680.11 130.791L1689.22 139.913L1677.68 143.562L1656.42 152.684L1629.69 158.766L1626.05 166.064L1619.37 165.456L1609.65 169.713L1606 175.794L1593.86 177.618L1589 185.524L1576.24 183.092L1560.45 186.741L1553.77 190.389L1542.23 206.201L1530.69 194.038L1527.65 198.295L1542.83 218.972L1556.8 226.878L1560.45 236.609L1553.16 246.947L1561.66 256.069L1572.6 272.489L1586.57 284.652H1594.46L1612.08 300.464L1627.26 309.586L1635.16 319.317H1643.06L1660.67 332.696L1664.32 336.953L1663.1 353.981L1655.2 359.454L1641.23 353.981L1636.98 371.617L1630.91 377.699L1613.29 382.564L1594.46 393.511L1590.82 401.416L1606 418.444L1606.61 426.35L1602.97 434.256L1613.29 436.081L1615.12 447.636L1613.29 456.758L1602.97 454.325L1595.68 448.852L1594.46 442.162L1587.78 439.122L1572.6 442.162L1563.49 437.297L1551.34 435.473L1550.73 443.987L1516.11 447.027L1492.42 456.15L1485.74 461.623L1462.66 464.664L1454.15 453.109L1437.75 450.676L1420.74 451.284L1419.53 462.839L1413.46 472.57L1403.74 475.61L1404.34 467.704L1397.06 465.88L1391.59 457.366L1370.33 447.636L1366.08 450.676L1352.71 443.379L1321.74 429.391L1327.81 439.122L1305.34 440.338L1298.66 434.865L1293.8 436.081L1285.29 429.999H1277.4L1269.5 437.297L1270.71 446.419L1254.92 445.203L1234.88 448.852L1217.87 448.244L1211.8 446.419L1205.11 438.513V429.391L1208.76 417.228L1207.54 402.633L1209.37 393.511L1215.44 382.564L1223.94 349.116L1245.2 326.006L1244.6 318.1L1234.88 314.451L1205.72 309.586L1193.57 301.072L1175.35 304.721L1162.6 304.113L1160.77 298.64L1152.27 296.207L1141.34 300.464L1120.08 274.314L1111.57 273.706L1115.22 255.461L1120.68 249.988V241.474L1103.68 234.784L1094.57 225.054L1092.74 211.675L1096.39 201.336L1110.36 193.43L1107.93 181.267L1097.6 177.01L1100.03 167.888L1081.81 153.901L1085.45 139.305L1073.91 132.007L1076.95 127.142L1090.31 117.412L1086.06 110.114L1093.96 93.0861V85.7883L1075.13 60.8543L1079.38 54.1647L1090.31 49.9077L1104.28 54.7729L1131.62 46.8669L1135.87 40.7855L1129.8 35.3122L1131.62 29.8388L1147.41 20.1085L1151.06 4.29669L1146.2 -1.78477L1130.4 -3.60924L1126.15 -9.69069L1129.8 -19.421L1148.63 -18.8129L1155.31 -41.9225L1159.56 -52.261L1158.95 -78.4113L1148.63 -86.9253L1151.66 -103.345L1158.34 -111.859L1163.81 -114.292L1188.11 -116.116L1215.44 -115.508L1226.98 -102.129L1223.34 -94.8312L1233.06 -93.0068L1238.52 -107.602L1247.03 -102.737L1253.71 -103.345L1250.67 -113.684L1251.89 -123.414L1257.35 -131.928L1277.4 -128.279L1299.26 -130.104L1299.87 -133.753L1282.86 -136.793L1277.4 -143.483L1276.18 -167.201L1267.07 -172.066L1257.35 -170.241V-179.364L1278 -186.053V-192.135L1257.35 -215.244L1256.14 -224.975L1272.54 -224.366L1304.12 -216.461L1322.95 -220.718L1332.06 -218.285Z" fill="#CBD9E0" fill-opacity="0.7"/>
<path d="M568.052 159.332L558.324 167.233L550.42 168.448L535.219 161.156V158.117L550.42 151.432L562.58 155.079L568.052 159.332ZM346.13 -81.9281L354.034 -76.4587L333.362 -64.9122L326.066 -68.5585L320.594 -75.851L319.986 -87.3975L327.282 -90.436H338.226L346.13 -81.9281ZM204.465 -151.207L191.697 -148.776H174.065L174.673 -157.892L166.161 -160.93L155.217 -177.338L147.313 -180.377L135.761 -170.654L138.801 -165.184L124.209 -154.245L106.577 -156.069L101.713 -160.323L88.9446 -162.753L87.7286 -168.83L71.3125 -180.985L77.3925 -189.493L95.0246 -194.962L88.9446 -203.47L90.1606 -208.332L99.8887 -207.724L113.265 -212.586L120.561 -222.309L126.641 -236.286L138.193 -241.756L146.097 -238.109L157.649 -250.264L174.673 -250.871L191.089 -255.125L214.801 -253.302L221.489 -246.617L224.529 -236.286L232.434 -225.955L242.77 -217.447V-211.978L230.61 -205.293L251.89 -203.47L259.186 -188.277L246.418 -186.454L245.81 -177.946L252.498 -176.731L248.85 -168.223L233.042 -164.577L224.529 -151.207L218.449 -148.168L204.465 -151.207ZM287.762 -273.964L271.954 -277.003L268.306 -289.157L273.778 -297.665L284.722 -293.411L288.37 -285.511L287.762 -273.964ZM217.841 -317.112L222.097 -296.449L207.505 -288.549L202.641 -303.134L194.129 -297.057L195.345 -308.604L204.465 -310.427L217.841 -317.112ZM228.178 -306.78L221.489 -314.073L231.218 -327.443L241.554 -333.52L240.946 -323.796L228.178 -306.78ZM243.378 -354.182L215.409 -349.32L219.057 -367.551L207.505 -373.021L209.329 -378.49L222.097 -381.529L232.434 -371.198L245.202 -367.551L243.378 -354.182ZM144.881 -423.461L135.761 -424.676L133.329 -433.184L134.545 -447.161L144.273 -445.946L144.881 -423.461ZM222.705 -458.1L222.097 -441.084L239.73 -436.223L251.89 -436.83L254.322 -433.184L234.258 -416.776L230.002 -417.384L228.786 -430.753L220.273 -428.93L208.721 -430.753L201.425 -442.3L185.009 -445.338L179.537 -452.023L188.049 -455.669L189.873 -462.962L206.897 -466.608L216.017 -470.862L221.489 -464.785L222.705 -458.1ZM150.353 -473.9L157.649 -468.431L150.961 -460.531H141.841L128.465 -466.608L129.681 -469.647L150.353 -473.9ZM222.097 -534.064L212.369 -518.263L206.289 -514.009L205.073 -503.678L186.833 -493.955L167.377 -479.37L158.865 -485.447L174.673 -495.778L161.905 -501.855L160.689 -517.656L165.553 -521.909L174.065 -517.656L185.617 -519.479L181.361 -526.771L219.665 -546.218L222.097 -534.064ZM433.683 -547.433V-540.141L425.779 -530.417L412.403 -523.125L386.867 -506.109L371.666 -498.209L368.626 -488.485L377.138 -487.878L378.354 -483.016L364.978 -473.293L361.33 -464.177L379.571 -466.608L411.795 -475.724L433.683 -472.685L449.491 -474.508L491.443 -473.293L502.995 -475.116L516.979 -467.216L523.059 -456.885L506.035 -436.223L501.171 -422.245L489.011 -400.975L477.459 -388.821L465.299 -373.628L452.531 -366.944L433.683 -363.905L461.043 -352.359L452.531 -341.42L437.939 -340.812L423.955 -330.481L411.187 -326.227L433.075 -319.542L447.667 -325.619L464.083 -326.227L495.699 -314.681L517.587 -294.019L529.747 -284.903L532.787 -278.218L545.556 -236.286L554.676 -213.193L564.404 -202.254L591.764 -192.531L598.452 -188.885L619.124 -168.83L639.796 -154.245L631.284 -145.13L633.716 -137.837L646.484 -120.214L648.308 -110.49L640.404 -111.098L626.42 -119.606L624.596 -115.352L654.996 -95.2977L664.724 -83.1435L670.804 -66.7354L667.156 -60.0506L648.916 -43.6424L665.94 -35.1345L673.236 -36.3499L685.396 -49.1118L695.733 -50.3272L721.269 -48.5041L744.373 -42.427L764.437 -29.6651L768.693 -22.9803L771.125 -4.1413L757.749 31.1058L740.725 42.6523L737.685 52.9834L724.917 58.4527L714.581 56.6296L699.989 63.9222L710.325 67.5684V77.8994L703.637 81.5457L688.437 82.7611L695.124 94.9153L710.325 97.3462L736.469 96.1307L748.021 97.3462L746.805 113.754L744.373 116.185L721.269 126.516L715.189 137.455L701.813 136.847L695.124 141.101L660.468 152.648L630.676 147.786L613.044 148.394L588.724 152.04L563.188 144.747L552.244 143.532L535.219 153.863L509.683 156.902L497.523 155.686L502.995 164.802L497.523 167.233L474.419 164.194L468.339 167.233L459.827 166.017L443.411 157.509L427.603 156.902L397.811 164.194L391.731 172.094L383.827 193.364L377.138 200.657L368.626 201.872L341.266 186.679L332.146 189.718L316.946 191.541L300.53 195.795L276.818 210.38L271.346 219.496L263.442 220.711L256.754 215.242L248.242 213.419L234.258 218.28L232.434 210.38L238.514 204.303L255.538 200.049L270.738 188.503L284.114 174.525L312.082 151.432L316.946 132.593L333.362 128.339L341.874 113.147L366.802 109.5H383.827L400.851 112.539L418.483 111.931L425.171 107.677L436.723 93.0921L458.611 74.8608L430.035 80.9379L406.931 94.9153L387.475 92.4845L373.49 80.9379L360.722 76.0763L347.954 78.5071L343.698 73.0378L329.106 62.7067H313.298L291.41 73.0378L275.602 65.7452L270.13 51.768L271.954 43.26L278.642 39.006L293.842 35.3598L316.946 25.0287L330.322 20.7748L347.346 9.22829L354.642 -4.749L352.818 -16.9032L355.858 -25.4111L350.386 -35.7422L352.21 -44.8578L333.97 -43.0347L317.554 -35.7422L313.298 -42.427L330.322 -53.3657L336.402 -61.8737L352.21 -72.2048L374.098 -80.1049L385.651 -79.4972L408.147 -83.7512L424.563 -75.851L419.699 -88.6129L426.995 -91.0437L427.603 -105.629L437.331 -118.998L430.035 -122.645L430.643 -134.799L439.763 -139.66L444.019 -155.461L433.683 -158.499L420.915 -154.853L410.579 -163.969L393.555 -185.846L391.731 -194.354L401.459 -213.193L415.443 -225.347L403.891 -230.209L395.379 -228.994L378.962 -221.701L366.802 -213.801H354.034L349.17 -219.27L342.482 -218.663L327.282 -211.978L306.002 -219.878L299.314 -205.901L283.506 -221.093L281.682 -232.64H289.586L296.882 -247.225L314.514 -271.533L318.162 -278.826L315.122 -287.334L303.57 -296.449L305.394 -312.25L310.258 -318.327L319.378 -320.758L307.826 -328.05L290.194 -322.581L279.25 -317.112L281.074 -329.266L277.426 -331.697L268.306 -323.189L268.914 -303.134L256.146 -268.495L249.458 -263.025L240.946 -266.064L247.634 -289.765L256.146 -304.957L252.498 -306.78L254.322 -328.658L260.402 -346.282L270.738 -369.374L284.114 -390.644L259.186 -374.236L253.106 -371.198L238.514 -373.628L233.65 -377.882L227.569 -391.86L238.514 -393.075L248.85 -399.76L239.73 -404.014L248.85 -409.483L259.186 -422.245L261.618 -433.792L255.538 -442.907L245.81 -446.554L244.594 -452.023L254.93 -463.569L250.674 -472.685L260.402 -491.524L278.642 -490.916L290.194 -493.347L276.21 -505.501L280.466 -523.125L302.962 -524.948L298.098 -535.887L299.922 -548.041L309.65 -553.51L317.554 -552.295L323.634 -546.826L339.442 -552.295L343.09 -547.433L360.114 -551.08L382.611 -552.903L409.971 -556.549L423.347 -558.98L437.331 -557.764L433.683 -547.433ZM430.035 -571.742L422.131 -571.134L414.227 -579.642L423.347 -581.465L430.035 -571.742ZM437.939 -592.404L454.355 -588.757L450.707 -580.25L442.195 -584.504L430.035 -582.68L418.483 -588.757L420.915 -601.519L431.251 -602.127L438.547 -599.089L437.939 -592.404ZM460.435 -606.381L454.355 -604.558L451.923 -611.85L441.587 -615.497L444.019 -620.358L460.435 -606.381ZM558.324 -724.884L568.052 -713.946L574.132 -710.907L566.228 -687.814L565.012 -678.091L558.932 -667.76L554.068 -670.191L559.54 -687.814L556.5 -694.499L546.164 -692.676L543.732 -698.145L553.46 -706.653L548.596 -718.807L541.908 -720.023L551.028 -729.746L558.324 -724.884ZM575.956 -722.454L567.444 -730.354L575.348 -734L575.956 -722.454Z" fill="#CBD9E0" fill-opacity="0.7"/>
<path d="M1864.99 1329.13L1857.69 1344.32L1840.68 1370.46L1831.56 1401.46L1833.39 1413.62L1843.11 1422.13L1838.86 1425.17L1848.58 1436.11L1849.19 1444.02L1838.25 1455.57L1835.82 1465.9L1836.43 1475.02L1818.8 1471.37L1810.29 1473.2L1787.81 1464.69L1776.26 1447.66L1758.03 1435.51H1739.8L1731.29 1432.47L1713.67 1420.92L1695.44 1412.41L1679.64 1399.64L1669.31 1397.21L1660.19 1391.13H1642.57L1628.59 1381.4L1620.69 1367.42L1628.59 1344.93L1637.1 1340.07L1642.57 1332.77L1656.55 1346.75L1667.49 1341.89L1675.99 1332.16L1690.58 1332.77L1693.62 1338.24L1702.13 1340.07L1717.32 1349.79L1725.83 1352.23L1746.49 1346.15L1764.72 1348.58L1781.73 1345.54L1792.06 1341.89L1799.36 1335.81L1807.86 1333.99L1829.13 1335.81L1841.29 1328.52L1846.15 1329.73L1858.3 1322.44L1864.99 1329.13ZM1389.16 1076.85L1393.42 1082.32L1404.36 1112.72L1400.71 1122.44L1392.81 1134.6L1397.67 1151.62L1394.03 1221.53L1390.38 1239.16L1384.91 1241.59L1367.29 1234.29L1358.17 1236.12L1350.88 1232.47L1349.06 1250.71L1338.12 1263.47L1319.89 1262.26L1315.63 1258.61L1301.05 1235.51L1298.62 1209.37L1302.26 1201.47V1186.27L1308.95 1185.66V1175.33L1298.01 1168.03V1156.48L1302.26 1147.97L1301.66 1132.17L1296.8 1126.7L1291.93 1112.72L1278.56 1098.13L1279.17 1077.46L1299.83 1081.11L1307.73 1079.28L1326.57 1070.16L1339.33 1054.97L1347.84 1051.93L1356.96 1040.98L1361.21 1046.46L1374.58 1051.32L1381.87 1060.44L1387.34 1063.48L1383.09 1071.99L1389.16 1076.85ZM1439.6 889.619L1441.43 898.13L1426.23 901.169L1419.55 894.482L1437.17 893.267L1439.6 889.619ZM1669.92 545.552L1668.7 551.023L1648.65 565.005L1652.9 573.515L1666.88 577.77L1657.16 590.536L1658.98 596.615L1666.88 597.831L1664.45 609.989L1675.99 616.676L1685.11 624.578L1686.33 632.481L1677.21 633.089L1681.46 629.441L1669.31 616.068L1657.16 621.539L1637.71 616.068L1624.95 628.225L1615.83 630.657L1605.5 637.344L1586.06 644.639L1575.12 642.207L1569.04 646.462L1566.61 665.307L1571.47 668.954L1580.59 684.759L1590.92 691.446L1586.66 702.996L1581.19 707.251L1573.29 704.212L1571.47 714.546L1576.94 741.901L1585.45 761.354L1592.74 769.256L1609.15 782.63L1625.56 789.317L1656.55 811.809L1673.56 818.496L1677.82 822.751L1688.76 839.772L1698.48 859.225L1709.42 890.227L1717.32 905.424L1731.29 923.053L1760.46 947.977L1786.59 965.606L1810.9 977.156L1829.13 978.979L1871.67 976.548L1887.47 980.803L1889.9 988.098L1887.47 993.569L1869.85 1006.33V1016.67L1878.96 1023.96L1922.11 1043.42L1965.86 1059.22L1979.23 1067.73L1995.64 1080.5L2034.53 1098.13L2041.22 1106.64L2065.52 1124.87L2076.46 1139.46L2079.5 1150.4L2070.39 1177.15L2060.66 1174.11L2049.12 1166.21L2030.28 1133.38L1999.89 1130.34L1982.27 1122.44L1978.02 1113.93L1964.04 1111.5L1956.14 1116.97L1947.63 1129.13L1938.52 1147.37L1929.4 1173.5V1183.84L1936.09 1194.17L1953.71 1200.25L1968.29 1209.37L1978.02 1219.1L1979.84 1242.2L1985.31 1254.96L1979.84 1262.86L1968.29 1261.04L1953.1 1265.3L1942.77 1273.81L1938.52 1282.32L1941.56 1302.99L1939.73 1311.5L1919.68 1326.69L1909.96 1341.89L1903.88 1355.87H1877.75L1871.06 1346.75L1870.46 1333.38L1874.1 1325.48L1883.82 1321.22L1889.29 1304.2L1886.26 1292.04L1892.94 1282.32L1909.96 1278.06V1260.43L1901.45 1252.53L1892.94 1221.53L1878.36 1195.39L1869.85 1172.29L1863.16 1161.35L1854.66 1155.27L1832.17 1153.44L1804.22 1137.64L1802.39 1130.95L1806.04 1124.27L1799.36 1107.24L1787.2 1096.91L1771.4 1100.56L1764.11 1099.95L1763.5 1090.83L1751.35 1082.93L1734.94 1081.71L1730.69 1077.46L1714.89 1053.14L1704.56 1042.81L1690.58 1043.42L1666.88 1037.94L1654.73 1042.2L1635.28 1026.39L1618.26 1020.92L1583.63 988.706L1572.69 976.548L1551.42 963.174L1537.44 943.722L1526.5 936.427L1502.2 927.916L1500.37 920.014L1481.53 901.169L1471.2 895.09L1463.3 882.324L1448.11 879.285L1448.72 862.872L1441.43 841.596L1431.1 828.222L1423.8 796.004L1418.94 786.885L1408 780.199L1383.7 772.904L1349.06 752.235L1342.37 751.628L1321.71 743.725L1308.95 742.509L1293.15 749.804L1274.31 769.256L1259.12 789.925L1253.65 793.572L1232.99 800.867L1214.76 803.906L1213.54 794.788L1226.3 778.983L1224.48 766.825L1204.43 770.472L1173.43 755.883L1167.97 750.412L1167.36 741.901L1163.1 733.999L1171.61 718.801L1176.47 714.546L1173.43 704.212L1153.99 695.702L1144.87 676.857L1149.73 674.425L1161.28 675.641L1171.61 667.738L1178.9 665.915L1183.77 650.717L1172.83 640.991L1162.5 625.186L1157.03 621.539L1156.42 611.812L1172.22 601.478L1180.73 605.734L1195.31 602.694L1211.11 596.615L1229.95 601.478L1244.53 592.968L1254.26 579.594L1250.61 570.476L1271.27 552.847L1277.35 556.494L1278.56 571.691L1293.15 583.849L1306.52 587.497L1304.09 594.791L1311.99 602.086L1317.46 610.597L1324.75 606.341L1320.5 596.007L1321.71 589.928L1335.08 574.123L1338.12 567.436V549.807L1350.27 549.2L1355.13 561.965L1367.29 566.828L1384.91 560.142L1389.16 560.749L1397.67 572.299L1404.96 570.476L1395.85 549.2L1399.5 538.257L1407.4 536.434L1413.47 541.905L1425.02 543.121L1421.98 532.179L1425.02 513.334L1443.25 515.158L1448.72 520.021L1461.48 522.452L1468.16 520.021L1475.46 506.647L1483.96 503L1504.63 501.176L1523.46 502.392L1552.03 493.273V507.255L1570.86 528.531L1577.55 531.571L1629.81 540.689L1654.12 542.513L1669.92 545.552Z" fill="#CBD9E0" fill-opacity="0.7"/>
<path d="M1092.45 211.848L1094.27 225.256L1103.33 235.006L1120.26 241.71V250.242L1114.82 255.727L1111.19 274.01L1103.33 269.744L1091.24 273.401H1082.78L1070.09 266.088L1076.73 255.727L1064.64 241.101L1065.85 230.74L1074.32 215.505L1082.18 207.582L1092.45 211.848Z" fill="#CBD9E0" fill-opacity="0.7"/>
<path d="M758.017 1263.83L755.586 1269.91L743.431 1267.48V1258.36L750.724 1248.63L767.133 1244.37L771.995 1252.28L758.017 1263.83ZM889.897 1181.15L897.189 1184.19L905.09 1181.15L913.598 1183.58L914.814 1189.66L901.444 1210.94L897.797 1219.45L885.035 1227.35L860.725 1217.02L858.902 1207.29L850.394 1203.03L840.062 1210.94L831.554 1204.86L829.73 1197.56L861.941 1175.07L871.057 1169.6L890.504 1164.12L893.543 1171.42L889.897 1181.15ZM979.234 1176.28L977.411 1177.5L953.709 1165.95L943.985 1163.52L944.593 1155L960.394 1153.79L973.157 1158.04L980.45 1168.99L979.234 1176.28ZM508.844 838.869L511.883 846.772L538.016 854.676L536.192 874.13L547.132 871.698L573.872 882.034L587.242 883.25L600.613 896.017L622.491 893.585L641.939 906.352L660.779 903.92L665.033 906.352H693.597L698.459 891.761L722.768 898.448L737.962 904.528L748.293 906.352L754.978 915.471V928.238L759.233 930.67L776.249 923.982L793.266 931.278L801.167 938.573L813.929 931.886L842.493 939.181L849.786 934.318L872.88 927.63L891.72 931.278L899.013 944.653L888.073 947.693L886.858 956.204L894.151 964.107L894.758 976.874L876.526 993.897L823.653 1022.47L806.029 1038.89L765.918 1048L738.569 1057.12L725.199 1060.16L700.282 1083.27L706.967 1085.09L714.26 1092.39L711.829 1096.03L696.635 1102.72H691.166L673.541 1130.69L657.74 1150.75L648.624 1159.87L639.508 1172.64L620.06 1206.68L619.453 1216.41L629.176 1249.85L642.547 1266.26L657.132 1272.95L660.779 1279.03L655.917 1285.11L641.331 1295.44L615.198 1309.42L604.259 1320.98L602.436 1331.92L594.535 1336.78L591.497 1351.98L580.557 1378.73L588.458 1386.03L580.557 1390.89L541.054 1392.71L516.137 1409.74L503.982 1424.33L492.435 1451.69L479.065 1467.49L472.987 1470.53L463.871 1463.24L452.324 1462.63L440.777 1464.45L434.7 1470.53L425.584 1473.57L416.468 1470.53L388.512 1469.32L374.534 1474.18L362.987 1471.14L343.539 1469.32L300.997 1472.96L276.688 1493.63H256.024L237.185 1500.93L224.422 1519.17L221.383 1528.9L215.306 1527.07L213.483 1534.37L200.72 1539.23L186.134 1533.15L173.98 1524.03L167.902 1523.42L158.178 1510.05L150.886 1491.2V1484.51L141.769 1480.87L139.946 1472.36L141.162 1462.63L133.869 1450.47L103.482 1427.98L80.9955 1426.15L62.7633 1429.19L56.0782 1390.28L60.9401 1376.91L82.211 1350.77L94.9735 1347.12L99.2277 1332.53L88.8961 1333.74L70.664 1307.6L76.1336 1283.28L95.5813 1265.04L99.2277 1250.45L96.189 1245.59L85.8574 1243.16L76.1336 1223.7L74.3104 1212.15L65.802 1204.86L59.1169 1193.31L65.802 1191.48H91.9348L98.0122 1188.44L108.344 1167.16V1155.61L99.8354 1147.71L101.051 1141.63L117.46 1128.86L115.029 1122.18L117.46 1099.07L115.029 1077.79L110.167 1065.64L122.322 1055.91L129.007 1046.18L138.731 1037.67L151.493 1030.98L166.687 1015.78L164.864 1009.1L153.316 1003.62L141.769 1002.41L141.162 983.562L136.908 976.874L105.305 976.266L96.189 973.227L91.3271 981.738L76.1336 987.209H67.6253L54.255 982.346L36.6306 982.954L18.3984 989.641L12.9287 981.738L20.8293 970.187L14.7519 959.244L-10.1654 965.323L-21.7124 970.795L-29.0053 977.482L-36.9059 976.874V961.676L-21.1047 945.869L-30.8285 944.653L-23.5356 933.102L-29.613 927.022L-29.0053 911.215L-42.9833 916.687L-46.022 909.392L-37.5136 896.017L-46.022 894.801L-60 879.602L-55.1381 860.755L-42.9833 854.676L-31.4363 845.557L-15.635 847.38L-5.30346 845.557L16.5752 835.829L14.1442 826.71L16.5752 822.454L36.0228 812.119L48.1776 810.903L59.7247 805.432L67.6253 808.471L74.3104 807.863L82.211 811.511L92.5426 821.238L107.736 824.886L119.891 821.846L141.769 821.238L152.101 822.454L171.549 820.63L182.488 821.238L200.112 816.375L214.09 822.454L240.831 824.886L256.632 829.75L300.389 838.261H316.798L339.285 833.398L349.009 830.358L358.125 832.182L370.887 828.534L384.865 834.613L413.429 842.517L426.191 834.613L446.855 838.261L466.91 846.165L477.849 846.772L493.651 844.949L508.844 838.869Z" fill="#CBD9E0" fill-opacity="0.7"/>
<path d="M1371.11 895.089L1369.29 909.071L1375.37 919.405L1379.01 958.919L1368.07 978.372L1368.68 996.609L1358.95 1022.75L1354.09 1029.44L1330.98 1017.28L1323.69 1010.59L1329.77 999.648L1316.39 994.177L1318.82 983.843L1317.61 978.372L1307.88 975.332L1313.96 967.43V962.566L1304.84 956.487L1303.02 951.016L1310.92 944.329L1307.27 938.858L1307.88 930.956L1313.35 919.405L1320.65 913.934L1337.67 909.071L1344.97 902.384L1356.52 906.032L1360.17 898.737L1358.95 882.324L1360.77 875.637L1368.68 878.676L1371.11 895.089ZM557.02 603.906L554.588 612.416L543.037 597.827L549.117 594.787L557.02 603.906ZM1070.16 265.914L1082.93 273.209H1091.44L1103.6 269.561L1111.5 273.817L1120.01 274.424L1141.29 300.564L1152.24 296.309L1160.75 298.74L1162.57 304.212L1175.34 304.819L1193.58 301.172L1205.74 309.683L1234.92 314.546L1244.65 318.193L1245.26 326.096L1223.98 349.196L1215.47 382.63L1209.39 393.573L1207.56 402.691L1208.78 417.281L1205.13 429.439V438.557L1211.82 446.46L1202.7 450.715L1197.83 459.226L1181.42 461.049L1176.56 456.186H1169.87L1158.92 464.697L1166.83 471.384L1163.18 476.855L1140.08 501.171L1127.31 506.642L1124.27 524.271L1106.03 537.645L1099.34 555.274L1104.21 559.529L1102.38 568.648L1093.26 574.727V580.806L1101.77 581.414L1115.76 571.687L1112.72 563.784L1126.7 554.666L1138.25 554.058L1151.63 555.882L1156.49 569.256L1153.45 579.59L1167.44 593.572L1172.91 602.082L1157.1 612.416L1157.71 622.143L1163.18 625.79L1173.52 641.596L1184.46 651.322L1179.6 666.519L1172.3 668.343L1161.96 676.246L1150.41 675.03L1145.55 677.462L1154.67 696.307L1174.12 704.817L1177.16 715.151L1172.3 719.407L1163.79 734.604L1168.04 742.507L1168.65 751.017L1174.12 756.488L1205.13 771.078L1225.19 767.431L1227.02 779.589L1214.25 795.394L1215.47 804.512L1211.82 806.336L1206.95 808.16L1192.36 814.847L1168.65 835.515L1157.71 841.594L1153.45 852.536L1141.29 861.047L1126.7 864.087L1112.72 870.166L1106.03 867.734H1089.01L1078.67 860.439L1058 855.576L1051.31 844.634L1036.11 844.026L1031.25 834.907L1019.7 836.731L1010.58 840.986L998.416 840.378L962.545 829.436L954.034 820.926L943.698 823.965L933.97 833.692L894.451 858.615L878.643 884.755L878.036 892.05L882.291 915.758L892.019 930.956L873.172 927.308L850.068 933.995L842.773 938.858L814.197 931.563L801.43 938.25L793.526 930.956L776.502 923.661V914.542L760.695 910.895L755.223 915.15L748.535 906.032L738.199 904.208L723 898.129L698.681 891.442L693.817 906.032H665.241L660.986 903.6L642.138 906.032L622.683 893.266L600.795 895.697L587.42 882.931L574.044 881.716L547.293 871.381L536.349 873.813L538.173 854.36L512.03 846.457L508.99 838.555L521.149 835.515L532.701 823.965L543.037 780.804L550.941 730.349L557.02 720.622L564.316 718.191L558.236 710.896L551.549 720.015L555.804 673.814L558.844 656.793L564.316 638.556L583.164 653.146L588.028 659.225L593.499 679.893L597.147 680.501L590.459 652.538L579.516 638.556L557.628 624.574L554.588 616.672L565.532 613.024L562.492 602.082L559.452 566.216L541.213 562.569L512.03 546.763L501.694 530.958L491.966 519.408L489.534 509.074L495.006 498.131L490.142 491.444L481.63 486.581L488.318 476.855L470.079 475.639L459.135 472.6L457.311 465.913L465.215 457.402L455.487 452.539L439.68 453.755L438.464 443.42L425.088 445.244L417.792 443.42L411.104 436.733L403.201 437.949L389.825 435.518L384.961 431.262L355.778 423.36L343.618 422.752L332.067 426.399L325.379 424.576L317.475 411.202L298.628 404.515L302.275 400.26L321.123 396.612L324.771 392.357L311.395 386.886L310.179 379.591L319.907 381.415L320.515 374.12L296.196 374.728L293.764 366.825L296.804 358.315L310.787 351.02L346.05 342.509L361.25 343.725L371.586 342.509L389.825 332.783L407.457 330.351L423.872 335.214L439.072 352.236L446.367 358.315L465.215 347.98L491.966 348.588L497.438 354.059L504.734 343.725L510.814 349.804L539.389 348.588L530.269 333.391L529.053 296.917L521.149 286.582L508.382 260.443L509.598 251.932L529.053 253.756L545.469 250.108L553.372 252.54L555.196 269.561L561.884 279.288H575.26L589.244 282.327L607.483 282.935L633.626 287.798L644.57 284.759L665.849 272.601L654.906 268.345L653.69 264.09L659.162 250.716L690.777 235.519L713.272 231.264L736.375 223.361L748.535 214.85L755.831 203.908L758.871 196.005L760.695 154.668L766.775 141.295L784.406 131.568L823.317 124.881L828.789 121.842L834.261 135.216V142.51L851.892 157.1L871.348 151.021L881.076 161.963L884.115 174.121L909.651 180.808L913.299 192.966L918.77 191.142L940.658 193.574L950.386 200.261L947.954 209.987L952.209 214.242L947.954 222.753L950.994 226.4L964.977 228.224L978.353 226.4L986.257 222.753L989.297 214.242L1000.85 210.595L995.984 227.008L999.632 230.656L1002.06 242.814L1012.4 243.422L1032.46 252.54L1049.49 268.345L1070.16 265.914Z" fill="#6F96AC"/>
</g>
<defs>
<clipPath id="clip0_10_2">
<rect width="1920" height="1080" fill="white"/>
</clipPath>
</defs>
</svg>
