<svg width="250" height="68" viewBox="0 0 250 68" fill="none" xmlns="http://www.w3.org/2000/svg">
<g clip-path="url(#clip0_454_1855)">
<path d="M97.8008 39.3724L1.53516 19.8579L-0.00013961 27.7096L96.2655 47.2241L97.8008 39.3724Z" fill="#231815"/>
<path d="M48.0029 0L48.0029 67.0625H55.8657L55.8657 0H48.0029Z" fill="#231815"/>
<path d="M35.356 62.7819L74.792 9.06885L68.4944 4.27544L29.0584 57.9885L35.356 62.7819Z" fill="#231815"/>
<path d="M74.7905 57.9948L35.3545 4.28174L29.0569 9.07515L68.4929 62.7882L74.7905 57.9948Z" fill="#231815"/>
<path d="M116.213 9.14924V24.4193C117.015 24.5701 118.139 24.5701 118.879 24.5701C122.632 24.5701 124.446 22.6723 124.853 18.4872H125.705V25.9274H110.325V25.0477C112.275 24.8969 112.868 24.5701 112.868 22.6346V9.14924C112.868 7.22635 112.275 6.88702 110.325 6.7362V5.85645H118.731V6.7362C116.781 6.88702 116.213 7.21378 116.213 9.14924Z" fill="#231815"/>
<path d="M127.569 25.1734C129.26 24.8969 129.581 24.4193 129.581 22.245V15.0687C129.581 12.8945 129.26 12.4169 127.569 12.1404V11.3863H132.63V22.2325C132.63 24.4067 132.951 24.8843 134.642 25.1608V25.9149H127.569V25.1608V25.1734ZM131.087 4.98926C132.21 4.98926 133.075 5.89415 133.075 7.0127C133.075 8.13124 132.21 9.03613 131.087 9.03613C129.964 9.03613 129.1 8.15638 129.1 7.0127C129.1 5.86901 129.989 4.98926 131.087 4.98926Z" fill="#231815"/>
<path d="M137.358 25.9275V8.37014C137.358 6.17075 137.061 5.69317 135.346 5.41667V4.6626H140.407V13.0077C141.271 11.864 142.653 11.0471 144.751 11.0471C148.158 11.0471 150.911 13.7241 150.911 18.5125C150.911 23.3008 147.985 26.2543 144.11 26.2543C142.418 26.2543 141.061 25.5254 140.258 24.5953L138.567 25.915H137.358V25.9275ZM143.492 24.8718C146.159 24.8718 147.664 22.4337 147.664 18.789C147.664 15.1443 146.072 12.7061 143.492 12.7061C142.246 12.7061 141.061 13.3345 140.419 14.4782V23.2129C141.011 24.2057 142.159 24.8718 143.492 24.8718Z" fill="#231815"/>
<path d="M166.389 22.5843L167.105 23.3384C166.278 24.5072 164.5 26.2667 161.093 26.2667C156.094 26.2667 153.403 23.0745 153.403 18.7637C153.403 14.4528 156.181 11.0846 160.711 11.0846C164.858 11.0846 167.425 13.7365 167.425 18.4117H156.65C156.711 22.6597 158.896 24.4946 162.007 24.4946C164.401 24.4946 165.611 23.5018 166.389 22.5969V22.5843ZM164.019 17.1298C164.019 15.2572 163.871 12.1906 160.649 12.1906C157.896 12.1906 156.897 14.6288 156.687 17.1298H164.031H164.019ZM162.809 4.83838H165.623V5.4165L160.945 9.18688H159.501L162.821 4.85095L162.809 4.83838Z" fill="#231815"/>
<path d="M178.634 11.072C180.201 11.072 180.966 12.1529 180.966 13.4222C180.966 14.5031 180.349 15.4457 179.275 15.4457C178.424 15.4457 178.004 14.9681 177.794 14.4151C177.584 13.8747 177.375 13.4474 176.609 13.4474C175.782 13.4474 175.017 14.0506 174.301 15.1943V22.2449C174.301 24.4192 174.659 24.8967 176.548 25.1732V25.9273H169.24V25.1732C170.931 24.8967 171.252 24.4192 171.252 22.2449V15.0686C171.252 12.8944 170.931 12.4168 169.24 12.1403V11.3862H174.301L174.215 13.7615C175.103 12.5299 176.943 11.0469 178.621 11.0469L178.634 11.072Z" fill="#231815"/>
<path d="M191.348 17.3688V15.6847C191.348 13.2717 190.546 12.1908 188.571 12.1908C187.213 12.1908 186.324 12.7312 186.324 13.5104C186.324 13.988 186.83 14.2897 186.83 15.0186C186.83 15.7978 186.151 16.6776 184.991 16.6776C183.658 16.6776 183.102 15.5967 183.102 14.629C183.102 12.7564 184.991 11.0723 188.719 11.0723C191.706 11.0723 194.397 11.9143 194.397 16.0994V23.1123C194.397 24.1681 194.779 24.6833 195.643 24.6833C195.94 24.6833 196.261 24.5954 196.594 24.4068L196.89 25.0729C195.89 25.8899 194.853 26.2418 193.73 26.2418C192.434 26.2418 191.632 25.4626 191.545 24.0172C190.743 25.1358 189.175 26.2418 186.867 26.2418C184.139 26.2418 182.312 24.7964 182.312 22.2703C182.312 18.9901 185.954 17.507 191.36 17.3562L191.348 17.3688ZM185.584 22.1069C185.584 23.8287 186.583 24.6959 188.04 24.6959C189.607 24.6959 190.817 23.6151 191.348 22.5217V18.4873C187.558 18.4622 185.584 19.719 185.584 22.1069Z" fill="#231815"/>
<path d="M201.469 6.7113H202.296V11.4117H206.196V12.6811H202.296V22.2578C202.296 23.9419 202.95 24.5452 204.073 24.5452C204.9 24.5452 205.702 24.0928 206.258 23.3135L206.937 23.9168C205.986 25.2993 204.567 26.267 202.641 26.267C200.271 26.267 199.234 24.9097 199.234 22.3458V12.6685H196.84V11.9773C199.568 11.3489 200.802 9.84071 201.456 6.69873L201.469 6.7113Z" fill="#231815"/>
<path d="M207.616 25.1734C209.307 24.8969 209.628 24.4193 209.628 22.245V15.0687C209.628 12.8945 209.307 12.4169 207.616 12.1404V11.3863H212.677V22.2325C212.677 24.4067 212.998 24.8843 214.689 25.1608V25.9149H207.616V25.1608V25.1734ZM211.146 4.98926C212.27 4.98926 213.134 5.89415 213.134 7.0127C213.134 8.13124 212.27 9.03613 211.146 9.03613C210.023 9.03613 209.159 8.15638 209.159 7.0127C209.159 5.86901 210.048 4.98926 211.146 4.98926Z" fill="#231815"/>
<path d="M231.229 18.6633C231.229 23.2129 228.415 26.2543 223.798 26.2543C219.182 26.2543 216.343 23.2129 216.343 18.6633C216.343 14.1137 219.157 11.0723 223.798 11.0723C228.439 11.0723 231.229 14.1514 231.229 18.6633ZM223.798 25.1484C226.613 25.1484 227.946 22.7102 227.946 18.6759C227.946 14.6416 226.613 12.2034 223.798 12.2034C220.984 12.2034 219.626 14.6416 219.626 18.6759C219.626 22.7102 220.959 25.1484 223.798 25.1484Z" fill="#231815"/>
<path d="M240.338 25.1734V25.9274H233.266V25.1734C234.957 24.8969 235.278 24.4193 235.278 22.245V15.0687C235.278 12.8945 234.957 12.4169 233.266 12.1404V11.3863H238.326V13.3469C239.623 11.9645 241.437 11.0596 243.363 11.0596C246.09 11.0596 247.535 12.4797 247.535 15.9108V22.2325C247.535 24.4067 247.856 24.8843 249.547 25.1608V25.9149H242.474V25.1608C244.165 24.8843 244.486 24.4067 244.486 22.2325V15.9108C244.486 13.6863 243.659 12.8065 242.029 12.8065C240.4 12.8065 239.104 13.9502 238.326 14.9808V22.245C238.326 24.4193 238.647 24.8969 240.338 25.1734Z" fill="#231815"/>
<path d="M112.868 58.7927V45.2948C112.868 43.3719 112.275 43.0325 110.325 42.8817V42.002H125.804V48.3865H124.915C124.532 44.6789 123.175 43.3593 118.645 43.3593C118.077 43.3593 117.077 43.3593 116.213 43.5101V50.7995H117.805C121.15 50.7995 121.829 49.593 121.953 47.0668H122.804V56.0152H121.953C121.829 53.489 121.15 52.3077 117.805 52.3077H116.213V58.7801C116.213 60.703 116.781 61.0424 118.731 61.1932V62.0729H110.325V61.1932C112.275 61.0424 112.868 60.7156 112.868 58.7801V58.7927Z" fill="#231815"/>
<path d="M137.098 47.2175C138.666 47.2175 139.431 48.2984 139.431 49.5677C139.431 50.6486 138.814 51.5912 137.74 51.5912C136.889 51.5912 136.469 51.1136 136.259 50.5606C136.049 50.0202 135.839 49.5929 135.074 49.5929C134.247 49.5929 133.482 50.1961 132.766 51.3398V58.3904C132.766 60.5647 133.124 61.0422 135.012 61.3187V62.0728H127.705V61.3187C129.396 61.0422 129.717 60.5647 129.717 58.3904V51.2141C129.717 49.0399 129.396 48.5623 127.705 48.2858V47.5317H132.766L132.679 49.9071C133.568 48.6754 135.407 47.1924 137.086 47.1924L137.098 47.2175Z" fill="#231815"/>
<path d="M149.824 53.5143V51.8302C149.824 49.4172 149.022 48.3363 147.047 48.3363C145.689 48.3363 144.801 48.8767 144.801 49.656C144.801 50.1335 145.307 50.4352 145.307 51.1641C145.307 51.9433 144.628 52.8231 143.468 52.8231C142.135 52.8231 141.579 51.7422 141.579 50.7745C141.579 48.9019 143.468 47.2178 147.195 47.2178C150.182 47.2178 152.873 48.0598 152.873 52.2449V59.2579C152.873 60.3136 153.256 60.8288 154.12 60.8288C154.416 60.8288 154.737 60.7409 155.07 60.5524L155.367 61.2185C154.367 62.0354 153.33 62.3873 152.207 62.3873C150.911 62.3873 150.108 61.6081 150.022 60.1627C149.22 61.2813 147.652 62.3873 145.344 62.3873C142.616 62.3873 140.789 60.942 140.789 58.4158C140.789 55.1356 144.43 53.6526 149.837 53.5017L149.824 53.5143ZM144.048 58.2524C144.048 59.9742 145.048 60.8414 146.504 60.8414C148.072 60.8414 149.281 59.7606 149.812 58.6672V54.6329C146.023 54.6077 144.048 55.8645 144.048 58.2524Z" fill="#231815"/>
<path d="M163.155 61.3189V62.0729H156.082V61.3189C157.773 61.0424 158.094 60.5648 158.094 58.3905V51.2142C158.094 49.04 157.773 48.5624 156.082 48.2859V47.5318H161.143V49.4924C162.439 48.11 164.253 47.2051 166.179 47.2051C168.907 47.2051 170.351 48.6253 170.351 52.0563V58.378C170.351 60.5522 170.672 61.0298 172.363 61.3063V62.0604H165.29V61.3063C166.981 61.0298 167.302 60.5522 167.302 58.378V52.0563C167.302 49.8318 166.475 48.952 164.846 48.952C163.217 48.952 161.92 50.0957 161.143 51.1263V58.3905C161.143 60.5648 161.464 61.0424 163.155 61.3189Z" fill="#231815"/>
<path d="M186.829 51.4029C186.829 52.8231 186.089 53.7782 184.842 53.7782C183.781 53.7782 182.917 53.0242 182.917 51.9056C182.917 50.7871 183.805 50.5483 183.805 49.6811C183.805 48.8139 182.83 48.3615 181.472 48.3615C178.954 48.3615 177.276 50.586 177.276 54.1427C177.276 58.6295 179.374 60.6152 182.213 60.6152C184.521 60.6152 185.644 59.6223 186.385 58.7174L187.101 59.4715C186.299 60.678 184.62 62.3998 181.361 62.3998C176.621 62.3998 174.029 59.2076 174.029 54.8968C174.029 50.586 176.868 47.2178 181.337 47.2178C184.682 47.2178 186.842 48.8767 186.842 51.4029H186.829Z" fill="#231815"/>
<path d="M202.234 58.7296L202.95 59.4837C202.123 60.6525 200.346 62.412 196.939 62.412C191.94 62.412 189.249 59.2198 189.249 54.909C189.249 50.5982 192.026 47.23 196.556 47.23C200.704 47.23 203.271 49.8818 203.271 54.5571H192.495C192.557 58.805 194.742 60.64 197.852 60.64C200.247 60.64 201.457 59.6471 202.234 58.7422V58.7296ZM199.877 53.2752C199.877 51.4025 199.729 48.336 196.507 48.336C193.754 48.336 192.755 50.7741 192.545 53.2752H199.889H199.877Z" fill="#231815"/>
</g>
<defs>
<clipPath id="clip0_454_1855">
<rect width="249.535" height="67.0625" fill="white"/>
</clipPath>
</defs>
</svg>
