<svg width="172" height="47" viewBox="0 0 172 47" fill="none" xmlns="http://www.w3.org/2000/svg">
<g clip-path="url(#clip0_410_225)">
<path d="M67.4128 27.5935L1.05859 13.917L0.000341308 19.4197L66.3545 33.0963L67.4128 27.5935Z" fill="#2D3B44"/>
<path d="M33.0879 0V47H38.5076V0H33.0879Z" fill="#2D3B44"/>
<path d="M24.3702 43.9997L51.5527 6.35547L47.2119 2.99606L20.0294 40.6403L24.3702 43.9997Z" fill="#2D3B44"/>
<path d="M51.5517 40.6452L24.3691 3.00098L20.0283 6.36038L47.2109 44.0046L51.5517 40.6452Z" fill="#2D3B44"/>
<path d="M80.1033 6.41221V17.1141C80.6563 17.2197 81.4306 17.2197 81.941 17.2197C84.5275 17.2197 85.7782 15.8897 86.059 12.9566H86.646V18.171H76.0449V17.5545C77.3892 17.4488 77.7976 17.2197 77.7976 15.8633V6.41221C77.7976 5.06458 77.3892 4.82676 76.0449 4.72106V4.10449H81.839V4.72106C80.4947 4.82676 80.1033 5.05577 80.1033 6.41221Z" fill="#2D3B44"/>
<path d="M87.9316 17.6429C89.0973 17.4491 89.3185 17.1144 89.3185 15.5906V10.5612C89.3185 9.03736 89.0973 8.70265 87.9316 8.50888V7.98039H91.42V15.5818C91.42 17.1056 91.6412 17.4403 92.8068 17.6341V18.1626H87.9316V17.6341V17.6429ZM90.3565 3.49707C91.1307 3.49707 91.7263 4.13125 91.7263 4.91517C91.7263 5.69909 91.1307 6.33328 90.3565 6.33328C89.5822 6.33328 88.9866 5.71671 88.9866 4.91517C88.9866 4.11364 89.5992 3.49707 90.3565 3.49707Z" fill="#2D3B44"/>
<path d="M94.6778 18.1709V5.86597C94.6778 4.32455 94.4736 3.98984 93.291 3.79606V3.26758H96.7793V9.11615C97.3749 8.31462 98.3278 7.74209 99.7742 7.74209C102.122 7.74209 104.02 9.61822 104.02 12.9741C104.02 16.33 102.003 18.3999 99.3318 18.3999C98.1662 18.3999 97.2303 17.889 96.6772 17.2372L95.5116 18.1621H94.6778V18.1709ZM98.9064 17.431C100.744 17.431 101.782 15.7222 101.782 13.1679C101.782 10.6135 100.685 8.90476 98.9064 8.90476C98.047 8.90476 97.2303 9.34517 96.7879 10.1467V16.2683C97.1962 16.9642 97.9875 17.431 98.9064 17.431Z" fill="#2D3B44"/>
<path d="M114.689 15.8277L115.182 16.3561C114.612 17.1753 113.387 18.4084 111.039 18.4084C107.593 18.4084 105.738 16.1712 105.738 13.15C105.738 10.1288 107.653 7.76825 110.775 7.76825C113.634 7.76825 115.403 9.62676 115.403 12.9034H107.976C108.018 15.8805 109.524 17.1665 111.668 17.1665C113.319 17.1665 114.153 16.4706 114.689 15.8365V15.8277ZM113.055 12.0049C113.055 10.6925 112.953 8.54336 110.733 8.54336C108.835 8.54336 108.146 10.2521 108.001 12.0049H113.064H113.055ZM112.221 3.39062H114.161V3.7958L110.937 6.43823H109.941L112.23 3.39943L112.221 3.39062Z" fill="#2D3B44"/>
<path d="M123.129 7.7598C124.21 7.7598 124.737 8.5173 124.737 9.40692C124.737 10.1644 124.312 10.825 123.571 10.825C122.984 10.825 122.695 10.4903 122.55 10.1028C122.406 9.72401 122.261 9.42453 121.734 9.42453C121.164 9.42453 120.636 9.84732 120.143 10.6489V15.5902C120.143 17.114 120.389 17.4487 121.691 17.6425V18.171H116.654V17.6425C117.82 17.4487 118.041 17.114 118.041 15.5902V10.5608C118.041 9.03698 117.82 8.70227 116.654 8.50849V7.98001H120.143L120.083 9.64474C120.696 8.78154 121.963 7.74219 123.12 7.74219L123.129 7.7598Z" fill="#2D3B44"/>
<path d="M131.892 12.1726V10.9923C131.892 9.30118 131.339 8.54369 129.978 8.54369C129.042 8.54369 128.429 8.92243 128.429 9.46854C128.429 9.80324 128.778 10.0146 128.778 10.5255C128.778 11.0716 128.31 11.6882 127.51 11.6882C126.591 11.6882 126.209 10.9307 126.209 10.2525C126.209 8.94005 127.51 7.75977 130.08 7.75977C132.139 7.75977 133.994 8.34991 133.994 11.283V16.1979C133.994 16.9378 134.257 17.2989 134.853 17.2989C135.057 17.2989 135.278 17.2373 135.508 17.1052L135.712 17.572C135.023 18.1445 134.308 18.3911 133.534 18.3911C132.641 18.3911 132.088 17.845 132.028 16.8321C131.475 17.616 130.395 18.3911 128.804 18.3911C126.923 18.3911 125.664 17.3782 125.664 15.6078C125.664 13.3089 128.174 12.2695 131.901 12.1638L131.892 12.1726ZM127.919 15.4933C127.919 16.7 128.608 17.3077 129.612 17.3077C130.692 17.3077 131.526 16.5502 131.892 15.7839V12.9565C129.28 12.9389 127.919 13.8197 127.919 15.4933Z" fill="#2D3B44"/>
<path d="M138.868 4.70314H139.438V7.99737H142.127V8.88699H139.438V15.5988C139.438 16.779 139.889 17.2018 140.663 17.2018C141.234 17.2018 141.787 16.8847 142.169 16.3386L142.637 16.7614C141.982 17.7303 141.004 18.4085 139.677 18.4085C138.043 18.4085 137.328 17.4573 137.328 15.6604V8.87818H135.678V8.39374C137.558 7.95333 138.409 6.89636 138.86 4.69434L138.868 4.70314Z" fill="#2D3B44"/>
<path d="M143.105 17.6429C144.271 17.4491 144.492 17.1144 144.492 15.5906V10.5612C144.492 9.03736 144.271 8.70265 143.105 8.50888V7.98039H146.594V15.5818C146.594 17.1056 146.815 17.4403 147.981 17.6341V18.1626H143.105V17.6341V17.6429ZM145.539 3.49707C146.313 3.49707 146.909 4.13125 146.909 4.91517C146.909 5.69909 146.313 6.33328 145.539 6.33328C144.765 6.33328 144.169 5.71671 144.169 4.91517C144.169 4.11364 144.782 3.49707 145.539 3.49707Z" fill="#2D3B44"/>
<path d="M159.382 13.0799C159.382 16.2684 157.442 18.3999 154.26 18.3999C151.078 18.3999 149.121 16.2684 149.121 13.0799C149.121 9.89132 151.061 7.75977 154.26 7.75977C157.459 7.75977 159.382 9.91775 159.382 13.0799ZM154.26 17.6248C156.2 17.6248 157.119 15.9161 157.119 13.0887C157.119 10.2613 156.2 8.55249 154.26 8.55249C152.32 8.55249 151.384 10.2613 151.384 13.0887C151.384 15.9161 152.303 17.6248 154.26 17.6248Z" fill="#2D3B44"/>
<path d="M165.66 17.6425V18.171H160.785V17.6425C161.951 17.4487 162.172 17.114 162.172 15.5902V10.5608C162.172 9.03696 161.951 8.70225 160.785 8.50847V7.97999H164.273V9.35405C165.167 8.38516 166.418 7.75098 167.745 7.75098C169.625 7.75098 170.621 8.74629 170.621 11.1509V15.5814C170.621 17.1052 170.842 17.4399 172.007 17.6337V18.1621H167.132V17.6337C168.298 17.4399 168.519 17.1052 168.519 15.5814V11.1509C168.519 9.59187 167.949 8.9753 166.826 8.9753C165.703 8.9753 164.809 9.77684 164.273 10.4991V15.5902C164.273 17.114 164.495 17.4487 165.66 17.6425Z" fill="#2D3B44"/>
<path d="M77.7976 41.2041V31.7442C77.7976 30.3966 77.3892 30.1588 76.0449 30.0531V29.4365H86.7141V33.911H86.1015C85.8378 31.3126 84.9019 30.3878 81.7794 30.3878C81.388 30.3878 80.6989 30.3878 80.1033 30.4935V35.6022H81.2008C83.5065 35.6022 83.9745 34.7566 84.0596 32.9862H84.6466V39.2576H84.0596C83.9745 37.4871 83.5065 36.6592 81.2008 36.6592H80.1033V41.1953C80.1033 42.543 80.4947 42.7808 81.839 42.8865V43.5031H76.0449V42.8865C77.3892 42.7808 77.7976 42.5518 77.7976 41.1953V41.2041Z" fill="#2D3B44"/>
<path d="M94.4981 33.0918C95.5786 33.0918 96.1061 33.8493 96.1061 34.7389C96.1061 35.4964 95.6807 36.1571 94.9405 36.1571C94.3535 36.1571 94.0642 35.8223 93.9196 35.4348C93.7749 35.056 93.6303 34.7566 93.1028 34.7566C92.5327 34.7566 92.0052 35.1794 91.5118 35.9809V40.9222C91.5118 42.446 91.7585 42.7807 93.0602 42.9745V43.503H88.0234V42.9745C89.189 42.7807 89.4103 42.446 89.4103 40.9222V35.8928C89.4103 34.369 89.189 34.0343 88.0234 33.8405V33.312H91.5118L91.4522 34.9768C92.0648 34.1136 93.3325 33.0742 94.4896 33.0742L94.4981 33.0918Z" fill="#2D3B44"/>
<path d="M103.271 37.5047V36.3244C103.271 34.6332 102.718 33.8757 101.357 33.8757C100.421 33.8757 99.8081 34.2545 99.8081 34.8006C99.8081 35.1353 100.157 35.3467 100.157 35.8575C100.157 36.4036 99.689 37.0202 98.8892 37.0202C97.9704 37.0202 97.5875 36.2627 97.5875 35.5845C97.5875 34.2721 98.8892 33.0918 101.459 33.0918C103.518 33.0918 105.372 33.6819 105.372 36.615V41.53C105.372 42.2698 105.636 42.631 106.232 42.631C106.436 42.631 106.657 42.5693 106.887 42.4372L107.091 42.904C106.402 43.4765 105.687 43.7232 104.913 43.7232C104.02 43.7232 103.467 43.1771 103.407 42.1641C102.854 42.9481 101.773 43.7232 100.182 43.7232C98.3022 43.7232 97.043 42.7102 97.043 40.9398C97.043 38.6409 99.5529 37.6015 103.279 37.4958L103.271 37.5047ZM99.2891 40.8253C99.2891 42.032 99.9783 42.6398 100.982 42.6398C102.063 42.6398 102.897 41.8823 103.262 41.116V38.2886C100.65 38.271 99.2891 39.1518 99.2891 40.8253Z" fill="#2D3B44"/>
<path d="M112.459 42.9745V43.503H107.584V42.9745C108.75 42.7807 108.971 42.446 108.971 40.9222V35.8928C108.971 34.369 108.75 34.0343 107.584 33.8405V33.312H111.072V34.6861C111.966 33.7172 113.216 33.083 114.544 33.083C116.424 33.083 117.419 34.0783 117.419 36.4829V40.9134C117.419 42.4372 117.641 42.7719 118.806 42.9657V43.4942H113.931V42.9657C115.097 42.7719 115.318 42.4372 115.318 40.9134V36.4829C115.318 34.9239 114.748 34.3073 113.625 34.3073C112.502 34.3073 111.608 35.1089 111.072 35.8311V40.9222C111.072 42.446 111.294 42.7807 112.459 42.9745Z" fill="#2D3B44"/>
<path d="M128.778 36.0249C128.778 37.0202 128.267 37.6896 127.408 37.6896C126.676 37.6896 126.081 37.1611 126.081 36.3772C126.081 35.5933 126.694 35.4259 126.694 34.8182C126.694 34.2104 126.021 33.8933 125.085 33.8933C123.35 33.8933 122.193 35.4524 122.193 37.9451C122.193 41.0895 123.639 42.4812 125.596 42.4812C127.187 42.4812 127.961 41.7854 128.472 41.1512L128.965 41.6797C128.412 42.5253 127.255 43.732 125.009 43.732C121.742 43.732 119.955 41.4947 119.955 38.4735C119.955 35.4524 121.912 33.0918 124.992 33.0918C127.298 33.0918 128.786 34.2545 128.786 36.0249H128.778Z" fill="#2D3B44"/>
<path d="M139.396 41.16L139.889 41.6885C139.319 42.5076 138.094 43.7408 135.746 43.7408C132.3 43.7408 130.445 41.5035 130.445 38.4823C130.445 35.4612 132.36 33.1006 135.482 33.1006C138.341 33.1006 140.111 34.9591 140.111 38.2357H132.683C132.725 41.2128 134.231 42.4988 136.375 42.4988C138.026 42.4988 138.86 41.803 139.396 41.1688V41.16ZM137.771 37.3373C137.771 36.0249 137.669 33.8757 135.448 33.8757C133.551 33.8757 132.862 35.5845 132.717 37.3373H137.779H137.771Z" fill="#2D3B44"/>
</g>
<defs>
<clipPath id="clip0_410_225">
<rect width="172" height="47" fill="white"/>
</clipPath>
</defs>
</svg>
