<svg width="1100" height="1083" viewBox="0 0 1100 1083" fill="none" xmlns="http://www.w3.org/2000/svg">
<g filter="url(#filter0_d_196_143)">
<path d="M1035.86 933.331C1055.06 933.331 1065.19 901.331 1067.86 885.331L1090.36 989.331C1092.36 1028.16 1077.56 1096.23 1002.36 1057.83C908.357 1009.83 1011.86 933.331 1035.86 933.331Z" fill="#54C0FF"/>
<path d="M1035.86 933.331C1055.06 933.331 1065.19 901.331 1067.86 885.331L1090.36 989.331C1092.36 1028.16 1077.56 1096.23 1002.36 1057.83C908.357 1009.83 1011.86 933.331 1035.86 933.331Z" stroke="#54C0FF" stroke-width="10"/>
</g>
<g filter="url(#filter1_d_196_143)">
<path d="M632.357 577.33C596.357 536.93 640.69 550.83 667.357 562.83C676.023 562.83 703.756 565.73 745.356 577.33C797.356 591.83 842.356 556.33 869.356 548.83C896.356 541.33 906.356 625.33 883.856 672.33C861.356 719.33 910.856 768.33 937.356 775.83C963.856 783.33 946.856 827.33 917.356 820.83C893.756 815.63 861.856 911.33 837.356 901.83C797.19 902.83 710.456 892.23 684.856 841.83C652.856 778.83 674.856 741.83 684.856 718.33C694.856 694.83 677.357 627.83 632.357 577.33Z" fill="#FF54FC"/>
<path d="M632.357 577.33C596.357 536.93 640.69 550.83 667.357 562.83C676.023 562.83 703.756 565.73 745.356 577.33C797.356 591.83 842.356 556.33 869.356 548.83C896.356 541.33 906.356 625.33 883.856 672.33C861.356 719.33 910.856 768.33 937.356 775.83C963.856 783.33 946.856 827.33 917.356 820.83C893.756 815.63 861.856 911.33 837.356 901.83C797.19 902.83 710.456 892.23 684.856 841.83C652.856 778.83 674.856 741.83 684.856 718.33C694.856 694.83 677.357 627.83 632.357 577.33Z" stroke="#FF54FC" stroke-width="10"/>
</g>
<g filter="url(#filter2_d_196_143)">
<path d="M655.356 714.33C673.756 660.33 620.023 588.497 595.856 555.33C571.19 525.33 538.356 475.33 521.856 493.33C507.251 509.264 480.19 530.664 455.356 540.33C408.856 547.33 412.356 552.33 412.356 552.33C412.356 552.33 342.856 639.83 300.856 639.83C289.023 635.664 267.856 632.93 277.856 655.33C290.356 683.33 255.356 822.33 250.856 822.33C246.356 822.33 234.356 830.33 232.356 867.83C230.756 897.83 324.356 929.33 371.356 941.33C374.856 946.83 421.356 906.83 455.356 946.83C489.356 986.83 598.356 960.83 583.856 946.83C582.523 941.997 585.056 923.83 605.856 889.83C626.656 855.83 680.356 861.83 665.856 841.83C654.69 821.83 636.956 768.33 655.356 714.33Z" fill="#54FFFF"/>
<path d="M655.356 714.33C673.756 660.33 620.023 588.497 595.856 555.33C571.19 525.33 538.356 475.33 521.856 493.33C507.251 509.264 480.19 530.664 455.356 540.33C408.856 547.33 412.356 552.33 412.356 552.33C412.356 552.33 342.856 639.83 300.856 639.83C289.023 635.664 267.856 632.93 277.856 655.33C290.356 683.33 255.356 822.33 250.856 822.33C246.356 822.33 234.356 830.33 232.356 867.83C230.756 897.83 324.356 929.33 371.356 941.33C374.856 946.83 421.356 906.83 455.356 946.83C489.356 986.83 598.356 960.83 583.856 946.83C582.523 941.997 585.056 923.83 605.856 889.83C626.656 855.83 680.356 861.83 665.856 841.83C654.69 821.83 636.956 768.33 655.356 714.33Z" stroke="#54FFFF" stroke-width="10"/>
</g>
<g filter="url(#filter3_d_196_143)">
<path d="M974.356 278.83C998.356 235.23 827.356 187.831 842.856 202.83C853.856 267.33 802.356 271.83 756.856 286.33C720.456 297.93 736.356 302.497 748.856 303.33C755.523 307.33 769.956 317.63 774.356 326.83C779.856 338.33 766.856 380.33 740.856 380.33C720.056 380.33 722.523 420.33 726.356 440.33C734.69 457.164 737.957 495.73 684.357 515.33C630.757 534.93 650.69 543.497 667.357 545.33C680.023 539.664 706.457 533.03 710.857 551.83C716.357 575.33 833.856 549.83 817.856 537.33C801.856 524.83 878.356 433.83 906.356 426.83C928.756 421.23 932.023 408.164 930.856 402.33C935.356 379.33 950.356 322.43 974.356 278.83Z" fill="#6554FF"/>
<path d="M974.356 278.83C998.356 235.23 827.356 187.831 842.856 202.83C853.856 267.33 802.356 271.83 756.856 286.33C720.456 297.93 736.356 302.497 748.856 303.33C755.523 307.33 769.956 317.63 774.356 326.83C779.856 338.33 766.856 380.33 740.856 380.33C720.056 380.33 722.523 420.33 726.356 440.33C734.69 457.164 737.957 495.73 684.357 515.33C630.757 534.93 650.69 543.497 667.357 545.33C680.023 539.664 706.457 533.03 710.857 551.83C716.357 575.33 833.856 549.83 817.856 537.33C801.856 524.83 878.356 433.83 906.356 426.83C928.756 421.23 932.023 408.164 930.856 402.33C935.356 379.33 950.356 322.43 974.356 278.83Z" stroke="#6554FF" stroke-width="10"/>
</g>
<g filter="url(#filter4_d_196_143)">
<path d="M444.855 277.331C403.255 275.331 369.521 223.164 357.855 197.33C356.273 193.83 335.633 191.105 397.855 149.83C448.356 116.33 457.855 149.83 471.855 50.8305C479.972 -6.57259 558.355 2.33047 559.355 16.8305C560.155 28.4305 603.356 63.8304 632.855 77.3305C649.356 83.8304 676.356 124.831 678.855 124.831C726.038 124.831 750.355 149.997 756.855 166.33C766.188 169.497 794.029 183.811 811.356 187.33C843.358 193.83 809.356 246.83 784.855 257.33C744.022 278.664 660.755 312.531 654.355 277.331C646.355 233.331 571.355 234.33 562.355 233.33C553.355 232.33 496.855 279.831 444.855 277.331Z" fill="#FFD754"/>
<path d="M444.855 277.331C403.255 275.331 369.521 223.164 357.855 197.33C356.273 193.83 335.633 191.105 397.855 149.83C448.356 116.33 457.855 149.83 471.855 50.8305C479.972 -6.57259 558.355 2.33047 559.355 16.8305C560.155 28.4305 603.356 63.8304 632.855 77.3305C649.356 83.8304 676.356 124.831 678.855 124.831C726.038 124.831 750.355 149.997 756.855 166.33C766.188 169.497 794.029 183.811 811.356 187.33C843.358 193.83 809.356 246.83 784.855 257.33C744.022 278.664 660.755 312.531 654.355 277.331C646.355 233.331 571.355 234.33 562.355 233.33C553.355 232.33 496.855 279.831 444.855 277.331Z" stroke="#FFD754" stroke-width="12"/>
</g>
<g filter="url(#filter5_d_196_143)">
<path d="M424.356 298.331C456.356 324.731 533.19 278.664 565.856 251.331C629.456 256.131 634.856 275.634 634.856 287.331C634.856 294.831 632.356 314.554 695.856 315.831C795.356 317.831 730.356 359.331 716.356 368.831C702.356 378.331 704.356 423.831 705.856 456.831C707.356 489.831 656.356 496.831 625.856 521.331C595.356 545.831 553.356 470.831 536.856 463.831C520.356 456.831 488.856 504.831 454.856 521.331C420.856 537.831 379.356 496.831 348.856 470.831C318.356 444.831 378.356 441.331 387.856 408.831C395.456 382.831 370.689 359.664 357.356 351.331C366.356 322.664 392.356 271.931 424.356 298.331Z" fill="#3E9537"/>
<path d="M424.356 298.331C456.356 324.731 533.19 278.664 565.856 251.331C629.456 256.131 634.856 275.634 634.856 287.331C634.856 294.831 632.356 314.554 695.856 315.831C795.356 317.831 730.356 359.331 716.356 368.831C702.356 378.331 704.356 423.831 705.856 456.831C707.356 489.831 656.356 496.831 625.856 521.331C595.356 545.831 553.356 470.831 536.856 463.831C520.356 456.831 488.856 504.831 454.856 521.331C420.856 537.831 379.356 496.831 348.856 470.831C318.356 444.831 378.356 441.331 387.856 408.831C395.456 382.831 370.689 359.664 357.356 351.331C366.356 322.664 392.356 271.931 424.356 298.331Z" stroke="#3E9537" stroke-width="12"/>
</g>
<g filter="url(#filter6_d_196_143)">
<path d="M346.856 369.831C318.356 346.831 366.69 287.331 386.356 279.331C397.356 274.856 346.456 219.531 336.856 210.331C324.856 198.831 306.356 213.831 260.856 191.331C215.356 168.831 221.856 189.831 238.856 227.831C255.856 265.831 247.356 283.331 238.856 295.831C230.356 308.331 147.856 309.331 130.356 295.831C116.356 285.031 103.856 282.997 99.3564 283.331C85.3564 287.497 50.7564 297.231 24.3564 302.831C-8.64362 309.831 21.3564 348.331 24.3564 363.331C27.3564 378.331 113.856 414.331 122.856 411.831C130.056 409.831 155.856 422.664 167.856 429.331C187.356 451.997 232.056 510.731 254.856 564.331C283.356 631.331 268.856 591.831 294.856 615.331C320.856 638.831 411.856 537.331 391.356 536.831C374.957 536.431 359.19 517.331 353.357 507.831C327.357 496.331 286.656 466.331 331.857 438.331C388.357 403.331 373.189 391.081 346.856 369.831Z" fill="#FF5F54"/>
<path d="M346.856 369.831C318.356 346.831 366.69 287.331 386.356 279.331C397.356 274.856 346.456 219.531 336.856 210.331C324.856 198.831 306.356 213.831 260.856 191.331C215.356 168.831 221.856 189.831 238.856 227.831C255.856 265.831 247.356 283.331 238.856 295.831C230.356 308.331 147.856 309.331 130.356 295.831C116.356 285.031 103.856 282.997 99.3564 283.331C85.3564 287.497 50.7564 297.231 24.3564 302.831C-8.64362 309.831 21.3564 348.331 24.3564 363.331C27.3564 378.331 113.856 414.331 122.856 411.831C130.056 409.831 155.856 422.664 167.856 429.331C187.356 451.997 232.056 510.731 254.856 564.331C283.356 631.331 268.856 591.831 294.856 615.331C320.856 638.831 411.856 537.331 391.356 536.831C374.957 536.431 359.19 517.331 353.357 507.831C327.357 496.331 286.656 466.331 331.857 438.331C388.357 403.331 373.189 391.081 346.856 369.831Z" stroke="#FF5F54" stroke-width="10"/>
</g>
<defs>
<filter id="filter0_d_196_143" x="954.599" y="884.273" width="144.927" height="197.922" filterUnits="userSpaceOnUse" color-interpolation-filters="sRGB">
<feFlood flood-opacity="0" result="BackgroundImageFix"/>
<feColorMatrix in="SourceAlpha" type="matrix" values="0 0 0 0 0 0 0 0 0 0 0 0 0 0 0 0 0 0 127 0" result="hardAlpha"/>
<feOffset dy="4"/>
<feGaussianBlur stdDeviation="2"/>
<feComposite in2="hardAlpha" operator="out"/>
<feColorMatrix type="matrix" values="0 0 0 0 0 0 0 0 0 0 0 0 0 0 0 0 0 0 0.25 0"/>
<feBlend mode="normal" in2="BackgroundImageFix" result="effect1_dropShadow_196_143"/>
<feBlend mode="normal" in="SourceGraphic" in2="effect1_dropShadow_196_143" result="shape"/>
</filter>
<filter id="filter1_d_196_143" x="609.838" y="543.36" width="349.688" height="372.136" filterUnits="userSpaceOnUse" color-interpolation-filters="sRGB">
<feFlood flood-opacity="0" result="BackgroundImageFix"/>
<feColorMatrix in="SourceAlpha" type="matrix" values="0 0 0 0 0 0 0 0 0 0 0 0 0 0 0 0 0 0 127 0" result="hardAlpha"/>
<feOffset dy="4"/>
<feGaussianBlur stdDeviation="2"/>
<feComposite in2="hardAlpha" operator="out"/>
<feColorMatrix type="matrix" values="0 0 0 0 0 0 0 0 0 0 0 0 0 0 0 0 0 0 0.25 0"/>
<feBlend mode="normal" in2="BackgroundImageFix" result="effect1_dropShadow_196_143"/>
<feBlend mode="normal" in="SourceGraphic" in2="effect1_dropShadow_196_143" result="shape"/>
</filter>
<filter id="filter2_d_196_143" x="223.336" y="484.521" width="453.972" height="496.624" filterUnits="userSpaceOnUse" color-interpolation-filters="sRGB">
<feFlood flood-opacity="0" result="BackgroundImageFix"/>
<feColorMatrix in="SourceAlpha" type="matrix" values="0 0 0 0 0 0 0 0 0 0 0 0 0 0 0 0 0 0 127 0" result="hardAlpha"/>
<feOffset dy="4"/>
<feGaussianBlur stdDeviation="2"/>
<feComposite in2="hardAlpha" operator="out"/>
<feColorMatrix type="matrix" values="0 0 0 0 0 0 0 0 0 0 0 0 0 0 0 0 0 0 0.25 0"/>
<feBlend mode="normal" in2="BackgroundImageFix" result="effect1_dropShadow_196_143"/>
<feBlend mode="normal" in="SourceGraphic" in2="effect1_dropShadow_196_143" result="shape"/>
</filter>
<filter id="filter3_d_196_143" x="640.495" y="194.999" width="345.175" height="379.428" filterUnits="userSpaceOnUse" color-interpolation-filters="sRGB">
<feFlood flood-opacity="0" result="BackgroundImageFix"/>
<feColorMatrix in="SourceAlpha" type="matrix" values="0 0 0 0 0 0 0 0 0 0 0 0 0 0 0 0 0 0 127 0" result="hardAlpha"/>
<feOffset dy="4"/>
<feGaussianBlur stdDeviation="2"/>
<feComposite in2="hardAlpha" operator="out"/>
<feColorMatrix type="matrix" values="0 0 0 0 0 0 0 0 0 0 0 0 0 0 0 0 0 0 0.25 0"/>
<feBlend mode="normal" in2="BackgroundImageFix" result="effect1_dropShadow_196_143"/>
<feBlend mode="normal" in="SourceGraphic" in2="effect1_dropShadow_196_143" result="shape"/>
</filter>
<filter id="filter4_d_196_143" x="343.322" y="0" width="491.064" height="306.585" filterUnits="userSpaceOnUse" color-interpolation-filters="sRGB">
<feFlood flood-opacity="0" result="BackgroundImageFix"/>
<feColorMatrix in="SourceAlpha" type="matrix" values="0 0 0 0 0 0 0 0 0 0 0 0 0 0 0 0 0 0 127 0" result="hardAlpha"/>
<feOffset dy="4"/>
<feGaussianBlur stdDeviation="2"/>
<feComposite in2="hardAlpha" operator="out"/>
<feColorMatrix type="matrix" values="0 0 0 0 0 0 0 0 0 0 0 0 0 0 0 0 0 0 0.25 0"/>
<feBlend mode="normal" in2="BackgroundImageFix" result="effect1_dropShadow_196_143"/>
<feBlend mode="normal" in="SourceGraphic" in2="effect1_dropShadow_196_143" result="shape"/>
</filter>
<filter id="filter5_d_196_143" x="330.269" y="245.164" width="429.876" height="295.063" filterUnits="userSpaceOnUse" color-interpolation-filters="sRGB">
<feFlood flood-opacity="0" result="BackgroundImageFix"/>
<feColorMatrix in="SourceAlpha" type="matrix" values="0 0 0 0 0 0 0 0 0 0 0 0 0 0 0 0 0 0 127 0" result="hardAlpha"/>
<feOffset dy="4"/>
<feGaussianBlur stdDeviation="2"/>
<feComposite in2="hardAlpha" operator="out"/>
<feColorMatrix type="matrix" values="0 0 0 0 0 0 0 0 0 0 0 0 0 0 0 0 0 0 0.25 0"/>
<feBlend mode="normal" in2="BackgroundImageFix" result="effect1_dropShadow_196_143"/>
<feBlend mode="normal" in="SourceGraphic" in2="effect1_dropShadow_196_143" result="shape"/>
</filter>
<filter id="filter6_d_196_143" x="0" y="177.079" width="403.337" height="454.781" filterUnits="userSpaceOnUse" color-interpolation-filters="sRGB">
<feFlood flood-opacity="0" result="BackgroundImageFix"/>
<feColorMatrix in="SourceAlpha" type="matrix" values="0 0 0 0 0 0 0 0 0 0 0 0 0 0 0 0 0 0 127 0" result="hardAlpha"/>
<feOffset dy="4"/>
<feGaussianBlur stdDeviation="2"/>
<feComposite in2="hardAlpha" operator="out"/>
<feColorMatrix type="matrix" values="0 0 0 0 0 0 0 0 0 0 0 0 0 0 0 0 0 0 0.25 0"/>
<feBlend mode="normal" in2="BackgroundImageFix" result="effect1_dropShadow_196_143"/>
<feBlend mode="normal" in="SourceGraphic" in2="effect1_dropShadow_196_143" result="shape"/>
</filter>
</defs>
</svg>
