<svg width="431" height="296" viewBox="0 0 431 296" fill="none" xmlns="http://www.w3.org/2000/svg">
<g filter="url(#filter0_d_71_185)">
<path d="M94.3561 53.3306C126.356 79.7306 203.19 33.6639 235.856 6.33057C299.456 11.1306 304.856 30.6343 304.856 42.3306C304.856 49.8306 302.356 69.5542 365.856 70.8306C465.356 72.8306 400.356 114.331 386.356 123.831C372.356 133.331 374.356 178.831 375.856 211.831C377.356 244.831 326.356 251.831 295.856 276.331C265.356 300.831 223.356 225.831 206.856 218.831C190.356 211.831 158.856 259.831 124.856 276.331C90.8564 292.831 49.3561 251.831 18.8561 225.831C-11.6439 199.831 48.3561 196.331 57.8561 163.831C65.4561 137.831 40.6895 114.664 27.3561 106.331C36.3561 77.6639 62.3561 26.9306 94.3561 53.3306Z" fill="#3E9537"/>
<path d="M94.3561 53.3306C126.356 79.7306 203.19 33.6639 235.856 6.33057C299.456 11.1306 304.856 30.6343 304.856 42.3306C304.856 49.8306 302.356 69.5542 365.856 70.8306C465.356 72.8306 400.356 114.331 386.356 123.831C372.356 133.331 374.356 178.831 375.856 211.831C377.356 244.831 326.356 251.831 295.856 276.331C265.356 300.831 223.356 225.831 206.856 218.831C190.356 211.831 158.856 259.831 124.856 276.331C90.8564 292.831 49.3561 251.831 18.8561 225.831C-11.6439 199.831 48.3561 196.331 57.8561 163.831C65.4561 137.831 40.6895 114.664 27.3561 106.331C36.3561 77.6639 62.3561 26.9306 94.3561 53.3306Z" stroke="#3E9537" stroke-width="12"/>
</g>
<defs>
<filter id="filter0_d_71_185" x="0.268555" y="0.164062" width="429.876" height="295.063" filterUnits="userSpaceOnUse" color-interpolation-filters="sRGB">
<feFlood flood-opacity="0" result="BackgroundImageFix"/>
<feColorMatrix in="SourceAlpha" type="matrix" values="0 0 0 0 0 0 0 0 0 0 0 0 0 0 0 0 0 0 127 0" result="hardAlpha"/>
<feOffset dy="4"/>
<feGaussianBlur stdDeviation="2"/>
<feComposite in2="hardAlpha" operator="out"/>
<feColorMatrix type="matrix" values="0 0 0 0 0 0 0 0 0 0 0 0 0 0 0 0 0 0 0.25 0"/>
<feBlend mode="normal" in2="BackgroundImageFix" result="effect1_dropShadow_71_185"/>
<feBlend mode="normal" in="SourceGraphic" in2="effect1_dropShadow_71_185" result="shape"/>
</filter>
</defs>
</svg>
