<svg width="455" height="498" viewBox="0 0 455 498" fill="none" xmlns="http://www.w3.org/2000/svg">
<g filter="url(#filter0_d_71_182)">
<path d="M432.356 230.33C450.756 176.33 397.023 104.497 372.856 71.3304C348.19 41.3304 315.356 -8.66967 298.856 9.33045C284.251 25.2639 257.19 46.6636 232.356 56.3303C185.856 63.3303 189.356 68.3303 189.356 68.3303C189.356 68.3303 119.856 155.83 77.8564 155.83C66.0231 151.664 44.8564 148.93 54.8564 171.33C67.3564 199.33 32.3564 338.33 27.8564 338.33C23.3564 338.33 11.3562 346.33 9.35619 383.83C7.75619 413.83 101.356 445.33 148.356 457.33C151.856 462.83 198.356 422.83 232.356 462.83C266.356 502.83 375.356 476.83 360.856 462.83C359.523 457.997 362.056 439.83 382.856 405.83C403.656 371.83 457.356 377.83 442.856 357.83C431.69 337.83 413.956 284.33 432.356 230.33Z" fill="#54FFFF"/>
<path d="M432.356 230.33C450.756 176.33 397.023 104.497 372.856 71.3304C348.19 41.3304 315.356 -8.66967 298.856 9.33045C284.251 25.2639 257.19 46.6636 232.356 56.3303C185.856 63.3303 189.356 68.3303 189.356 68.3303C189.356 68.3303 119.856 155.83 77.8564 155.83C66.0231 151.664 44.8564 148.93 54.8564 171.33C67.3564 199.33 32.3564 338.33 27.8564 338.33C23.3564 338.33 11.3562 346.33 9.35619 383.83C7.75619 413.83 101.356 445.33 148.356 457.33C151.856 462.83 198.356 422.83 232.356 462.83C266.356 502.83 375.356 476.83 360.856 462.83C359.523 457.997 362.056 439.83 382.856 405.83C403.656 371.83 457.356 377.83 442.856 357.83C431.69 337.83 413.956 284.33 432.356 230.33Z" stroke="#54FFFF" stroke-width="10"/>
</g>
<defs>
<filter id="filter0_d_71_182" x="0.335938" y="0.520508" width="453.972" height="496.624" filterUnits="userSpaceOnUse" color-interpolation-filters="sRGB">
<feFlood flood-opacity="0" result="BackgroundImageFix"/>
<feColorMatrix in="SourceAlpha" type="matrix" values="0 0 0 0 0 0 0 0 0 0 0 0 0 0 0 0 0 0 127 0" result="hardAlpha"/>
<feOffset dy="4"/>
<feGaussianBlur stdDeviation="2"/>
<feComposite in2="hardAlpha" operator="out"/>
<feColorMatrix type="matrix" values="0 0 0 0 0 0 0 0 0 0 0 0 0 0 0 0 0 0 0.25 0"/>
<feBlend mode="normal" in2="BackgroundImageFix" result="effect1_dropShadow_71_182"/>
<feBlend mode="normal" in="SourceGraphic" in2="effect1_dropShadow_71_182" result="shape"/>
</filter>
</defs>
</svg>
