<svg width="492" height="307" viewBox="0 0 492 307" fill="none" xmlns="http://www.w3.org/2000/svg">
<g filter="url(#filter0_d_71_184)">
<path d="M101.855 277.331C60.2547 275.331 26.5214 223.164 14.8547 197.33C13.2731 193.83 -7.36743 191.105 54.8547 149.83C105.356 116.33 114.855 149.83 128.855 50.8305C136.972 -6.57259 215.355 2.33047 216.355 16.8305C217.155 28.4305 260.356 63.8304 289.855 77.3305C306.356 83.8304 333.356 124.831 335.855 124.831C383.038 124.831 407.355 149.997 413.855 166.33C423.188 169.497 451.029 183.811 468.356 187.33C500.358 193.83 466.356 246.83 441.855 257.33C401.022 278.664 317.755 312.531 311.355 277.331C303.355 233.331 228.355 234.33 219.355 233.33C210.355 232.33 153.855 279.831 101.855 277.331Z" fill="#FFD754"/>
<path d="M101.855 277.331C60.2547 275.331 26.5214 223.164 14.8547 197.33C13.2731 193.83 -7.36743 191.105 54.8547 149.83C105.356 116.33 114.855 149.83 128.855 50.8305C136.972 -6.57259 215.355 2.33047 216.355 16.8305C217.155 28.4305 260.356 63.8304 289.855 77.3305C306.356 83.8304 333.356 124.831 335.855 124.831C383.038 124.831 407.355 149.997 413.855 166.33C423.188 169.497 451.029 183.811 468.356 187.33C500.358 193.83 466.356 246.83 441.855 257.33C401.022 278.664 317.755 312.531 311.355 277.331C303.355 233.331 228.355 234.33 219.355 233.33C210.355 232.33 153.855 279.831 101.855 277.331Z" stroke="#FFD754" stroke-width="12"/>
</g>
<defs>
<filter id="filter0_d_71_184" x="0.322266" y="0" width="491.064" height="306.585" filterUnits="userSpaceOnUse" color-interpolation-filters="sRGB">
<feFlood flood-opacity="0" result="BackgroundImageFix"/>
<feColorMatrix in="SourceAlpha" type="matrix" values="0 0 0 0 0 0 0 0 0 0 0 0 0 0 0 0 0 0 127 0" result="hardAlpha"/>
<feOffset dy="4"/>
<feGaussianBlur stdDeviation="2"/>
<feComposite in2="hardAlpha" operator="out"/>
<feColorMatrix type="matrix" values="0 0 0 0 0 0 0 0 0 0 0 0 0 0 0 0 0 0 0.25 0"/>
<feBlend mode="normal" in2="BackgroundImageFix" result="effect1_dropShadow_71_184"/>
<feBlend mode="normal" in="SourceGraphic" in2="effect1_dropShadow_71_184" result="shape"/>
</filter>
</defs>
</svg>
