<svg width="404" height="455" viewBox="0 0 404 455" fill="none" xmlns="http://www.w3.org/2000/svg">
<g filter="url(#filter0_d_71_186)">
<path d="M346.856 192.831C318.356 169.831 366.69 110.331 386.356 102.331C397.356 97.856 346.456 42.5306 336.856 33.3306C324.856 21.8306 306.356 36.8306 260.856 14.3306C215.356 -8.16939 221.856 12.8306 238.856 50.8306C255.856 88.8306 247.356 106.331 238.856 118.831C230.356 131.331 147.856 132.331 130.356 118.831C116.356 108.031 103.856 105.997 99.3564 106.331C85.3564 110.497 50.7564 120.231 24.3564 125.831C-8.64362 132.831 21.3564 171.331 24.3564 186.331C27.3564 201.331 113.856 237.331 122.856 234.831C130.056 232.831 155.856 245.664 167.856 252.331C187.356 274.997 232.056 333.731 254.856 387.331C283.356 454.331 268.856 414.831 294.856 438.331C320.856 461.831 411.856 360.331 391.356 359.831C374.957 359.431 359.19 340.331 353.357 330.831C327.357 319.331 286.656 289.331 331.857 261.331C388.357 226.331 373.189 214.081 346.856 192.831Z" fill="#FF5F54"/>
<path d="M346.856 192.831C318.356 169.831 366.69 110.331 386.356 102.331C397.356 97.856 346.456 42.5306 336.856 33.3306C324.856 21.8306 306.356 36.8306 260.856 14.3306C215.356 -8.16939 221.856 12.8306 238.856 50.8306C255.856 88.8306 247.356 106.331 238.856 118.831C230.356 131.331 147.856 132.331 130.356 118.831C116.356 108.031 103.856 105.997 99.3564 106.331C85.3564 110.497 50.7564 120.231 24.3564 125.831C-8.64362 132.831 21.3564 171.331 24.3564 186.331C27.3564 201.331 113.856 237.331 122.856 234.831C130.056 232.831 155.856 245.664 167.856 252.331C187.356 274.997 232.056 333.731 254.856 387.331C283.356 454.331 268.856 414.831 294.856 438.331C320.856 461.831 411.856 360.331 391.356 359.831C374.957 359.431 359.19 340.331 353.357 330.831C327.357 319.331 286.656 289.331 331.857 261.331C388.357 226.331 373.189 214.081 346.856 192.831Z" stroke="#FF5F54" stroke-width="10"/>
</g>
<defs>
<filter id="filter0_d_71_186" x="0" y="0.0791016" width="403.337" height="454.781" filterUnits="userSpaceOnUse" color-interpolation-filters="sRGB">
<feFlood flood-opacity="0" result="BackgroundImageFix"/>
<feColorMatrix in="SourceAlpha" type="matrix" values="0 0 0 0 0 0 0 0 0 0 0 0 0 0 0 0 0 0 127 0" result="hardAlpha"/>
<feOffset dy="4"/>
<feGaussianBlur stdDeviation="2"/>
<feComposite in2="hardAlpha" operator="out"/>
<feColorMatrix type="matrix" values="0 0 0 0 0 0 0 0 0 0 0 0 0 0 0 0 0 0 0.25 0"/>
<feBlend mode="normal" in2="BackgroundImageFix" result="effect1_dropShadow_71_186"/>
<feBlend mode="normal" in="SourceGraphic" in2="effect1_dropShadow_71_186" result="shape"/>
</filter>
</defs>
</svg>
