<svg width="346" height="380" viewBox="0 0 346 380" fill="none" xmlns="http://www.w3.org/2000/svg">
<g filter="url(#filter0_d_71_183)">
<path d="M334.356 83.8304C358.356 40.2304 187.356 -7.16949 202.856 7.83043C213.856 72.3304 162.356 76.8304 116.856 91.3304C80.4564 102.93 96.3564 107.497 108.856 108.33C115.523 112.33 129.956 122.63 134.356 131.83C139.856 143.33 126.856 185.33 100.856 185.33C80.0564 185.33 82.5231 225.33 86.3564 245.33C94.6898 262.164 97.9565 300.73 44.3565 320.33C-9.24349 339.93 10.6898 348.497 27.3565 350.33C40.0232 344.664 66.4565 338.03 70.8565 356.83C76.3565 380.33 193.856 354.83 177.856 342.33C161.856 329.83 238.356 238.83 266.356 231.83C288.756 226.23 292.023 213.164 290.856 207.33C295.356 184.33 310.356 127.43 334.356 83.8304Z" fill="#6554FF"/>
<path d="M334.356 83.8304C358.356 40.2304 187.356 -7.16949 202.856 7.83043C213.856 72.3304 162.356 76.8304 116.856 91.3304C80.4564 102.93 96.3564 107.497 108.856 108.33C115.523 112.33 129.956 122.63 134.356 131.83C139.856 143.33 126.856 185.33 100.856 185.33C80.0564 185.33 82.5231 225.33 86.3564 245.33C94.6898 262.164 97.9565 300.73 44.3565 320.33C-9.24349 339.93 10.6898 348.497 27.3565 350.33C40.0232 344.664 66.4565 338.03 70.8565 356.83C76.3565 380.33 193.856 354.83 177.856 342.33C161.856 329.83 238.356 238.83 266.356 231.83C288.756 226.23 292.023 213.164 290.856 207.33C295.356 184.33 310.356 127.43 334.356 83.8304Z" stroke="#6554FF" stroke-width="10"/>
</g>
<defs>
<filter id="filter0_d_71_183" x="0.494629" y="-0.00146484" width="345.175" height="379.428" filterUnits="userSpaceOnUse" color-interpolation-filters="sRGB">
<feFlood flood-opacity="0" result="BackgroundImageFix"/>
<feColorMatrix in="SourceAlpha" type="matrix" values="0 0 0 0 0 0 0 0 0 0 0 0 0 0 0 0 0 0 127 0" result="hardAlpha"/>
<feOffset dy="4"/>
<feGaussianBlur stdDeviation="2"/>
<feComposite in2="hardAlpha" operator="out"/>
<feColorMatrix type="matrix" values="0 0 0 0 0 0 0 0 0 0 0 0 0 0 0 0 0 0 0.25 0"/>
<feBlend mode="normal" in2="BackgroundImageFix" result="effect1_dropShadow_71_183"/>
<feBlend mode="normal" in="SourceGraphic" in2="effect1_dropShadow_71_183" result="shape"/>
</filter>
</defs>
</svg>
