<svg width="351" height="373" viewBox="0 0 351 373" fill="none" xmlns="http://www.w3.org/2000/svg">
<g filter="url(#filter0_d_71_181)">
<path d="M23.3567 34.3302C-12.6433 -6.06981 31.6901 7.83019 58.3567 19.8302C67.0233 19.8302 94.7564 22.7302 136.356 34.3302C188.356 48.8302 233.356 13.3302 260.356 5.83018C287.356 -1.66982 297.356 82.3302 274.856 129.33C252.356 176.33 301.856 225.33 328.356 232.83C354.856 240.33 337.856 284.33 308.356 277.83C284.756 272.63 252.856 368.33 228.356 358.83C188.19 359.83 101.456 349.23 75.8564 298.83C43.8564 235.83 65.8564 198.83 75.8564 175.33C85.8564 151.83 68.3567 84.8302 23.3567 34.3302Z" fill="#FF54FC"/>
<path d="M23.3567 34.3302C-12.6433 -6.06981 31.6901 7.83019 58.3567 19.8302C67.0233 19.8302 94.7564 22.7302 136.356 34.3302C188.356 48.8302 233.356 13.3302 260.356 5.83018C287.356 -1.66982 297.356 82.3302 274.856 129.33C252.356 176.33 301.856 225.33 328.356 232.83C354.856 240.33 337.856 284.33 308.356 277.83C284.756 272.63 252.856 368.33 228.356 358.83C188.19 359.83 101.456 349.23 75.8564 298.83C43.8564 235.83 65.8564 198.83 75.8564 175.33C85.8564 151.83 68.3567 84.8302 23.3567 34.3302Z" stroke="#FF54FC" stroke-width="10"/>
</g>
<defs>
<filter id="filter0_d_71_181" x="0.837891" y="0.359863" width="349.688" height="372.136" filterUnits="userSpaceOnUse" color-interpolation-filters="sRGB">
<feFlood flood-opacity="0" result="BackgroundImageFix"/>
<feColorMatrix in="SourceAlpha" type="matrix" values="0 0 0 0 0 0 0 0 0 0 0 0 0 0 0 0 0 0 127 0" result="hardAlpha"/>
<feOffset dy="4"/>
<feGaussianBlur stdDeviation="2"/>
<feComposite in2="hardAlpha" operator="out"/>
<feColorMatrix type="matrix" values="0 0 0 0 0 0 0 0 0 0 0 0 0 0 0 0 0 0 0.25 0"/>
<feBlend mode="normal" in2="BackgroundImageFix" result="effect1_dropShadow_71_181"/>
<feBlend mode="normal" in="SourceGraphic" in2="effect1_dropShadow_71_181" result="shape"/>
</filter>
</defs>
</svg>
