<svg width="203" height="519" viewBox="0 0 203 519" fill="none" xmlns="http://www.w3.org/2000/svg">
<rect width="203" height="519" rx="20" transform="matrix(-1 0 0 1 203 0)" fill="#99BED3" fill-opacity="0.5"/>
<path d="M67.394 489L71.138 480.6H73.058L76.814 489H74.774L71.702 481.584H72.47L69.386 489H67.394ZM69.266 487.2L69.782 485.724H74.102L74.63 487.2H69.266ZM77.5535 489V480.096H79.4255V489H77.5535ZM81.1628 489V480.096H83.0348V489H81.1628ZM87.9762 489.096C87.2402 489.096 86.5922 488.952 86.0322 488.664C85.4802 488.376 85.0522 487.984 84.7482 487.488C84.4442 486.984 84.2922 486.412 84.2922 485.772C84.2922 485.124 84.4402 484.552 84.7362 484.056C85.0402 483.552 85.4522 483.16 85.9722 482.88C86.4922 482.592 87.0802 482.448 87.7362 482.448C88.3682 482.448 88.9362 482.584 89.4402 482.856C89.9522 483.12 90.3562 483.504 90.6522 484.008C90.9482 484.504 91.0962 485.1 91.0962 485.796C91.0962 485.868 91.0922 485.952 91.0842 486.048C91.0762 486.136 91.0682 486.22 91.0602 486.3H85.8162V485.208H90.0762L89.3562 485.532C89.3562 485.196 89.2882 484.904 89.1522 484.656C89.0162 484.408 88.8282 484.216 88.5882 484.08C88.3482 483.936 88.0682 483.864 87.7482 483.864C87.4282 483.864 87.1442 483.936 86.8962 484.08C86.6562 484.216 86.4682 484.412 86.3322 484.668C86.1962 484.916 86.1282 485.212 86.1282 485.556V485.844C86.1282 486.196 86.2042 486.508 86.3562 486.78C86.5162 487.044 86.7362 487.248 87.0162 487.392C87.3042 487.528 87.6402 487.596 88.0242 487.596C88.3682 487.596 88.6682 487.544 88.9242 487.44C89.1882 487.336 89.4282 487.18 89.6442 486.972L90.6402 488.052C90.3442 488.388 89.9722 488.648 89.5242 488.832C89.0762 489.008 88.5602 489.096 87.9762 489.096ZM100.611 482.448C101.123 482.448 101.575 482.552 101.967 482.76C102.367 482.96 102.679 483.272 102.903 483.696C103.135 484.112 103.251 484.648 103.251 485.304V489H101.379V485.592C101.379 485.072 101.271 484.688 101.055 484.44C100.839 484.192 100.535 484.068 100.143 484.068C99.8705 484.068 99.6265 484.132 99.4105 484.26C99.1945 484.38 99.0265 484.564 98.9065 484.812C98.7865 485.06 98.7265 485.376 98.7265 485.76V489H96.8545V485.592C96.8545 485.072 96.7465 484.688 96.5305 484.44C96.3225 484.192 96.0225 484.068 95.6305 484.068C95.3585 484.068 95.1145 484.132 94.8985 484.26C94.6825 484.38 94.5145 484.564 94.3945 484.812C94.2745 485.06 94.2145 485.376 94.2145 485.76V489H92.3425V482.544H94.1305V484.308L93.7945 483.792C94.0185 483.352 94.3345 483.02 94.7425 482.796C95.1585 482.564 95.6305 482.448 96.1585 482.448C96.7505 482.448 97.2665 482.6 97.7065 482.904C98.1545 483.2 98.4505 483.656 98.5945 484.272L97.9345 484.092C98.1505 483.588 98.4945 483.188 98.9665 482.892C99.4465 482.596 99.9945 482.448 100.611 482.448ZM108.888 489V487.74L108.768 487.464V485.208C108.768 484.808 108.644 484.496 108.396 484.272C108.156 484.048 107.784 483.936 107.28 483.936C106.936 483.936 106.596 483.992 106.26 484.104C105.932 484.208 105.652 484.352 105.42 484.536L104.748 483.228C105.1 482.98 105.524 482.788 106.02 482.652C106.516 482.516 107.02 482.448 107.532 482.448C108.516 482.448 109.28 482.68 109.824 483.144C110.368 483.608 110.64 484.332 110.64 485.316V489H108.888ZM106.92 489.096C106.416 489.096 105.984 489.012 105.624 488.844C105.264 488.668 104.988 488.432 104.796 488.136C104.604 487.84 104.508 487.508 104.508 487.14C104.508 486.756 104.6 486.42 104.784 486.132C104.976 485.844 105.276 485.62 105.684 485.46C106.092 485.292 106.624 485.208 107.28 485.208H108.996V486.3H107.484C107.044 486.3 106.74 486.372 106.572 486.516C106.412 486.66 106.332 486.84 106.332 487.056C106.332 487.296 106.424 487.488 106.608 487.632C106.8 487.768 107.06 487.836 107.388 487.836C107.7 487.836 107.98 487.764 108.228 487.62C108.476 487.468 108.656 487.248 108.768 486.96L109.056 487.824C108.92 488.24 108.672 488.556 108.312 488.772C107.952 488.988 107.488 489.096 106.92 489.096ZM116.259 482.448C116.771 482.448 117.227 482.552 117.627 482.76C118.035 482.96 118.355 483.272 118.587 483.696C118.819 484.112 118.935 484.648 118.935 485.304V489H117.063V485.592C117.063 485.072 116.947 484.688 116.715 484.44C116.491 484.192 116.171 484.068 115.755 484.068C115.459 484.068 115.191 484.132 114.951 484.26C114.719 484.38 114.535 484.568 114.399 484.824C114.271 485.08 114.207 485.408 114.207 485.808V489H112.335V482.544H114.123V484.332L113.787 483.792C114.019 483.36 114.351 483.028 114.783 482.796C115.215 482.564 115.707 482.448 116.259 482.448ZM123.45 489.096C122.842 489.096 122.294 488.96 121.806 488.688C121.318 488.408 120.93 488.02 120.642 487.524C120.362 487.028 120.222 486.444 120.222 485.772C120.222 485.092 120.362 484.504 120.642 484.008C120.93 483.512 121.318 483.128 121.806 482.856C122.294 482.584 122.842 482.448 123.45 482.448C123.994 482.448 124.47 482.568 124.878 482.808C125.286 483.048 125.602 483.412 125.826 483.9C126.05 484.388 126.162 485.012 126.162 485.772C126.162 486.524 126.054 487.148 125.838 487.644C125.622 488.132 125.31 488.496 124.902 488.736C124.502 488.976 124.018 489.096 123.45 489.096ZM123.774 487.56C124.078 487.56 124.354 487.488 124.602 487.344C124.85 487.2 125.046 486.996 125.19 486.732C125.342 486.46 125.418 486.14 125.418 485.772C125.418 485.396 125.342 485.076 125.19 484.812C125.046 484.548 124.85 484.344 124.602 484.2C124.354 484.056 124.078 483.984 123.774 483.984C123.462 483.984 123.182 484.056 122.934 484.2C122.686 484.344 122.486 484.548 122.334 484.812C122.19 485.076 122.118 485.396 122.118 485.772C122.118 486.14 122.19 486.46 122.334 486.732C122.486 486.996 122.686 487.2 122.934 487.344C123.182 487.488 123.462 487.56 123.774 487.56ZM125.466 489V487.68L125.502 485.76L125.382 483.852V480.096H127.254V489H125.466ZM131.159 489.096C130.607 489.096 130.075 489.032 129.563 488.904C129.059 488.768 128.659 488.6 128.363 488.4L128.987 487.056C129.283 487.24 129.631 487.392 130.031 487.512C130.439 487.624 130.839 487.68 131.231 487.68C131.663 487.68 131.967 487.628 132.143 487.524C132.327 487.42 132.419 487.276 132.419 487.092C132.419 486.94 132.347 486.828 132.203 486.756C132.067 486.676 131.883 486.616 131.651 486.576C131.419 486.536 131.163 486.496 130.883 486.456C130.611 486.416 130.335 486.364 130.055 486.3C129.775 486.228 129.519 486.124 129.287 485.988C129.055 485.852 128.867 485.668 128.723 485.436C128.587 485.204 128.519 484.904 128.519 484.536C128.519 484.128 128.635 483.768 128.867 483.456C129.107 483.144 129.451 482.9 129.899 482.724C130.347 482.54 130.883 482.448 131.507 482.448C131.947 482.448 132.395 482.496 132.851 482.592C133.307 482.688 133.687 482.828 133.991 483.012L133.367 484.344C133.055 484.16 132.739 484.036 132.419 483.972C132.107 483.9 131.803 483.864 131.507 483.864C131.091 483.864 130.787 483.92 130.595 484.032C130.403 484.144 130.307 484.288 130.307 484.464C130.307 484.624 130.375 484.744 130.511 484.824C130.655 484.904 130.843 484.968 131.075 485.016C131.307 485.064 131.559 485.108 131.831 485.148C132.111 485.18 132.391 485.232 132.671 485.304C132.951 485.376 133.203 485.48 133.427 485.616C133.659 485.744 133.847 485.924 133.991 486.156C134.135 486.38 134.207 486.676 134.207 487.044C134.207 487.444 134.087 487.8 133.847 488.112C133.607 488.416 133.259 488.656 132.803 488.832C132.355 489.008 131.807 489.096 131.159 489.096Z" fill="#333333"/>
<g clip-path="url(#clip0_1498_4441)">
<path d="M100.956 412L107.023 417.958L94.9771 430.009L100.956 435.966L113.093 424.051L131 441.956L125.042 448.023L112.991 435.977L107.034 441.956L118.949 454.093L101.043 472L94.9771 466.042L107.023 453.991L101.043 448.034L88.9057 459.949L71 442.043L76.9579 435.977L89.0085 448.023L94.9664 442.043L83.0506 429.906L100.956 412Z" fill="#2A2A2A"/>
</g>
<path d="M108.32 168.82H111.69V170.08H108.32V168.82ZM108.44 171.7H112.25V173H106.83V166H112.12V167.3H108.44V171.7ZM116.699 167.54C117.126 167.54 117.506 167.627 117.839 167.8C118.179 167.967 118.446 168.227 118.639 168.58C118.832 168.927 118.929 169.373 118.929 169.92V173H117.369V170.16C117.369 169.727 117.272 169.407 117.079 169.2C116.892 168.993 116.626 168.89 116.279 168.89C116.032 168.89 115.809 168.943 115.609 169.05C115.416 169.15 115.262 169.307 115.149 169.52C115.042 169.733 114.989 170.007 114.989 170.34V173H113.429V167.62H114.919V169.11L114.639 168.66C114.832 168.3 115.109 168.023 115.469 167.83C115.829 167.637 116.239 167.54 116.699 167.54ZM121.705 173L119.445 167.62H121.055L122.935 172.25H122.135L124.085 167.62H125.585L123.315 173H121.705ZM126.222 173V167.62H127.782V173H126.222ZM127.002 166.87C126.715 166.87 126.482 166.787 126.302 166.62C126.122 166.453 126.032 166.247 126.032 166C126.032 165.753 126.122 165.547 126.302 165.38C126.482 165.213 126.715 165.13 127.002 165.13C127.289 165.13 127.522 165.21 127.702 165.37C127.882 165.523 127.972 165.723 127.972 165.97C127.972 166.23 127.882 166.447 127.702 166.62C127.529 166.787 127.295 166.87 127.002 166.87ZM129.23 173V167.62H130.72V169.14L130.51 168.7C130.67 168.32 130.926 168.033 131.28 167.84C131.633 167.64 132.063 167.54 132.57 167.54V168.98C132.503 168.973 132.443 168.97 132.39 168.97C132.336 168.963 132.28 168.96 132.22 168.96C131.793 168.96 131.446 169.083 131.18 169.33C130.92 169.57 130.79 169.947 130.79 170.46V173H129.23ZM136.018 173.08C135.445 173.08 134.935 172.96 134.488 172.72C134.048 172.48 133.698 172.153 133.438 171.74C133.185 171.32 133.058 170.843 133.058 170.31C133.058 169.77 133.185 169.293 133.438 168.88C133.698 168.46 134.048 168.133 134.488 167.9C134.935 167.66 135.445 167.54 136.018 167.54C136.585 167.54 137.092 167.66 137.538 167.9C137.985 168.133 138.335 168.457 138.588 168.87C138.842 169.283 138.968 169.763 138.968 170.31C138.968 170.843 138.842 171.32 138.588 171.74C138.335 172.153 137.985 172.48 137.538 172.72C137.092 172.96 136.585 173.08 136.018 173.08ZM136.018 171.8C136.278 171.8 136.512 171.74 136.718 171.62C136.925 171.5 137.088 171.33 137.208 171.11C137.328 170.883 137.388 170.617 137.388 170.31C137.388 169.997 137.328 169.73 137.208 169.51C137.088 169.29 136.925 169.12 136.718 169C136.512 168.88 136.278 168.82 136.018 168.82C135.758 168.82 135.525 168.88 135.318 169C135.112 169.12 134.945 169.29 134.818 169.51C134.698 169.73 134.638 169.997 134.638 170.31C134.638 170.617 134.698 170.883 134.818 171.11C134.945 171.33 135.112 171.5 135.318 171.62C135.525 171.74 135.758 171.8 136.018 171.8ZM143.281 167.54C143.708 167.54 144.088 167.627 144.421 167.8C144.761 167.967 145.028 168.227 145.221 168.58C145.414 168.927 145.511 169.373 145.511 169.92V173H143.951V170.16C143.951 169.727 143.854 169.407 143.661 169.2C143.474 168.993 143.208 168.89 142.861 168.89C142.614 168.89 142.391 168.943 142.191 169.05C141.998 169.15 141.844 169.307 141.731 169.52C141.624 169.733 141.571 170.007 141.571 170.34V173H140.011V167.62H141.501V169.11L141.221 168.66C141.414 168.3 141.691 168.023 142.051 167.83C142.411 167.637 142.821 167.54 143.281 167.54ZM148.735 173.08C148.275 173.08 147.832 173.027 147.405 172.92C146.985 172.807 146.652 172.667 146.405 172.5L146.925 171.38C147.172 171.533 147.462 171.66 147.795 171.76C148.135 171.853 148.468 171.9 148.795 171.9C149.155 171.9 149.408 171.857 149.555 171.77C149.708 171.683 149.785 171.563 149.785 171.41C149.785 171.283 149.725 171.19 149.605 171.13C149.492 171.063 149.338 171.013 149.145 170.98C148.952 170.947 148.738 170.913 148.505 170.88C148.278 170.847 148.048 170.803 147.815 170.75C147.582 170.69 147.368 170.603 147.175 170.49C146.982 170.377 146.825 170.223 146.705 170.03C146.592 169.837 146.535 169.587 146.535 169.28C146.535 168.94 146.632 168.64 146.825 168.38C147.025 168.12 147.312 167.917 147.685 167.77C148.058 167.617 148.505 167.54 149.025 167.54C149.392 167.54 149.765 167.58 150.145 167.66C150.525 167.74 150.842 167.857 151.095 168.01L150.575 169.12C150.315 168.967 150.052 168.863 149.785 168.81C149.525 168.75 149.272 168.72 149.025 168.72C148.678 168.72 148.425 168.767 148.265 168.86C148.105 168.953 148.025 169.073 148.025 169.22C148.025 169.353 148.082 169.453 148.195 169.52C148.315 169.587 148.472 169.64 148.665 169.68C148.858 169.72 149.068 169.757 149.295 169.79C149.528 169.817 149.762 169.86 149.995 169.92C150.228 169.98 150.438 170.067 150.625 170.18C150.818 170.287 150.975 170.437 151.095 170.63C151.215 170.817 151.275 171.063 151.275 171.37C151.275 171.703 151.175 172 150.975 172.26C150.775 172.513 150.485 172.713 150.105 172.86C149.732 173.007 149.275 173.08 148.735 173.08ZM108.646 195V183.48L109.906 184.74H106.126V182.4H111.562V195H108.646ZM117.837 195.216C116.961 195.216 116.091 195.102 115.227 194.874C114.363 194.634 113.631 194.298 113.031 193.866L114.165 191.634C114.645 191.982 115.203 192.258 115.839 192.462C116.475 192.666 117.117 192.768 117.765 192.768C118.497 192.768 119.073 192.624 119.493 192.336C119.913 192.048 120.123 191.652 120.123 191.148C120.123 190.668 119.937 190.29 119.565 190.014C119.193 189.738 118.593 189.6 117.765 189.6H116.433V187.674L119.943 183.696L120.267 184.74H113.661V182.4H122.481V184.29L118.989 188.268L117.513 187.422H118.359C119.907 187.422 121.077 187.77 121.869 188.466C122.661 189.162 123.057 190.056 123.057 191.148C123.057 191.856 122.871 192.522 122.499 193.146C122.127 193.758 121.557 194.256 120.789 194.64C120.021 195.024 119.037 195.216 117.837 195.216ZM126.347 195V183.48L127.607 184.74H123.827V182.4H129.263V195H126.347ZM131.56 197.772L132.748 193.452L133.144 195.072C132.628 195.072 132.202 194.922 131.866 194.622C131.542 194.322 131.38 193.908 131.38 193.38C131.38 192.852 131.548 192.432 131.884 192.12C132.22 191.808 132.634 191.652 133.126 191.652C133.63 191.652 134.044 191.814 134.368 192.138C134.692 192.45 134.854 192.864 134.854 193.38C134.854 193.536 134.842 193.692 134.818 193.848C134.794 193.992 134.746 194.172 134.674 194.388C134.614 194.592 134.512 194.856 134.368 195.18L133.342 197.772H131.56ZM136.231 195V193.11L141.091 188.52C141.475 188.172 141.757 187.86 141.937 187.584C142.117 187.308 142.237 187.056 142.297 186.828C142.369 186.6 142.405 186.39 142.405 186.198C142.405 185.694 142.231 185.31 141.883 185.046C141.547 184.77 141.049 184.632 140.389 184.632C139.861 184.632 139.369 184.734 138.913 184.938C138.469 185.142 138.091 185.46 137.779 185.892L135.655 184.524C136.135 183.804 136.807 183.234 137.671 182.814C138.535 182.394 139.531 182.184 140.659 182.184C141.595 182.184 142.411 182.34 143.107 182.652C143.815 182.952 144.361 183.378 144.745 183.93C145.141 184.482 145.339 185.142 145.339 185.91C145.339 186.318 145.285 186.726 145.177 187.134C145.081 187.53 144.877 187.95 144.565 188.394C144.265 188.838 143.821 189.336 143.233 189.888L139.201 193.686L138.643 192.624H145.753V195H136.231ZM151.24 195.216C150.364 195.216 149.494 195.102 148.63 194.874C147.778 194.634 147.046 194.298 146.434 193.866L147.586 191.634C148.066 191.982 148.618 192.258 149.242 192.462C149.878 192.666 150.52 192.768 151.168 192.768C151.9 192.768 152.476 192.624 152.896 192.336C153.316 192.048 153.526 191.646 153.526 191.13C153.526 190.806 153.442 190.518 153.274 190.266C153.106 190.014 152.806 189.822 152.374 189.69C151.954 189.558 151.36 189.492 150.592 189.492H147.37L148.018 182.4H155.704V184.74H149.062L150.574 183.408L150.124 188.466L148.612 187.134H151.276C152.524 187.134 153.526 187.308 154.282 187.656C155.05 187.992 155.608 188.454 155.956 189.042C156.304 189.63 156.478 190.296 156.478 191.04C156.478 191.784 156.292 192.474 155.92 193.11C155.548 193.734 154.972 194.244 154.192 194.64C153.424 195.024 152.44 195.216 151.24 195.216ZM163.061 195.216C162.029 195.216 161.105 194.964 160.289 194.46C159.473 193.944 158.831 193.2 158.363 192.228C157.895 191.256 157.661 190.08 157.661 188.7C157.661 187.32 157.895 186.144 158.363 185.172C158.831 184.2 159.473 183.462 160.289 182.958C161.105 182.442 162.029 182.184 163.061 182.184C164.105 182.184 165.029 182.442 165.833 182.958C166.649 183.462 167.291 184.2 167.759 185.172C168.227 186.144 168.461 187.32 168.461 188.7C168.461 190.08 168.227 191.256 167.759 192.228C167.291 193.2 166.649 193.944 165.833 194.46C165.029 194.964 164.105 195.216 163.061 195.216ZM163.061 192.75C163.553 192.75 163.979 192.612 164.339 192.336C164.711 192.06 164.999 191.622 165.203 191.022C165.419 190.422 165.527 189.648 165.527 188.7C165.527 187.752 165.419 186.978 165.203 186.378C164.999 185.778 164.711 185.34 164.339 185.064C163.979 184.788 163.553 184.65 163.061 184.65C162.581 184.65 162.155 184.788 161.783 185.064C161.423 185.34 161.135 185.778 160.919 186.378C160.715 186.978 160.613 187.752 160.613 188.7C160.613 189.648 160.715 190.422 160.919 191.022C161.135 191.622 161.423 192.06 161.783 192.336C162.155 192.612 162.581 192.75 163.061 192.75Z" fill="#191919"/>
<path d="M25.391 208V200.3H28.724C29.4134 200.3 30.0074 200.414 30.506 200.641C31.0047 200.861 31.3897 201.18 31.661 201.598C31.9324 202.016 32.068 202.515 32.068 203.094C32.068 203.666 31.9324 204.161 31.661 204.579C31.3897 204.997 31.0047 205.32 30.506 205.547C30.0074 205.767 29.4134 205.877 28.724 205.877H26.381L27.173 205.074V208H25.391ZM27.173 205.272L26.381 204.425H28.625C29.175 204.425 29.5857 204.308 29.857 204.073C30.1284 203.838 30.264 203.512 30.264 203.094C30.264 202.669 30.1284 202.339 29.857 202.104C29.5857 201.869 29.175 201.752 28.625 201.752H26.381L27.173 200.905V205.272ZM33.2085 208V202.082H34.8475V203.754L34.6165 203.27C34.7925 202.852 35.0748 202.537 35.4635 202.324C35.8522 202.104 36.3252 201.994 36.8825 201.994V203.578C36.8092 203.571 36.7432 203.567 36.6845 203.567C36.6258 203.56 36.5635 203.556 36.4975 203.556C36.0282 203.556 35.6468 203.692 35.3535 203.963C35.0675 204.227 34.9245 204.641 34.9245 205.206V208H33.2085ZM37.9136 208V202.082H39.6296V208H37.9136ZM38.7716 201.257C38.4562 201.257 38.1996 201.165 38.0016 200.982C37.8036 200.799 37.7046 200.571 37.7046 200.3C37.7046 200.029 37.8036 199.801 38.0016 199.618C38.1996 199.435 38.4562 199.343 38.7716 199.343C39.0869 199.343 39.3436 199.431 39.5416 199.607C39.7396 199.776 39.8386 199.996 39.8386 200.267C39.8386 200.553 39.7396 200.791 39.5416 200.982C39.3509 201.165 39.0942 201.257 38.7716 201.257ZM43.2132 208.088C42.7072 208.088 42.2195 208.029 41.7502 207.912C41.2882 207.787 40.9215 207.633 40.6502 207.45L41.2222 206.218C41.4935 206.387 41.8125 206.526 42.1792 206.636C42.5532 206.739 42.9198 206.79 43.2792 206.79C43.6752 206.79 43.9538 206.742 44.1152 206.647C44.2838 206.552 44.3682 206.42 44.3682 206.251C44.3682 206.112 44.3022 206.009 44.1702 205.943C44.0455 205.87 43.8768 205.815 43.6642 205.778C43.4515 205.741 43.2168 205.705 42.9602 205.668C42.7108 205.631 42.4578 205.584 42.2012 205.525C41.9445 205.459 41.7098 205.364 41.4972 205.239C41.2845 205.114 41.1122 204.946 40.9802 204.733C40.8555 204.52 40.7932 204.245 40.7932 203.908C40.7932 203.534 40.8995 203.204 41.1122 202.918C41.3322 202.632 41.6475 202.408 42.0582 202.247C42.4688 202.078 42.9602 201.994 43.5322 201.994C43.9355 201.994 44.3462 202.038 44.7642 202.126C45.1822 202.214 45.5305 202.342 45.8092 202.511L45.2372 203.732C44.9512 203.563 44.6615 203.45 44.3682 203.391C44.0822 203.325 43.8035 203.292 43.5322 203.292C43.1508 203.292 42.8722 203.343 42.6962 203.446C42.5202 203.549 42.4322 203.681 42.4322 203.842C42.4322 203.989 42.4945 204.099 42.6192 204.172C42.7512 204.245 42.9235 204.304 43.1362 204.348C43.3488 204.392 43.5798 204.432 43.8292 204.469C44.0858 204.498 44.3425 204.546 44.5992 204.612C44.8558 204.678 45.0868 204.773 45.2922 204.898C45.5048 205.015 45.6772 205.18 45.8092 205.393C45.9412 205.598 46.0072 205.87 46.0072 206.207C46.0072 206.574 45.8972 206.9 45.6772 207.186C45.4572 207.465 45.1382 207.685 44.7202 207.846C44.3095 208.007 43.8072 208.088 43.2132 208.088ZM49.8819 208.088C49.2513 208.088 48.6903 207.956 48.1989 207.692C47.7149 207.428 47.3299 207.069 47.0439 206.614C46.7653 206.152 46.6259 205.628 46.6259 205.041C46.6259 204.447 46.7653 203.923 47.0439 203.468C47.3299 203.006 47.7149 202.647 48.1989 202.39C48.6903 202.126 49.2513 201.994 49.8819 201.994C50.5053 201.994 51.0626 202.126 51.5539 202.39C52.0453 202.647 52.4303 203.002 52.7089 203.457C52.9876 203.912 53.1269 204.44 53.1269 205.041C53.1269 205.628 52.9876 206.152 52.7089 206.614C52.4303 207.069 52.0453 207.428 51.5539 207.692C51.0626 207.956 50.5053 208.088 49.8819 208.088ZM49.8819 206.68C50.1679 206.68 50.4246 206.614 50.6519 206.482C50.8793 206.35 51.0589 206.163 51.1909 205.921C51.3229 205.672 51.3889 205.378 51.3889 205.041C51.3889 204.696 51.3229 204.403 51.1909 204.161C51.0589 203.919 50.8793 203.732 50.6519 203.6C50.4246 203.468 50.1679 203.402 49.8819 203.402C49.5959 203.402 49.3393 203.468 49.1119 203.6C48.8846 203.732 48.7013 203.919 48.5619 204.161C48.4299 204.403 48.3639 204.696 48.3639 205.041C48.3639 205.378 48.4299 205.672 48.5619 205.921C48.7013 206.163 48.8846 206.35 49.1119 206.482C49.3393 206.614 49.5959 206.68 49.8819 206.68ZM57.8709 201.994C58.3403 201.994 58.7583 202.089 59.1249 202.28C59.4989 202.463 59.7923 202.749 60.0049 203.138C60.2176 203.519 60.3239 204.011 60.3239 204.612V208H58.6079V204.876C58.6079 204.399 58.5016 204.047 58.2889 203.82C58.0836 203.593 57.7903 203.479 57.4089 203.479C57.1376 203.479 56.8919 203.538 56.6719 203.655C56.4593 203.765 56.2906 203.937 56.1659 204.172C56.0486 204.407 55.9899 204.707 55.9899 205.074V208H54.2739V202.082H55.9129V203.721L55.6049 203.226C55.8176 202.83 56.1219 202.526 56.5179 202.313C56.9139 202.1 57.3649 201.994 57.8709 201.994ZM65.4764 201.994C65.9457 201.994 66.3637 202.089 66.7304 202.28C67.1044 202.463 67.3977 202.749 67.6104 203.138C67.8231 203.519 67.9294 204.011 67.9294 204.612V208H66.2134V204.876C66.2134 204.399 66.1071 204.047 65.8944 203.82C65.6891 203.593 65.3957 203.479 65.0144 203.479C64.7431 203.479 64.4974 203.538 64.2774 203.655C64.0647 203.765 63.8961 203.937 63.7714 204.172C63.6541 204.407 63.5954 204.707 63.5954 205.074V208H61.8794V202.082H63.5184V203.721L63.2104 203.226C63.4231 202.83 63.7274 202.526 64.1234 202.313C64.5194 202.1 64.9704 201.994 65.4764 201.994ZM69.4849 208V202.082H71.2009V208H69.4849ZM70.3429 201.257C70.0275 201.257 69.7709 201.165 69.5729 200.982C69.3749 200.799 69.2759 200.571 69.2759 200.3C69.2759 200.029 69.3749 199.801 69.5729 199.618C69.7709 199.435 70.0275 199.343 70.3429 199.343C70.6582 199.343 70.9149 199.431 71.1129 199.607C71.3109 199.776 71.4099 199.996 71.4099 200.267C71.4099 200.553 71.3109 200.791 71.1129 200.982C70.9222 201.165 70.6655 201.257 70.3429 201.257ZM75.7305 208.088C75.0558 208.088 74.4618 207.956 73.9485 207.692C73.4425 207.428 73.0501 207.069 72.7715 206.614C72.4928 206.152 72.3535 205.628 72.3535 205.041C72.3535 204.447 72.4891 203.923 72.7605 203.468C73.0391 203.006 73.4168 202.647 73.8935 202.39C74.3701 202.126 74.9091 201.994 75.5105 201.994C76.0898 201.994 76.6105 202.119 77.0725 202.368C77.5418 202.61 77.9121 202.962 78.1835 203.424C78.4548 203.879 78.5905 204.425 78.5905 205.063C78.5905 205.129 78.5868 205.206 78.5795 205.294C78.5721 205.375 78.5648 205.452 78.5575 205.525H73.7505V204.524H77.6555L76.9955 204.821C76.9955 204.513 76.9331 204.245 76.8085 204.018C76.6838 203.791 76.5115 203.615 76.2915 203.49C76.0715 203.358 75.8148 203.292 75.5215 203.292C75.2281 203.292 74.9678 203.358 74.7405 203.49C74.5205 203.615 74.3481 203.794 74.2235 204.029C74.0988 204.256 74.0365 204.528 74.0365 204.843V205.107C74.0365 205.43 74.1061 205.716 74.2455 205.965C74.3921 206.207 74.5938 206.394 74.8505 206.526C75.1145 206.651 75.4225 206.713 75.7745 206.713C76.0898 206.713 76.3648 206.665 76.5995 206.57C76.8415 206.475 77.0615 206.332 77.2595 206.141L78.1725 207.131C77.9011 207.439 77.5601 207.677 77.1495 207.846C76.7388 208.007 76.2658 208.088 75.7305 208.088ZM79.7329 208V202.082H81.3719V203.754L81.1409 203.27C81.3169 202.852 81.5993 202.537 81.9879 202.324C82.3766 202.104 82.8496 201.994 83.4069 201.994V203.578C83.3336 203.571 83.2676 203.567 83.2089 203.567C83.1503 203.56 83.0879 203.556 83.0219 203.556C82.5526 203.556 82.1713 203.692 81.8779 203.963C81.5919 204.227 81.4489 204.641 81.4489 205.206V208H79.7329ZM86.4612 208.088C85.9552 208.088 85.4676 208.029 84.9982 207.912C84.5362 207.787 84.1696 207.633 83.8982 207.45L84.4702 206.218C84.7416 206.387 85.0606 206.526 85.4272 206.636C85.8012 206.739 86.1679 206.79 86.5272 206.79C86.9232 206.79 87.2019 206.742 87.3632 206.647C87.5319 206.552 87.6162 206.42 87.6162 206.251C87.6162 206.112 87.5502 206.009 87.4182 205.943C87.2936 205.87 87.1249 205.815 86.9122 205.778C86.6996 205.741 86.4649 205.705 86.2082 205.668C85.9589 205.631 85.7059 205.584 85.4492 205.525C85.1926 205.459 84.9579 205.364 84.7452 205.239C84.5326 205.114 84.3602 204.946 84.2282 204.733C84.1036 204.52 84.0412 204.245 84.0412 203.908C84.0412 203.534 84.1476 203.204 84.3602 202.918C84.5802 202.632 84.8956 202.408 85.3062 202.247C85.7169 202.078 86.2082 201.994 86.7802 201.994C87.1836 201.994 87.5942 202.038 88.0122 202.126C88.4302 202.214 88.7786 202.342 89.0572 202.511L88.4852 203.732C88.1992 203.563 87.9096 203.45 87.6162 203.391C87.3302 203.325 87.0516 203.292 86.7802 203.292C86.3989 203.292 86.1202 203.343 85.9442 203.446C85.7682 203.549 85.6802 203.681 85.6802 203.842C85.6802 203.989 85.7426 204.099 85.8672 204.172C85.9992 204.245 86.1716 204.304 86.3842 204.348C86.5969 204.392 86.8279 204.432 87.0772 204.469C87.3339 204.498 87.5906 204.546 87.8472 204.612C88.1039 204.678 88.3349 204.773 88.5402 204.898C88.7529 205.015 88.9252 205.18 89.0572 205.393C89.1892 205.598 89.2552 205.87 89.2552 206.207C89.2552 206.574 89.1452 206.9 88.9252 207.186C88.7052 207.465 88.3862 207.685 87.9682 207.846C87.5576 208.007 87.0552 208.088 86.4612 208.088Z" fill="#191919"/>
<g clip-path="url(#clip1_1498_4441)">
<path d="M59.1289 180.984C59.3847 180.984 59.6405 180.933 59.8707 180.856C59.9986 180.779 60.1265 180.677 60.28 180.652C60.7404 180.575 61.252 180.728 61.6869 180.652L63.2473 189.886C63.5542 190.807 64.9611 190.449 64.782 189.477L63.2984 180.6L71.2793 180.114C72.0979 182.544 72.8141 185 73.6327 187.43C73.7606 187.814 73.9396 188.581 74.1443 188.888C74.5791 189.528 75.807 189.221 75.6023 188.351L72.8397 179.884C72.8397 179.68 73.1467 179.552 73.2746 179.398C74.3489 178.221 74.2722 176.789 73.1211 175.715C73.3769 175.331 73.6583 175.05 73.7606 174.564C74.0931 173.31 73.5304 172.364 72.5327 171.673C72.9164 170.803 73.3001 169.959 73.6838 169.089C73.8885 168.552 74.3489 167.734 74.5535 167.197C75.1419 165.636 76.1139 163.513 76.4976 161.927C77.1883 159.062 75.4488 157.962 73.6327 156.223C72.7118 155.353 70.6654 153.102 69.4887 153C68.2097 152.897 67.2633 153.486 66.7261 154.586C65.2425 153.537 63.0682 154.202 62.6589 155.993C60.6381 155.558 59.001 156.76 59.1545 158.832C58.4382 159.267 58.0034 159.83 57.9522 160.648C57.8755 161.825 57.9522 164.076 58.1057 165.278C58.1313 165.559 58.2592 166.02 58.3871 166.25C58.515 166.506 58.7196 166.608 58.8731 166.838C58.7196 167.58 58.6685 168.296 58.694 168.987C58.694 169.806 58.8475 170.624 59.0777 171.468C58.4382 171.468 57.7732 171.673 57.2872 172.108C56.7244 171.75 56.1105 171.52 55.4454 171.468C55.6756 170.65 55.8291 169.806 55.8547 168.987C55.8803 168.194 55.8035 167.401 55.5989 166.583C55.7268 166.352 55.9314 166.225 56.0593 165.969C56.1616 165.713 56.264 165.252 56.2895 164.971C56.3919 163.769 56.3919 161.518 56.2895 160.341C56.2128 159.497 55.7524 158.96 55.0361 158.551C55.1129 156.453 53.4758 155.327 51.5061 155.839C51.0457 154.048 48.897 153.46 47.4901 154.56C46.9017 153.562 45.9553 153 44.7019 153.153C43.5508 153.281 41.6067 155.609 40.7881 156.479C39.0743 158.269 37.4116 159.42 38.2046 162.285C38.6394 163.846 39.5603 165.943 40.1998 167.504C40.4044 168.041 40.6602 168.552 40.8905 169.089C41.2742 169.985 41.6834 170.88 42.0416 171.801C40.5579 172.619 40.2765 174.564 41.4532 175.791C40.3021 176.84 40.251 178.273 41.2997 179.424C41.4021 179.552 41.709 179.705 41.709 179.833C40.9672 182.033 40.2765 184.207 39.5603 186.407C39.3557 187.047 38.8697 187.993 38.972 188.632C39.0743 189.374 40.251 189.349 40.5068 188.684L43.2438 180.191L51.2247 180.652L49.6388 189.528C49.6388 190.423 50.9178 190.704 51.1991 189.758C51.3526 189.272 51.4549 188.581 51.5828 188.044C52.0689 185.614 52.3247 183.133 52.913 180.728L53.0153 180.677C53.2967 180.728 53.6548 180.575 53.9106 180.626C54.0897 180.652 54.2687 180.754 54.4222 180.831C54.6268 180.933 54.8315 181.01 55.0617 181.086C55.471 181.214 55.8803 181.061 56.2128 180.831C56.4686 180.652 56.7244 180.421 56.9035 180.14C56.9802 180.012 57.0569 179.859 57.1081 179.705C57.1337 179.603 57.2104 179.424 57.1848 179.321C57.5174 180.063 58.1313 180.831 59.001 180.959C59.0522 180.959 59.1289 180.959 59.1801 180.959L59.1289 180.984ZM52.9386 178.324V179.091C50.4573 179.066 47.9761 178.784 45.4948 178.605C44.7019 178.554 43.781 178.605 42.988 178.503C41.9904 178.375 41.8369 177.147 42.7322 176.763C43.2438 176.533 43.7554 176.687 44.267 176.712C47.2598 176.815 50.2527 177.173 53.2455 177.403C53.1432 177.633 52.9386 178.094 52.9386 178.324ZM53.5525 175.843C50.4573 175.715 47.2343 175.203 44.1135 174.998C43.4229 174.947 42.6811 175.177 42.3997 174.308C42.195 173.643 42.5276 173.233 43.1671 173.131L52.8874 174.001C53.0153 174.666 53.2455 175.357 53.7571 175.843C53.7571 175.894 53.6292 175.868 53.5781 175.868L53.5525 175.843ZM53.2711 172.415L43.8833 171.52C43.7554 171.494 43.1415 170.164 42.6555 169.038C42.3485 168.348 42.0927 167.759 42.016 167.58C41.2742 165.815 40.3789 163.667 39.7905 161.85C39.4324 160.699 39.765 160.009 40.5068 159.164C41.5811 157.937 43.0392 156.479 44.2158 155.353C44.7274 154.867 45.2135 154.611 45.853 155.097C46.3134 155.43 46.2111 155.788 45.8785 156.197C44.9832 157.323 43.7042 158.32 42.809 159.471C42.4253 160.111 42.6811 160.929 43.5252 160.827C43.8833 160.776 44.5995 159.983 44.8809 159.676C46.1088 158.397 47.2598 156.99 48.59 155.839C49.562 155.404 50.4317 156.479 49.7923 157.323C48.9225 158.448 47.5668 159.497 46.6459 160.623C46.339 160.981 46.1088 161.339 46.3901 161.799C46.6459 162.285 47.1831 162.311 47.618 162.004C48.1296 161.62 48.8202 160.725 49.3062 160.213C50.0481 159.446 50.841 158.525 51.6084 157.809C52.6316 156.837 53.7827 157.911 53.1944 159.011C52.3502 160.009 51.2247 160.929 50.4062 161.902C50.0992 162.285 49.869 162.643 50.176 163.104C50.4318 163.487 50.9178 163.564 51.3015 163.334L54.2687 160.341C54.3966 160.188 54.678 160.418 54.678 160.52V161.825C54.678 162.925 54.1408 163.897 53.6292 164.869C53.6292 164.894 53.6037 164.946 53.5781 164.997C53.4502 165.687 54.0641 167.043 54.192 167.81C54.2687 168.245 54.2687 168.629 54.2431 169.013C54.192 170.189 53.7827 171.238 53.2967 172.364L53.2711 172.415ZM54.985 179.321C54.1664 178.81 54.7292 177.787 55.3175 177.352C55.4198 177.352 56.5453 178.554 56.5453 178.707C56.2128 179.321 55.6756 179.756 54.9594 179.321H54.985ZM58.9498 179.398C58.7964 179.347 57.8499 177.991 57.6708 177.761C56.8523 176.789 55.7779 175.868 55.0361 174.845C54.5757 174.231 54.0385 173.208 55.2919 173.131C56.2128 173.08 57.3639 174.436 57.9522 175.101C58.6429 175.868 60.1009 177.556 59.9475 178.631C59.8963 179.014 59.4103 179.526 58.9754 179.398H58.9498ZM59.4103 174.947C59.1545 174.64 58.3359 174.001 58.2848 173.617C58.2592 173.412 58.6685 173.208 58.8475 173.182C59.1033 173.131 59.2056 173.182 59.4359 173.259C60.3567 173.617 59.973 174.41 59.4359 174.922L59.4103 174.947ZM71.5607 178.401C69.4632 178.759 67.0842 178.656 64.9611 178.938L61.5334 179.04C61.6357 178.401 61.5334 177.838 61.3288 177.224L64.9355 177.07C66.854 176.994 68.8492 176.636 70.7422 176.533C71.4584 176.482 71.9956 176.456 72.3025 177.198C72.6095 177.889 72.2514 178.273 71.5863 178.375L71.5607 178.401ZM61.0474 175.638C61.3799 175.126 61.6101 174.512 61.5846 173.873L70.5631 173.08C71.4328 173.08 72.3537 172.926 72.1746 174.103C72.0467 174.947 71.2282 174.794 70.6143 174.87C68.926 175.075 67.2377 175.28 65.5494 175.408L61.0474 175.612V175.638ZM71.8677 169.064C71.6886 169.473 71.5095 169.882 71.3049 170.292C71.2026 170.522 70.7933 171.366 70.6398 171.443C68.619 171.622 66.5982 171.878 64.5774 172.031C63.5542 172.108 62.5054 172.236 61.4822 172.287C61.3799 172.287 61.2264 172.287 61.1241 172.287C60.6893 171.34 60.4079 170.317 60.3312 169.269C60.3056 168.885 60.3056 168.501 60.3312 168.066C60.4335 167.273 60.9962 165.918 60.8427 165.227C60.8427 165.176 60.8172 165.125 60.7916 165.099C60.2288 164.153 59.6405 163.206 59.5893 162.081L59.5382 160.776C59.5382 160.776 59.794 160.418 59.9475 160.571L63.0938 163.462C63.5031 163.667 63.9891 163.59 64.2449 163.206C64.5518 162.72 64.296 162.388 63.9635 162.029C63.0938 161.083 61.8915 160.188 60.9962 159.241C60.3312 158.167 61.4822 157.067 62.5566 157.988C63.3496 158.678 64.1937 159.574 64.9867 160.29C65.4983 160.776 66.2145 161.671 66.7517 162.004C67.1866 162.285 67.7493 162.234 68.0051 161.748C68.2609 161.262 68.0051 160.929 67.6981 160.571C66.7261 159.497 65.2936 158.499 64.3728 157.374C63.7077 156.581 64.5518 155.455 65.5494 155.865C66.9563 156.965 68.1586 158.346 69.4887 159.574C69.7957 159.855 70.5375 160.648 70.9212 160.674C71.7909 160.725 72.0211 159.906 71.6119 159.292C70.6398 158.167 69.3353 157.22 68.3632 156.12C68.0307 155.737 67.8772 155.404 68.3632 155.021C69.0027 154.509 69.5143 154.765 70.0515 155.225C71.3049 156.3 72.8141 157.706 73.9652 158.883C74.7582 159.702 75.1163 160.392 74.7838 161.543C74.2722 163.36 73.3769 165.585 72.5839 167.35C72.4304 167.734 72.0979 168.373 71.8165 169.064H71.8677Z" fill="#2A2A2A"/>
</g>
<path d="M108.32 253.82H111.69V255.08H108.32V253.82ZM108.44 256.7H112.25V258H106.83V251H112.12V252.3H108.44V256.7ZM116.699 252.54C117.126 252.54 117.506 252.627 117.839 252.8C118.179 252.967 118.446 253.227 118.639 253.58C118.832 253.927 118.929 254.373 118.929 254.92V258H117.369V255.16C117.369 254.727 117.272 254.407 117.079 254.2C116.892 253.993 116.626 253.89 116.279 253.89C116.032 253.89 115.809 253.943 115.609 254.05C115.416 254.15 115.262 254.307 115.149 254.52C115.042 254.733 114.989 255.007 114.989 255.34V258H113.429V252.62H114.919V254.11L114.639 253.66C114.832 253.3 115.109 253.023 115.469 252.83C115.829 252.637 116.239 252.54 116.699 252.54ZM121.705 258L119.445 252.62H121.055L122.935 257.25H122.135L124.085 252.62H125.585L123.315 258H121.705ZM126.222 258V252.62H127.782V258H126.222ZM127.002 251.87C126.715 251.87 126.482 251.787 126.302 251.62C126.122 251.453 126.032 251.247 126.032 251C126.032 250.753 126.122 250.547 126.302 250.38C126.482 250.213 126.715 250.13 127.002 250.13C127.289 250.13 127.522 250.21 127.702 250.37C127.882 250.523 127.972 250.723 127.972 250.97C127.972 251.23 127.882 251.447 127.702 251.62C127.529 251.787 127.295 251.87 127.002 251.87ZM129.23 258V252.62H130.72V254.14L130.51 253.7C130.67 253.32 130.926 253.033 131.28 252.84C131.633 252.64 132.063 252.54 132.57 252.54V253.98C132.503 253.973 132.443 253.97 132.39 253.97C132.336 253.963 132.28 253.96 132.22 253.96C131.793 253.96 131.446 254.083 131.18 254.33C130.92 254.57 130.79 254.947 130.79 255.46V258H129.23ZM136.018 258.08C135.445 258.08 134.935 257.96 134.488 257.72C134.048 257.48 133.698 257.153 133.438 256.74C133.185 256.32 133.058 255.843 133.058 255.31C133.058 254.77 133.185 254.293 133.438 253.88C133.698 253.46 134.048 253.133 134.488 252.9C134.935 252.66 135.445 252.54 136.018 252.54C136.585 252.54 137.092 252.66 137.538 252.9C137.985 253.133 138.335 253.457 138.588 253.87C138.842 254.283 138.968 254.763 138.968 255.31C138.968 255.843 138.842 256.32 138.588 256.74C138.335 257.153 137.985 257.48 137.538 257.72C137.092 257.96 136.585 258.08 136.018 258.08ZM136.018 256.8C136.278 256.8 136.512 256.74 136.718 256.62C136.925 256.5 137.088 256.33 137.208 256.11C137.328 255.883 137.388 255.617 137.388 255.31C137.388 254.997 137.328 254.73 137.208 254.51C137.088 254.29 136.925 254.12 136.718 254C136.512 253.88 136.278 253.82 136.018 253.82C135.758 253.82 135.525 253.88 135.318 254C135.112 254.12 134.945 254.29 134.818 254.51C134.698 254.73 134.638 254.997 134.638 255.31C134.638 255.617 134.698 255.883 134.818 256.11C134.945 256.33 135.112 256.5 135.318 256.62C135.525 256.74 135.758 256.8 136.018 256.8ZM143.281 252.54C143.708 252.54 144.088 252.627 144.421 252.8C144.761 252.967 145.028 253.227 145.221 253.58C145.414 253.927 145.511 254.373 145.511 254.92V258H143.951V255.16C143.951 254.727 143.854 254.407 143.661 254.2C143.474 253.993 143.208 253.89 142.861 253.89C142.614 253.89 142.391 253.943 142.191 254.05C141.998 254.15 141.844 254.307 141.731 254.52C141.624 254.733 141.571 255.007 141.571 255.34V258H140.011V252.62H141.501V254.11L141.221 253.66C141.414 253.3 141.691 253.023 142.051 252.83C142.411 252.637 142.821 252.54 143.281 252.54ZM148.735 258.08C148.275 258.08 147.832 258.027 147.405 257.92C146.985 257.807 146.652 257.667 146.405 257.5L146.925 256.38C147.172 256.533 147.462 256.66 147.795 256.76C148.135 256.853 148.468 256.9 148.795 256.9C149.155 256.9 149.408 256.857 149.555 256.77C149.708 256.683 149.785 256.563 149.785 256.41C149.785 256.283 149.725 256.19 149.605 256.13C149.492 256.063 149.338 256.013 149.145 255.98C148.952 255.947 148.738 255.913 148.505 255.88C148.278 255.847 148.048 255.803 147.815 255.75C147.582 255.69 147.368 255.603 147.175 255.49C146.982 255.377 146.825 255.223 146.705 255.03C146.592 254.837 146.535 254.587 146.535 254.28C146.535 253.94 146.632 253.64 146.825 253.38C147.025 253.12 147.312 252.917 147.685 252.77C148.058 252.617 148.505 252.54 149.025 252.54C149.392 252.54 149.765 252.58 150.145 252.66C150.525 252.74 150.842 252.857 151.095 253.01L150.575 254.12C150.315 253.967 150.052 253.863 149.785 253.81C149.525 253.75 149.272 253.72 149.025 253.72C148.678 253.72 148.425 253.767 148.265 253.86C148.105 253.953 148.025 254.073 148.025 254.22C148.025 254.353 148.082 254.453 148.195 254.52C148.315 254.587 148.472 254.64 148.665 254.68C148.858 254.72 149.068 254.757 149.295 254.79C149.528 254.817 149.762 254.86 149.995 254.92C150.228 254.98 150.438 255.067 150.625 255.18C150.818 255.287 150.975 255.437 151.095 255.63C151.215 255.817 151.275 256.063 151.275 256.37C151.275 256.703 151.175 257 150.975 257.26C150.775 257.513 150.485 257.713 150.105 257.86C149.732 258.007 149.275 258.08 148.735 258.08ZM106.594 280V278.11L111.454 273.52C111.838 273.172 112.12 272.86 112.3 272.584C112.48 272.308 112.6 272.056 112.66 271.828C112.732 271.6 112.768 271.39 112.768 271.198C112.768 270.694 112.594 270.31 112.246 270.046C111.91 269.77 111.412 269.632 110.752 269.632C110.224 269.632 109.732 269.734 109.276 269.938C108.832 270.142 108.454 270.46 108.142 270.892L106.018 269.524C106.498 268.804 107.17 268.234 108.034 267.814C108.898 267.394 109.894 267.184 111.022 267.184C111.958 267.184 112.774 267.34 113.47 267.652C114.178 267.952 114.724 268.378 115.108 268.93C115.504 269.482 115.702 270.142 115.702 270.91C115.702 271.318 115.648 271.726 115.54 272.134C115.444 272.53 115.24 272.95 114.928 273.394C114.628 273.838 114.184 274.336 113.596 274.888L109.564 278.686L109.006 277.624H116.116V280H106.594ZM122.719 280.216C121.687 280.216 120.763 279.964 119.947 279.46C119.131 278.944 118.489 278.2 118.021 277.228C117.553 276.256 117.319 275.08 117.319 273.7C117.319 272.32 117.553 271.144 118.021 270.172C118.489 269.2 119.131 268.462 119.947 267.958C120.763 267.442 121.687 267.184 122.719 267.184C123.763 267.184 124.687 267.442 125.491 267.958C126.307 268.462 126.949 269.2 127.417 270.172C127.885 271.144 128.119 272.32 128.119 273.7C128.119 275.08 127.885 276.256 127.417 277.228C126.949 278.2 126.307 278.944 125.491 279.46C124.687 279.964 123.763 280.216 122.719 280.216ZM122.719 277.75C123.211 277.75 123.637 277.612 123.997 277.336C124.369 277.06 124.657 276.622 124.861 276.022C125.077 275.422 125.185 274.648 125.185 273.7C125.185 272.752 125.077 271.978 124.861 271.378C124.657 270.778 124.369 270.34 123.997 270.064C123.637 269.788 123.211 269.65 122.719 269.65C122.239 269.65 121.813 269.788 121.441 270.064C121.081 270.34 120.793 270.778 120.577 271.378C120.373 271.978 120.271 272.752 120.271 273.7C120.271 274.648 120.373 275.422 120.577 276.022C120.793 276.622 121.081 277.06 121.441 277.336C121.813 277.612 122.239 277.75 122.719 277.75ZM129.415 282.772L130.603 278.452L130.999 280.072C130.483 280.072 130.057 279.922 129.721 279.622C129.397 279.322 129.235 278.908 129.235 278.38C129.235 277.852 129.403 277.432 129.739 277.12C130.075 276.808 130.489 276.652 130.981 276.652C131.485 276.652 131.899 276.814 132.223 277.138C132.547 277.45 132.709 277.864 132.709 278.38C132.709 278.536 132.697 278.692 132.673 278.848C132.649 278.992 132.601 279.172 132.529 279.388C132.469 279.592 132.367 279.856 132.223 280.18L131.197 282.772H129.415ZM139.19 280.216C138.158 280.216 137.234 279.964 136.418 279.46C135.602 278.944 134.96 278.2 134.492 277.228C134.024 276.256 133.79 275.08 133.79 273.7C133.79 272.32 134.024 271.144 134.492 270.172C134.96 269.2 135.602 268.462 136.418 267.958C137.234 267.442 138.158 267.184 139.19 267.184C140.234 267.184 141.158 267.442 141.962 267.958C142.778 268.462 143.42 269.2 143.888 270.172C144.356 271.144 144.59 272.32 144.59 273.7C144.59 275.08 144.356 276.256 143.888 277.228C143.42 278.2 142.778 278.944 141.962 279.46C141.158 279.964 140.234 280.216 139.19 280.216ZM139.19 277.75C139.682 277.75 140.108 277.612 140.468 277.336C140.84 277.06 141.128 276.622 141.332 276.022C141.548 275.422 141.656 274.648 141.656 273.7C141.656 272.752 141.548 271.978 141.332 271.378C141.128 270.778 140.84 270.34 140.468 270.064C140.108 269.788 139.682 269.65 139.19 269.65C138.71 269.65 138.284 269.788 137.912 270.064C137.552 270.34 137.264 270.778 137.048 271.378C136.844 271.978 136.742 272.752 136.742 273.7C136.742 274.648 136.844 275.422 137.048 276.022C137.264 276.622 137.552 277.06 137.912 277.336C138.284 277.612 138.71 277.75 139.19 277.75ZM151.407 280.216C150.375 280.216 149.451 279.964 148.635 279.46C147.819 278.944 147.177 278.2 146.709 277.228C146.241 276.256 146.007 275.08 146.007 273.7C146.007 272.32 146.241 271.144 146.709 270.172C147.177 269.2 147.819 268.462 148.635 267.958C149.451 267.442 150.375 267.184 151.407 267.184C152.451 267.184 153.375 267.442 154.179 267.958C154.995 268.462 155.637 269.2 156.105 270.172C156.573 271.144 156.807 272.32 156.807 273.7C156.807 275.08 156.573 276.256 156.105 277.228C155.637 278.2 154.995 278.944 154.179 279.46C153.375 279.964 152.451 280.216 151.407 280.216ZM151.407 277.75C151.899 277.75 152.325 277.612 152.685 277.336C153.057 277.06 153.345 276.622 153.549 276.022C153.765 275.422 153.873 274.648 153.873 273.7C153.873 272.752 153.765 271.978 153.549 271.378C153.345 270.778 153.057 270.34 152.685 270.064C152.325 269.788 151.899 269.65 151.407 269.65C150.927 269.65 150.501 269.788 150.129 270.064C149.769 270.34 149.481 270.778 149.265 271.378C149.061 271.978 148.959 272.752 148.959 273.7C148.959 274.648 149.061 275.422 149.265 276.022C149.481 276.622 149.769 277.06 150.129 277.336C150.501 277.612 150.927 277.75 151.407 277.75ZM163.623 280.216C162.591 280.216 161.667 279.964 160.851 279.46C160.035 278.944 159.393 278.2 158.925 277.228C158.457 276.256 158.223 275.08 158.223 273.7C158.223 272.32 158.457 271.144 158.925 270.172C159.393 269.2 160.035 268.462 160.851 267.958C161.667 267.442 162.591 267.184 163.623 267.184C164.667 267.184 165.591 267.442 166.395 267.958C167.211 268.462 167.853 269.2 168.321 270.172C168.789 271.144 169.023 272.32 169.023 273.7C169.023 275.08 168.789 276.256 168.321 277.228C167.853 278.2 167.211 278.944 166.395 279.46C165.591 279.964 164.667 280.216 163.623 280.216ZM163.623 277.75C164.115 277.75 164.541 277.612 164.901 277.336C165.273 277.06 165.561 276.622 165.765 276.022C165.981 275.422 166.089 274.648 166.089 273.7C166.089 272.752 165.981 271.978 165.765 271.378C165.561 270.778 165.273 270.34 164.901 270.064C164.541 269.788 164.115 269.65 163.623 269.65C163.143 269.65 162.717 269.788 162.345 270.064C161.985 270.34 161.697 270.778 161.481 271.378C161.277 271.978 161.175 272.752 161.175 273.7C161.175 274.648 161.277 275.422 161.481 276.022C161.697 276.622 161.985 277.06 162.345 277.336C162.717 277.612 163.143 277.75 163.623 277.75Z" fill="#191919"/>
<path d="M35.8481 290V282.3H39.6101C40.5781 282.3 41.3041 282.483 41.7881 282.85C42.2794 283.217 42.5251 283.701 42.5251 284.302C42.5251 284.705 42.4261 285.057 42.2281 285.358C42.0301 285.651 41.7587 285.879 41.4141 286.04C41.0694 286.201 40.6734 286.282 40.2261 286.282L40.4351 285.831C40.9191 285.831 41.3481 285.912 41.7221 286.073C42.0961 286.227 42.3857 286.458 42.5911 286.766C42.8037 287.074 42.9101 287.452 42.9101 287.899C42.9101 288.559 42.6497 289.076 42.1291 289.45C41.6084 289.817 40.8421 290 39.8301 290H35.8481ZM37.6191 288.658H39.6981C40.1601 288.658 40.5084 288.585 40.7431 288.438C40.9851 288.284 41.1061 288.042 41.1061 287.712C41.1061 287.389 40.9851 287.151 40.7431 286.997C40.5084 286.836 40.1601 286.755 39.6981 286.755H37.4871V285.457H39.3901C39.8227 285.457 40.1527 285.384 40.3801 285.237C40.6147 285.083 40.7321 284.852 40.7321 284.544C40.7321 284.243 40.6147 284.02 40.3801 283.873C40.1527 283.719 39.8227 283.642 39.3901 283.642H37.6191V288.658ZM44.1382 290V281.838H45.8542V290H44.1382ZM50.3838 290.088C49.7091 290.088 49.1151 289.956 48.6018 289.692C48.0958 289.428 47.7035 289.069 47.4248 288.614C47.1461 288.152 47.0068 287.628 47.0068 287.041C47.0068 286.447 47.1425 285.923 47.4138 285.468C47.6925 285.006 48.0701 284.647 48.5468 284.39C49.0235 284.126 49.5625 283.994 50.1638 283.994C50.7431 283.994 51.2638 284.119 51.7258 284.368C52.1951 284.61 52.5655 284.962 52.8368 285.424C53.1081 285.879 53.2438 286.425 53.2438 287.063C53.2438 287.129 53.2401 287.206 53.2328 287.294C53.2255 287.375 53.2181 287.452 53.2108 287.525H48.4038V286.524H52.3088L51.6488 286.821C51.6488 286.513 51.5865 286.245 51.4618 286.018C51.3371 285.791 51.1648 285.615 50.9448 285.49C50.7248 285.358 50.4681 285.292 50.1748 285.292C49.8815 285.292 49.6211 285.358 49.3938 285.49C49.1738 285.615 49.0015 285.794 48.8768 286.029C48.7521 286.256 48.6898 286.528 48.6898 286.843V287.107C48.6898 287.43 48.7595 287.716 48.8988 287.965C49.0455 288.207 49.2471 288.394 49.5038 288.526C49.7678 288.651 50.0758 288.713 50.4278 288.713C50.7431 288.713 51.0181 288.665 51.2528 288.57C51.4948 288.475 51.7148 288.332 51.9128 288.141L52.8258 289.131C52.5545 289.439 52.2135 289.677 51.8028 289.846C51.3921 290.007 50.9191 290.088 50.3838 290.088ZM56.3772 290.088C55.8712 290.088 55.3836 290.029 54.9142 289.912C54.4522 289.787 54.0856 289.633 53.8142 289.45L54.3862 288.218C54.6576 288.387 54.9766 288.526 55.3432 288.636C55.7172 288.739 56.0839 288.79 56.4432 288.79C56.8392 288.79 57.1179 288.742 57.2792 288.647C57.4479 288.552 57.5322 288.42 57.5322 288.251C57.5322 288.112 57.4662 288.009 57.3342 287.943C57.2096 287.87 57.0409 287.815 56.8282 287.778C56.6156 287.741 56.3809 287.705 56.1242 287.668C55.8749 287.631 55.6219 287.584 55.3652 287.525C55.1086 287.459 54.8739 287.364 54.6612 287.239C54.4486 287.114 54.2762 286.946 54.1442 286.733C54.0196 286.52 53.9572 286.245 53.9572 285.908C53.9572 285.534 54.0636 285.204 54.2762 284.918C54.4962 284.632 54.8116 284.408 55.2222 284.247C55.6329 284.078 56.1242 283.994 56.6962 283.994C57.0996 283.994 57.5102 284.038 57.9282 284.126C58.3462 284.214 58.6946 284.342 58.9732 284.511L58.4012 285.732C58.1152 285.563 57.8256 285.45 57.5322 285.391C57.2462 285.325 56.9676 285.292 56.6962 285.292C56.3149 285.292 56.0362 285.343 55.8602 285.446C55.6842 285.549 55.5962 285.681 55.5962 285.842C55.5962 285.989 55.6586 286.099 55.7832 286.172C55.9152 286.245 56.0876 286.304 56.3002 286.348C56.5129 286.392 56.7439 286.432 56.9932 286.469C57.2499 286.498 57.5066 286.546 57.7632 286.612C58.0199 286.678 58.2509 286.773 58.4562 286.898C58.6689 287.015 58.8412 287.18 58.9732 287.393C59.1052 287.598 59.1712 287.87 59.1712 288.207C59.1712 288.574 59.0612 288.9 58.8412 289.186C58.6212 289.465 58.3022 289.685 57.8842 289.846C57.4736 290.007 56.9712 290.088 56.3772 290.088ZM62.221 290.088C61.715 290.088 61.2273 290.029 60.758 289.912C60.296 289.787 59.9293 289.633 59.658 289.45L60.23 288.218C60.5013 288.387 60.8203 288.526 61.187 288.636C61.561 288.739 61.9277 288.79 62.287 288.79C62.683 288.79 62.9617 288.742 63.123 288.647C63.2917 288.552 63.376 288.42 63.376 288.251C63.376 288.112 63.31 288.009 63.178 287.943C63.0533 287.87 62.8847 287.815 62.672 287.778C62.4593 287.741 62.2247 287.705 61.968 287.668C61.7187 287.631 61.4657 287.584 61.209 287.525C60.9523 287.459 60.7177 287.364 60.505 287.239C60.2923 287.114 60.12 286.946 59.988 286.733C59.8633 286.52 59.801 286.245 59.801 285.908C59.801 285.534 59.9073 285.204 60.12 284.918C60.34 284.632 60.6553 284.408 61.066 284.247C61.4767 284.078 61.968 283.994 62.54 283.994C62.9433 283.994 63.354 284.038 63.772 284.126C64.19 284.214 64.5383 284.342 64.817 284.511L64.245 285.732C63.959 285.563 63.6693 285.45 63.376 285.391C63.09 285.325 62.8113 285.292 62.54 285.292C62.1587 285.292 61.88 285.343 61.704 285.446C61.528 285.549 61.44 285.681 61.44 285.842C61.44 285.989 61.5023 286.099 61.627 286.172C61.759 286.245 61.9313 286.304 62.144 286.348C62.3567 286.392 62.5877 286.432 62.837 286.469C63.0937 286.498 63.3503 286.546 63.607 286.612C63.8637 286.678 64.0947 286.773 64.3 286.898C64.5127 287.015 64.685 287.18 64.817 287.393C64.949 287.598 65.015 287.87 65.015 288.207C65.015 288.574 64.905 288.9 64.685 289.186C64.465 289.465 64.146 289.685 63.728 289.846C63.3173 290.007 62.815 290.088 62.221 290.088ZM69.0107 290.088C68.3361 290.088 67.7421 289.956 67.2287 289.692C66.7227 289.428 66.3304 289.069 66.0517 288.614C65.7731 288.152 65.6337 287.628 65.6337 287.041C65.6337 286.447 65.7694 285.923 66.0407 285.468C66.3194 285.006 66.6971 284.647 67.1737 284.39C67.6504 284.126 68.1894 283.994 68.7907 283.994C69.3701 283.994 69.8907 284.119 70.3527 284.368C70.8221 284.61 71.1924 284.962 71.4637 285.424C71.7351 285.879 71.8707 286.425 71.8707 287.063C71.8707 287.129 71.8671 287.206 71.8597 287.294C71.8524 287.375 71.8451 287.452 71.8377 287.525H67.0307V286.524H70.9357L70.2757 286.821C70.2757 286.513 70.2134 286.245 70.0887 286.018C69.9641 285.791 69.7917 285.615 69.5717 285.49C69.3517 285.358 69.0951 285.292 68.8017 285.292C68.5084 285.292 68.2481 285.358 68.0207 285.49C67.8007 285.615 67.6284 285.794 67.5037 286.029C67.3791 286.256 67.3167 286.528 67.3167 286.843V287.107C67.3167 287.43 67.3864 287.716 67.5257 287.965C67.6724 288.207 67.8741 288.394 68.1307 288.526C68.3947 288.651 68.7027 288.713 69.0547 288.713C69.3701 288.713 69.6451 288.665 69.8797 288.57C70.1217 288.475 70.3417 288.332 70.5397 288.141L71.4527 289.131C71.1814 289.439 70.8404 289.677 70.4297 289.846C70.0191 290.007 69.5461 290.088 69.0107 290.088ZM67.7567 283.323L69.2417 281.739H71.0897L69.0987 283.323H67.7567ZM75.0042 290.088C74.4982 290.088 74.0105 290.029 73.5412 289.912C73.0792 289.787 72.7125 289.633 72.4412 289.45L73.0132 288.218C73.2845 288.387 73.6035 288.526 73.9702 288.636C74.3442 288.739 74.7109 288.79 75.0702 288.79C75.4662 288.79 75.7449 288.742 75.9062 288.647C76.0749 288.552 76.1592 288.42 76.1592 288.251C76.1592 288.112 76.0932 288.009 75.9612 287.943C75.8365 287.87 75.6679 287.815 75.4552 287.778C75.2425 287.741 75.0079 287.705 74.7512 287.668C74.5019 287.631 74.2489 287.584 73.9922 287.525C73.7355 287.459 73.5009 287.364 73.2882 287.239C73.0755 287.114 72.9032 286.946 72.7712 286.733C72.6465 286.52 72.5842 286.245 72.5842 285.908C72.5842 285.534 72.6905 285.204 72.9032 284.918C73.1232 284.632 73.4385 284.408 73.8492 284.247C74.2599 284.078 74.7512 283.994 75.3232 283.994C75.7265 283.994 76.1372 284.038 76.5552 284.126C76.9732 284.214 77.3215 284.342 77.6002 284.511L77.0282 285.732C76.7422 285.563 76.4525 285.45 76.1592 285.391C75.8732 285.325 75.5945 285.292 75.3232 285.292C74.9419 285.292 74.6632 285.343 74.4872 285.446C74.3112 285.549 74.2232 285.681 74.2232 285.842C74.2232 285.989 74.2855 286.099 74.4102 286.172C74.5422 286.245 74.7145 286.304 74.9272 286.348C75.1399 286.392 75.3709 286.432 75.6202 286.469C75.8769 286.498 76.1335 286.546 76.3902 286.612C76.6469 286.678 76.8779 286.773 77.0832 286.898C77.2959 287.015 77.4682 287.18 77.6002 287.393C77.7322 287.598 77.7982 287.87 77.7982 288.207C77.7982 288.574 77.6882 288.9 77.4682 289.186C77.2482 289.465 76.9292 289.685 76.5112 289.846C76.1005 290.007 75.5982 290.088 75.0042 290.088Z" fill="#191919"/>
<g clip-path="url(#clip2_1498_4441)">
<path d="M38 261.278V250.893L38.1786 250.729H51.3217L51.5003 250.565V238.352C51.5003 238.352 51.6535 238.094 51.7045 238.047L62.2444 238C62.2444 238 62.4997 238.305 62.4997 238.352V250.542L62.6783 250.706H75.6937C75.6937 250.706 75.9234 250.893 75.9489 250.94V261.161C75.9489 261.161 75.6172 261.395 75.5661 261.395H62.6783L62.4997 261.56V275.484C62.4997 275.601 61.8872 275.953 61.683 275.883C58.7226 275.695 55.4815 276.117 52.5722 275.883C52.2404 275.859 51.5003 275.742 51.5003 275.367V261.56L51.3217 261.395H38.3062C38.3062 261.395 38.1021 261.231 38 261.278Z" fill="#2A2A2A"/>
</g>
<path d="M108.32 332.82H111.69V334.08H108.32V332.82ZM108.44 335.7H112.25V337H106.83V330H112.12V331.3H108.44V335.7ZM116.699 331.54C117.126 331.54 117.506 331.627 117.839 331.8C118.179 331.967 118.446 332.227 118.639 332.58C118.832 332.927 118.929 333.373 118.929 333.92V337H117.369V334.16C117.369 333.727 117.272 333.407 117.079 333.2C116.892 332.993 116.626 332.89 116.279 332.89C116.032 332.89 115.809 332.943 115.609 333.05C115.416 333.15 115.262 333.307 115.149 333.52C115.042 333.733 114.989 334.007 114.989 334.34V337H113.429V331.62H114.919V333.11L114.639 332.66C114.832 332.3 115.109 332.023 115.469 331.83C115.829 331.637 116.239 331.54 116.699 331.54ZM121.705 337L119.445 331.62H121.055L122.935 336.25H122.135L124.085 331.62H125.585L123.315 337H121.705ZM126.222 337V331.62H127.782V337H126.222ZM127.002 330.87C126.715 330.87 126.482 330.787 126.302 330.62C126.122 330.453 126.032 330.247 126.032 330C126.032 329.753 126.122 329.547 126.302 329.38C126.482 329.213 126.715 329.13 127.002 329.13C127.289 329.13 127.522 329.21 127.702 329.37C127.882 329.523 127.972 329.723 127.972 329.97C127.972 330.23 127.882 330.447 127.702 330.62C127.529 330.787 127.295 330.87 127.002 330.87ZM129.23 337V331.62H130.72V333.14L130.51 332.7C130.67 332.32 130.926 332.033 131.28 331.84C131.633 331.64 132.063 331.54 132.57 331.54V332.98C132.503 332.973 132.443 332.97 132.39 332.97C132.336 332.963 132.28 332.96 132.22 332.96C131.793 332.96 131.446 333.083 131.18 333.33C130.92 333.57 130.79 333.947 130.79 334.46V337H129.23ZM136.018 337.08C135.445 337.08 134.935 336.96 134.488 336.72C134.048 336.48 133.698 336.153 133.438 335.74C133.185 335.32 133.058 334.843 133.058 334.31C133.058 333.77 133.185 333.293 133.438 332.88C133.698 332.46 134.048 332.133 134.488 331.9C134.935 331.66 135.445 331.54 136.018 331.54C136.585 331.54 137.092 331.66 137.538 331.9C137.985 332.133 138.335 332.457 138.588 332.87C138.842 333.283 138.968 333.763 138.968 334.31C138.968 334.843 138.842 335.32 138.588 335.74C138.335 336.153 137.985 336.48 137.538 336.72C137.092 336.96 136.585 337.08 136.018 337.08ZM136.018 335.8C136.278 335.8 136.512 335.74 136.718 335.62C136.925 335.5 137.088 335.33 137.208 335.11C137.328 334.883 137.388 334.617 137.388 334.31C137.388 333.997 137.328 333.73 137.208 333.51C137.088 333.29 136.925 333.12 136.718 333C136.512 332.88 136.278 332.82 136.018 332.82C135.758 332.82 135.525 332.88 135.318 333C135.112 333.12 134.945 333.29 134.818 333.51C134.698 333.73 134.638 333.997 134.638 334.31C134.638 334.617 134.698 334.883 134.818 335.11C134.945 335.33 135.112 335.5 135.318 335.62C135.525 335.74 135.758 335.8 136.018 335.8ZM143.281 331.54C143.708 331.54 144.088 331.627 144.421 331.8C144.761 331.967 145.028 332.227 145.221 332.58C145.414 332.927 145.511 333.373 145.511 333.92V337H143.951V334.16C143.951 333.727 143.854 333.407 143.661 333.2C143.474 332.993 143.208 332.89 142.861 332.89C142.614 332.89 142.391 332.943 142.191 333.05C141.998 333.15 141.844 333.307 141.731 333.52C141.624 333.733 141.571 334.007 141.571 334.34V337H140.011V331.62H141.501V333.11L141.221 332.66C141.414 332.3 141.691 332.023 142.051 331.83C142.411 331.637 142.821 331.54 143.281 331.54ZM148.735 337.08C148.275 337.08 147.832 337.027 147.405 336.92C146.985 336.807 146.652 336.667 146.405 336.5L146.925 335.38C147.172 335.533 147.462 335.66 147.795 335.76C148.135 335.853 148.468 335.9 148.795 335.9C149.155 335.9 149.408 335.857 149.555 335.77C149.708 335.683 149.785 335.563 149.785 335.41C149.785 335.283 149.725 335.19 149.605 335.13C149.492 335.063 149.338 335.013 149.145 334.98C148.952 334.947 148.738 334.913 148.505 334.88C148.278 334.847 148.048 334.803 147.815 334.75C147.582 334.69 147.368 334.603 147.175 334.49C146.982 334.377 146.825 334.223 146.705 334.03C146.592 333.837 146.535 333.587 146.535 333.28C146.535 332.94 146.632 332.64 146.825 332.38C147.025 332.12 147.312 331.917 147.685 331.77C148.058 331.617 148.505 331.54 149.025 331.54C149.392 331.54 149.765 331.58 150.145 331.66C150.525 331.74 150.842 331.857 151.095 332.01L150.575 333.12C150.315 332.967 150.052 332.863 149.785 332.81C149.525 332.75 149.272 332.72 149.025 332.72C148.678 332.72 148.425 332.767 148.265 332.86C148.105 332.953 148.025 333.073 148.025 333.22C148.025 333.353 148.082 333.453 148.195 333.52C148.315 333.587 148.472 333.64 148.665 333.68C148.858 333.72 149.068 333.757 149.295 333.79C149.528 333.817 149.762 333.86 149.995 333.92C150.228 333.98 150.438 334.067 150.625 334.18C150.818 334.287 150.975 334.437 151.095 334.63C151.215 334.817 151.275 335.063 151.275 335.37C151.275 335.703 151.175 336 150.975 336.26C150.775 336.513 150.485 336.713 150.105 336.86C149.732 337.007 149.275 337.08 148.735 337.08ZM108.718 359L113.794 347.516L114.55 348.776H107.764L109.06 347.408V350.828H106.468V346.4H116.566V348.29L111.886 359H108.718ZM117.111 361.772L118.299 357.452L118.695 359.072C118.179 359.072 117.753 358.922 117.417 358.622C117.093 358.322 116.931 357.908 116.931 357.38C116.931 356.852 117.099 356.432 117.435 356.12C117.771 355.808 118.185 355.652 118.677 355.652C119.181 355.652 119.595 355.814 119.919 356.138C120.243 356.45 120.405 356.864 120.405 357.38C120.405 357.536 120.393 357.692 120.369 357.848C120.345 357.992 120.297 358.172 120.225 358.388C120.165 358.592 120.063 358.856 119.919 359.18L118.893 361.772H117.111ZM126.885 359.216C125.853 359.216 124.929 358.964 124.113 358.46C123.297 357.944 122.655 357.2 122.187 356.228C121.719 355.256 121.485 354.08 121.485 352.7C121.485 351.32 121.719 350.144 122.187 349.172C122.655 348.2 123.297 347.462 124.113 346.958C124.929 346.442 125.853 346.184 126.885 346.184C127.929 346.184 128.853 346.442 129.657 346.958C130.473 347.462 131.115 348.2 131.583 349.172C132.051 350.144 132.285 351.32 132.285 352.7C132.285 354.08 132.051 355.256 131.583 356.228C131.115 357.2 130.473 357.944 129.657 358.46C128.853 358.964 127.929 359.216 126.885 359.216ZM126.885 356.75C127.377 356.75 127.803 356.612 128.163 356.336C128.535 356.06 128.823 355.622 129.027 355.022C129.243 354.422 129.351 353.648 129.351 352.7C129.351 351.752 129.243 350.978 129.027 350.378C128.823 349.778 128.535 349.34 128.163 349.064C127.803 348.788 127.377 348.65 126.885 348.65C126.405 348.65 125.979 348.788 125.607 349.064C125.247 349.34 124.959 349.778 124.743 350.378C124.539 350.978 124.437 351.752 124.437 352.7C124.437 353.648 124.539 354.422 124.743 355.022C124.959 355.622 125.247 356.06 125.607 356.336C125.979 356.612 126.405 356.75 126.885 356.75ZM139.102 359.216C138.07 359.216 137.146 358.964 136.33 358.46C135.514 357.944 134.872 357.2 134.404 356.228C133.936 355.256 133.702 354.08 133.702 352.7C133.702 351.32 133.936 350.144 134.404 349.172C134.872 348.2 135.514 347.462 136.33 346.958C137.146 346.442 138.07 346.184 139.102 346.184C140.146 346.184 141.07 346.442 141.874 346.958C142.69 347.462 143.332 348.2 143.8 349.172C144.268 350.144 144.502 351.32 144.502 352.7C144.502 354.08 144.268 355.256 143.8 356.228C143.332 357.2 142.69 357.944 141.874 358.46C141.07 358.964 140.146 359.216 139.102 359.216ZM139.102 356.75C139.594 356.75 140.02 356.612 140.38 356.336C140.752 356.06 141.04 355.622 141.244 355.022C141.46 354.422 141.568 353.648 141.568 352.7C141.568 351.752 141.46 350.978 141.244 350.378C141.04 349.778 140.752 349.34 140.38 349.064C140.02 348.788 139.594 348.65 139.102 348.65C138.622 348.65 138.196 348.788 137.824 349.064C137.464 349.34 137.176 349.778 136.96 350.378C136.756 350.978 136.654 351.752 136.654 352.7C136.654 353.648 136.756 354.422 136.96 355.022C137.176 355.622 137.464 356.06 137.824 356.336C138.196 356.612 138.622 356.75 139.102 356.75ZM151.319 359.216C150.287 359.216 149.363 358.964 148.547 358.46C147.731 357.944 147.089 357.2 146.621 356.228C146.153 355.256 145.919 354.08 145.919 352.7C145.919 351.32 146.153 350.144 146.621 349.172C147.089 348.2 147.731 347.462 148.547 346.958C149.363 346.442 150.287 346.184 151.319 346.184C152.363 346.184 153.287 346.442 154.091 346.958C154.907 347.462 155.549 348.2 156.017 349.172C156.485 350.144 156.719 351.32 156.719 352.7C156.719 354.08 156.485 355.256 156.017 356.228C155.549 357.2 154.907 357.944 154.091 358.46C153.287 358.964 152.363 359.216 151.319 359.216ZM151.319 356.75C151.811 356.75 152.237 356.612 152.597 356.336C152.969 356.06 153.257 355.622 153.461 355.022C153.677 354.422 153.785 353.648 153.785 352.7C153.785 351.752 153.677 350.978 153.461 350.378C153.257 349.778 152.969 349.34 152.597 349.064C152.237 348.788 151.811 348.65 151.319 348.65C150.839 348.65 150.413 348.788 150.041 349.064C149.681 349.34 149.393 349.778 149.177 350.378C148.973 350.978 148.871 351.752 148.871 352.7C148.871 353.648 148.973 354.422 149.177 355.022C149.393 355.622 149.681 356.06 150.041 356.336C150.413 356.612 150.839 356.75 151.319 356.75Z" fill="#191919"/>
<path d="M46.5051 367V360.752H44.0411V359.3H50.7511V360.752H48.2871V367H46.5051ZM53.957 367.088C53.4656 367.088 53.0256 366.993 52.637 366.802C52.2556 366.611 51.9586 366.322 51.746 365.933C51.5333 365.537 51.427 365.035 51.427 364.426V361.082H53.143V364.173C53.143 364.664 53.2456 365.027 53.451 365.262C53.6636 365.489 53.9606 365.603 54.342 365.603C54.606 365.603 54.8406 365.548 55.046 365.438C55.2513 365.321 55.4126 365.145 55.53 364.91C55.6473 364.668 55.706 364.367 55.706 364.008V361.082H57.422V367H55.794V365.372L56.091 365.845C55.893 366.256 55.5996 366.567 55.211 366.78C54.8296 366.985 54.4116 367.088 53.957 367.088ZM61.9487 367.088C61.2741 367.088 60.6801 366.956 60.1667 366.692C59.6607 366.428 59.2684 366.069 58.9897 365.614C58.7111 365.152 58.5717 364.628 58.5717 364.041C58.5717 363.447 58.7074 362.923 58.9787 362.468C59.2574 362.006 59.6351 361.647 60.1117 361.39C60.5884 361.126 61.1274 360.994 61.7287 360.994C62.3081 360.994 62.8287 361.119 63.2907 361.368C63.7601 361.61 64.1304 361.962 64.4017 362.424C64.6731 362.879 64.8087 363.425 64.8087 364.063C64.8087 364.129 64.8051 364.206 64.7977 364.294C64.7904 364.375 64.7831 364.452 64.7757 364.525H59.9687V363.524H63.8737L63.2137 363.821C63.2137 363.513 63.1514 363.245 63.0267 363.018C62.9021 362.791 62.7297 362.615 62.5097 362.49C62.2897 362.358 62.0331 362.292 61.7397 362.292C61.4464 362.292 61.1861 362.358 60.9587 362.49C60.7387 362.615 60.5664 362.794 60.4417 363.029C60.3171 363.256 60.2547 363.528 60.2547 363.843V364.107C60.2547 364.43 60.3244 364.716 60.4637 364.965C60.6104 365.207 60.8121 365.394 61.0687 365.526C61.3327 365.651 61.6407 365.713 61.9927 365.713C62.3081 365.713 62.5831 365.665 62.8177 365.57C63.0597 365.475 63.2797 365.332 63.4777 365.141L64.3907 366.131C64.1194 366.439 63.7784 366.677 63.3677 366.846C62.9571 367.007 62.4841 367.088 61.9487 367.088ZM60.6947 360.323L62.1797 358.739H64.0277L62.0367 360.323H60.6947ZM67.9422 367.088C67.4362 367.088 66.9485 367.029 66.4792 366.912C66.0172 366.787 65.6505 366.633 65.3792 366.45L65.9512 365.218C66.2225 365.387 66.5415 365.526 66.9082 365.636C67.2822 365.739 67.6488 365.79 68.0082 365.79C68.4042 365.79 68.6828 365.742 68.8442 365.647C69.0128 365.552 69.0972 365.42 69.0972 365.251C69.0972 365.112 69.0312 365.009 68.8992 364.943C68.7745 364.87 68.6058 364.815 68.3932 364.778C68.1805 364.741 67.9458 364.705 67.6892 364.668C67.4398 364.631 67.1868 364.584 66.9302 364.525C66.6735 364.459 66.4388 364.364 66.2262 364.239C66.0135 364.114 65.8412 363.946 65.7092 363.733C65.5845 363.52 65.5222 363.245 65.5222 362.908C65.5222 362.534 65.6285 362.204 65.8412 361.918C66.0612 361.632 66.3765 361.408 66.7872 361.247C67.1978 361.078 67.6892 360.994 68.2612 360.994C68.6645 360.994 69.0752 361.038 69.4932 361.126C69.9112 361.214 70.2595 361.342 70.5382 361.511L69.9662 362.732C69.6802 362.563 69.3905 362.45 69.0972 362.391C68.8112 362.325 68.5325 362.292 68.2612 362.292C67.8798 362.292 67.6012 362.343 67.4252 362.446C67.2492 362.549 67.1612 362.681 67.1612 362.842C67.1612 362.989 67.2235 363.099 67.3482 363.172C67.4802 363.245 67.6525 363.304 67.8652 363.348C68.0778 363.392 68.3088 363.432 68.5582 363.469C68.8148 363.498 69.0715 363.546 69.3282 363.612C69.5848 363.678 69.8158 363.773 70.0212 363.898C70.2338 364.015 70.4062 364.18 70.5382 364.393C70.6702 364.598 70.7362 364.87 70.7362 365.207C70.7362 365.574 70.6262 365.9 70.4062 366.186C70.1862 366.465 69.8672 366.685 69.4492 366.846C69.0385 367.007 68.5362 367.088 67.9422 367.088Z" fill="#191919"/>
<g clip-path="url(#clip3_1498_4441)">
<path d="M44.175 344.676C52.6849 341.989 62.0878 341.804 70.6256 344.491L70.6814 344.584C70.6256 345.572 70.5419 346.591 70.4582 347.61C70.4582 347.641 73.3042 348.753 73.5553 348.815C74.6434 349.186 76.9872 349.587 77.9916 348.753C78.6054 348.259 78.8287 347.61 78.717 346.746C78.5496 345.448 76.2896 342.7 75.9269 341.155C75.5363 339.488 75.62 337.048 75.2573 335.164C74.4481 330.716 72.2718 327.103 69.1189 324.292L67.1937 324.817L66.4404 329.357C64.85 330.438 63.6502 331.674 62.5621 333.372L62.8969 330.222L64.9895 328.184C64.9895 327.69 65.0174 327.195 64.9895 326.67C64.9616 325.836 64.5431 323.551 64.7384 322.933C64.7942 322.717 65.5754 321.883 65.4638 321.729C55.0845 316.941 41.915 322.13 39.4875 335.133C39.1248 337.048 39.2085 339.426 38.8179 341.125C38.7063 341.65 37.9809 342.916 37.7018 343.472C36.9764 344.923 34.9396 347.394 36.6695 348.815C37.4507 349.464 39.069 349.216 39.9619 349.155C40.2967 349.155 44.3424 347.981 44.3145 347.765C44.2308 346.746 44.175 345.726 44.1471 344.707L44.175 344.676Z" fill="#2A2A2A"/>
</g>
<path d="M108.32 78.82H111.69V80.08H108.32V78.82ZM108.44 81.7H112.25V83H106.83V76H112.12V77.3H108.44V81.7ZM116.699 77.54C117.126 77.54 117.506 77.6267 117.839 77.8C118.179 77.9667 118.446 78.2267 118.639 78.58C118.832 78.9267 118.929 79.3733 118.929 79.92V83H117.369V80.16C117.369 79.7267 117.272 79.4067 117.079 79.2C116.892 78.9933 116.626 78.89 116.279 78.89C116.032 78.89 115.809 78.9433 115.609 79.05C115.416 79.15 115.262 79.3067 115.149 79.52C115.042 79.7333 114.989 80.0067 114.989 80.34V83H113.429V77.62H114.919V79.11L114.639 78.66C114.832 78.3 115.109 78.0233 115.469 77.83C115.829 77.6367 116.239 77.54 116.699 77.54ZM121.705 83L119.445 77.62H121.055L122.935 82.25H122.135L124.085 77.62H125.585L123.315 83H121.705ZM126.222 83V77.62H127.782V83H126.222ZM127.002 76.87C126.715 76.87 126.482 76.7867 126.302 76.62C126.122 76.4533 126.032 76.2467 126.032 76C126.032 75.7533 126.122 75.5467 126.302 75.38C126.482 75.2133 126.715 75.13 127.002 75.13C127.289 75.13 127.522 75.21 127.702 75.37C127.882 75.5233 127.972 75.7233 127.972 75.97C127.972 76.23 127.882 76.4467 127.702 76.62C127.529 76.7867 127.295 76.87 127.002 76.87ZM129.23 83V77.62H130.72V79.14L130.51 78.7C130.67 78.32 130.926 78.0333 131.28 77.84C131.633 77.64 132.063 77.54 132.57 77.54V78.98C132.503 78.9733 132.443 78.97 132.39 78.97C132.336 78.9633 132.28 78.96 132.22 78.96C131.793 78.96 131.446 79.0833 131.18 79.33C130.92 79.57 130.79 79.9467 130.79 80.46V83H129.23ZM136.018 83.08C135.445 83.08 134.935 82.96 134.488 82.72C134.048 82.48 133.698 82.1533 133.438 81.74C133.185 81.32 133.058 80.8433 133.058 80.31C133.058 79.77 133.185 79.2933 133.438 78.88C133.698 78.46 134.048 78.1333 134.488 77.9C134.935 77.66 135.445 77.54 136.018 77.54C136.585 77.54 137.092 77.66 137.538 77.9C137.985 78.1333 138.335 78.4567 138.588 78.87C138.842 79.2833 138.968 79.7633 138.968 80.31C138.968 80.8433 138.842 81.32 138.588 81.74C138.335 82.1533 137.985 82.48 137.538 82.72C137.092 82.96 136.585 83.08 136.018 83.08ZM136.018 81.8C136.278 81.8 136.512 81.74 136.718 81.62C136.925 81.5 137.088 81.33 137.208 81.11C137.328 80.8833 137.388 80.6167 137.388 80.31C137.388 79.9967 137.328 79.73 137.208 79.51C137.088 79.29 136.925 79.12 136.718 79C136.512 78.88 136.278 78.82 136.018 78.82C135.758 78.82 135.525 78.88 135.318 79C135.112 79.12 134.945 79.29 134.818 79.51C134.698 79.73 134.638 79.9967 134.638 80.31C134.638 80.6167 134.698 80.8833 134.818 81.11C134.945 81.33 135.112 81.5 135.318 81.62C135.525 81.74 135.758 81.8 136.018 81.8ZM143.281 77.54C143.708 77.54 144.088 77.6267 144.421 77.8C144.761 77.9667 145.028 78.2267 145.221 78.58C145.414 78.9267 145.511 79.3733 145.511 79.92V83H143.951V80.16C143.951 79.7267 143.854 79.4067 143.661 79.2C143.474 78.9933 143.208 78.89 142.861 78.89C142.614 78.89 142.391 78.9433 142.191 79.05C141.998 79.15 141.844 79.3067 141.731 79.52C141.624 79.7333 141.571 80.0067 141.571 80.34V83H140.011V77.62H141.501V79.11L141.221 78.66C141.414 78.3 141.691 78.0233 142.051 77.83C142.411 77.6367 142.821 77.54 143.281 77.54ZM148.735 83.08C148.275 83.08 147.832 83.0267 147.405 82.92C146.985 82.8067 146.652 82.6667 146.405 82.5L146.925 81.38C147.172 81.5333 147.462 81.66 147.795 81.76C148.135 81.8533 148.468 81.9 148.795 81.9C149.155 81.9 149.408 81.8567 149.555 81.77C149.708 81.6833 149.785 81.5633 149.785 81.41C149.785 81.2833 149.725 81.19 149.605 81.13C149.492 81.0633 149.338 81.0133 149.145 80.98C148.952 80.9467 148.738 80.9133 148.505 80.88C148.278 80.8467 148.048 80.8033 147.815 80.75C147.582 80.69 147.368 80.6033 147.175 80.49C146.982 80.3767 146.825 80.2233 146.705 80.03C146.592 79.8367 146.535 79.5867 146.535 79.28C146.535 78.94 146.632 78.64 146.825 78.38C147.025 78.12 147.312 77.9167 147.685 77.77C148.058 77.6167 148.505 77.54 149.025 77.54C149.392 77.54 149.765 77.58 150.145 77.66C150.525 77.74 150.842 77.8567 151.095 78.01L150.575 79.12C150.315 78.9667 150.052 78.8633 149.785 78.81C149.525 78.75 149.272 78.72 149.025 78.72C148.678 78.72 148.425 78.7667 148.265 78.86C148.105 78.9533 148.025 79.0733 148.025 79.22C148.025 79.3533 148.082 79.4533 148.195 79.52C148.315 79.5867 148.472 79.64 148.665 79.68C148.858 79.72 149.068 79.7567 149.295 79.79C149.528 79.8167 149.762 79.86 149.995 79.92C150.228 79.98 150.438 80.0667 150.625 80.18C150.818 80.2867 150.975 80.4367 151.095 80.63C151.215 80.8167 151.275 81.0633 151.275 81.37C151.275 81.7033 151.175 82 150.975 82.26C150.775 82.5133 150.485 82.7133 150.105 82.86C149.732 83.0067 149.275 83.08 148.735 83.08ZM108.646 105V93.48L109.906 94.74H106.126V92.4H111.562V105H108.646ZM118.035 105.216C117.159 105.216 116.289 105.102 115.425 104.874C114.573 104.634 113.841 104.298 113.229 103.866L114.381 101.634C114.861 101.982 115.413 102.258 116.037 102.462C116.673 102.666 117.315 102.768 117.963 102.768C118.695 102.768 119.271 102.624 119.691 102.336C120.111 102.048 120.321 101.646 120.321 101.13C120.321 100.806 120.237 100.518 120.069 100.266C119.901 100.014 119.601 99.822 119.169 99.69C118.749 99.558 118.155 99.492 117.387 99.492H114.165L114.813 92.4H122.499V94.74H115.857L117.369 93.408L116.919 98.466L115.407 97.134H118.071C119.319 97.134 120.321 97.308 121.077 97.656C121.845 97.992 122.403 98.454 122.751 99.042C123.099 99.63 123.273 100.296 123.273 101.04C123.273 101.784 123.087 102.474 122.715 103.11C122.343 103.734 121.767 104.244 120.987 104.64C120.219 105.024 119.235 105.216 118.035 105.216ZM129.676 105.216C128.62 105.216 127.696 105.06 126.904 104.748C126.112 104.424 125.494 103.974 125.05 103.398C124.606 102.81 124.384 102.126 124.384 101.346C124.384 100.566 124.6 99.906 125.032 99.366C125.476 98.814 126.094 98.4 126.886 98.124C127.678 97.836 128.608 97.692 129.676 97.692C130.756 97.692 131.692 97.836 132.484 98.124C133.288 98.4 133.906 98.814 134.338 99.366C134.782 99.906 135.004 100.566 135.004 101.346C135.004 102.126 134.782 102.81 134.338 103.398C133.894 103.974 133.27 104.424 132.466 104.748C131.674 105.06 130.744 105.216 129.676 105.216ZM129.676 103.074C130.408 103.074 130.984 102.912 131.404 102.588C131.836 102.264 132.052 101.82 132.052 101.256C132.052 100.692 131.836 100.254 131.404 99.942C130.984 99.618 130.408 99.456 129.676 99.456C128.956 99.456 128.386 99.618 127.966 99.942C127.546 100.254 127.336 100.692 127.336 101.256C127.336 101.82 127.546 102.264 127.966 102.588C128.386 102.912 128.956 103.074 129.676 103.074ZM129.676 99.168C128.704 99.168 127.852 99.036 127.12 98.772C126.4 98.508 125.836 98.124 125.428 97.62C125.032 97.104 124.834 96.492 124.834 95.784C124.834 95.04 125.038 94.404 125.446 93.876C125.854 93.336 126.424 92.922 127.156 92.634C127.888 92.334 128.728 92.184 129.676 92.184C130.648 92.184 131.494 92.334 132.214 92.634C132.946 92.922 133.516 93.336 133.924 93.876C134.344 94.404 134.554 95.04 134.554 95.784C134.554 96.492 134.35 97.104 133.942 97.62C133.546 98.124 132.982 98.508 132.25 98.772C131.518 99.036 130.66 99.168 129.676 99.168ZM129.676 97.458C130.288 97.458 130.768 97.32 131.116 97.044C131.476 96.768 131.656 96.39 131.656 95.91C131.656 95.406 131.47 95.016 131.098 94.74C130.738 94.464 130.264 94.326 129.676 94.326C129.1 94.326 128.632 94.464 128.272 94.74C127.912 95.016 127.732 95.406 127.732 95.91C127.732 96.39 127.906 96.768 128.254 97.044C128.602 97.32 129.076 97.458 129.676 97.458ZM136.623 107.772L137.811 103.452L138.207 105.072C137.691 105.072 137.265 104.922 136.929 104.622C136.605 104.322 136.443 103.908 136.443 103.38C136.443 102.852 136.611 102.432 136.947 102.12C137.283 101.808 137.697 101.652 138.188 101.652C138.693 101.652 139.107 101.814 139.431 102.138C139.755 102.45 139.917 102.864 139.917 103.38C139.917 103.536 139.905 103.692 139.881 103.848C139.857 103.992 139.809 104.172 139.737 104.388C139.677 104.592 139.575 104.856 139.431 105.18L138.405 107.772H136.623ZM141.293 105V103.11L146.153 98.52C146.537 98.172 146.819 97.86 146.999 97.584C147.179 97.308 147.299 97.056 147.359 96.828C147.431 96.6 147.467 96.39 147.467 96.198C147.467 95.694 147.293 95.31 146.945 95.046C146.609 94.77 146.111 94.632 145.451 94.632C144.923 94.632 144.431 94.734 143.975 94.938C143.531 95.142 143.153 95.46 142.841 95.892L140.717 94.524C141.197 93.804 141.869 93.234 142.733 92.814C143.597 92.394 144.593 92.184 145.721 92.184C146.657 92.184 147.473 92.34 148.169 92.652C148.877 92.952 149.423 93.378 149.807 93.93C150.203 94.482 150.401 95.142 150.401 95.91C150.401 96.318 150.347 96.726 150.239 97.134C150.143 97.53 149.939 97.95 149.627 98.394C149.327 98.838 148.883 99.336 148.295 99.888L144.263 103.686L143.705 102.624H150.815V105H141.293ZM156.302 105.216C155.426 105.216 154.556 105.102 153.692 104.874C152.84 104.634 152.108 104.298 151.496 103.866L152.648 101.634C153.128 101.982 153.68 102.258 154.304 102.462C154.94 102.666 155.582 102.768 156.23 102.768C156.962 102.768 157.538 102.624 157.958 102.336C158.378 102.048 158.588 101.646 158.588 101.13C158.588 100.806 158.504 100.518 158.336 100.266C158.168 100.014 157.868 99.822 157.436 99.69C157.016 99.558 156.422 99.492 155.654 99.492H152.432L153.08 92.4H160.766V94.74H154.124L155.636 93.408L155.186 98.466L153.674 97.134H156.338C157.586 97.134 158.588 97.308 159.344 97.656C160.112 97.992 160.67 98.454 161.018 99.042C161.366 99.63 161.54 100.296 161.54 101.04C161.54 101.784 161.354 102.474 160.982 103.11C160.61 103.734 160.034 104.244 159.254 104.64C158.486 105.024 157.502 105.216 156.302 105.216ZM168.123 105.216C167.091 105.216 166.167 104.964 165.351 104.46C164.535 103.944 163.893 103.2 163.425 102.228C162.957 101.256 162.723 100.08 162.723 98.7C162.723 97.32 162.957 96.144 163.425 95.172C163.893 94.2 164.535 93.462 165.351 92.958C166.167 92.442 167.091 92.184 168.123 92.184C169.167 92.184 170.091 92.442 170.895 92.958C171.711 93.462 172.353 94.2 172.821 95.172C173.289 96.144 173.523 97.32 173.523 98.7C173.523 100.08 173.289 101.256 172.821 102.228C172.353 103.2 171.711 103.944 170.895 104.46C170.091 104.964 169.167 105.216 168.123 105.216ZM168.123 102.75C168.615 102.75 169.041 102.612 169.401 102.336C169.773 102.06 170.061 101.622 170.265 101.022C170.481 100.422 170.589 99.648 170.589 98.7C170.589 97.752 170.481 96.978 170.265 96.378C170.061 95.778 169.773 95.34 169.401 95.064C169.041 94.788 168.615 94.65 168.123 94.65C167.643 94.65 167.217 94.788 166.845 95.064C166.485 95.34 166.197 95.778 165.981 96.378C165.777 96.978 165.675 97.752 165.675 98.7C165.675 99.648 165.777 100.422 165.981 101.022C166.197 101.622 166.485 102.06 166.845 102.336C167.217 102.612 167.643 102.75 168.123 102.75Z" fill="#191919"/>
<path d="M43.3083 109V102.752H40.8443V101.3H47.5543V102.752H45.0903V109H43.3083ZM50.6065 109.088C49.9759 109.088 49.4149 108.956 48.9235 108.692C48.4395 108.428 48.0545 108.069 47.7685 107.614C47.4899 107.152 47.3505 106.628 47.3505 106.041C47.3505 105.447 47.4899 104.923 47.7685 104.468C48.0545 104.006 48.4395 103.647 48.9235 103.39C49.4149 103.126 49.9759 102.994 50.6065 102.994C51.2299 102.994 51.7872 103.126 52.2785 103.39C52.7699 103.647 53.1549 104.002 53.4335 104.457C53.7122 104.912 53.8515 105.44 53.8515 106.041C53.8515 106.628 53.7122 107.152 53.4335 107.614C53.1549 108.069 52.7699 108.428 52.2785 108.692C51.7872 108.956 51.2299 109.088 50.6065 109.088ZM50.6065 107.68C50.8925 107.68 51.1492 107.614 51.3765 107.482C51.6039 107.35 51.7835 107.163 51.9155 106.921C52.0475 106.672 52.1135 106.378 52.1135 106.041C52.1135 105.696 52.0475 105.403 51.9155 105.161C51.7835 104.919 51.6039 104.732 51.3765 104.6C51.1492 104.468 50.8925 104.402 50.6065 104.402C50.3205 104.402 50.0639 104.468 49.8365 104.6C49.6092 104.732 49.4259 104.919 49.2865 105.161C49.1545 105.403 49.0885 105.696 49.0885 106.041C49.0885 106.378 49.1545 106.672 49.2865 106.921C49.4259 107.163 49.6092 107.35 49.8365 107.482C50.0639 107.614 50.3205 107.68 50.6065 107.68ZM57.4185 109.088C56.7219 109.088 56.1792 108.912 55.7905 108.56C55.4019 108.201 55.2075 107.669 55.2075 106.965V101.773H56.9235V106.943C56.9235 107.192 56.9895 107.387 57.1215 107.526C57.2535 107.658 57.4332 107.724 57.6605 107.724C57.9319 107.724 58.1629 107.651 58.3535 107.504L58.8155 108.714C58.6395 108.839 58.4269 108.934 58.1775 109C57.9355 109.059 57.6825 109.088 57.4185 109.088ZM54.2945 104.534V103.214H58.3975V104.534H54.2945ZM63.4088 109V107.845L63.2988 107.592V105.524C63.2988 105.157 63.1851 104.871 62.9578 104.666C62.7378 104.461 62.3968 104.358 61.9348 104.358C61.6195 104.358 61.3078 104.409 60.9998 104.512C60.6991 104.607 60.4425 104.739 60.2298 104.908L59.6138 103.709C59.9365 103.482 60.3251 103.306 60.7798 103.181C61.2345 103.056 61.6965 102.994 62.1658 102.994C63.0678 102.994 63.7682 103.207 64.2668 103.632C64.7655 104.057 65.0148 104.721 65.0148 105.623V109H63.4088ZM61.6048 109.088C61.1428 109.088 60.7468 109.011 60.4168 108.857C60.0868 108.696 59.8338 108.479 59.6578 108.208C59.4818 107.937 59.3938 107.632 59.3938 107.295C59.3938 106.943 59.4781 106.635 59.6468 106.371C59.8228 106.107 60.0978 105.902 60.4718 105.755C60.8458 105.601 61.3335 105.524 61.9348 105.524H63.5078V106.525H62.1218C61.7185 106.525 61.4398 106.591 61.2858 106.723C61.1391 106.855 61.0658 107.02 61.0658 107.218C61.0658 107.438 61.1501 107.614 61.3188 107.746C61.4948 107.871 61.7331 107.933 62.0338 107.933C62.3198 107.933 62.5765 107.867 62.8038 107.735C63.0311 107.596 63.1961 107.394 63.2988 107.13L63.5628 107.922C63.4381 108.303 63.2108 108.593 62.8808 108.791C62.5508 108.989 62.1255 109.088 61.6048 109.088ZM66.5679 109V100.838H68.2839V109H66.5679ZM29.6689 122.088C29.1116 122.088 28.6093 121.963 28.1619 121.714C27.7146 121.457 27.3589 121.102 27.0949 120.647C26.8383 120.192 26.7099 119.657 26.7099 119.041C26.7099 118.418 26.8383 117.879 27.0949 117.424C27.3589 116.969 27.7146 116.617 28.1619 116.368C28.6093 116.119 29.1116 115.994 29.6689 115.994C30.1676 115.994 30.6039 116.104 30.9779 116.324C31.3519 116.544 31.6416 116.878 31.8469 117.325C32.0523 117.772 32.1549 118.344 32.1549 119.041C32.1549 119.73 32.0559 120.302 31.8579 120.757C31.6599 121.204 31.3739 121.538 30.9999 121.758C30.6333 121.978 30.1896 122.088 29.6689 122.088ZM29.9659 120.68C30.2446 120.68 30.4976 120.614 30.7249 120.482C30.9523 120.35 31.1319 120.163 31.2639 119.921C31.4033 119.672 31.4729 119.378 31.4729 119.041C31.4729 118.696 31.4033 118.403 31.2639 118.161C31.1319 117.919 30.9523 117.732 30.7249 117.6C30.4976 117.468 30.2446 117.402 29.9659 117.402C29.6799 117.402 29.4233 117.468 29.1959 117.6C28.9686 117.732 28.7853 117.919 28.6459 118.161C28.5139 118.403 28.4479 118.696 28.4479 119.041C28.4479 119.378 28.5139 119.672 28.6459 119.921C28.7853 120.163 28.9686 120.35 29.1959 120.482C29.4233 120.614 29.6799 120.68 29.9659 120.68ZM31.5169 122V120.79L31.5499 119.03L31.4399 117.281V113.838H33.1559V122H31.5169ZM37.6811 122.088C37.0065 122.088 36.4125 121.956 35.8991 121.692C35.3931 121.428 35.0008 121.069 34.7221 120.614C34.4435 120.152 34.3041 119.628 34.3041 119.041C34.3041 118.447 34.4398 117.923 34.7111 117.468C34.9898 117.006 35.3675 116.647 35.8441 116.39C36.3208 116.126 36.8598 115.994 37.4611 115.994C38.0405 115.994 38.5611 116.119 39.0231 116.368C39.4925 116.61 39.8628 116.962 40.1341 117.424C40.4055 117.879 40.5411 118.425 40.5411 119.063C40.5411 119.129 40.5375 119.206 40.5301 119.294C40.5228 119.375 40.5155 119.452 40.5081 119.525H35.7011V118.524H39.6061L38.9461 118.821C38.9461 118.513 38.8838 118.245 38.7591 118.018C38.6345 117.791 38.4621 117.615 38.2421 117.49C38.0221 117.358 37.7655 117.292 37.4721 117.292C37.1788 117.292 36.9185 117.358 36.6911 117.49C36.4711 117.615 36.2988 117.794 36.1741 118.029C36.0495 118.256 35.9871 118.528 35.9871 118.843V119.107C35.9871 119.43 36.0568 119.716 36.1961 119.965C36.3428 120.207 36.5445 120.394 36.8011 120.526C37.0651 120.651 37.3731 120.713 37.7251 120.713C38.0405 120.713 38.3155 120.665 38.5501 120.57C38.7921 120.475 39.0121 120.332 39.2101 120.141L40.1231 121.131C39.8518 121.439 39.5108 121.677 39.1001 121.846C38.6895 122.007 38.2165 122.088 37.6811 122.088ZM43.6746 122.088C43.1686 122.088 42.6809 122.029 42.2116 121.912C41.7496 121.787 41.3829 121.633 41.1116 121.45L41.6836 120.218C41.9549 120.387 42.2739 120.526 42.6406 120.636C43.0146 120.739 43.3813 120.79 43.7406 120.79C44.1366 120.79 44.4153 120.742 44.5766 120.647C44.7453 120.552 44.8296 120.42 44.8296 120.251C44.8296 120.112 44.7636 120.009 44.6316 119.943C44.5069 119.87 44.3383 119.815 44.1256 119.778C43.9129 119.741 43.6783 119.705 43.4216 119.668C43.1723 119.631 42.9193 119.584 42.6626 119.525C42.4059 119.459 42.1713 119.364 41.9586 119.239C41.7459 119.114 41.5736 118.946 41.4416 118.733C41.3169 118.52 41.2546 118.245 41.2546 117.908C41.2546 117.534 41.3609 117.204 41.5736 116.918C41.7936 116.632 42.1089 116.408 42.5196 116.247C42.9303 116.078 43.4216 115.994 43.9936 115.994C44.3969 115.994 44.8076 116.038 45.2256 116.126C45.6436 116.214 45.9919 116.342 46.2706 116.511L45.6986 117.732C45.4126 117.563 45.1229 117.45 44.8296 117.391C44.5436 117.325 44.2649 117.292 43.9936 117.292C43.6123 117.292 43.3336 117.343 43.1576 117.446C42.9816 117.549 42.8936 117.681 42.8936 117.842C42.8936 117.989 42.9559 118.099 43.0806 118.172C43.2126 118.245 43.3849 118.304 43.5976 118.348C43.8103 118.392 44.0413 118.432 44.2906 118.469C44.5473 118.498 44.8039 118.546 45.0606 118.612C45.3173 118.678 45.5483 118.773 45.7536 118.898C45.9663 119.015 46.1386 119.18 46.2706 119.393C46.4026 119.598 46.4686 119.87 46.4686 120.207C46.4686 120.574 46.3586 120.9 46.1386 121.186C45.9186 121.465 45.5996 121.685 45.1816 121.846C44.7709 122.007 44.2686 122.088 43.6746 122.088ZM54.1406 122.088C53.6419 122.088 53.2056 121.978 52.8316 121.758C52.4576 121.538 52.1643 121.204 51.9516 120.757C51.7463 120.302 51.6436 119.73 51.6436 119.041C51.6436 118.344 51.7426 117.772 51.9406 117.325C52.1386 116.878 52.4246 116.544 52.7986 116.324C53.1726 116.104 53.6199 115.994 54.1406 115.994C54.6979 115.994 55.1966 116.122 55.6366 116.379C56.0839 116.628 56.4359 116.98 56.6926 117.435C56.9566 117.89 57.0886 118.425 57.0886 119.041C57.0886 119.664 56.9566 120.203 56.6926 120.658C56.4359 121.113 56.0839 121.465 55.6366 121.714C55.1966 121.963 54.6979 122.088 54.1406 122.088ZM50.6426 124.134V116.082H52.2816V117.292L52.2486 119.052L52.3586 120.801V124.134H50.6426ZM53.8436 120.68C54.1296 120.68 54.3826 120.614 54.6026 120.482C54.8299 120.35 55.0096 120.163 55.1416 119.921C55.2809 119.672 55.3506 119.378 55.3506 119.041C55.3506 118.696 55.2809 118.403 55.1416 118.161C55.0096 117.919 54.8299 117.732 54.6026 117.6C54.3826 117.468 54.1296 117.402 53.8436 117.402C53.5576 117.402 53.3009 117.468 53.0736 117.6C52.8463 117.732 52.6666 117.919 52.5346 118.161C52.4026 118.403 52.3366 118.696 52.3366 119.041C52.3366 119.378 52.4026 119.672 52.5346 119.921C52.6666 120.163 52.8463 120.35 53.0736 120.482C53.3009 120.614 53.5576 120.68 53.8436 120.68ZM61.1743 122.088C60.4996 122.088 59.9056 121.956 59.3923 121.692C58.8863 121.428 58.494 121.069 58.2153 120.614C57.9366 120.152 57.7973 119.628 57.7973 119.041C57.7973 118.447 57.933 117.923 58.2043 117.468C58.483 117.006 58.8606 116.647 59.3373 116.39C59.814 116.126 60.353 115.994 60.9543 115.994C61.5336 115.994 62.0543 116.119 62.5163 116.368C62.9856 116.61 63.356 116.962 63.6273 117.424C63.8986 117.879 64.0343 118.425 64.0343 119.063C64.0343 119.129 64.0306 119.206 64.0233 119.294C64.016 119.375 64.0086 119.452 64.0013 119.525H59.1943V118.524H63.0993L62.4393 118.821C62.4393 118.513 62.377 118.245 62.2523 118.018C62.1276 117.791 61.9553 117.615 61.7353 117.49C61.5153 117.358 61.2586 117.292 60.9653 117.292C60.672 117.292 60.4116 117.358 60.1843 117.49C59.9643 117.615 59.792 117.794 59.6673 118.029C59.5426 118.256 59.4803 118.528 59.4803 118.843V119.107C59.4803 119.43 59.55 119.716 59.6893 119.965C59.836 120.207 60.0376 120.394 60.2943 120.526C60.5583 120.651 60.8663 120.713 61.2183 120.713C61.5336 120.713 61.8086 120.665 62.0433 120.57C62.2853 120.475 62.5053 120.332 62.7033 120.141L63.6163 121.131C63.345 121.439 63.004 121.677 62.5933 121.846C62.1826 122.007 61.7096 122.088 61.1743 122.088ZM65.1768 122V116.082H66.8158V117.754L66.5848 117.27C66.7608 116.852 67.0431 116.537 67.4318 116.324C67.8204 116.104 68.2934 115.994 68.8508 115.994V117.578C68.7774 117.571 68.7114 117.567 68.6528 117.567C68.5941 117.56 68.5318 117.556 68.4658 117.556C67.9964 117.556 67.6151 117.692 67.3218 117.963C67.0358 118.227 66.8928 118.641 66.8928 119.206V122H65.1768ZM72.4952 122.088C71.7985 122.088 71.2559 121.912 70.8672 121.56C70.4785 121.201 70.2842 120.669 70.2842 119.965V114.773H72.0002V119.943C72.0002 120.192 72.0662 120.387 72.1982 120.526C72.3302 120.658 72.5099 120.724 72.7372 120.724C73.0085 120.724 73.2395 120.651 73.4302 120.504L73.8922 121.714C73.7162 121.839 73.5035 121.934 73.2542 122C73.0122 122.059 72.7592 122.088 72.4952 122.088ZM69.3712 117.534V116.214H73.4742V117.534H69.3712ZM77.6099 122.088C76.9352 122.088 76.3412 121.956 75.8279 121.692C75.3219 121.428 74.9295 121.069 74.6509 120.614C74.3722 120.152 74.2329 119.628 74.2329 119.041C74.2329 118.447 74.3685 117.923 74.6399 117.468C74.9185 117.006 75.2962 116.647 75.7729 116.39C76.2495 116.126 76.7885 115.994 77.3899 115.994C77.9692 115.994 78.4899 116.119 78.9519 116.368C79.4212 116.61 79.7915 116.962 80.0629 117.424C80.3342 117.879 80.4699 118.425 80.4699 119.063C80.4699 119.129 80.4662 119.206 80.4589 119.294C80.4515 119.375 80.4442 119.452 80.4369 119.525H75.6299V118.524H79.5349L78.8749 118.821C78.8749 118.513 78.8125 118.245 78.6879 118.018C78.5632 117.791 78.3909 117.615 78.1709 117.49C77.9509 117.358 77.6942 117.292 77.4009 117.292C77.1075 117.292 76.8472 117.358 76.6199 117.49C76.3999 117.615 76.2275 117.794 76.1029 118.029C75.9782 118.256 75.9159 118.528 75.9159 118.843V119.107C75.9159 119.43 75.9855 119.716 76.1249 119.965C76.2715 120.207 76.4732 120.394 76.7299 120.526C76.9939 120.651 77.3019 120.713 77.6539 120.713C77.9692 120.713 78.2442 120.665 78.4789 120.57C78.7209 120.475 78.9409 120.332 79.1389 120.141L80.0519 121.131C79.7805 121.439 79.4395 121.677 79.0289 121.846C78.6182 122.007 78.1452 122.088 77.6099 122.088ZM83.6033 122.088C83.0973 122.088 82.6096 122.029 82.1403 121.912C81.6783 121.787 81.3116 121.633 81.0403 121.45L81.6123 120.218C81.8836 120.387 82.2026 120.526 82.5693 120.636C82.9433 120.739 83.31 120.79 83.6693 120.79C84.0653 120.79 84.344 120.742 84.5053 120.647C84.674 120.552 84.7583 120.42 84.7583 120.251C84.7583 120.112 84.6923 120.009 84.5603 119.943C84.4356 119.87 84.267 119.815 84.0543 119.778C83.8416 119.741 83.607 119.705 83.3503 119.668C83.101 119.631 82.848 119.584 82.5913 119.525C82.3346 119.459 82.1 119.364 81.8873 119.239C81.6746 119.114 81.5023 118.946 81.3703 118.733C81.2456 118.52 81.1833 118.245 81.1833 117.908C81.1833 117.534 81.2896 117.204 81.5023 116.918C81.7223 116.632 82.0376 116.408 82.4483 116.247C82.859 116.078 83.3503 115.994 83.9223 115.994C84.3256 115.994 84.7363 116.038 85.1543 116.126C85.5723 116.214 85.9206 116.342 86.1993 116.511L85.6273 117.732C85.3413 117.563 85.0516 117.45 84.7583 117.391C84.4723 117.325 84.1936 117.292 83.9223 117.292C83.541 117.292 83.2623 117.343 83.0863 117.446C82.9103 117.549 82.8223 117.681 82.8223 117.842C82.8223 117.989 82.8846 118.099 83.0093 118.172C83.1413 118.245 83.3136 118.304 83.5263 118.348C83.739 118.392 83.97 118.432 84.2193 118.469C84.476 118.498 84.7326 118.546 84.9893 118.612C85.246 118.678 85.477 118.773 85.6823 118.898C85.895 119.015 86.0673 119.18 86.1993 119.393C86.3313 119.598 86.3973 119.87 86.3973 120.207C86.3973 120.574 86.2873 120.9 86.0673 121.186C85.8473 121.465 85.5283 121.685 85.1103 121.846C84.6996 122.007 84.1973 122.088 83.6033 122.088Z" fill="#191919"/>
<g clip-path="url(#clip4_1498_4441)">
<path d="M41.2807 75.2058C41.1714 75.1738 41.1714 74.9979 41.1714 74.902C41.4526 67.3863 45.2647 60.3822 52.7482 58.5113C60.1535 56.6563 67.4808 59.8385 70.6367 67.0025C71.7772 69.577 72.1053 72.2955 72.3396 75.0939C72.3396 75.1259 72.1834 75.2058 72.1678 75.2058H41.2807Z" fill="#2A2A2A"/>
<path d="M70.0431 81.1712C69.6369 85.4887 67.3247 89.4865 63.5439 91.5493C57.2946 94.9234 48.7175 93.3083 45.171 86.768C44.2493 85.073 43.6868 83.1061 43.4837 81.1712H38.9999C38.25 80.8834 37.7969 80.1798 38.1093 79.3642C38.2343 79.0124 39.7654 77.3653 40.1091 77.1095C40.2341 77.0135 40.3122 76.9336 40.4841 76.9336H73.0115C73.1834 76.9336 73.2615 77.0135 73.3865 77.1095C73.7458 77.3813 75.1675 78.8845 75.355 79.2523C75.7768 80.0998 75.2769 81.0273 74.3707 81.1552H70.0744L70.0431 81.1712ZM67.4028 81.1712H46.124C46.8115 85.3768 49.5768 89.1667 53.7013 90.302C55.4511 90.7817 57.6383 90.8297 59.3881 90.4139C63.7314 89.3905 66.6529 85.5367 67.4028 81.1712Z" fill="#2A2A2A"/>
</g>
<path d="M81 12H121" stroke="#367293" stroke-width="4" stroke-linecap="round"/>
<defs>
<clipPath id="clip0_1498_4441">
<rect width="60" height="60" fill="white" transform="translate(71 412)"/>
</clipPath>
<clipPath id="clip1_1498_4441">
<rect width="38.6" height="37.3977" fill="white" transform="translate(38 153)"/>
</clipPath>
<clipPath id="clip2_1498_4441">
<rect width="38" height="38" fill="white" transform="translate(38 238)"/>
</clipPath>
<clipPath id="clip3_1498_4441">
<rect width="42.773" height="29.2792" fill="white" transform="translate(36 320)"/>
</clipPath>
<clipPath id="clip4_1498_4441">
<rect width="37.48" height="35.26" fill="white" transform="translate(38 58)"/>
</clipPath>
</defs>
</svg>
