<svg width="203" height="519" viewBox="0 0 203 519" fill="none" xmlns="http://www.w3.org/2000/svg">
<rect width="203" height="519" rx="20" transform="matrix(-1 0 0 1 203 0)" fill="#99BED3" fill-opacity="0.5"/>
<path d="M83.5782 484.691L87.3222 476.291H89.2422L92.9982 484.691H90.9582L87.8862 477.275H88.6542L85.5702 484.691H83.5782ZM85.4502 482.891L85.9662 481.415H90.2862L90.8142 482.891H85.4502ZM93.7377 484.691V475.787H95.6097V484.691H93.7377ZM97.3471 484.691V475.787H99.2191V484.691H97.3471ZM100.956 484.691V478.235H102.828V484.691H100.956ZM101.892 477.335C101.548 477.335 101.268 477.235 101.052 477.035C100.836 476.835 100.728 476.587 100.728 476.291C100.728 475.995 100.836 475.747 101.052 475.547C101.268 475.347 101.548 475.247 101.892 475.247C102.236 475.247 102.516 475.343 102.732 475.535C102.948 475.719 103.056 475.959 103.056 476.255C103.056 476.567 102.948 476.827 102.732 477.035C102.524 477.235 102.244 477.335 101.892 477.335ZM107.77 484.787C107.034 484.787 106.386 484.643 105.826 484.355C105.274 484.067 104.846 483.675 104.542 483.179C104.238 482.675 104.086 482.103 104.086 481.463C104.086 480.815 104.234 480.243 104.53 479.747C104.834 479.243 105.246 478.851 105.766 478.571C106.286 478.283 106.874 478.139 107.53 478.139C108.162 478.139 108.73 478.275 109.234 478.547C109.746 478.811 110.15 479.195 110.446 479.699C110.742 480.195 110.89 480.791 110.89 481.487C110.89 481.559 110.886 481.643 110.878 481.739C110.87 481.827 110.862 481.911 110.854 481.991H105.61V480.899H109.87L109.15 481.223C109.15 480.887 109.082 480.595 108.946 480.347C108.81 480.099 108.622 479.907 108.382 479.771C108.142 479.627 107.862 479.555 107.542 479.555C107.222 479.555 106.938 479.627 106.69 479.771C106.45 479.907 106.262 480.103 106.126 480.359C105.99 480.607 105.922 480.903 105.922 481.247V481.535C105.922 481.887 105.998 482.199 106.15 482.471C106.31 482.735 106.53 482.939 106.81 483.083C107.098 483.219 107.434 483.287 107.818 483.287C108.162 483.287 108.462 483.235 108.718 483.131C108.982 483.027 109.222 482.871 109.438 482.663L110.434 483.743C110.138 484.079 109.766 484.339 109.318 484.523C108.87 484.699 108.354 484.787 107.77 484.787ZM106.402 477.407L108.022 475.679H110.038L107.866 477.407H106.402ZM114.308 484.787C113.756 484.787 113.224 484.723 112.712 484.595C112.208 484.459 111.808 484.291 111.512 484.091L112.136 482.747C112.432 482.931 112.78 483.083 113.18 483.203C113.588 483.315 113.988 483.371 114.38 483.371C114.812 483.371 115.116 483.319 115.292 483.215C115.476 483.111 115.568 482.967 115.568 482.783C115.568 482.631 115.496 482.519 115.352 482.447C115.216 482.367 115.032 482.307 114.8 482.267C114.568 482.227 114.312 482.187 114.032 482.147C113.76 482.107 113.484 482.055 113.204 481.991C112.924 481.919 112.668 481.815 112.436 481.679C112.204 481.543 112.016 481.359 111.872 481.127C111.736 480.895 111.668 480.595 111.668 480.227C111.668 479.819 111.784 479.459 112.016 479.147C112.256 478.835 112.6 478.591 113.048 478.415C113.496 478.231 114.032 478.139 114.656 478.139C115.096 478.139 115.544 478.187 116 478.283C116.456 478.379 116.836 478.519 117.14 478.703L116.516 480.035C116.204 479.851 115.888 479.727 115.568 479.663C115.256 479.591 114.952 479.555 114.656 479.555C114.24 479.555 113.936 479.611 113.744 479.723C113.552 479.835 113.456 479.979 113.456 480.155C113.456 480.315 113.524 480.435 113.66 480.515C113.804 480.595 113.992 480.659 114.224 480.707C114.456 480.755 114.708 480.799 114.98 480.839C115.26 480.871 115.54 480.923 115.82 480.995C116.1 481.067 116.352 481.171 116.576 481.307C116.808 481.435 116.996 481.615 117.14 481.847C117.284 482.071 117.356 482.367 117.356 482.735C117.356 483.135 117.236 483.491 116.996 483.803C116.756 484.107 116.408 484.347 115.952 484.523C115.504 484.699 114.956 484.787 114.308 484.787Z" fill="#333333"/>
<g clip-path="url(#clip0_1498_4442)">
<path d="M96.5646 409.064C104.283 408.682 112.36 409.934 118.393 414.753C122.482 418.02 124.753 423.126 125.74 428.02C126.388 431.227 125.99 433.93 129.399 435.759C130.609 436.408 131.651 436.485 132.871 436.908C135.159 437.7 133.555 440.06 131.715 440.111C124.732 440.397 117.371 439.702 110.439 440.182C103.924 440.634 103.389 444.139 98.9547 447.346C94.2337 450.76 88.1819 449.631 82.6438 449.714C78.7377 449.518 74.5275 449.986 70.6568 449.72C69.1799 449.618 67.8213 448.76 68.0187 447.215C68.117 446.448 69.5232 444.342 69.9433 443.436C70.6299 441.956 70.8334 441.341 70.9294 439.713C71.3057 433.304 71.0784 427.976 74.2172 422.019C78.3368 414.2 87.4884 409.514 96.5646 409.064ZM90.8537 440.722C90.8537 439.686 89.9675 438.846 88.8738 438.846C87.7802 438.846 86.8939 439.686 86.8939 440.722C86.8939 441.758 87.7802 442.598 88.8738 442.598C89.9675 442.598 90.8537 441.758 90.8537 440.722Z" fill="#2A2A2A"/>
<path d="M117.547 441.932C116.746 444.765 115.924 447.618 115.627 450.554C115.407 452.738 115.464 456.028 116.063 458.144C116.239 458.765 116.221 458.493 116.587 458.812C118.126 460.152 117.865 462.126 116.587 463.543C116.138 464.041 115.272 464.519 115.072 465.163C114.482 467.056 117.307 466.778 117.397 465.542C117.427 465.131 116.953 464.737 117.642 464.47C118.465 464.152 119.387 465.171 119.466 465.906C119.598 467.134 118.59 468.334 117.374 468.654C115.263 469.209 113.436 468.214 112.888 466.229C110.268 466.579 107.641 466.881 105.003 466.512C99.9437 465.805 94.5462 462.973 90.8191 459.722C88.1733 457.414 85.728 454.524 84.1382 451.463H90.3974C92.2368 454.536 94.6598 457.231 97.5414 459.466C100.963 462.118 103.761 463.515 108.372 463.327C109.664 463.275 113.785 462.591 114.507 461.572C114.747 461.232 114.794 460.483 114.344 460.354C113.927 460.235 112.081 460.475 111.9 460.268C111.719 460.061 111.413 458.59 111.348 458.245C110.465 453.624 110.932 448.33 111.887 443.737C112.01 443.145 112.125 442.473 112.362 441.932H117.546H117.547Z" fill="#2A2A2A"/>
</g>
<path d="M36.8481 247V239.3H40.6101C41.5781 239.3 42.3041 239.483 42.7881 239.85C43.2794 240.217 43.5251 240.701 43.5251 241.302C43.5251 241.705 43.4261 242.057 43.2281 242.358C43.0301 242.651 42.7587 242.879 42.4141 243.04C42.0694 243.201 41.6734 243.282 41.2261 243.282L41.4351 242.831C41.9191 242.831 42.3481 242.912 42.7221 243.073C43.0961 243.227 43.3857 243.458 43.5911 243.766C43.8037 244.074 43.9101 244.452 43.9101 244.899C43.9101 245.559 43.6497 246.076 43.1291 246.45C42.6084 246.817 41.8421 247 40.8301 247H36.8481ZM38.6191 245.658H40.6981C41.1601 245.658 41.5084 245.585 41.7431 245.438C41.9851 245.284 42.1061 245.042 42.1061 244.712C42.1061 244.389 41.9851 244.151 41.7431 243.997C41.5084 243.836 41.1601 243.755 40.6981 243.755H38.4871V242.457H40.3901C40.8227 242.457 41.1527 242.384 41.3801 242.237C41.6147 242.083 41.7321 241.852 41.7321 241.544C41.7321 241.243 41.6147 241.02 41.3801 240.873C41.1527 240.719 40.8227 240.642 40.3901 240.642H38.6191V245.658ZM45.1382 247V238.838H46.8542V247H45.1382ZM51.3838 247.088C50.7091 247.088 50.1151 246.956 49.6018 246.692C49.0958 246.428 48.7035 246.069 48.4248 245.614C48.1461 245.152 48.0068 244.628 48.0068 244.041C48.0068 243.447 48.1425 242.923 48.4138 242.468C48.6925 242.006 49.0701 241.647 49.5468 241.39C50.0235 241.126 50.5625 240.994 51.1638 240.994C51.7431 240.994 52.2638 241.119 52.7258 241.368C53.1951 241.61 53.5655 241.962 53.8368 242.424C54.1081 242.879 54.2438 243.425 54.2438 244.063C54.2438 244.129 54.2401 244.206 54.2328 244.294C54.2255 244.375 54.2181 244.452 54.2108 244.525H49.4038V243.524H53.3088L52.6488 243.821C52.6488 243.513 52.5865 243.245 52.4618 243.018C52.3371 242.791 52.1648 242.615 51.9448 242.49C51.7248 242.358 51.4681 242.292 51.1748 242.292C50.8815 242.292 50.6211 242.358 50.3938 242.49C50.1738 242.615 50.0015 242.794 49.8768 243.029C49.7521 243.256 49.6898 243.528 49.6898 243.843V244.107C49.6898 244.43 49.7595 244.716 49.8988 244.965C50.0455 245.207 50.2471 245.394 50.5038 245.526C50.7678 245.651 51.0758 245.713 51.4278 245.713C51.7431 245.713 52.0181 245.665 52.2528 245.57C52.4948 245.475 52.7148 245.332 52.9128 245.141L53.8258 246.131C53.5545 246.439 53.2135 246.677 52.8028 246.846C52.3921 247.007 51.9191 247.088 51.3838 247.088ZM57.3772 247.088C56.8712 247.088 56.3836 247.029 55.9142 246.912C55.4522 246.787 55.0856 246.633 54.8142 246.45L55.3862 245.218C55.6576 245.387 55.9766 245.526 56.3432 245.636C56.7172 245.739 57.0839 245.79 57.4432 245.79C57.8392 245.79 58.1179 245.742 58.2792 245.647C58.4479 245.552 58.5322 245.42 58.5322 245.251C58.5322 245.112 58.4662 245.009 58.3342 244.943C58.2096 244.87 58.0409 244.815 57.8282 244.778C57.6156 244.741 57.3809 244.705 57.1242 244.668C56.8749 244.631 56.6219 244.584 56.3652 244.525C56.1086 244.459 55.8739 244.364 55.6612 244.239C55.4486 244.114 55.2762 243.946 55.1442 243.733C55.0196 243.52 54.9572 243.245 54.9572 242.908C54.9572 242.534 55.0636 242.204 55.2762 241.918C55.4962 241.632 55.8116 241.408 56.2222 241.247C56.6329 241.078 57.1242 240.994 57.6962 240.994C58.0996 240.994 58.5102 241.038 58.9282 241.126C59.3462 241.214 59.6946 241.342 59.9732 241.511L59.4012 242.732C59.1152 242.563 58.8256 242.45 58.5322 242.391C58.2462 242.325 57.9676 242.292 57.6962 242.292C57.3149 242.292 57.0362 242.343 56.8602 242.446C56.6842 242.549 56.5962 242.681 56.5962 242.842C56.5962 242.989 56.6586 243.099 56.7832 243.172C56.9152 243.245 57.0876 243.304 57.3002 243.348C57.5129 243.392 57.7439 243.432 57.9932 243.469C58.2499 243.498 58.5066 243.546 58.7632 243.612C59.0199 243.678 59.2509 243.773 59.4562 243.898C59.6689 244.015 59.8412 244.18 59.9732 244.393C60.1052 244.598 60.1712 244.87 60.1712 245.207C60.1712 245.574 60.0612 245.9 59.8412 246.186C59.6212 246.465 59.3022 246.685 58.8842 246.846C58.4736 247.007 57.9712 247.088 57.3772 247.088ZM63.221 247.088C62.715 247.088 62.2273 247.029 61.758 246.912C61.296 246.787 60.9293 246.633 60.658 246.45L61.23 245.218C61.5013 245.387 61.8203 245.526 62.187 245.636C62.561 245.739 62.9277 245.79 63.287 245.79C63.683 245.79 63.9617 245.742 64.123 245.647C64.2917 245.552 64.376 245.42 64.376 245.251C64.376 245.112 64.31 245.009 64.178 244.943C64.0533 244.87 63.8847 244.815 63.672 244.778C63.4593 244.741 63.2247 244.705 62.968 244.668C62.7187 244.631 62.4657 244.584 62.209 244.525C61.9523 244.459 61.7177 244.364 61.505 244.239C61.2923 244.114 61.12 243.946 60.988 243.733C60.8633 243.52 60.801 243.245 60.801 242.908C60.801 242.534 60.9073 242.204 61.12 241.918C61.34 241.632 61.6553 241.408 62.066 241.247C62.4767 241.078 62.968 240.994 63.54 240.994C63.9433 240.994 64.354 241.038 64.772 241.126C65.19 241.214 65.5383 241.342 65.817 241.511L65.245 242.732C64.959 242.563 64.6693 242.45 64.376 242.391C64.09 242.325 63.8113 242.292 63.54 242.292C63.1587 242.292 62.88 242.343 62.704 242.446C62.528 242.549 62.44 242.681 62.44 242.842C62.44 242.989 62.5023 243.099 62.627 243.172C62.759 243.245 62.9313 243.304 63.144 243.348C63.3567 243.392 63.5877 243.432 63.837 243.469C64.0937 243.498 64.3503 243.546 64.607 243.612C64.8637 243.678 65.0947 243.773 65.3 243.898C65.5127 244.015 65.685 244.18 65.817 244.393C65.949 244.598 66.015 244.87 66.015 245.207C66.015 245.574 65.905 245.9 65.685 246.186C65.465 246.465 65.146 246.685 64.728 246.846C64.3173 247.007 63.815 247.088 63.221 247.088ZM70.0107 247.088C69.3361 247.088 68.7421 246.956 68.2287 246.692C67.7227 246.428 67.3304 246.069 67.0517 245.614C66.7731 245.152 66.6337 244.628 66.6337 244.041C66.6337 243.447 66.7694 242.923 67.0407 242.468C67.3194 242.006 67.6971 241.647 68.1737 241.39C68.6504 241.126 69.1894 240.994 69.7907 240.994C70.3701 240.994 70.8907 241.119 71.3527 241.368C71.8221 241.61 72.1924 241.962 72.4637 242.424C72.7351 242.879 72.8707 243.425 72.8707 244.063C72.8707 244.129 72.8671 244.206 72.8597 244.294C72.8524 244.375 72.8451 244.452 72.8377 244.525H68.0307V243.524H71.9357L71.2757 243.821C71.2757 243.513 71.2134 243.245 71.0887 243.018C70.9641 242.791 70.7917 242.615 70.5717 242.49C70.3517 242.358 70.0951 242.292 69.8017 242.292C69.5084 242.292 69.2481 242.358 69.0207 242.49C68.8007 242.615 68.6284 242.794 68.5037 243.029C68.3791 243.256 68.3167 243.528 68.3167 243.843V244.107C68.3167 244.43 68.3864 244.716 68.5257 244.965C68.6724 245.207 68.8741 245.394 69.1307 245.526C69.3947 245.651 69.7027 245.713 70.0547 245.713C70.3701 245.713 70.6451 245.665 70.8797 245.57C71.1217 245.475 71.3417 245.332 71.5397 245.141L72.4527 246.131C72.1814 246.439 71.8404 246.677 71.4297 246.846C71.0191 247.007 70.5461 247.088 70.0107 247.088ZM68.7567 240.323L70.2417 238.739H72.0897L70.0987 240.323H68.7567ZM76.0042 247.088C75.4982 247.088 75.0105 247.029 74.5412 246.912C74.0792 246.787 73.7125 246.633 73.4412 246.45L74.0132 245.218C74.2845 245.387 74.6035 245.526 74.9702 245.636C75.3442 245.739 75.7109 245.79 76.0702 245.79C76.4662 245.79 76.7449 245.742 76.9062 245.647C77.0749 245.552 77.1592 245.42 77.1592 245.251C77.1592 245.112 77.0932 245.009 76.9612 244.943C76.8365 244.87 76.6679 244.815 76.4552 244.778C76.2425 244.741 76.0079 244.705 75.7512 244.668C75.5019 244.631 75.2489 244.584 74.9922 244.525C74.7355 244.459 74.5009 244.364 74.2882 244.239C74.0755 244.114 73.9032 243.946 73.7712 243.733C73.6465 243.52 73.5842 243.245 73.5842 242.908C73.5842 242.534 73.6905 242.204 73.9032 241.918C74.1232 241.632 74.4385 241.408 74.8492 241.247C75.2599 241.078 75.7512 240.994 76.3232 240.994C76.7265 240.994 77.1372 241.038 77.5552 241.126C77.9732 241.214 78.3215 241.342 78.6002 241.511L78.0282 242.732C77.7422 242.563 77.4525 242.45 77.1592 242.391C76.8732 242.325 76.5945 242.292 76.3232 242.292C75.9419 242.292 75.6632 242.343 75.4872 242.446C75.3112 242.549 75.2232 242.681 75.2232 242.842C75.2232 242.989 75.2855 243.099 75.4102 243.172C75.5422 243.245 75.7145 243.304 75.9272 243.348C76.1399 243.392 76.3709 243.432 76.6202 243.469C76.8769 243.498 77.1335 243.546 77.3902 243.612C77.6469 243.678 77.8779 243.773 78.0832 243.898C78.2959 244.015 78.4682 244.18 78.6002 244.393C78.7322 244.598 78.7982 244.87 78.7982 245.207C78.7982 245.574 78.6882 245.9 78.4682 246.186C78.2482 246.465 77.9292 246.685 77.5112 246.846C77.1005 247.007 76.5982 247.088 76.0042 247.088Z" fill="#191919"/>
<g clip-path="url(#clip1_1498_4442)">
<path d="M38 213.278V202.893L38.1799 202.729H51.4117L51.5915 202.565V190.352C51.5915 190.352 51.7457 190.094 51.7971 190.047L62.4083 190C62.4083 190 62.6652 190.305 62.6652 190.352V202.542L62.845 202.706H75.9484C75.9484 202.706 76.1797 202.893 76.2053 202.94V213.161C76.2053 213.161 75.8713 213.395 75.82 213.395H62.845L62.6652 213.56V227.484C62.6652 227.601 62.0486 227.953 61.843 227.883C58.8626 227.695 55.5996 228.117 52.6706 227.883C52.3366 227.859 51.5915 227.742 51.5915 227.367V213.56L51.4117 213.395H38.3083C38.3083 213.395 38.1028 213.231 38 213.278Z" fill="#2A2A2A"/>
</g>
<path d="M109.32 207.82H112.69V209.08H109.32V207.82ZM109.44 210.7H113.25V212H107.83V205H113.12V206.3H109.44V210.7ZM117.699 206.54C118.126 206.54 118.506 206.627 118.839 206.8C119.179 206.967 119.446 207.227 119.639 207.58C119.832 207.927 119.929 208.373 119.929 208.92V212H118.369V209.16C118.369 208.727 118.272 208.407 118.079 208.2C117.892 207.993 117.626 207.89 117.279 207.89C117.032 207.89 116.809 207.943 116.609 208.05C116.416 208.15 116.262 208.307 116.149 208.52C116.042 208.733 115.989 209.007 115.989 209.34V212H114.429V206.62H115.919V208.11L115.639 207.66C115.832 207.3 116.109 207.023 116.469 206.83C116.829 206.637 117.239 206.54 117.699 206.54ZM122.705 212L120.445 206.62H122.055L123.935 211.25H123.135L125.085 206.62H126.585L124.315 212H122.705ZM127.222 212V206.62H128.782V212H127.222ZM128.002 205.87C127.715 205.87 127.482 205.787 127.302 205.62C127.122 205.453 127.032 205.247 127.032 205C127.032 204.753 127.122 204.547 127.302 204.38C127.482 204.213 127.715 204.13 128.002 204.13C128.289 204.13 128.522 204.21 128.702 204.37C128.882 204.523 128.972 204.723 128.972 204.97C128.972 205.23 128.882 205.447 128.702 205.62C128.529 205.787 128.295 205.87 128.002 205.87ZM130.23 212V206.62H131.72V208.14L131.51 207.7C131.67 207.32 131.926 207.033 132.28 206.84C132.633 206.64 133.063 206.54 133.57 206.54V207.98C133.503 207.973 133.443 207.97 133.39 207.97C133.336 207.963 133.28 207.96 133.22 207.96C132.793 207.96 132.446 208.083 132.18 208.33C131.92 208.57 131.79 208.947 131.79 209.46V212H130.23ZM137.018 212.08C136.445 212.08 135.935 211.96 135.488 211.72C135.048 211.48 134.698 211.153 134.438 210.74C134.185 210.32 134.058 209.843 134.058 209.31C134.058 208.77 134.185 208.293 134.438 207.88C134.698 207.46 135.048 207.133 135.488 206.9C135.935 206.66 136.445 206.54 137.018 206.54C137.585 206.54 138.092 206.66 138.538 206.9C138.985 207.133 139.335 207.457 139.588 207.87C139.842 208.283 139.968 208.763 139.968 209.31C139.968 209.843 139.842 210.32 139.588 210.74C139.335 211.153 138.985 211.48 138.538 211.72C138.092 211.96 137.585 212.08 137.018 212.08ZM137.018 210.8C137.278 210.8 137.512 210.74 137.718 210.62C137.925 210.5 138.088 210.33 138.208 210.11C138.328 209.883 138.388 209.617 138.388 209.31C138.388 208.997 138.328 208.73 138.208 208.51C138.088 208.29 137.925 208.12 137.718 208C137.512 207.88 137.278 207.82 137.018 207.82C136.758 207.82 136.525 207.88 136.318 208C136.112 208.12 135.945 208.29 135.818 208.51C135.698 208.73 135.638 208.997 135.638 209.31C135.638 209.617 135.698 209.883 135.818 210.11C135.945 210.33 136.112 210.5 136.318 210.62C136.525 210.74 136.758 210.8 137.018 210.8ZM144.281 206.54C144.708 206.54 145.088 206.627 145.421 206.8C145.761 206.967 146.028 207.227 146.221 207.58C146.414 207.927 146.511 208.373 146.511 208.92V212H144.951V209.16C144.951 208.727 144.854 208.407 144.661 208.2C144.474 207.993 144.208 207.89 143.861 207.89C143.614 207.89 143.391 207.943 143.191 208.05C142.998 208.15 142.844 208.307 142.731 208.52C142.624 208.733 142.571 209.007 142.571 209.34V212H141.011V206.62H142.501V208.11L142.221 207.66C142.414 207.3 142.691 207.023 143.051 206.83C143.411 206.637 143.821 206.54 144.281 206.54ZM149.735 212.08C149.275 212.08 148.832 212.027 148.405 211.92C147.985 211.807 147.652 211.667 147.405 211.5L147.925 210.38C148.172 210.533 148.462 210.66 148.795 210.76C149.135 210.853 149.468 210.9 149.795 210.9C150.155 210.9 150.408 210.857 150.555 210.77C150.708 210.683 150.785 210.563 150.785 210.41C150.785 210.283 150.725 210.19 150.605 210.13C150.492 210.063 150.338 210.013 150.145 209.98C149.952 209.947 149.738 209.913 149.505 209.88C149.278 209.847 149.048 209.803 148.815 209.75C148.582 209.69 148.368 209.603 148.175 209.49C147.982 209.377 147.825 209.223 147.705 209.03C147.592 208.837 147.535 208.587 147.535 208.28C147.535 207.94 147.632 207.64 147.825 207.38C148.025 207.12 148.312 206.917 148.685 206.77C149.058 206.617 149.505 206.54 150.025 206.54C150.392 206.54 150.765 206.58 151.145 206.66C151.525 206.74 151.842 206.857 152.095 207.01L151.575 208.12C151.315 207.967 151.052 207.863 150.785 207.81C150.525 207.75 150.272 207.72 150.025 207.72C149.678 207.72 149.425 207.767 149.265 207.86C149.105 207.953 149.025 208.073 149.025 208.22C149.025 208.353 149.082 208.453 149.195 208.52C149.315 208.587 149.472 208.64 149.665 208.68C149.858 208.72 150.068 208.757 150.295 208.79C150.528 208.817 150.762 208.86 150.995 208.92C151.228 208.98 151.438 209.067 151.625 209.18C151.818 209.287 151.975 209.437 152.095 209.63C152.215 209.817 152.275 210.063 152.275 210.37C152.275 210.703 152.175 211 151.975 211.26C151.775 211.513 151.485 211.713 151.105 211.86C150.732 212.007 150.275 212.08 149.735 212.08ZM107.594 234V232.11L112.454 227.52C112.838 227.172 113.12 226.86 113.3 226.584C113.48 226.308 113.6 226.056 113.66 225.828C113.732 225.6 113.768 225.39 113.768 225.198C113.768 224.694 113.594 224.31 113.246 224.046C112.91 223.77 112.412 223.632 111.752 223.632C111.224 223.632 110.732 223.734 110.276 223.938C109.832 224.142 109.454 224.46 109.142 224.892L107.018 223.524C107.498 222.804 108.17 222.234 109.034 221.814C109.898 221.394 110.894 221.184 112.022 221.184C112.958 221.184 113.774 221.34 114.47 221.652C115.178 221.952 115.724 222.378 116.108 222.93C116.504 223.482 116.702 224.142 116.702 224.91C116.702 225.318 116.648 225.726 116.54 226.134C116.444 226.53 116.24 226.95 115.928 227.394C115.628 227.838 115.184 228.336 114.596 228.888L110.564 232.686L110.006 231.624H117.116V234H107.594ZM120.263 234V222.48L121.523 223.74H117.743V221.4H123.179V234H120.263ZM125.476 236.772L126.664 232.452L127.06 234.072C126.544 234.072 126.118 233.922 125.782 233.622C125.458 233.322 125.296 232.908 125.296 232.38C125.296 231.852 125.464 231.432 125.8 231.12C126.136 230.808 126.55 230.652 127.042 230.652C127.546 230.652 127.96 230.814 128.284 231.138C128.608 231.45 128.77 231.864 128.77 232.38C128.77 232.536 128.758 232.692 128.734 232.848C128.71 232.992 128.662 233.172 128.59 233.388C128.53 233.592 128.428 233.856 128.284 234.18L127.258 236.772H125.476ZM135.25 234.216C134.218 234.216 133.294 233.964 132.478 233.46C131.662 232.944 131.02 232.2 130.552 231.228C130.084 230.256 129.85 229.08 129.85 227.7C129.85 226.32 130.084 225.144 130.552 224.172C131.02 223.2 131.662 222.462 132.478 221.958C133.294 221.442 134.218 221.184 135.25 221.184C136.294 221.184 137.218 221.442 138.022 221.958C138.838 222.462 139.48 223.2 139.948 224.172C140.416 225.144 140.65 226.32 140.65 227.7C140.65 229.08 140.416 230.256 139.948 231.228C139.48 232.2 138.838 232.944 138.022 233.46C137.218 233.964 136.294 234.216 135.25 234.216ZM135.25 231.75C135.742 231.75 136.168 231.612 136.528 231.336C136.9 231.06 137.188 230.622 137.392 230.022C137.608 229.422 137.716 228.648 137.716 227.7C137.716 226.752 137.608 225.978 137.392 225.378C137.188 224.778 136.9 224.34 136.528 224.064C136.168 223.788 135.742 223.65 135.25 223.65C134.77 223.65 134.344 223.788 133.972 224.064C133.612 224.34 133.324 224.778 133.108 225.378C132.904 225.978 132.802 226.752 132.802 227.7C132.802 228.648 132.904 229.422 133.108 230.022C133.324 230.622 133.612 231.06 133.972 231.336C134.344 231.612 134.77 231.75 135.25 231.75ZM147.467 234.216C146.435 234.216 145.511 233.964 144.695 233.46C143.879 232.944 143.237 232.2 142.769 231.228C142.301 230.256 142.067 229.08 142.067 227.7C142.067 226.32 142.301 225.144 142.769 224.172C143.237 223.2 143.879 222.462 144.695 221.958C145.511 221.442 146.435 221.184 147.467 221.184C148.511 221.184 149.435 221.442 150.239 221.958C151.055 222.462 151.697 223.2 152.165 224.172C152.633 225.144 152.867 226.32 152.867 227.7C152.867 229.08 152.633 230.256 152.165 231.228C151.697 232.2 151.055 232.944 150.239 233.46C149.435 233.964 148.511 234.216 147.467 234.216ZM147.467 231.75C147.959 231.75 148.385 231.612 148.745 231.336C149.117 231.06 149.405 230.622 149.609 230.022C149.825 229.422 149.933 228.648 149.933 227.7C149.933 226.752 149.825 225.978 149.609 225.378C149.405 224.778 149.117 224.34 148.745 224.064C148.385 223.788 147.959 223.65 147.467 223.65C146.987 223.65 146.561 223.788 146.189 224.064C145.829 224.34 145.541 224.778 145.325 225.378C145.121 225.978 145.019 226.752 145.019 227.7C145.019 228.648 145.121 229.422 145.325 230.022C145.541 230.622 145.829 231.06 146.189 231.336C146.561 231.612 146.987 231.75 147.467 231.75ZM159.684 234.216C158.652 234.216 157.728 233.964 156.912 233.46C156.096 232.944 155.454 232.2 154.986 231.228C154.518 230.256 154.284 229.08 154.284 227.7C154.284 226.32 154.518 225.144 154.986 224.172C155.454 223.2 156.096 222.462 156.912 221.958C157.728 221.442 158.652 221.184 159.684 221.184C160.728 221.184 161.652 221.442 162.456 221.958C163.272 222.462 163.914 223.2 164.382 224.172C164.85 225.144 165.084 226.32 165.084 227.7C165.084 229.08 164.85 230.256 164.382 231.228C163.914 232.2 163.272 232.944 162.456 233.46C161.652 233.964 160.728 234.216 159.684 234.216ZM159.684 231.75C160.176 231.75 160.602 231.612 160.962 231.336C161.334 231.06 161.622 230.622 161.826 230.022C162.042 229.422 162.15 228.648 162.15 227.7C162.15 226.752 162.042 225.978 161.826 225.378C161.622 224.778 161.334 224.34 160.962 224.064C160.602 223.788 160.176 223.65 159.684 223.65C159.204 223.65 158.778 223.788 158.406 224.064C158.046 224.34 157.758 224.778 157.542 225.378C157.338 225.978 157.236 226.752 157.236 227.7C157.236 228.648 157.338 229.422 157.542 230.022C157.758 230.622 158.046 231.06 158.406 231.336C158.778 231.612 159.204 231.75 159.684 231.75Z" fill="#191919"/>
<path d="M46.5051 364V357.752H44.0411V356.3H50.7511V357.752H48.2871V364H46.5051ZM53.957 364.088C53.4656 364.088 53.0256 363.993 52.637 363.802C52.2556 363.611 51.9586 363.322 51.746 362.933C51.5333 362.537 51.427 362.035 51.427 361.426V358.082H53.143V361.173C53.143 361.664 53.2456 362.027 53.451 362.262C53.6636 362.489 53.9606 362.603 54.342 362.603C54.606 362.603 54.8406 362.548 55.046 362.438C55.2513 362.321 55.4126 362.145 55.53 361.91C55.6473 361.668 55.706 361.367 55.706 361.008V358.082H57.422V364H55.794V362.372L56.091 362.845C55.893 363.256 55.5996 363.567 55.211 363.78C54.8296 363.985 54.4116 364.088 53.957 364.088ZM61.9487 364.088C61.2741 364.088 60.6801 363.956 60.1667 363.692C59.6607 363.428 59.2684 363.069 58.9897 362.614C58.7111 362.152 58.5717 361.628 58.5717 361.041C58.5717 360.447 58.7074 359.923 58.9787 359.468C59.2574 359.006 59.6351 358.647 60.1117 358.39C60.5884 358.126 61.1274 357.994 61.7287 357.994C62.3081 357.994 62.8287 358.119 63.2907 358.368C63.7601 358.61 64.1304 358.962 64.4017 359.424C64.6731 359.879 64.8087 360.425 64.8087 361.063C64.8087 361.129 64.8051 361.206 64.7977 361.294C64.7904 361.375 64.7831 361.452 64.7757 361.525H59.9687V360.524H63.8737L63.2137 360.821C63.2137 360.513 63.1514 360.245 63.0267 360.018C62.9021 359.791 62.7297 359.615 62.5097 359.49C62.2897 359.358 62.0331 359.292 61.7397 359.292C61.4464 359.292 61.1861 359.358 60.9587 359.49C60.7387 359.615 60.5664 359.794 60.4417 360.029C60.3171 360.256 60.2547 360.528 60.2547 360.843V361.107C60.2547 361.43 60.3244 361.716 60.4637 361.965C60.6104 362.207 60.8121 362.394 61.0687 362.526C61.3327 362.651 61.6407 362.713 61.9927 362.713C62.3081 362.713 62.5831 362.665 62.8177 362.57C63.0597 362.475 63.2797 362.332 63.4777 362.141L64.3907 363.131C64.1194 363.439 63.7784 363.677 63.3677 363.846C62.9571 364.007 62.4841 364.088 61.9487 364.088ZM60.6947 357.323L62.1797 355.739H64.0277L62.0367 357.323H60.6947ZM67.9422 364.088C67.4362 364.088 66.9485 364.029 66.4792 363.912C66.0172 363.787 65.6505 363.633 65.3792 363.45L65.9512 362.218C66.2225 362.387 66.5415 362.526 66.9082 362.636C67.2822 362.739 67.6488 362.79 68.0082 362.79C68.4042 362.79 68.6828 362.742 68.8442 362.647C69.0128 362.552 69.0972 362.42 69.0972 362.251C69.0972 362.112 69.0312 362.009 68.8992 361.943C68.7745 361.87 68.6058 361.815 68.3932 361.778C68.1805 361.741 67.9458 361.705 67.6892 361.668C67.4398 361.631 67.1868 361.584 66.9302 361.525C66.6735 361.459 66.4388 361.364 66.2262 361.239C66.0135 361.114 65.8412 360.946 65.7092 360.733C65.5845 360.52 65.5222 360.245 65.5222 359.908C65.5222 359.534 65.6285 359.204 65.8412 358.918C66.0612 358.632 66.3765 358.408 66.7872 358.247C67.1978 358.078 67.6892 357.994 68.2612 357.994C68.6645 357.994 69.0752 358.038 69.4932 358.126C69.9112 358.214 70.2595 358.342 70.5382 358.511L69.9662 359.732C69.6802 359.563 69.3905 359.45 69.0972 359.391C68.8112 359.325 68.5325 359.292 68.2612 359.292C67.8798 359.292 67.6012 359.343 67.4252 359.446C67.2492 359.549 67.1612 359.681 67.1612 359.842C67.1612 359.989 67.2235 360.099 67.3482 360.172C67.4802 360.245 67.6525 360.304 67.8652 360.348C68.0778 360.392 68.3088 360.432 68.5582 360.469C68.8148 360.498 69.0715 360.546 69.3282 360.612C69.5848 360.678 69.8158 360.773 70.0212 360.898C70.2338 361.015 70.4062 361.18 70.5382 361.393C70.6702 361.598 70.7362 361.87 70.7362 362.207C70.7362 362.574 70.6262 362.9 70.4062 363.186C70.1862 363.465 69.8672 363.685 69.4492 363.846C69.0385 364.007 68.5362 364.088 67.9422 364.088Z" fill="#191919"/>
<g clip-path="url(#clip2_1498_4442)">
<path d="M44.175 341.676C52.6849 338.989 62.0878 338.804 70.6256 341.491L70.6814 341.584C70.6256 342.572 70.5419 343.591 70.4582 344.61C70.4582 344.641 73.3042 345.753 73.5553 345.815C74.6434 346.186 76.9872 346.587 77.9916 345.753C78.6054 345.259 78.8287 344.61 78.717 343.746C78.5496 342.449 76.2896 339.7 75.9269 338.155C75.5363 336.488 75.62 334.048 75.2573 332.164C74.4481 327.716 72.2718 324.103 69.1189 321.292L67.1937 321.817L66.4404 326.357C64.85 327.438 63.6502 328.674 62.5621 330.372L62.8969 327.222L64.9895 325.184C64.9895 324.69 65.0174 324.195 64.9895 323.67C64.9616 322.836 64.5431 320.551 64.7384 319.933C64.7942 319.717 65.5754 318.883 65.4638 318.729C55.0845 313.941 41.915 319.13 39.4875 332.133C39.1248 334.048 39.2085 336.426 38.8179 338.125C38.7063 338.65 37.9809 339.916 37.7018 340.472C36.9764 341.923 34.9396 344.394 36.6695 345.815C37.4507 346.464 39.069 346.216 39.9619 346.155C40.2967 346.155 44.3424 344.981 44.3145 344.765C44.2308 343.746 44.175 342.726 44.1471 341.707L44.175 341.676Z" fill="#2A2A2A"/>
</g>
<path d="M109.32 329.82H112.69V331.08H109.32V329.82ZM109.44 332.7H113.25V334H107.83V327H113.12V328.3H109.44V332.7ZM117.699 328.54C118.126 328.54 118.506 328.627 118.839 328.8C119.179 328.967 119.446 329.227 119.639 329.58C119.832 329.927 119.929 330.373 119.929 330.92V334H118.369V331.16C118.369 330.727 118.272 330.407 118.079 330.2C117.892 329.993 117.626 329.89 117.279 329.89C117.032 329.89 116.809 329.943 116.609 330.05C116.416 330.15 116.262 330.307 116.149 330.52C116.042 330.733 115.989 331.007 115.989 331.34V334H114.429V328.62H115.919V330.11L115.639 329.66C115.832 329.3 116.109 329.023 116.469 328.83C116.829 328.637 117.239 328.54 117.699 328.54ZM122.705 334L120.445 328.62H122.055L123.935 333.25H123.135L125.085 328.62H126.585L124.315 334H122.705ZM127.222 334V328.62H128.782V334H127.222ZM128.002 327.87C127.715 327.87 127.482 327.787 127.302 327.62C127.122 327.453 127.032 327.247 127.032 327C127.032 326.753 127.122 326.547 127.302 326.38C127.482 326.213 127.715 326.13 128.002 326.13C128.289 326.13 128.522 326.21 128.702 326.37C128.882 326.523 128.972 326.723 128.972 326.97C128.972 327.23 128.882 327.447 128.702 327.62C128.529 327.787 128.295 327.87 128.002 327.87ZM130.23 334V328.62H131.72V330.14L131.51 329.7C131.67 329.32 131.926 329.033 132.28 328.84C132.633 328.64 133.063 328.54 133.57 328.54V329.98C133.503 329.973 133.443 329.97 133.39 329.97C133.336 329.963 133.28 329.96 133.22 329.96C132.793 329.96 132.446 330.083 132.18 330.33C131.92 330.57 131.79 330.947 131.79 331.46V334H130.23ZM137.018 334.08C136.445 334.08 135.935 333.96 135.488 333.72C135.048 333.48 134.698 333.153 134.438 332.74C134.185 332.32 134.058 331.843 134.058 331.31C134.058 330.77 134.185 330.293 134.438 329.88C134.698 329.46 135.048 329.133 135.488 328.9C135.935 328.66 136.445 328.54 137.018 328.54C137.585 328.54 138.092 328.66 138.538 328.9C138.985 329.133 139.335 329.457 139.588 329.87C139.842 330.283 139.968 330.763 139.968 331.31C139.968 331.843 139.842 332.32 139.588 332.74C139.335 333.153 138.985 333.48 138.538 333.72C138.092 333.96 137.585 334.08 137.018 334.08ZM137.018 332.8C137.278 332.8 137.512 332.74 137.718 332.62C137.925 332.5 138.088 332.33 138.208 332.11C138.328 331.883 138.388 331.617 138.388 331.31C138.388 330.997 138.328 330.73 138.208 330.51C138.088 330.29 137.925 330.12 137.718 330C137.512 329.88 137.278 329.82 137.018 329.82C136.758 329.82 136.525 329.88 136.318 330C136.112 330.12 135.945 330.29 135.818 330.51C135.698 330.73 135.638 330.997 135.638 331.31C135.638 331.617 135.698 331.883 135.818 332.11C135.945 332.33 136.112 332.5 136.318 332.62C136.525 332.74 136.758 332.8 137.018 332.8ZM144.281 328.54C144.708 328.54 145.088 328.627 145.421 328.8C145.761 328.967 146.028 329.227 146.221 329.58C146.414 329.927 146.511 330.373 146.511 330.92V334H144.951V331.16C144.951 330.727 144.854 330.407 144.661 330.2C144.474 329.993 144.208 329.89 143.861 329.89C143.614 329.89 143.391 329.943 143.191 330.05C142.998 330.15 142.844 330.307 142.731 330.52C142.624 330.733 142.571 331.007 142.571 331.34V334H141.011V328.62H142.501V330.11L142.221 329.66C142.414 329.3 142.691 329.023 143.051 328.83C143.411 328.637 143.821 328.54 144.281 328.54ZM149.735 334.08C149.275 334.08 148.832 334.027 148.405 333.92C147.985 333.807 147.652 333.667 147.405 333.5L147.925 332.38C148.172 332.533 148.462 332.66 148.795 332.76C149.135 332.853 149.468 332.9 149.795 332.9C150.155 332.9 150.408 332.857 150.555 332.77C150.708 332.683 150.785 332.563 150.785 332.41C150.785 332.283 150.725 332.19 150.605 332.13C150.492 332.063 150.338 332.013 150.145 331.98C149.952 331.947 149.738 331.913 149.505 331.88C149.278 331.847 149.048 331.803 148.815 331.75C148.582 331.69 148.368 331.603 148.175 331.49C147.982 331.377 147.825 331.223 147.705 331.03C147.592 330.837 147.535 330.587 147.535 330.28C147.535 329.94 147.632 329.64 147.825 329.38C148.025 329.12 148.312 328.917 148.685 328.77C149.058 328.617 149.505 328.54 150.025 328.54C150.392 328.54 150.765 328.58 151.145 328.66C151.525 328.74 151.842 328.857 152.095 329.01L151.575 330.12C151.315 329.967 151.052 329.863 150.785 329.81C150.525 329.75 150.272 329.72 150.025 329.72C149.678 329.72 149.425 329.767 149.265 329.86C149.105 329.953 149.025 330.073 149.025 330.22C149.025 330.353 149.082 330.453 149.195 330.52C149.315 330.587 149.472 330.64 149.665 330.68C149.858 330.72 150.068 330.757 150.295 330.79C150.528 330.817 150.762 330.86 150.995 330.92C151.228 330.98 151.438 331.067 151.625 331.18C151.818 331.287 151.975 331.437 152.095 331.63C152.215 331.817 152.275 332.063 152.275 332.37C152.275 332.703 152.175 333 151.975 333.26C151.775 333.513 151.485 333.713 151.105 333.86C150.732 334.007 150.275 334.08 149.735 334.08ZM109.718 356L114.794 344.516L115.55 345.776H108.764L110.06 344.408V347.828H107.468V343.4H117.566V345.29L112.886 356H109.718ZM118.111 358.772L119.299 354.452L119.695 356.072C119.179 356.072 118.753 355.922 118.417 355.622C118.093 355.322 117.931 354.908 117.931 354.38C117.931 353.852 118.099 353.432 118.435 353.12C118.771 352.808 119.185 352.652 119.677 352.652C120.181 352.652 120.595 352.814 120.919 353.138C121.243 353.45 121.405 353.864 121.405 354.38C121.405 354.536 121.393 354.692 121.369 354.848C121.345 354.992 121.297 355.172 121.225 355.388C121.165 355.592 121.063 355.856 120.919 356.18L119.893 358.772H118.111ZM127.885 356.216C126.853 356.216 125.929 355.964 125.113 355.46C124.297 354.944 123.655 354.2 123.187 353.228C122.719 352.256 122.485 351.08 122.485 349.7C122.485 348.32 122.719 347.144 123.187 346.172C123.655 345.2 124.297 344.462 125.113 343.958C125.929 343.442 126.853 343.184 127.885 343.184C128.929 343.184 129.853 343.442 130.657 343.958C131.473 344.462 132.115 345.2 132.583 346.172C133.051 347.144 133.285 348.32 133.285 349.7C133.285 351.08 133.051 352.256 132.583 353.228C132.115 354.2 131.473 354.944 130.657 355.46C129.853 355.964 128.929 356.216 127.885 356.216ZM127.885 353.75C128.377 353.75 128.803 353.612 129.163 353.336C129.535 353.06 129.823 352.622 130.027 352.022C130.243 351.422 130.351 350.648 130.351 349.7C130.351 348.752 130.243 347.978 130.027 347.378C129.823 346.778 129.535 346.34 129.163 346.064C128.803 345.788 128.377 345.65 127.885 345.65C127.405 345.65 126.979 345.788 126.607 346.064C126.247 346.34 125.959 346.778 125.743 347.378C125.539 347.978 125.437 348.752 125.437 349.7C125.437 350.648 125.539 351.422 125.743 352.022C125.959 352.622 126.247 353.06 126.607 353.336C126.979 353.612 127.405 353.75 127.885 353.75ZM140.102 356.216C139.07 356.216 138.146 355.964 137.33 355.46C136.514 354.944 135.872 354.2 135.404 353.228C134.936 352.256 134.702 351.08 134.702 349.7C134.702 348.32 134.936 347.144 135.404 346.172C135.872 345.2 136.514 344.462 137.33 343.958C138.146 343.442 139.07 343.184 140.102 343.184C141.146 343.184 142.07 343.442 142.874 343.958C143.69 344.462 144.332 345.2 144.8 346.172C145.268 347.144 145.502 348.32 145.502 349.7C145.502 351.08 145.268 352.256 144.8 353.228C144.332 354.2 143.69 354.944 142.874 355.46C142.07 355.964 141.146 356.216 140.102 356.216ZM140.102 353.75C140.594 353.75 141.02 353.612 141.38 353.336C141.752 353.06 142.04 352.622 142.244 352.022C142.46 351.422 142.568 350.648 142.568 349.7C142.568 348.752 142.46 347.978 142.244 347.378C142.04 346.778 141.752 346.34 141.38 346.064C141.02 345.788 140.594 345.65 140.102 345.65C139.622 345.65 139.196 345.788 138.824 346.064C138.464 346.34 138.176 346.778 137.96 347.378C137.756 347.978 137.654 348.752 137.654 349.7C137.654 350.648 137.756 351.422 137.96 352.022C138.176 352.622 138.464 353.06 138.824 353.336C139.196 353.612 139.622 353.75 140.102 353.75ZM152.319 356.216C151.287 356.216 150.363 355.964 149.547 355.46C148.731 354.944 148.089 354.2 147.621 353.228C147.153 352.256 146.919 351.08 146.919 349.7C146.919 348.32 147.153 347.144 147.621 346.172C148.089 345.2 148.731 344.462 149.547 343.958C150.363 343.442 151.287 343.184 152.319 343.184C153.363 343.184 154.287 343.442 155.091 343.958C155.907 344.462 156.549 345.2 157.017 346.172C157.485 347.144 157.719 348.32 157.719 349.7C157.719 351.08 157.485 352.256 157.017 353.228C156.549 354.2 155.907 354.944 155.091 355.46C154.287 355.964 153.363 356.216 152.319 356.216ZM152.319 353.75C152.811 353.75 153.237 353.612 153.597 353.336C153.969 353.06 154.257 352.622 154.461 352.022C154.677 351.422 154.785 350.648 154.785 349.7C154.785 348.752 154.677 347.978 154.461 347.378C154.257 346.778 153.969 346.34 153.597 346.064C153.237 345.788 152.811 345.65 152.319 345.65C151.839 345.65 151.413 345.788 151.041 346.064C150.681 346.34 150.393 346.778 150.177 347.378C149.973 347.978 149.871 348.752 149.871 349.7C149.871 350.648 149.973 351.422 150.177 352.022C150.393 352.622 150.681 353.06 151.041 353.336C151.413 353.612 151.839 353.75 152.319 353.75Z" fill="#191919"/>
<path d="M44.3083 106V99.752H41.8443V98.3H48.5543V99.752H46.0903V106H44.3083ZM51.6065 106.088C50.9759 106.088 50.4149 105.956 49.9235 105.692C49.4395 105.428 49.0545 105.069 48.7685 104.614C48.4899 104.152 48.3505 103.628 48.3505 103.041C48.3505 102.447 48.4899 101.923 48.7685 101.468C49.0545 101.006 49.4395 100.647 49.9235 100.39C50.4149 100.126 50.9759 99.994 51.6065 99.994C52.2299 99.994 52.7872 100.126 53.2785 100.39C53.7699 100.647 54.1549 101.002 54.4335 101.457C54.7122 101.912 54.8515 102.44 54.8515 103.041C54.8515 103.628 54.7122 104.152 54.4335 104.614C54.1549 105.069 53.7699 105.428 53.2785 105.692C52.7872 105.956 52.2299 106.088 51.6065 106.088ZM51.6065 104.68C51.8925 104.68 52.1492 104.614 52.3765 104.482C52.6039 104.35 52.7835 104.163 52.9155 103.921C53.0475 103.672 53.1135 103.378 53.1135 103.041C53.1135 102.696 53.0475 102.403 52.9155 102.161C52.7835 101.919 52.6039 101.732 52.3765 101.6C52.1492 101.468 51.8925 101.402 51.6065 101.402C51.3205 101.402 51.0639 101.468 50.8365 101.6C50.6092 101.732 50.4259 101.919 50.2865 102.161C50.1545 102.403 50.0885 102.696 50.0885 103.041C50.0885 103.378 50.1545 103.672 50.2865 103.921C50.4259 104.163 50.6092 104.35 50.8365 104.482C51.0639 104.614 51.3205 104.68 51.6065 104.68ZM58.4185 106.088C57.7219 106.088 57.1792 105.912 56.7905 105.56C56.4019 105.201 56.2075 104.669 56.2075 103.965V98.773H57.9235V103.943C57.9235 104.192 57.9895 104.387 58.1215 104.526C58.2535 104.658 58.4332 104.724 58.6605 104.724C58.9319 104.724 59.1629 104.651 59.3535 104.504L59.8155 105.714C59.6395 105.839 59.4269 105.934 59.1775 106C58.9355 106.059 58.6825 106.088 58.4185 106.088ZM55.2945 101.534V100.214H59.3975V101.534H55.2945ZM64.4088 106V104.845L64.2988 104.592V102.524C64.2988 102.157 64.1851 101.871 63.9578 101.666C63.7378 101.461 63.3968 101.358 62.9348 101.358C62.6195 101.358 62.3078 101.409 61.9998 101.512C61.6991 101.607 61.4425 101.739 61.2298 101.908L60.6138 100.709C60.9365 100.482 61.3251 100.306 61.7798 100.181C62.2345 100.056 62.6965 99.994 63.1658 99.994C64.0678 99.994 64.7682 100.207 65.2668 100.632C65.7655 101.057 66.0148 101.721 66.0148 102.623V106H64.4088ZM62.6048 106.088C62.1428 106.088 61.7468 106.011 61.4168 105.857C61.0868 105.696 60.8338 105.479 60.6578 105.208C60.4818 104.937 60.3938 104.632 60.3938 104.295C60.3938 103.943 60.4781 103.635 60.6468 103.371C60.8228 103.107 61.0978 102.902 61.4718 102.755C61.8458 102.601 62.3335 102.524 62.9348 102.524H64.5078V103.525H63.1218C62.7185 103.525 62.4398 103.591 62.2858 103.723C62.1391 103.855 62.0658 104.02 62.0658 104.218C62.0658 104.438 62.1501 104.614 62.3188 104.746C62.4948 104.871 62.7331 104.933 63.0338 104.933C63.3198 104.933 63.5765 104.867 63.8038 104.735C64.0311 104.596 64.1961 104.394 64.2988 104.13L64.5628 104.922C64.4381 105.303 64.2108 105.593 63.8808 105.791C63.5508 105.989 63.1255 106.088 62.6048 106.088ZM67.5679 106V97.838H69.2839V106H67.5679ZM30.6689 119.088C30.1116 119.088 29.6093 118.963 29.1619 118.714C28.7146 118.457 28.3589 118.102 28.0949 117.647C27.8383 117.192 27.7099 116.657 27.7099 116.041C27.7099 115.418 27.8383 114.879 28.0949 114.424C28.3589 113.969 28.7146 113.617 29.1619 113.368C29.6093 113.119 30.1116 112.994 30.6689 112.994C31.1676 112.994 31.6039 113.104 31.9779 113.324C32.3519 113.544 32.6416 113.878 32.8469 114.325C33.0523 114.772 33.1549 115.344 33.1549 116.041C33.1549 116.73 33.0559 117.302 32.8579 117.757C32.6599 118.204 32.3739 118.538 31.9999 118.758C31.6333 118.978 31.1896 119.088 30.6689 119.088ZM30.9659 117.68C31.2446 117.68 31.4976 117.614 31.7249 117.482C31.9523 117.35 32.1319 117.163 32.2639 116.921C32.4033 116.672 32.4729 116.378 32.4729 116.041C32.4729 115.696 32.4033 115.403 32.2639 115.161C32.1319 114.919 31.9523 114.732 31.7249 114.6C31.4976 114.468 31.2446 114.402 30.9659 114.402C30.6799 114.402 30.4233 114.468 30.1959 114.6C29.9686 114.732 29.7853 114.919 29.6459 115.161C29.5139 115.403 29.4479 115.696 29.4479 116.041C29.4479 116.378 29.5139 116.672 29.6459 116.921C29.7853 117.163 29.9686 117.35 30.1959 117.482C30.4233 117.614 30.6799 117.68 30.9659 117.68ZM32.5169 119V117.79L32.5499 116.03L32.4399 114.281V110.838H34.1559V119H32.5169ZM38.6811 119.088C38.0065 119.088 37.4125 118.956 36.8991 118.692C36.3931 118.428 36.0008 118.069 35.7221 117.614C35.4435 117.152 35.3041 116.628 35.3041 116.041C35.3041 115.447 35.4398 114.923 35.7111 114.468C35.9898 114.006 36.3675 113.647 36.8441 113.39C37.3208 113.126 37.8598 112.994 38.4611 112.994C39.0405 112.994 39.5611 113.119 40.0231 113.368C40.4925 113.61 40.8628 113.962 41.1341 114.424C41.4055 114.879 41.5411 115.425 41.5411 116.063C41.5411 116.129 41.5375 116.206 41.5301 116.294C41.5228 116.375 41.5155 116.452 41.5081 116.525H36.7011V115.524H40.6061L39.9461 115.821C39.9461 115.513 39.8838 115.245 39.7591 115.018C39.6345 114.791 39.4621 114.615 39.2421 114.49C39.0221 114.358 38.7655 114.292 38.4721 114.292C38.1788 114.292 37.9185 114.358 37.6911 114.49C37.4711 114.615 37.2988 114.794 37.1741 115.029C37.0495 115.256 36.9871 115.528 36.9871 115.843V116.107C36.9871 116.43 37.0568 116.716 37.1961 116.965C37.3428 117.207 37.5445 117.394 37.8011 117.526C38.0651 117.651 38.3731 117.713 38.7251 117.713C39.0405 117.713 39.3155 117.665 39.5501 117.57C39.7921 117.475 40.0121 117.332 40.2101 117.141L41.1231 118.131C40.8518 118.439 40.5108 118.677 40.1001 118.846C39.6895 119.007 39.2165 119.088 38.6811 119.088ZM44.6746 119.088C44.1686 119.088 43.6809 119.029 43.2116 118.912C42.7496 118.787 42.3829 118.633 42.1116 118.45L42.6836 117.218C42.9549 117.387 43.2739 117.526 43.6406 117.636C44.0146 117.739 44.3813 117.79 44.7406 117.79C45.1366 117.79 45.4153 117.742 45.5766 117.647C45.7453 117.552 45.8296 117.42 45.8296 117.251C45.8296 117.112 45.7636 117.009 45.6316 116.943C45.5069 116.87 45.3383 116.815 45.1256 116.778C44.9129 116.741 44.6783 116.705 44.4216 116.668C44.1723 116.631 43.9193 116.584 43.6626 116.525C43.4059 116.459 43.1713 116.364 42.9586 116.239C42.7459 116.114 42.5736 115.946 42.4416 115.733C42.3169 115.52 42.2546 115.245 42.2546 114.908C42.2546 114.534 42.3609 114.204 42.5736 113.918C42.7936 113.632 43.1089 113.408 43.5196 113.247C43.9303 113.078 44.4216 112.994 44.9936 112.994C45.3969 112.994 45.8076 113.038 46.2256 113.126C46.6436 113.214 46.9919 113.342 47.2706 113.511L46.6986 114.732C46.4126 114.563 46.1229 114.45 45.8296 114.391C45.5436 114.325 45.2649 114.292 44.9936 114.292C44.6123 114.292 44.3336 114.343 44.1576 114.446C43.9816 114.549 43.8936 114.681 43.8936 114.842C43.8936 114.989 43.9559 115.099 44.0806 115.172C44.2126 115.245 44.3849 115.304 44.5976 115.348C44.8103 115.392 45.0413 115.432 45.2906 115.469C45.5473 115.498 45.8039 115.546 46.0606 115.612C46.3173 115.678 46.5483 115.773 46.7536 115.898C46.9663 116.015 47.1386 116.18 47.2706 116.393C47.4026 116.598 47.4686 116.87 47.4686 117.207C47.4686 117.574 47.3586 117.9 47.1386 118.186C46.9186 118.465 46.5996 118.685 46.1816 118.846C45.7709 119.007 45.2686 119.088 44.6746 119.088ZM55.1406 119.088C54.6419 119.088 54.2056 118.978 53.8316 118.758C53.4576 118.538 53.1643 118.204 52.9516 117.757C52.7463 117.302 52.6436 116.73 52.6436 116.041C52.6436 115.344 52.7426 114.772 52.9406 114.325C53.1386 113.878 53.4246 113.544 53.7986 113.324C54.1726 113.104 54.6199 112.994 55.1406 112.994C55.6979 112.994 56.1966 113.122 56.6366 113.379C57.0839 113.628 57.4359 113.98 57.6926 114.435C57.9566 114.89 58.0886 115.425 58.0886 116.041C58.0886 116.664 57.9566 117.203 57.6926 117.658C57.4359 118.113 57.0839 118.465 56.6366 118.714C56.1966 118.963 55.6979 119.088 55.1406 119.088ZM51.6426 121.134V113.082H53.2816V114.292L53.2486 116.052L53.3586 117.801V121.134H51.6426ZM54.8436 117.68C55.1296 117.68 55.3826 117.614 55.6026 117.482C55.8299 117.35 56.0096 117.163 56.1416 116.921C56.2809 116.672 56.3506 116.378 56.3506 116.041C56.3506 115.696 56.2809 115.403 56.1416 115.161C56.0096 114.919 55.8299 114.732 55.6026 114.6C55.3826 114.468 55.1296 114.402 54.8436 114.402C54.5576 114.402 54.3009 114.468 54.0736 114.6C53.8463 114.732 53.6666 114.919 53.5346 115.161C53.4026 115.403 53.3366 115.696 53.3366 116.041C53.3366 116.378 53.4026 116.672 53.5346 116.921C53.6666 117.163 53.8463 117.35 54.0736 117.482C54.3009 117.614 54.5576 117.68 54.8436 117.68ZM62.1743 119.088C61.4996 119.088 60.9056 118.956 60.3923 118.692C59.8863 118.428 59.494 118.069 59.2153 117.614C58.9366 117.152 58.7973 116.628 58.7973 116.041C58.7973 115.447 58.933 114.923 59.2043 114.468C59.483 114.006 59.8606 113.647 60.3373 113.39C60.814 113.126 61.353 112.994 61.9543 112.994C62.5336 112.994 63.0543 113.119 63.5163 113.368C63.9856 113.61 64.356 113.962 64.6273 114.424C64.8986 114.879 65.0343 115.425 65.0343 116.063C65.0343 116.129 65.0306 116.206 65.0233 116.294C65.016 116.375 65.0086 116.452 65.0013 116.525H60.1943V115.524H64.0993L63.4393 115.821C63.4393 115.513 63.377 115.245 63.2523 115.018C63.1276 114.791 62.9553 114.615 62.7353 114.49C62.5153 114.358 62.2586 114.292 61.9653 114.292C61.672 114.292 61.4116 114.358 61.1843 114.49C60.9643 114.615 60.792 114.794 60.6673 115.029C60.5426 115.256 60.4803 115.528 60.4803 115.843V116.107C60.4803 116.43 60.55 116.716 60.6893 116.965C60.836 117.207 61.0376 117.394 61.2943 117.526C61.5583 117.651 61.8663 117.713 62.2183 117.713C62.5336 117.713 62.8086 117.665 63.0433 117.57C63.2853 117.475 63.5053 117.332 63.7033 117.141L64.6163 118.131C64.345 118.439 64.004 118.677 63.5933 118.846C63.1826 119.007 62.7096 119.088 62.1743 119.088ZM66.1768 119V113.082H67.8158V114.754L67.5848 114.27C67.7608 113.852 68.0431 113.537 68.4318 113.324C68.8204 113.104 69.2934 112.994 69.8508 112.994V114.578C69.7774 114.571 69.7114 114.567 69.6528 114.567C69.5941 114.56 69.5318 114.556 69.4658 114.556C68.9964 114.556 68.6151 114.692 68.3218 114.963C68.0358 115.227 67.8928 115.641 67.8928 116.206V119H66.1768ZM73.4952 119.088C72.7985 119.088 72.2559 118.912 71.8672 118.56C71.4785 118.201 71.2842 117.669 71.2842 116.965V111.773H73.0002V116.943C73.0002 117.192 73.0662 117.387 73.1982 117.526C73.3302 117.658 73.5099 117.724 73.7372 117.724C74.0085 117.724 74.2395 117.651 74.4302 117.504L74.8922 118.714C74.7162 118.839 74.5035 118.934 74.2542 119C74.0122 119.059 73.7592 119.088 73.4952 119.088ZM70.3712 114.534V113.214H74.4742V114.534H70.3712ZM78.6099 119.088C77.9352 119.088 77.3412 118.956 76.8279 118.692C76.3219 118.428 75.9295 118.069 75.6509 117.614C75.3722 117.152 75.2329 116.628 75.2329 116.041C75.2329 115.447 75.3685 114.923 75.6399 114.468C75.9185 114.006 76.2962 113.647 76.7729 113.39C77.2495 113.126 77.7885 112.994 78.3899 112.994C78.9692 112.994 79.4899 113.119 79.9519 113.368C80.4212 113.61 80.7915 113.962 81.0629 114.424C81.3342 114.879 81.4699 115.425 81.4699 116.063C81.4699 116.129 81.4662 116.206 81.4589 116.294C81.4515 116.375 81.4442 116.452 81.4369 116.525H76.6299V115.524H80.5349L79.8749 115.821C79.8749 115.513 79.8125 115.245 79.6879 115.018C79.5632 114.791 79.3909 114.615 79.1709 114.49C78.9509 114.358 78.6942 114.292 78.4009 114.292C78.1075 114.292 77.8472 114.358 77.6199 114.49C77.3999 114.615 77.2275 114.794 77.1029 115.029C76.9782 115.256 76.9159 115.528 76.9159 115.843V116.107C76.9159 116.43 76.9855 116.716 77.1249 116.965C77.2715 117.207 77.4732 117.394 77.7299 117.526C77.9939 117.651 78.3019 117.713 78.6539 117.713C78.9692 117.713 79.2442 117.665 79.4789 117.57C79.7209 117.475 79.9409 117.332 80.1389 117.141L81.0519 118.131C80.7805 118.439 80.4395 118.677 80.0289 118.846C79.6182 119.007 79.1452 119.088 78.6099 119.088ZM84.6033 119.088C84.0973 119.088 83.6096 119.029 83.1403 118.912C82.6783 118.787 82.3116 118.633 82.0403 118.45L82.6123 117.218C82.8836 117.387 83.2026 117.526 83.5693 117.636C83.9433 117.739 84.31 117.79 84.6693 117.79C85.0653 117.79 85.344 117.742 85.5053 117.647C85.674 117.552 85.7583 117.42 85.7583 117.251C85.7583 117.112 85.6923 117.009 85.5603 116.943C85.4356 116.87 85.267 116.815 85.0543 116.778C84.8416 116.741 84.607 116.705 84.3503 116.668C84.101 116.631 83.848 116.584 83.5913 116.525C83.3346 116.459 83.1 116.364 82.8873 116.239C82.6746 116.114 82.5023 115.946 82.3703 115.733C82.2456 115.52 82.1833 115.245 82.1833 114.908C82.1833 114.534 82.2896 114.204 82.5023 113.918C82.7223 113.632 83.0376 113.408 83.4483 113.247C83.859 113.078 84.3503 112.994 84.9223 112.994C85.3256 112.994 85.7363 113.038 86.1543 113.126C86.5723 113.214 86.9206 113.342 87.1993 113.511L86.6273 114.732C86.3413 114.563 86.0516 114.45 85.7583 114.391C85.4723 114.325 85.1936 114.292 84.9223 114.292C84.541 114.292 84.2623 114.343 84.0863 114.446C83.9103 114.549 83.8223 114.681 83.8223 114.842C83.8223 114.989 83.8846 115.099 84.0093 115.172C84.1413 115.245 84.3136 115.304 84.5263 115.348C84.739 115.392 84.97 115.432 85.2193 115.469C85.476 115.498 85.7326 115.546 85.9893 115.612C86.246 115.678 86.477 115.773 86.6823 115.898C86.895 116.015 87.0673 116.18 87.1993 116.393C87.3313 116.598 87.3973 116.87 87.3973 117.207C87.3973 117.574 87.2873 117.9 87.0673 118.186C86.8473 118.465 86.5283 118.685 86.1103 118.846C85.6996 119.007 85.1973 119.088 84.6033 119.088Z" fill="#191919"/>
<g clip-path="url(#clip3_1498_4442)">
<path d="M42.2807 72.2058C42.1714 72.1738 42.1714 71.9979 42.1714 71.902C42.4526 64.3863 46.2647 57.3822 53.7482 55.5113C61.1535 53.6563 68.4808 56.8385 71.6367 64.0025C72.7772 66.577 73.1053 69.2955 73.3396 72.0939C73.3396 72.1259 73.1834 72.2058 73.1678 72.2058H42.2807Z" fill="#2A2A2A"/>
<path d="M71.0431 78.1712C70.6369 82.4887 68.3247 86.4865 64.5439 88.5493C58.2946 91.9234 49.7175 90.3083 46.171 83.768C45.2493 82.073 44.6868 80.1061 44.4837 78.1712H39.9999C39.25 77.8834 38.7969 77.1798 39.1093 76.3642C39.2343 76.0124 40.7654 74.3653 41.1091 74.1095C41.2341 74.0135 41.3122 73.9336 41.4841 73.9336H74.0115C74.1834 73.9336 74.2615 74.0135 74.3865 74.1095C74.7458 74.3813 76.1675 75.8845 76.355 76.2523C76.7768 77.0998 76.2769 78.0273 75.3707 78.1552H71.0744L71.0431 78.1712ZM68.4028 78.1712H47.124C47.8115 82.3768 50.5768 86.1667 54.7013 87.302C56.4511 87.7817 58.6383 87.8297 60.3881 87.4139C64.7314 86.3905 67.6529 82.5367 68.4028 78.1712Z" fill="#2A2A2A"/>
</g>
<path d="M109.32 75.82H112.69V77.08H109.32V75.82ZM109.44 78.7H113.25V80H107.83V73H113.12V74.3H109.44V78.7ZM117.699 74.54C118.126 74.54 118.506 74.6267 118.839 74.8C119.179 74.9667 119.446 75.2267 119.639 75.58C119.832 75.9267 119.929 76.3733 119.929 76.92V80H118.369V77.16C118.369 76.7267 118.272 76.4067 118.079 76.2C117.892 75.9933 117.626 75.89 117.279 75.89C117.032 75.89 116.809 75.9433 116.609 76.05C116.416 76.15 116.262 76.3067 116.149 76.52C116.042 76.7333 115.989 77.0067 115.989 77.34V80H114.429V74.62H115.919V76.11L115.639 75.66C115.832 75.3 116.109 75.0233 116.469 74.83C116.829 74.6367 117.239 74.54 117.699 74.54ZM122.705 80L120.445 74.62H122.055L123.935 79.25H123.135L125.085 74.62H126.585L124.315 80H122.705ZM127.222 80V74.62H128.782V80H127.222ZM128.002 73.87C127.715 73.87 127.482 73.7867 127.302 73.62C127.122 73.4533 127.032 73.2467 127.032 73C127.032 72.7533 127.122 72.5467 127.302 72.38C127.482 72.2133 127.715 72.13 128.002 72.13C128.289 72.13 128.522 72.21 128.702 72.37C128.882 72.5233 128.972 72.7233 128.972 72.97C128.972 73.23 128.882 73.4467 128.702 73.62C128.529 73.7867 128.295 73.87 128.002 73.87ZM130.23 80V74.62H131.72V76.14L131.51 75.7C131.67 75.32 131.926 75.0333 132.28 74.84C132.633 74.64 133.063 74.54 133.57 74.54V75.98C133.503 75.9733 133.443 75.97 133.39 75.97C133.336 75.9633 133.28 75.96 133.22 75.96C132.793 75.96 132.446 76.0833 132.18 76.33C131.92 76.57 131.79 76.9467 131.79 77.46V80H130.23ZM137.018 80.08C136.445 80.08 135.935 79.96 135.488 79.72C135.048 79.48 134.698 79.1533 134.438 78.74C134.185 78.32 134.058 77.8433 134.058 77.31C134.058 76.77 134.185 76.2933 134.438 75.88C134.698 75.46 135.048 75.1333 135.488 74.9C135.935 74.66 136.445 74.54 137.018 74.54C137.585 74.54 138.092 74.66 138.538 74.9C138.985 75.1333 139.335 75.4567 139.588 75.87C139.842 76.2833 139.968 76.7633 139.968 77.31C139.968 77.8433 139.842 78.32 139.588 78.74C139.335 79.1533 138.985 79.48 138.538 79.72C138.092 79.96 137.585 80.08 137.018 80.08ZM137.018 78.8C137.278 78.8 137.512 78.74 137.718 78.62C137.925 78.5 138.088 78.33 138.208 78.11C138.328 77.8833 138.388 77.6167 138.388 77.31C138.388 76.9967 138.328 76.73 138.208 76.51C138.088 76.29 137.925 76.12 137.718 76C137.512 75.88 137.278 75.82 137.018 75.82C136.758 75.82 136.525 75.88 136.318 76C136.112 76.12 135.945 76.29 135.818 76.51C135.698 76.73 135.638 76.9967 135.638 77.31C135.638 77.6167 135.698 77.8833 135.818 78.11C135.945 78.33 136.112 78.5 136.318 78.62C136.525 78.74 136.758 78.8 137.018 78.8ZM144.281 74.54C144.708 74.54 145.088 74.6267 145.421 74.8C145.761 74.9667 146.028 75.2267 146.221 75.58C146.414 75.9267 146.511 76.3733 146.511 76.92V80H144.951V77.16C144.951 76.7267 144.854 76.4067 144.661 76.2C144.474 75.9933 144.208 75.89 143.861 75.89C143.614 75.89 143.391 75.9433 143.191 76.05C142.998 76.15 142.844 76.3067 142.731 76.52C142.624 76.7333 142.571 77.0067 142.571 77.34V80H141.011V74.62H142.501V76.11L142.221 75.66C142.414 75.3 142.691 75.0233 143.051 74.83C143.411 74.6367 143.821 74.54 144.281 74.54ZM149.735 80.08C149.275 80.08 148.832 80.0267 148.405 79.92C147.985 79.8067 147.652 79.6667 147.405 79.5L147.925 78.38C148.172 78.5333 148.462 78.66 148.795 78.76C149.135 78.8533 149.468 78.9 149.795 78.9C150.155 78.9 150.408 78.8567 150.555 78.77C150.708 78.6833 150.785 78.5633 150.785 78.41C150.785 78.2833 150.725 78.19 150.605 78.13C150.492 78.0633 150.338 78.0133 150.145 77.98C149.952 77.9467 149.738 77.9133 149.505 77.88C149.278 77.8467 149.048 77.8033 148.815 77.75C148.582 77.69 148.368 77.6033 148.175 77.49C147.982 77.3767 147.825 77.2233 147.705 77.03C147.592 76.8367 147.535 76.5867 147.535 76.28C147.535 75.94 147.632 75.64 147.825 75.38C148.025 75.12 148.312 74.9167 148.685 74.77C149.058 74.6167 149.505 74.54 150.025 74.54C150.392 74.54 150.765 74.58 151.145 74.66C151.525 74.74 151.842 74.8567 152.095 75.01L151.575 76.12C151.315 75.9667 151.052 75.8633 150.785 75.81C150.525 75.75 150.272 75.72 150.025 75.72C149.678 75.72 149.425 75.7667 149.265 75.86C149.105 75.9533 149.025 76.0733 149.025 76.22C149.025 76.3533 149.082 76.4533 149.195 76.52C149.315 76.5867 149.472 76.64 149.665 76.68C149.858 76.72 150.068 76.7567 150.295 76.79C150.528 76.8167 150.762 76.86 150.995 76.92C151.228 76.98 151.438 77.0667 151.625 77.18C151.818 77.2867 151.975 77.4367 152.095 77.63C152.215 77.8167 152.275 78.0633 152.275 78.37C152.275 78.7033 152.175 79 151.975 79.26C151.775 79.5133 151.485 79.7133 151.105 79.86C150.732 80.0067 150.275 80.08 149.735 80.08ZM109.646 102V90.48L110.906 91.74H107.126V89.4H112.562V102H109.646ZM119.035 102.216C118.159 102.216 117.289 102.102 116.425 101.874C115.573 101.634 114.841 101.298 114.229 100.866L115.381 98.634C115.861 98.982 116.413 99.258 117.037 99.462C117.673 99.666 118.315 99.768 118.963 99.768C119.695 99.768 120.271 99.624 120.691 99.336C121.111 99.048 121.321 98.646 121.321 98.13C121.321 97.806 121.237 97.518 121.069 97.266C120.901 97.014 120.601 96.822 120.169 96.69C119.749 96.558 119.155 96.492 118.387 96.492H115.165L115.813 89.4H123.499V91.74H116.857L118.369 90.408L117.919 95.466L116.407 94.134H119.071C120.319 94.134 121.321 94.308 122.077 94.656C122.845 94.992 123.403 95.454 123.751 96.042C124.099 96.63 124.273 97.296 124.273 98.04C124.273 98.784 124.087 99.474 123.715 100.11C123.343 100.734 122.767 101.244 121.987 101.64C121.219 102.024 120.235 102.216 119.035 102.216ZM130.676 102.216C129.62 102.216 128.696 102.06 127.904 101.748C127.112 101.424 126.494 100.974 126.05 100.398C125.606 99.81 125.384 99.126 125.384 98.346C125.384 97.566 125.6 96.906 126.032 96.366C126.476 95.814 127.094 95.4 127.886 95.124C128.678 94.836 129.608 94.692 130.676 94.692C131.756 94.692 132.692 94.836 133.484 95.124C134.288 95.4 134.906 95.814 135.338 96.366C135.782 96.906 136.004 97.566 136.004 98.346C136.004 99.126 135.782 99.81 135.338 100.398C134.894 100.974 134.27 101.424 133.466 101.748C132.674 102.06 131.744 102.216 130.676 102.216ZM130.676 100.074C131.408 100.074 131.984 99.912 132.404 99.588C132.836 99.264 133.052 98.82 133.052 98.256C133.052 97.692 132.836 97.254 132.404 96.942C131.984 96.618 131.408 96.456 130.676 96.456C129.956 96.456 129.386 96.618 128.966 96.942C128.546 97.254 128.336 97.692 128.336 98.256C128.336 98.82 128.546 99.264 128.966 99.588C129.386 99.912 129.956 100.074 130.676 100.074ZM130.676 96.168C129.704 96.168 128.852 96.036 128.12 95.772C127.4 95.508 126.836 95.124 126.428 94.62C126.032 94.104 125.834 93.492 125.834 92.784C125.834 92.04 126.038 91.404 126.446 90.876C126.854 90.336 127.424 89.922 128.156 89.634C128.888 89.334 129.728 89.184 130.676 89.184C131.648 89.184 132.494 89.334 133.214 89.634C133.946 89.922 134.516 90.336 134.924 90.876C135.344 91.404 135.554 92.04 135.554 92.784C135.554 93.492 135.35 94.104 134.942 94.62C134.546 95.124 133.982 95.508 133.25 95.772C132.518 96.036 131.66 96.168 130.676 96.168ZM130.676 94.458C131.288 94.458 131.768 94.32 132.116 94.044C132.476 93.768 132.656 93.39 132.656 92.91C132.656 92.406 132.47 92.016 132.098 91.74C131.738 91.464 131.264 91.326 130.676 91.326C130.1 91.326 129.632 91.464 129.272 91.74C128.912 92.016 128.732 92.406 128.732 92.91C128.732 93.39 128.906 93.768 129.254 94.044C129.602 94.32 130.076 94.458 130.676 94.458ZM137.623 104.772L138.811 100.452L139.207 102.072C138.691 102.072 138.265 101.922 137.929 101.622C137.605 101.322 137.443 100.908 137.443 100.38C137.443 99.852 137.611 99.432 137.947 99.12C138.283 98.808 138.697 98.652 139.188 98.652C139.693 98.652 140.107 98.814 140.431 99.138C140.755 99.45 140.917 99.864 140.917 100.38C140.917 100.536 140.905 100.692 140.881 100.848C140.857 100.992 140.809 101.172 140.737 101.388C140.677 101.592 140.575 101.856 140.431 102.18L139.405 104.772H137.623ZM142.293 102V100.11L147.153 95.52C147.537 95.172 147.819 94.86 147.999 94.584C148.179 94.308 148.299 94.056 148.359 93.828C148.431 93.6 148.467 93.39 148.467 93.198C148.467 92.694 148.293 92.31 147.945 92.046C147.609 91.77 147.111 91.632 146.451 91.632C145.923 91.632 145.431 91.734 144.975 91.938C144.531 92.142 144.153 92.46 143.841 92.892L141.717 91.524C142.197 90.804 142.869 90.234 143.733 89.814C144.597 89.394 145.593 89.184 146.721 89.184C147.657 89.184 148.473 89.34 149.169 89.652C149.877 89.952 150.423 90.378 150.807 90.93C151.203 91.482 151.401 92.142 151.401 92.91C151.401 93.318 151.347 93.726 151.239 94.134C151.143 94.53 150.939 94.95 150.627 95.394C150.327 95.838 149.883 96.336 149.295 96.888L145.263 100.686L144.705 99.624H151.815V102H142.293ZM157.302 102.216C156.426 102.216 155.556 102.102 154.692 101.874C153.84 101.634 153.108 101.298 152.496 100.866L153.648 98.634C154.128 98.982 154.68 99.258 155.304 99.462C155.94 99.666 156.582 99.768 157.23 99.768C157.962 99.768 158.538 99.624 158.958 99.336C159.378 99.048 159.588 98.646 159.588 98.13C159.588 97.806 159.504 97.518 159.336 97.266C159.168 97.014 158.868 96.822 158.436 96.69C158.016 96.558 157.422 96.492 156.654 96.492H153.432L154.08 89.4H161.766V91.74H155.124L156.636 90.408L156.186 95.466L154.674 94.134H157.338C158.586 94.134 159.588 94.308 160.344 94.656C161.112 94.992 161.67 95.454 162.018 96.042C162.366 96.63 162.54 97.296 162.54 98.04C162.54 98.784 162.354 99.474 161.982 100.11C161.61 100.734 161.034 101.244 160.254 101.64C159.486 102.024 158.502 102.216 157.302 102.216ZM169.123 102.216C168.091 102.216 167.167 101.964 166.351 101.46C165.535 100.944 164.893 100.2 164.425 99.228C163.957 98.256 163.723 97.08 163.723 95.7C163.723 94.32 163.957 93.144 164.425 92.172C164.893 91.2 165.535 90.462 166.351 89.958C167.167 89.442 168.091 89.184 169.123 89.184C170.167 89.184 171.091 89.442 171.895 89.958C172.711 90.462 173.353 91.2 173.821 92.172C174.289 93.144 174.523 94.32 174.523 95.7C174.523 97.08 174.289 98.256 173.821 99.228C173.353 100.2 172.711 100.944 171.895 101.46C171.091 101.964 170.167 102.216 169.123 102.216ZM169.123 99.75C169.615 99.75 170.041 99.612 170.401 99.336C170.773 99.06 171.061 98.622 171.265 98.022C171.481 97.422 171.589 96.648 171.589 95.7C171.589 94.752 171.481 93.978 171.265 93.378C171.061 92.778 170.773 92.34 170.401 92.064C170.041 91.788 169.615 91.65 169.123 91.65C168.643 91.65 168.217 91.788 167.845 92.064C167.485 92.34 167.197 92.778 166.981 93.378C166.777 93.978 166.675 94.752 166.675 95.7C166.675 96.648 166.777 97.422 166.981 98.022C167.197 98.622 167.485 99.06 167.845 99.336C168.217 99.612 168.643 99.75 169.123 99.75Z" fill="#191919"/>
<path d="M81 9H121" stroke="#367293" stroke-width="4" stroke-linecap="round"/>
<defs>
<clipPath id="clip0_1498_4442">
<rect width="66" height="59.8051" fill="white" transform="translate(68 409)"/>
</clipPath>
<clipPath id="clip1_1498_4442">
<rect width="38.2567" height="38" fill="white" transform="translate(38 190)"/>
</clipPath>
<clipPath id="clip2_1498_4442">
<rect width="42.773" height="29.2792" fill="white" transform="translate(36 317)"/>
</clipPath>
<clipPath id="clip3_1498_4442">
<rect width="37.48" height="35.26" fill="white" transform="translate(39 55)"/>
</clipPath>
</defs>
</svg>
