<svg width="52" height="44" viewBox="0 0 52 44" fill="none" xmlns="http://www.w3.org/2000/svg">
<g clip-path="url(#clip0_1308_3752)">
<path d="M7.77043 38.7687L7.72178 38.3481C5.48686 33.9426 3.14034 29.593 0.530553 25.3978C0.333102 24.8599 0.487629 24.5537 1.0528 24.4492C17.8247 27.039 34.5508 29.902 51.317 32.5318C52.0481 32.7207 51.9966 33.1213 51.8049 33.7351C51.2226 35.5909 50.3111 37.4595 49.6902 39.3139C49.1851 40.1838 47.2635 39.7875 46.4709 39.5056C44.7954 38.9089 44.1501 38.4396 42.2042 38.5827C39.8605 38.7558 38.7331 40.3998 36.1662 39.7402C34.2675 39.2523 33.6036 38.4225 31.3172 38.5799C28.4985 38.7744 27.9806 40.6731 24.6267 39.5213C23.0414 38.9776 22.2645 38.4525 20.4373 38.5827C18.1395 38.7458 16.9562 40.2768 14.4609 39.8032C13.4779 39.6172 12.6466 39.0735 11.698 38.8131C10.4088 38.4597 9.07389 38.5241 7.77186 38.7687H7.77043ZM28.8576 34.0041C28.8576 33.1743 28.1852 32.5018 27.3553 32.5018C26.5254 32.5018 25.8529 33.1743 25.8529 34.0041C25.8529 34.834 26.5254 35.5065 27.3553 35.5065C28.1852 35.5065 28.8576 34.834 28.8576 34.0041ZM34.392 34.0442C34.392 33.2301 33.7324 32.5705 32.9183 32.5705C32.1041 32.5705 31.4445 33.2301 31.4445 34.0442C31.4445 34.8583 32.1041 35.5179 32.9183 35.5179C33.7324 35.5179 34.392 34.8583 34.392 34.0442ZM40.0408 34.0585C40.0408 33.2301 39.3698 32.559 38.5413 32.559C37.7129 32.559 37.0418 33.2301 37.0418 34.0585C37.0418 34.8869 37.7129 35.558 38.5413 35.558C39.3698 35.558 40.0408 34.8869 40.0408 34.0585Z" fill="#367293"/>
<path d="M33.3518 4.17948H36.3851C36.4695 4.17948 36.8144 4.40983 36.883 4.49568C37.1635 4.84766 37.1048 5.56306 36.7271 5.83492C36.6856 5.86496 36.4066 5.99374 36.3851 5.99374H33.7896L35.2834 12.9632C35.3921 13.1234 36.6956 12.7242 37.1935 13.4411C37.2536 13.5284 37.4167 13.8889 37.4167 13.969V18.6921H39.0736C39.2281 18.6921 39.6373 18.9769 39.6531 19.1772L40.357 24.009L44.0728 24.0147C44.5393 24.1092 44.8169 24.371 44.8626 24.8518C44.9843 26.1409 44.9528 28.486 44.8626 29.798C44.8526 29.934 44.8197 30.0642 44.7911 30.1958L44.7067 30.2087L24.3521 26.9436L25.3608 19.3045C25.345 19.1514 25.6341 18.8195 25.7514 18.8195H26.9704V13.909C26.9704 13.8174 27.1965 13.4325 27.2809 13.3438C27.8418 12.7529 29.0494 13.092 29.7848 13.0018L31.1613 5.9966H28.4399C28.0922 5.9966 27.786 5.33557 27.7946 5.02508C27.8032 4.7146 28.1766 4.18234 28.5028 4.18234H31.4732V0.895776C31.4732 0.161773 32.5305 -0.254591 33.0614 0.307715C33.1973 0.452227 33.349 0.834252 33.349 1.02026V4.17948H33.3518ZM33.4148 12.999L32.5391 8.80813L31.6019 12.999H33.4162H33.4148Z" fill="#367293"/>
<path d="M9.13419 39.8496C11.8985 39.6035 13.408 41.3348 16.0607 41.1473C17.6289 41.0357 18.868 39.9397 20.562 39.831C23.4265 39.6493 24.916 41.8398 28.0051 40.957C29.1755 40.6237 30.0912 39.924 31.3789 39.8281C34.3378 39.6078 35.9961 41.9057 39.0452 40.927C40.7278 40.3862 41.3974 39.6908 43.3934 39.8281C44.9244 39.934 46.0676 40.9041 47.4569 41.0186C48.3526 41.0915 49.6661 40.6809 49.4901 42.116C49.3913 42.9244 48.3898 42.923 47.7688 42.8958C46.4353 42.8386 45.8229 42.4408 44.6711 41.9901C41.768 40.8555 39.8851 43.222 36.9448 43.0231C34.4194 42.8529 33.3048 41.0729 30.5505 41.8785C28.7005 42.4193 28.0824 43.1834 25.8732 43.0231C23.2892 42.8357 22.4049 40.9413 19.4145 41.94C17.347 42.6297 16.7017 43.3121 14.2579 42.9416C11.857 42.5767 11.226 41.1001 8.39304 41.8642C7.55888 42.0888 6.78767 42.6297 5.92061 42.7069C5.34256 42.7584 3.9046 42.6969 3.47965 42.272C3.15629 41.95 3.1477 41.1531 3.51542 40.8655C3.99331 40.4906 4.30952 40.8326 4.80172 40.8884C6.30978 41.0586 7.57605 39.9884 9.1299 39.851L9.13419 39.8496Z" fill="#367293"/>
<path d="M21.0297 26.446L13.3849 25.1154C12.8398 24.8993 13.4321 23.6159 13.5251 23.1938L7.25248 21.6786C6.41689 21.3223 6.67587 19.9115 7.61447 19.9359L13.9916 21.4425C14.1504 20.8516 14.3836 20.2993 15.0561 20.1891C16.6414 20.3494 18.646 19.9788 20.1812 20.1963C20.4917 20.2406 21.0311 20.6498 21.0311 20.9732V26.446H21.0297Z" fill="#367293"/>
</g>
<defs>
<clipPath id="clip0_1308_3752">
<rect width="51.479" height="43" fill="white" transform="translate(0.449219 0.046875)"/>
</clipPath>
</defs>
</svg>
