<svg width="246" height="52" viewBox="0 0 246 52" fill="none" xmlns="http://www.w3.org/2000/svg">
<rect width="246" height="52" fill="#333333" fill-opacity="0.55"/>
<path d="M81.228 10.0909V21H78.9215V12.2802H78.8576L76.3594 13.8462V11.8008L79.06 10.0909H81.228ZM87.8531 21.1491C87.0576 21.1491 86.3492 21.0124 85.7277 20.739C85.1098 20.462 84.6215 20.082 84.2629 19.5991C83.9078 19.1126 83.7249 18.5515 83.7142 17.9158H86.0367C86.0509 18.1822 86.1379 18.4165 86.2977 18.619C86.461 18.8178 86.6776 18.9723 86.9475 19.0824C87.2174 19.1925 87.521 19.2475 87.8584 19.2475C88.21 19.2475 88.5207 19.1854 88.7906 19.0611C89.0605 18.9368 89.2718 18.7646 89.4244 18.5444C89.5771 18.3242 89.6535 18.0703 89.6535 17.7827C89.6535 17.4915 89.5718 17.234 89.4085 17.0103C89.2487 16.783 89.0178 16.6055 88.716 16.4776C88.4177 16.3498 88.0626 16.2859 87.6507 16.2859H86.6333V14.592H87.6507C87.9987 14.592 88.3058 14.5316 88.5722 14.4109C88.8421 14.2901 89.0516 14.1232 89.2007 13.9102C89.3499 13.6935 89.4244 13.4414 89.4244 13.1538C89.4244 12.8803 89.3588 12.6406 89.2274 12.4347C89.0995 12.2251 88.9184 12.0618 88.684 11.9446C88.4532 11.8274 88.1833 11.7688 87.8744 11.7688C87.5619 11.7688 87.276 11.8256 87.0168 11.9393C86.7575 12.0494 86.5498 12.2074 86.3936 12.4134C86.2373 12.6193 86.1539 12.8608 86.1432 13.1378H83.9326C83.9433 12.5092 84.1226 11.9553 84.4706 11.4759C84.8186 10.9964 85.2874 10.6218 85.8769 10.3519C86.4699 10.0785 87.1393 9.94176 87.885 9.94176C88.6379 9.94176 89.2966 10.0785 89.8612 10.3519C90.4259 10.6254 90.8644 10.9947 91.1769 11.4599C91.493 11.9215 91.6492 12.44 91.6457 13.0153C91.6492 13.6261 91.4593 14.1357 91.0757 14.544C90.6958 14.9524 90.2004 15.2116 89.5896 15.3217V15.407C90.3921 15.5099 91.0029 15.7887 91.422 16.2433C91.8445 16.6942 92.0541 17.2589 92.0505 17.9371C92.0541 18.5586 91.8747 19.1108 91.5125 19.5938C91.1539 20.0767 90.6585 20.4567 90.0264 20.7337C89.3943 21.0107 88.6698 21.1491 87.8531 21.1491ZM99.5345 21.1545C99.0125 21.1545 98.5473 21.0639 98.1389 20.8828C97.7306 20.6982 97.4074 20.4265 97.1695 20.0678C96.9351 19.7056 96.8179 19.2546 96.8179 18.7148C96.8179 18.2603 96.9014 17.8786 97.0683 17.5696C97.2352 17.2607 97.4624 17.0121 97.7501 16.8239C98.0377 16.6357 98.3644 16.4936 98.7302 16.3977C99.0995 16.3018 99.4866 16.2344 99.8914 16.1953C100.367 16.1456 100.751 16.0994 101.042 16.0568C101.333 16.0107 101.544 15.9432 101.676 15.8544C101.807 15.7656 101.873 15.6342 101.873 15.4602V15.4283C101.873 15.0909 101.766 14.8299 101.553 14.6452C101.344 14.4606 101.046 14.3683 100.658 14.3683C100.25 14.3683 99.9252 14.4588 99.6837 14.6399C99.4422 14.8175 99.2824 15.0412 99.2043 15.3111L97.1056 15.1406C97.2121 14.6435 97.4216 14.2138 97.7341 13.8516C98.0466 13.4858 98.4497 13.2053 98.9433 13.0099C99.4404 12.8111 100.016 12.7116 100.669 12.7116C101.124 12.7116 101.559 12.7649 101.974 12.8714C102.393 12.978 102.764 13.1431 103.087 13.3668C103.414 13.5906 103.672 13.8782 103.86 14.2298C104.048 14.5778 104.142 14.995 104.142 15.4815V21H101.99V19.8654H101.926C101.795 20.1211 101.619 20.3466 101.399 20.5419C101.179 20.7337 100.914 20.8846 100.605 20.9947C100.296 21.1012 99.9394 21.1545 99.5345 21.1545ZM100.184 19.5884C100.518 19.5884 100.813 19.5227 101.069 19.3913C101.324 19.2564 101.525 19.0753 101.671 18.848C101.816 18.6207 101.889 18.3633 101.889 18.0756V17.2074C101.818 17.2536 101.72 17.2962 101.596 17.3352C101.475 17.3707 101.339 17.4045 101.186 17.4364C101.033 17.4648 100.88 17.4915 100.728 17.5163C100.575 17.5376 100.437 17.5572 100.312 17.5749C100.046 17.614 99.8133 17.6761 99.6144 17.7614C99.4156 17.8466 99.2611 17.962 99.151 18.1076C99.0409 18.2496 98.9859 18.4272 98.9859 18.6403C98.9859 18.9492 99.0977 19.1854 99.3215 19.3487C99.5487 19.5085 99.8364 19.5884 100.184 19.5884ZM109.599 21.1598C108.772 21.1598 108.056 20.984 107.453 20.6325C106.853 20.2773 106.389 19.7837 106.062 19.1516C105.736 18.516 105.572 17.7791 105.572 16.9411C105.572 16.0959 105.736 15.3572 106.062 14.7251C106.389 14.0895 106.853 13.5959 107.453 13.2443C108.056 12.8892 108.772 12.7116 109.599 12.7116C110.427 12.7116 111.141 12.8892 111.741 13.2443C112.344 13.5959 112.81 14.0895 113.136 14.7251C113.463 15.3572 113.626 16.0959 113.626 16.9411C113.626 17.7791 113.463 18.516 113.136 19.1516C112.81 19.7837 112.344 20.2773 111.741 20.6325C111.141 20.984 110.427 21.1598 109.599 21.1598ZM109.61 19.402C109.986 19.402 110.301 19.2955 110.553 19.0824C110.805 18.8658 110.995 18.571 111.123 18.1982C111.254 17.8253 111.32 17.4009 111.32 16.9251C111.32 16.4492 111.254 16.0249 111.123 15.652C110.995 15.2791 110.805 14.9844 110.553 14.7678C110.301 14.5511 109.986 14.4428 109.61 14.4428C109.23 14.4428 108.91 14.5511 108.651 14.7678C108.396 14.9844 108.202 15.2791 108.071 15.652C107.943 16.0249 107.879 16.4492 107.879 16.9251C107.879 17.4009 107.943 17.8253 108.071 18.1982C108.202 18.571 108.396 18.8658 108.651 19.0824C108.91 19.2955 109.23 19.402 109.61 19.402ZM120.349 17.5163V12.8182H122.618V21H120.439V19.5138H120.354C120.169 19.9933 119.862 20.3786 119.432 20.6697C119.006 20.9609 118.486 21.1065 117.872 21.1065C117.325 21.1065 116.844 20.9822 116.428 20.7337C116.013 20.4851 115.688 20.1317 115.453 19.6737C115.223 19.2156 115.105 18.6669 115.102 18.0277V12.8182H117.371V17.6229C117.375 18.1058 117.504 18.4876 117.76 18.7681C118.016 19.0487 118.358 19.1889 118.788 19.1889C119.061 19.1889 119.317 19.1268 119.555 19.0025C119.793 18.8746 119.985 18.6864 120.13 18.4379C120.279 18.1893 120.352 17.8821 120.349 17.5163ZM119.944 11.8381L118.873 10.5384L117.802 11.8381H115.869V11.7635L118.026 9.41974H119.715L121.877 11.7635V11.8381H119.944ZM128.785 12.8182V14.5227H123.858V12.8182H128.785ZM124.976 10.858H127.245V18.4858C127.245 18.6953 127.277 18.8587 127.341 18.9759C127.405 19.0895 127.494 19.1694 127.608 19.2156C127.725 19.2617 127.86 19.2848 128.012 19.2848C128.119 19.2848 128.225 19.2759 128.332 19.2582C128.439 19.2369 128.52 19.2209 128.577 19.2102L128.934 20.8988C128.82 20.9343 128.661 20.9751 128.455 21.0213C128.249 21.071 127.998 21.1012 127.703 21.1119C127.157 21.1332 126.677 21.0604 126.265 20.8935C125.857 20.7266 125.539 20.4673 125.312 20.1158C125.085 19.7642 124.973 19.3203 124.976 18.7841V10.858ZM138.459 10.0909V21H136.153V12.2802H136.089L133.591 13.8462V11.8008L136.291 10.0909H138.459ZM144.999 9.94176C145.56 9.94176 146.1 10.0359 146.619 10.2241C147.141 10.4123 147.606 10.7124 148.014 11.1243C148.426 11.5362 148.751 12.0831 148.989 12.7649C149.23 13.4432 149.353 14.2759 149.357 15.2631C149.357 16.19 149.252 17.0174 149.042 17.7454C148.836 18.4698 148.54 19.0859 148.153 19.5938C147.766 20.1016 147.299 20.4886 146.752 20.755C146.205 21.0178 145.594 21.1491 144.919 21.1491C144.191 21.1491 143.549 21.0089 142.991 20.7283C142.434 20.4442 141.984 20.0589 141.643 19.5724C141.306 19.0824 141.102 18.532 141.031 17.9212H143.305C143.394 18.3189 143.581 18.6278 143.865 18.848C144.149 19.0646 144.5 19.1729 144.919 19.1729C145.63 19.1729 146.169 18.864 146.539 18.2461C146.908 17.6246 147.094 16.7741 147.098 15.6946H147.023C146.86 16.0142 146.64 16.2894 146.363 16.5202C146.086 16.7475 145.768 16.9233 145.409 17.0476C145.054 17.1719 144.676 17.234 144.275 17.234C143.632 17.234 143.059 17.0831 142.554 16.7812C142.05 16.4794 141.652 16.0639 141.361 15.5348C141.07 15.0057 140.924 14.402 140.924 13.7237C140.921 12.9922 141.089 12.3406 141.43 11.7688C141.771 11.1971 142.247 10.7496 142.858 10.4265C143.472 10.0998 144.186 9.93821 144.999 9.94176ZM145.015 11.7528C144.657 11.7528 144.337 11.8381 144.056 12.0085C143.779 12.179 143.559 12.408 143.396 12.6957C143.236 12.9833 143.158 13.3047 143.162 13.6598C143.162 14.0185 143.24 14.3416 143.396 14.6293C143.556 14.9134 143.772 15.1406 144.046 15.3111C144.323 15.478 144.639 15.5614 144.994 15.5614C145.26 15.5614 145.507 15.5117 145.734 15.4123C145.962 15.3129 146.159 15.1761 146.326 15.0021C146.496 14.8246 146.629 14.6204 146.725 14.3896C146.821 14.1587 146.869 13.9137 146.869 13.6545C146.865 13.31 146.784 12.994 146.624 12.7063C146.464 12.4187 146.244 12.1879 145.963 12.0138C145.683 11.8398 145.367 11.7528 145.015 11.7528ZM150.789 19.0824V17.266L155.344 10.0909H156.91V12.6051H155.983L153.112 17.1488V17.234H159.584V19.0824H150.789ZM156.026 21V18.5284L156.068 17.7241V10.0909H158.231V21H156.026ZM160.955 19.0824V17.266L165.51 10.0909H167.076V12.6051H166.149L163.278 17.1488V17.234H169.75V19.0824H160.955ZM166.192 21V18.5284L166.234 17.7241V10.0909H168.397V21H166.192Z" fill="white"/>
<path d="M41.1252 42H39.3781L45.1149 31.0909H47.0166L49.1313 42H47.3841L45.7914 33.0724H45.7062L41.1252 42ZM42.1266 37.728H47.7943L47.5599 39.1129H41.8923L42.1266 37.728ZM57.9163 33.8182L53.5857 42H51.8812L50.2725 33.8182H51.9185L52.9412 40.1143H53.0264L56.1425 33.8182H57.9163ZM60.1748 42.1811C59.6564 42.1811 59.2036 42.0852 58.8165 41.8935C58.4295 41.6982 58.1436 41.4158 57.9589 41.0465C57.7743 40.6772 57.7263 40.2244 57.8151 39.6882C57.8932 39.2266 58.0459 38.8466 58.2732 38.5483C58.504 38.25 58.7846 38.0138 59.1148 37.8398C59.4451 37.6623 59.8038 37.5291 60.1908 37.4403C60.5779 37.3516 60.9685 37.2859 61.3627 37.2433C61.8599 37.1864 62.2629 37.1385 62.5719 37.0994C62.8844 37.0604 63.1187 37 63.275 36.9183C63.4312 36.8331 63.5253 36.6946 63.5573 36.5028V36.4656C63.6319 36.0039 63.5644 35.6452 63.3549 35.3896C63.1489 35.1303 62.7903 35.0007 62.2789 35.0007C61.7462 35.0007 61.2988 35.1179 60.9366 35.3523C60.5779 35.5866 60.3133 35.8494 60.1429 36.1406L58.7153 35.7997C58.971 35.3026 59.2959 34.9013 59.6901 34.5959C60.0878 34.2869 60.5229 34.0632 60.9952 33.9247C61.4675 33.7827 61.9504 33.7116 62.444 33.7116C62.7707 33.7116 63.1099 33.7507 63.4614 33.8288C63.813 33.9034 64.1326 34.0419 64.4202 34.2443C64.7114 34.4467 64.928 34.7362 65.0701 35.1126C65.2121 35.4854 65.2334 35.9702 65.134 36.5668L64.2338 42H62.6784L62.8702 40.8814H62.8062C62.6713 41.0874 62.4831 41.2898 62.2416 41.4886C62.0037 41.6875 61.7125 41.8526 61.368 41.984C61.0236 42.1154 60.6258 42.1811 60.1748 42.1811ZM60.7182 40.9027C61.1621 40.9027 61.5545 40.8157 61.8954 40.6417C62.2398 40.4677 62.5186 40.2404 62.7317 39.9599C62.9447 39.6758 63.0779 39.3722 63.1312 39.049L63.307 37.9943C63.2395 38.0511 63.1205 38.1026 62.9501 38.1488C62.7832 38.195 62.5949 38.2358 62.3854 38.2713C62.1759 38.3068 61.9699 38.337 61.7675 38.3619C61.5687 38.3867 61.4035 38.4098 61.2722 38.4311C60.9597 38.4702 60.6667 38.5359 60.3932 38.6282C60.1234 38.7205 59.8979 38.8537 59.7168 39.0277C59.5356 39.1982 59.422 39.4254 59.3758 39.7095C59.3119 40.1037 59.406 40.402 59.6582 40.6044C59.9138 40.8033 60.2672 40.9027 60.7182 40.9027ZM68.7522 37.142L67.9532 42H66.3605L67.7241 33.8182H69.2529L69.0292 35.1499H69.1304C69.3896 34.7131 69.7429 34.3651 70.1904 34.1058C70.6414 33.843 71.1741 33.7116 71.7884 33.7116C72.3424 33.7116 72.8076 33.8288 73.184 34.0632C73.564 34.294 73.8321 34.6385 73.9883 35.0966C74.1481 35.5547 74.173 36.1211 74.0629 36.7958L73.1893 42H71.5966L72.4329 36.9876C72.5288 36.3945 72.4507 35.9311 72.1986 35.5973C71.95 35.2599 71.554 35.0913 71.0107 35.0913C70.6414 35.0913 70.2987 35.1712 69.9826 35.331C69.6701 35.4908 69.4056 35.7251 69.189 36.0341C68.9759 36.3395 68.8303 36.7088 68.7522 37.142ZM80.5029 33.8182L80.2951 35.0966H75.826L76.0338 33.8182H80.5029ZM77.5519 31.858H79.1446L77.8555 39.5977C77.8058 39.9066 77.8147 40.1392 77.8821 40.2955C77.9496 40.4482 78.0526 40.5529 78.1911 40.6097C78.3331 40.663 78.4912 40.6896 78.6652 40.6896C78.793 40.6896 78.9049 40.6808 79.0008 40.663C79.0966 40.6452 79.173 40.631 79.2298 40.6204L79.315 41.9361C79.2085 41.9716 79.0647 42.0071 78.8836 42.0426C78.706 42.0817 78.4894 42.103 78.2337 42.1065C77.8147 42.1136 77.4365 42.0391 77.0991 41.8828C76.7618 41.723 76.5096 41.4815 76.3427 41.1584C76.1758 40.8317 76.135 40.4215 76.2202 39.9279L77.5519 31.858ZM88.2745 31.0909L86.4635 42H84.8708L86.6819 31.0909H88.2745ZM92.1111 42.1651C91.3085 42.1651 90.6445 41.9929 90.1189 41.6484C89.5969 41.3004 89.2311 40.8121 89.0216 40.1836C88.8121 39.5515 88.7784 38.8111 88.9204 37.9624C89.0589 37.1243 89.3377 36.3857 89.7567 35.7464C90.1757 35.1072 90.6978 34.6083 91.3228 34.2496C91.9513 33.891 92.6456 33.7116 93.4055 33.7116C93.8671 33.7116 94.3022 33.788 94.7105 33.9407C95.1225 34.0934 95.4723 34.3331 95.7599 34.6598C96.0475 34.9865 96.2464 35.4109 96.3565 35.9329C96.4701 36.4513 96.4666 37.0817 96.3458 37.8239L96.2553 38.3885H89.746L89.9325 37.1953H94.8757C94.9502 36.7763 94.9307 36.4052 94.8171 36.082C94.7034 35.7553 94.5081 35.4979 94.2311 35.3097C93.9577 35.1214 93.6132 35.0273 93.1978 35.0273C92.7716 35.0273 92.3739 35.1392 92.0046 35.3629C91.6353 35.5866 91.3263 35.8725 91.0777 36.2205C90.8327 36.565 90.6782 36.9201 90.6143 37.2859L90.4279 38.3778C90.3355 38.9744 90.3515 39.4538 90.4758 39.8161C90.6036 40.1783 90.8274 40.4411 91.147 40.6044C91.4666 40.7678 91.8661 40.8494 92.3455 40.8494C92.6544 40.8494 92.9403 40.8068 93.2031 40.7216C93.4694 40.6328 93.7056 40.5032 93.9115 40.3327C94.1175 40.1587 94.2897 39.9421 94.4282 39.6829L95.8877 39.9545C95.6924 40.3984 95.4119 40.7873 95.0461 41.1211C94.6804 41.4513 94.2489 41.7088 93.7517 41.8935C93.2581 42.0746 92.7112 42.1651 92.1111 42.1651ZM104.461 42.1598C103.797 42.1598 103.234 41.9911 102.773 41.6538C102.314 41.3129 101.989 40.8281 101.798 40.1996C101.61 39.5675 101.588 38.8093 101.734 37.9251C101.883 37.0408 102.158 36.2844 102.559 35.6559C102.961 35.0273 103.447 34.5462 104.019 34.2124C104.591 33.8786 105.207 33.7116 105.867 33.7116C106.375 33.7116 106.769 33.7969 107.05 33.9673C107.334 34.1342 107.543 34.3295 107.678 34.5533C107.813 34.777 107.915 34.9741 107.982 35.1445H108.073L108.749 31.0909H110.342L108.531 42H106.975L107.194 40.7269H107.061C106.936 40.9009 106.764 41.0998 106.544 41.3235C106.327 41.5472 106.05 41.7425 105.713 41.9094C105.375 42.0763 104.958 42.1598 104.461 42.1598ZM104.999 40.8015C105.457 40.8015 105.867 40.6808 106.23 40.4393C106.595 40.1942 106.899 39.8551 107.14 39.4219C107.385 38.9886 107.556 38.4844 107.652 37.9091C107.748 37.3409 107.746 36.8437 107.646 36.4176C107.547 35.9915 107.355 35.6594 107.071 35.4215C106.787 35.1836 106.412 35.0646 105.947 35.0646C105.468 35.0646 105.051 35.1889 104.695 35.4375C104.34 35.6861 104.049 36.0252 103.822 36.4549C103.598 36.8846 103.442 37.3693 103.353 37.9091C103.261 38.456 103.257 38.9478 103.342 39.3846C103.428 39.8214 103.607 40.1676 103.88 40.4233C104.154 40.6754 104.527 40.8015 104.999 40.8015ZM114.303 42.1651C113.501 42.1651 112.837 41.9929 112.311 41.6484C111.789 41.3004 111.424 40.8121 111.214 40.1836C111.004 39.5515 110.971 38.8111 111.113 37.9624C111.251 37.1243 111.53 36.3857 111.949 35.7464C112.368 35.1072 112.89 34.6083 113.515 34.2496C114.144 33.891 114.838 33.7116 115.598 33.7116C116.06 33.7116 116.495 33.788 116.903 33.9407C117.315 34.0934 117.665 34.3331 117.952 34.6598C118.24 34.9865 118.439 35.4109 118.549 35.9329C118.663 36.4513 118.659 37.0817 118.538 37.8239L118.448 38.3885H111.938L112.125 37.1953H117.068C117.143 36.7763 117.123 36.4052 117.009 36.082C116.896 35.7553 116.701 35.4979 116.424 35.3097C116.15 35.1214 115.806 35.0273 115.39 35.0273C114.964 35.0273 114.566 35.1392 114.197 35.3629C113.828 35.5866 113.519 35.8725 113.27 36.2205C113.025 36.565 112.871 36.9201 112.807 37.2859L112.62 38.3778C112.528 38.9744 112.544 39.4538 112.668 39.8161C112.796 40.1783 113.02 40.4411 113.339 40.6044C113.659 40.7678 114.058 40.8494 114.538 40.8494C114.847 40.8494 115.133 40.8068 115.395 40.7216C115.662 40.6328 115.898 40.5032 116.104 40.3327C116.31 40.1587 116.482 39.9421 116.621 39.6829L118.08 39.9545C117.885 40.3984 117.604 40.7873 117.239 41.1211C116.873 41.4513 116.441 41.7088 115.944 41.8935C115.451 42.0746 114.904 42.1651 114.303 42.1651ZM115.023 32.7262L116.674 30.2706H118.352L116.301 32.7262H115.023ZM119.759 42L121.57 31.0909H123.163L122.497 35.1445H122.593C122.714 34.9741 122.879 34.777 123.089 34.5533C123.302 34.3295 123.577 34.1342 123.914 33.9673C124.252 33.7969 124.674 33.7116 125.182 33.7116C125.842 33.7116 126.404 33.8786 126.865 34.2124C127.327 34.5462 127.654 35.0273 127.845 35.6559C128.037 36.2844 128.06 37.0408 127.915 37.9251C127.769 38.8093 127.496 39.5675 127.094 40.1996C126.697 40.8281 126.212 41.3129 125.64 41.6538C125.068 41.9911 124.452 42.1598 123.792 42.1598C123.295 42.1598 122.902 42.0763 122.614 41.9094C122.33 41.7425 122.117 41.5472 121.975 41.3235C121.837 41.0998 121.732 40.9009 121.661 40.7269H121.528L121.315 42H119.759ZM122.002 37.9091C121.91 38.4844 121.91 38.9886 122.002 39.4219C122.098 39.8551 122.284 40.1942 122.561 40.4393C122.842 40.6808 123.209 40.8015 123.664 40.8015C124.14 40.8015 124.559 40.6754 124.921 40.4233C125.283 40.1676 125.581 39.8214 125.816 39.3846C126.05 38.9478 126.214 38.456 126.306 37.9091C126.391 37.3693 126.389 36.8846 126.301 36.4549C126.212 36.0252 126.027 35.6861 125.747 35.4375C125.47 35.1889 125.091 35.0646 124.612 35.0646C124.15 35.0646 123.74 35.1836 123.382 35.4215C123.023 35.6594 122.726 35.9915 122.492 36.4176C122.258 36.8437 122.094 37.3409 122.002 37.9091ZM131.381 42.1811C130.862 42.1811 130.41 42.0852 130.023 41.8935C129.636 41.6982 129.35 41.4158 129.165 41.0465C128.98 40.6772 128.932 40.2244 129.021 39.6882C129.099 39.2266 129.252 38.8466 129.479 38.5483C129.71 38.25 129.991 38.0138 130.321 37.8398C130.651 37.6623 131.01 37.5291 131.397 37.4403C131.784 37.3516 132.175 37.2859 132.569 37.2433C133.066 37.1864 133.469 37.1385 133.778 37.0994C134.09 37.0604 134.325 37 134.481 36.9183C134.637 36.8331 134.731 36.6946 134.763 36.5028V36.4656C134.838 36.0039 134.77 35.6452 134.561 35.3896C134.355 35.1303 133.996 35.0007 133.485 35.0007C132.952 35.0007 132.505 35.1179 132.143 35.3523C131.784 35.5866 131.519 35.8494 131.349 36.1406L129.921 35.7997C130.177 35.3026 130.502 34.9013 130.896 34.5959C131.294 34.2869 131.729 34.0632 132.201 33.9247C132.674 33.7827 133.156 33.7116 133.65 33.7116C133.977 33.7116 134.316 33.7507 134.667 33.8288C135.019 33.9034 135.339 34.0419 135.626 34.2443C135.917 34.4467 136.134 34.7362 136.276 35.1126C136.418 35.4854 136.439 35.9702 136.34 36.5668L135.44 42H133.884L134.076 40.8814H134.012C133.877 41.0874 133.689 41.2898 133.448 41.4886C133.21 41.6875 132.919 41.8526 132.574 41.984C132.23 42.1154 131.832 42.1811 131.381 42.1811ZM131.924 40.9027C132.368 40.9027 132.761 40.8157 133.101 40.6417C133.446 40.4677 133.725 40.2404 133.938 39.9599C134.151 39.6758 134.284 39.3722 134.337 39.049L134.513 37.9943C134.446 38.0511 134.327 38.1026 134.156 38.1488C133.989 38.195 133.801 38.2358 133.591 38.2713C133.382 38.3068 133.176 38.337 132.974 38.3619C132.775 38.3867 132.61 38.4098 132.478 38.4311C132.166 38.4702 131.873 38.5359 131.599 38.6282C131.329 38.7205 131.104 38.8537 130.923 39.0277C130.742 39.1982 130.628 39.4254 130.582 39.7095C130.518 40.1037 130.612 40.402 130.864 40.6044C131.12 40.8033 131.473 40.9027 131.924 40.9027ZM137.561 42L138.925 33.8182H140.464L140.246 35.1179H140.331C140.551 34.6776 140.873 34.3313 141.295 34.0792C141.718 33.8235 142.169 33.6957 142.648 33.6957C142.751 33.6957 142.868 33.6992 143 33.7063C143.131 33.7099 143.238 33.7188 143.319 33.733L143.064 35.2564C143.003 35.2386 142.893 35.2191 142.733 35.1978C142.574 35.1729 142.409 35.1605 142.238 35.1605C141.865 35.1605 141.519 35.2404 141.199 35.4002C140.88 35.5565 140.612 35.7749 140.395 36.0554C140.178 36.3324 140.038 36.6484 139.974 37.0036L139.154 42H137.561ZM148.067 45.0682L148.781 40.7269H148.69C148.566 40.9009 148.395 41.0998 148.179 41.3235C147.962 41.5472 147.683 41.7425 147.342 41.9094C147.005 42.0763 146.588 42.1598 146.091 42.1598C145.427 42.1598 144.865 41.9911 144.407 41.6538C143.949 41.3129 143.624 40.8281 143.433 40.1996C143.244 39.5675 143.223 38.8093 143.369 37.9251C143.514 37.0408 143.788 36.2844 144.189 35.6559C144.59 35.0273 145.077 34.5462 145.648 34.2124C146.22 33.8786 146.836 33.7116 147.497 33.7116C148.005 33.7116 148.399 33.7969 148.679 33.9673C148.963 34.1342 149.173 34.3295 149.308 34.5533C149.443 34.777 149.544 34.9741 149.612 35.1445H149.739L149.968 33.8182H151.524L149.659 45.0682H148.067ZM146.661 40.8015C147.122 40.8015 147.532 40.6808 147.891 40.4393C148.25 40.1942 148.546 39.8551 148.781 39.4219C149.019 38.9886 149.185 38.4844 149.281 37.9091C149.377 37.3409 149.377 36.8437 149.281 36.4176C149.189 35.9915 149.004 35.6594 148.727 35.4215C148.45 35.1836 148.081 35.0646 147.619 35.0646C147.136 35.0646 146.714 35.1889 146.352 35.4375C145.989 35.6861 145.693 36.0252 145.462 36.4549C145.231 36.8846 145.07 37.3693 144.977 37.9091C144.889 38.456 144.89 38.9478 144.983 39.3846C145.075 39.8214 145.26 40.1676 145.537 40.4233C145.817 40.6754 146.192 40.8015 146.661 40.8015ZM158.06 38.6069L158.859 33.8182H160.457L159.093 42H157.527L157.767 40.5831H157.682C157.426 41.0199 157.064 41.3839 156.595 41.6751C156.13 41.9627 155.59 42.1065 154.976 42.1065C154.45 42.1065 154.004 41.9911 153.639 41.7603C153.276 41.5259 153.019 41.1797 152.866 40.7216C152.713 40.2635 152.692 39.6971 152.802 39.0224L153.676 33.8182H155.269L154.432 38.8306C154.343 39.3881 154.427 39.832 154.683 40.1623C154.938 40.4925 155.311 40.6577 155.801 40.6577C156.099 40.6577 156.408 40.5831 156.728 40.4339C157.048 40.2848 157.33 40.0593 157.575 39.7575C157.824 39.4556 157.985 39.0721 158.06 38.6069ZM164.738 42.1651C163.936 42.1651 163.271 41.9929 162.746 41.6484C162.224 41.3004 161.858 40.8121 161.649 40.1836C161.439 39.5515 161.405 38.8111 161.547 37.9624C161.686 37.1243 161.965 36.3857 162.384 35.7464C162.803 35.1072 163.325 34.6083 163.95 34.2496C164.578 33.891 165.273 33.7116 166.032 33.7116C166.494 33.7116 166.929 33.788 167.337 33.9407C167.749 34.0934 168.099 34.3331 168.387 34.6598C168.674 34.9865 168.873 35.4109 168.983 35.9329C169.097 36.4513 169.094 37.0817 168.973 37.8239L168.882 38.3885H162.373L162.559 37.1953H167.503C167.577 36.7763 167.558 36.4052 167.444 36.082C167.33 35.7553 167.135 35.4979 166.858 35.3097C166.585 35.1214 166.24 35.0273 165.825 35.0273C165.399 35.0273 165.001 35.1392 164.632 35.3629C164.262 35.5866 163.953 35.8725 163.705 36.2205C163.46 36.565 163.305 36.9201 163.241 37.2859L163.055 38.3778C162.962 38.9744 162.978 39.4538 163.103 39.8161C163.231 40.1783 163.454 40.4411 163.774 40.6044C164.094 40.7678 164.493 40.8494 164.972 40.8494C165.281 40.8494 165.567 40.8068 165.83 40.7216C166.096 40.6328 166.333 40.5032 166.538 40.3327C166.744 40.1587 166.917 39.9421 167.055 39.6829L168.515 39.9545C168.319 40.3984 168.039 40.7873 167.673 41.1211C167.307 41.4513 166.876 41.7088 166.379 41.8935C165.885 42.0746 165.338 42.1651 164.738 42.1651ZM170.071 42L171.435 33.8182H172.964L172.74 35.1499H172.841C173.09 34.6989 173.427 34.3473 173.853 34.0952C174.283 33.8395 174.77 33.7116 175.313 33.7116C175.853 33.7116 176.288 33.8395 176.618 34.0952C176.952 34.3509 177.17 34.7024 177.273 35.1499H177.358C177.621 34.7095 177.989 34.3597 178.461 34.1005C178.933 33.8413 179.464 33.7116 180.054 33.7116C180.789 33.7116 181.353 33.946 181.748 34.4148C182.145 34.88 182.266 35.5795 182.11 36.5135L181.194 42H179.596L180.49 36.6626C180.579 36.1051 180.494 35.7038 180.235 35.4588C179.976 35.2102 179.636 35.0859 179.217 35.0859C178.699 35.0859 178.269 35.2457 177.928 35.5653C177.587 35.8814 177.378 36.288 177.3 36.7852L176.421 42H174.839L175.75 36.5614C175.821 36.114 175.739 35.7571 175.505 35.4908C175.274 35.2209 174.936 35.0859 174.493 35.0859C174.191 35.0859 173.898 35.1658 173.614 35.3256C173.333 35.4854 173.093 35.7056 172.895 35.9862C172.696 36.2667 172.566 36.5898 172.506 36.9556L171.664 42H170.071ZM186.828 42.1651C186.025 42.1651 185.361 41.9929 184.836 41.6484C184.314 41.3004 183.948 40.8121 183.738 40.1836C183.529 39.5515 183.495 38.8111 183.637 37.9624C183.776 37.1243 184.054 36.3857 184.473 35.7464C184.893 35.1072 185.415 34.6083 186.04 34.2496C186.668 33.891 187.362 33.7116 188.122 33.7116C188.584 33.7116 189.019 33.788 189.427 33.9407C189.839 34.0934 190.189 34.3331 190.477 34.6598C190.764 34.9865 190.963 35.4109 191.073 35.9329C191.187 36.4513 191.183 37.0817 191.063 37.8239L190.972 38.3885H184.463L184.649 37.1953H189.592C189.667 36.7763 189.648 36.4052 189.534 36.082C189.42 35.7553 189.225 35.4979 188.948 35.3097C188.674 35.1214 188.33 35.0273 187.915 35.0273C187.488 35.0273 187.091 35.1392 186.721 35.3629C186.352 35.5866 186.043 35.8725 185.795 36.2205C185.549 36.565 185.395 36.9201 185.331 37.2859L185.145 38.3778C185.052 38.9744 185.068 39.4538 185.193 39.8161C185.32 40.1783 185.544 40.4411 185.864 40.6044C186.183 40.7678 186.583 40.8494 187.062 40.8494C187.371 40.8494 187.657 40.8068 187.92 40.7216C188.186 40.6328 188.422 40.5032 188.628 40.3327C188.834 40.1587 189.007 39.9421 189.145 39.6829L190.605 39.9545C190.409 40.3984 190.129 40.7873 189.763 41.1211C189.397 41.4513 188.966 41.7088 188.469 41.8935C187.975 42.0746 187.428 42.1651 186.828 42.1651ZM194.553 37.142L193.754 42H192.161L193.525 33.8182H195.054L194.83 35.1499H194.931C195.19 34.7131 195.544 34.3651 195.991 34.1058C196.442 33.843 196.975 33.7116 197.589 33.7116C198.143 33.7116 198.608 33.8288 198.985 34.0632C199.365 34.294 199.633 34.6385 199.789 35.0966C199.949 35.5547 199.974 36.1211 199.864 36.7958L198.99 42H197.397L198.234 36.9876C198.33 36.3945 198.251 35.9311 197.999 35.5973C197.751 35.2599 197.355 35.0913 196.811 35.0913C196.442 35.0913 196.099 35.1712 195.783 35.331C195.471 35.4908 195.206 35.7251 194.99 36.0341C194.777 36.3395 194.631 36.7088 194.553 37.142ZM206.304 33.8182L206.096 35.0966H201.627L201.835 33.8182H206.304ZM203.353 31.858H204.945L203.656 39.5977C203.607 39.9066 203.615 40.1392 203.683 40.2955C203.75 40.4482 203.853 40.5529 203.992 40.6097C204.134 40.663 204.292 40.6896 204.466 40.6896C204.594 40.6896 204.706 40.6808 204.802 40.663C204.897 40.6452 204.974 40.631 205.031 40.6204L205.116 41.9361C205.009 41.9716 204.865 42.0071 204.684 42.0426C204.507 42.0817 204.29 42.103 204.034 42.1065C203.615 42.1136 203.237 42.0391 202.9 41.8828C202.563 41.723 202.31 41.4815 202.144 41.1584C201.977 40.8317 201.936 40.4215 202.021 39.9279L203.353 31.858Z" fill="white"/>
</svg>
