<svg width="246" height="52" viewBox="0 0 246 52" fill="none" xmlns="http://www.w3.org/2000/svg">
<rect width="246" height="52" fill="#333333" fill-opacity="0.5"/>
<path d="M79.9143 12.8182V14.5227H74.8646V12.8182H79.9143ZM76.0205 21V12.2269C76.0205 11.6339 76.1359 11.142 76.3667 10.7514C76.6011 10.3608 76.9207 10.0678 77.3255 9.87251C77.7303 9.6772 78.1902 9.57954 78.7051 9.57954C79.0531 9.57954 79.371 9.60618 79.6586 9.65945C79.9498 9.71271 80.1664 9.76065 80.3085 9.80327L79.9036 11.5078C79.8149 11.4794 79.7048 11.4528 79.5734 11.4279C79.4455 11.4031 79.3141 11.3906 79.1792 11.3906C78.8454 11.3906 78.6128 11.4688 78.4814 11.625C78.35 11.7777 78.2843 11.9925 78.2843 12.2695V21H76.0205ZM81.3006 21V12.8182H83.5697V21H81.3006ZM82.4405 11.7635C82.1031 11.7635 81.8137 11.6516 81.5722 11.4279C81.3343 11.2006 81.2153 10.929 81.2153 10.6129C81.2153 10.3004 81.3343 10.0323 81.5722 9.80859C81.8137 9.58132 82.1031 9.46768 82.4405 9.46768C82.7778 9.46768 83.0655 9.58132 83.3034 9.80859C83.5449 10.0323 83.6656 10.3004 83.6656 10.6129C83.6656 10.929 83.5449 11.2006 83.3034 11.4279C83.0655 11.6516 82.7778 11.7635 82.4405 11.7635ZM87.6566 16.2699V21H85.3875V12.8182H87.5501V14.2617H87.646C87.8271 13.7859 88.1307 13.4094 88.5569 13.1325C88.983 12.8519 89.4997 12.7116 90.1069 12.7116C90.6751 12.7116 91.1705 12.8359 91.5931 13.0845C92.0157 13.3331 92.3441 13.6882 92.5785 14.1499C92.8129 14.608 92.9301 15.1548 92.9301 15.7905V21H90.6609V16.1953C90.6645 15.6946 90.5366 15.304 90.2774 15.0234C90.0182 14.7393 89.6613 14.5973 89.2067 14.5973C88.9013 14.5973 88.6314 14.663 88.3971 14.7944C88.1662 14.9258 87.9851 15.1175 87.8537 15.3697C87.7259 15.6183 87.6602 15.9183 87.6566 16.2699ZM100.523 21.1545C100.001 21.1545 99.5361 21.0639 99.1277 20.8828C98.7193 20.6982 98.3962 20.4265 98.1582 20.0678C97.9239 19.7056 97.8067 19.2546 97.8067 18.7148C97.8067 18.2603 97.8901 17.8786 98.057 17.5696C98.2239 17.2607 98.4512 17.0121 98.7389 16.8239C99.0265 16.6357 99.3532 16.4936 99.719 16.3977C100.088 16.3018 100.475 16.2344 100.88 16.1953C101.356 16.1456 101.74 16.0994 102.031 16.0568C102.322 16.0107 102.533 15.9432 102.665 15.8544C102.796 15.7656 102.862 15.6342 102.862 15.4602V15.4283C102.862 15.0909 102.755 14.8299 102.542 14.6452C102.333 14.4606 102.034 14.3683 101.647 14.3683C101.239 14.3683 100.914 14.4588 100.672 14.6399C100.431 14.8175 100.271 15.0412 100.193 15.3111L98.0943 15.1406C98.2009 14.6435 98.4104 14.2138 98.7229 13.8516C99.0354 13.4858 99.4384 13.2053 99.932 13.0099C100.429 12.8111 101.004 12.7116 101.658 12.7116C102.112 12.7116 102.547 12.7649 102.963 12.8714C103.382 12.978 103.753 13.1431 104.076 13.3668C104.403 13.5906 104.66 13.8782 104.849 14.2298C105.037 14.5778 105.131 14.995 105.131 15.4815V21H102.979V19.8654H102.915C102.784 20.1211 102.608 20.3466 102.388 20.5419C102.167 20.7337 101.903 20.8846 101.594 20.9947C101.285 21.1012 100.928 21.1545 100.523 21.1545ZM101.173 19.5884C101.507 19.5884 101.802 19.5227 102.057 19.3913C102.313 19.2564 102.514 19.0753 102.659 18.848C102.805 18.6207 102.878 18.3633 102.878 18.0756V17.2074C102.807 17.2536 102.709 17.2962 102.585 17.3352C102.464 17.3707 102.327 17.4045 102.175 17.4364C102.022 17.4648 101.869 17.4915 101.716 17.5163C101.564 17.5376 101.425 17.5572 101.301 17.5749C101.035 17.614 100.802 17.6761 100.603 17.7614C100.404 17.8466 100.25 17.962 100.14 18.1076C100.03 18.2496 99.9747 18.4272 99.9747 18.6403C99.9747 18.9492 100.087 19.1854 100.31 19.3487C100.538 19.5085 100.825 19.5884 101.173 19.5884ZM110.588 21.1598C109.761 21.1598 109.045 20.984 108.441 20.6325C107.841 20.2773 107.378 19.7837 107.051 19.1516C106.724 18.516 106.561 17.7791 106.561 16.9411C106.561 16.0959 106.724 15.3572 107.051 14.7251C107.378 14.0895 107.841 13.5959 108.441 13.2443C109.045 12.8892 109.761 12.7116 110.588 12.7116C111.416 12.7116 112.129 12.8892 112.729 13.2443C113.333 13.5959 113.798 14.0895 114.125 14.7251C114.452 15.3572 114.615 16.0959 114.615 16.9411C114.615 17.7791 114.452 18.516 114.125 19.1516C113.798 19.7837 113.333 20.2773 112.729 20.6325C112.129 20.984 111.416 21.1598 110.588 21.1598ZM110.599 19.402C110.975 19.402 111.289 19.2955 111.542 19.0824C111.794 18.8658 111.984 18.571 112.112 18.1982C112.243 17.8253 112.309 17.4009 112.309 16.9251C112.309 16.4492 112.243 16.0249 112.112 15.652C111.984 15.2791 111.794 14.9844 111.542 14.7678C111.289 14.5511 110.975 14.4428 110.599 14.4428C110.219 14.4428 109.899 14.5511 109.64 14.7678C109.384 14.9844 109.191 15.2791 109.059 15.652C108.932 16.0249 108.868 16.4492 108.868 16.9251C108.868 17.4009 108.932 17.8253 109.059 18.1982C109.191 18.571 109.384 18.8658 109.64 19.0824C109.899 19.2955 110.219 19.402 110.599 19.402ZM121.337 17.5163V12.8182H123.607V21H121.428V19.5138H121.343C121.158 19.9933 120.851 20.3786 120.421 20.6697C119.995 20.9609 119.475 21.1065 118.86 21.1065C118.314 21.1065 117.832 20.9822 117.417 20.7337C117.001 20.4851 116.677 20.1317 116.442 19.6737C116.211 19.2156 116.094 18.6669 116.091 18.0277V12.8182H118.36V17.6229C118.363 18.1058 118.493 18.4876 118.749 18.7681C119.004 19.0487 119.347 19.1889 119.777 19.1889C120.05 19.1889 120.306 19.1268 120.544 19.0025C120.782 18.8746 120.973 18.6864 121.119 18.4379C121.268 18.1893 121.341 17.8821 121.337 17.5163ZM120.933 11.8381L119.862 10.5384L118.791 11.8381H116.858V11.7635L119.015 9.41974H120.704L122.866 11.7635V11.8381H120.933ZM129.774 12.8182V14.5227H124.846V12.8182H129.774ZM125.965 10.858H128.234V18.4858C128.234 18.6953 128.266 18.8587 128.33 18.9759C128.394 19.0895 128.483 19.1694 128.596 19.2156C128.714 19.2617 128.848 19.2848 129.001 19.2848C129.108 19.2848 129.214 19.2759 129.321 19.2582C129.427 19.2369 129.509 19.2209 129.566 19.2102L129.923 20.8988C129.809 20.9343 129.649 20.9751 129.443 21.0213C129.237 21.071 128.987 21.1012 128.692 21.1119C128.145 21.1332 127.666 21.0604 127.254 20.8935C126.846 20.7266 126.528 20.4673 126.301 20.1158C126.073 19.7642 125.961 19.3203 125.965 18.7841V10.858ZM139.448 10.0909V21H137.142V12.2802H137.078L134.58 13.8462V11.8008L137.28 10.0909H139.448ZM145.988 9.94176C146.549 9.94176 147.089 10.0359 147.607 10.2241C148.129 10.4123 148.595 10.7124 149.003 11.1243C149.415 11.5362 149.74 12.0831 149.978 12.7649C150.219 13.4432 150.342 14.2759 150.345 15.2631C150.345 16.19 150.241 17.0174 150.031 17.7454C149.825 18.4698 149.529 19.0859 149.141 19.5938C148.754 20.1016 148.287 20.4886 147.741 20.755C147.194 21.0178 146.583 21.1491 145.908 21.1491C145.18 21.1491 144.537 21.0089 143.98 20.7283C143.422 20.4442 142.973 20.0589 142.632 19.5724C142.295 19.0824 142.091 18.532 142.02 17.9212H144.294C144.383 18.3189 144.569 18.6278 144.853 18.848C145.138 19.0646 145.489 19.1729 145.908 19.1729C146.618 19.1729 147.158 18.864 147.527 18.2461C147.897 17.6246 148.083 16.7741 148.087 15.6946H148.012C147.849 16.0142 147.629 16.2894 147.352 16.5202C147.075 16.7475 146.757 16.9233 146.398 17.0476C146.043 17.1719 145.665 17.234 145.264 17.234C144.621 17.234 144.047 17.0831 143.543 16.7812C143.039 16.4794 142.641 16.0639 142.35 15.5348C142.059 15.0057 141.913 14.402 141.913 13.7237C141.91 12.9922 142.078 12.3406 142.419 11.7688C142.76 11.1971 143.236 10.7496 143.847 10.4265C144.461 10.0998 145.175 9.93821 145.988 9.94176ZM146.004 11.7528C145.645 11.7528 145.326 11.8381 145.045 12.0085C144.768 12.179 144.548 12.408 144.385 12.6957C144.225 12.9833 144.147 13.3047 144.15 13.6598C144.15 14.0185 144.228 14.3416 144.385 14.6293C144.545 14.9134 144.761 15.1406 145.035 15.3111C145.312 15.478 145.628 15.5614 145.983 15.5614C146.249 15.5614 146.496 15.5117 146.723 15.4123C146.95 15.3129 147.148 15.1761 147.314 15.0021C147.485 14.8246 147.618 14.6204 147.714 14.3896C147.81 14.1587 147.858 13.9137 147.858 13.6545C147.854 13.31 147.773 12.994 147.613 12.7063C147.453 12.4187 147.233 12.1879 146.952 12.0138C146.672 11.8398 146.356 11.7528 146.004 11.7528ZM151.778 19.0824V17.266L156.333 10.0909H157.899V12.6051H156.972L154.101 17.1488V17.234H160.573V19.0824H151.778ZM157.014 21V18.5284L157.057 17.7241V10.0909H159.22V21H157.014ZM161.944 19.0824V17.266L166.499 10.0909H168.065V12.6051H167.138L164.267 17.1488V17.234H170.739V19.0824H161.944ZM167.18 21V18.5284L167.223 17.7241V10.0909H169.386V21H167.18Z" fill="white"/>
<path d="M19.1173 42L20.9284 31.0909H27.6933L27.4589 32.5078H22.3399L21.786 35.8317H26.4202L26.1858 37.2433H21.5516L20.7632 42H19.1173ZM30.6616 42.1651C29.8839 42.1651 29.234 41.9876 28.712 41.6325C28.19 41.2738 27.8224 40.7731 27.6094 40.1303C27.3999 39.484 27.3643 38.733 27.5028 37.8771C27.6378 37.0391 27.9094 36.3075 28.3178 35.6825C28.7298 35.0575 29.2447 34.5728 29.8626 34.2283C30.484 33.8839 31.1747 33.7116 31.9347 33.7116C32.7124 33.7116 33.3604 33.891 33.8789 34.2496C34.4009 34.6083 34.7685 35.1108 34.9815 35.7571C35.1946 36.4034 35.2319 37.1562 35.0934 38.0156C34.9585 38.8466 34.6832 39.5746 34.2678 40.1996C33.8558 40.821 33.3409 41.304 32.723 41.6484C32.1051 41.9929 31.418 42.1651 30.6616 42.1651ZM30.7521 40.8281C31.2635 40.8281 31.7092 40.6932 32.0891 40.4233C32.4727 40.1534 32.7852 39.7947 33.0266 39.3473C33.2681 38.8999 33.4332 38.4098 33.522 37.8771C33.6037 37.3622 33.6019 36.8917 33.5167 36.4656C33.435 36.0359 33.2575 35.6914 32.984 35.4322C32.7106 35.1729 32.3306 35.0433 31.8441 35.0433C31.3327 35.0433 30.8835 35.18 30.4964 35.4535C30.1129 35.7234 29.8004 36.0838 29.5589 36.5348C29.321 36.9858 29.1594 37.4776 29.0742 38.0103C28.9925 38.5217 28.9925 38.9922 29.0742 39.4219C29.1559 39.848 29.3335 40.1889 29.6069 40.4446C29.8803 40.7003 30.2621 40.8281 30.7521 40.8281ZM36.216 42L37.5796 33.8182H39.1191L38.9007 35.1179H38.9859C39.2061 34.6776 39.5274 34.3313 39.95 34.0792C40.3726 33.8235 40.8236 33.6957 41.303 33.6957C41.406 33.6957 41.5232 33.6992 41.6546 33.7063C41.786 33.7099 41.8925 33.7188 41.9742 33.733L41.7185 35.2564C41.6581 35.2386 41.548 35.2191 41.3882 35.1978C41.2284 35.1729 41.0633 35.1605 40.8928 35.1605C40.52 35.1605 40.1737 35.2404 39.8541 35.4002C39.5345 35.5565 39.2664 35.7749 39.0498 36.0554C38.8332 36.3324 38.6929 36.6484 38.629 37.0036L37.8087 42H36.216ZM45.1342 42.1651C44.3388 42.1651 43.6871 41.9858 43.1793 41.6271C42.6715 41.2649 42.3182 40.766 42.1193 40.1303C41.9205 39.4947 41.8885 38.7667 42.0234 37.9464C42.1584 37.1154 42.4336 36.3821 42.8491 35.7464C43.2681 35.1072 43.7919 34.6083 44.4205 34.2496C45.0526 33.891 45.7539 33.7116 46.5245 33.7116C47.146 33.7116 47.6804 33.8271 48.1278 34.0579C48.5753 34.2852 48.9144 34.6048 49.1452 35.0167C49.3761 35.4286 49.4755 35.9098 49.4435 36.4602H47.8935C47.8686 36.0767 47.7266 35.7464 47.4673 35.4695C47.2081 35.1925 46.8263 35.054 46.3221 35.054C45.8782 35.054 45.4698 35.1712 45.0969 35.4055C44.7241 35.6364 44.4098 35.9666 44.1541 36.3963C43.8984 36.8224 43.7244 37.3267 43.6321 37.9091C43.5327 38.5057 43.538 39.0206 43.6481 39.4538C43.7582 39.8871 43.9606 40.2227 44.2553 40.4606C44.5501 40.6985 44.9212 40.8175 45.3686 40.8175C45.674 40.8175 45.9581 40.7624 46.2209 40.6523C46.4872 40.5387 46.7216 40.3771 46.924 40.1676C47.13 39.9581 47.2898 39.706 47.4034 39.4112H48.9588C48.8061 39.9403 48.5504 40.4126 48.1918 40.8281C47.8366 41.2436 47.3999 41.5703 46.8814 41.8082C46.3629 42.0462 45.7805 42.1651 45.1342 42.1651ZM53.7249 42.1651C52.9223 42.1651 52.2583 41.9929 51.7327 41.6484C51.2107 41.3004 50.8449 40.8121 50.6354 40.1836C50.4259 39.5515 50.3921 38.8111 50.5342 37.9624C50.6727 37.1243 50.9514 36.3857 51.3705 35.7464C51.7895 35.1072 52.3115 34.6083 52.9365 34.2496C53.5651 33.891 54.2593 33.7116 55.0193 33.7116C55.4809 33.7116 55.9159 33.788 56.3243 33.9407C56.7362 34.0934 57.086 34.3331 57.3737 34.6598C57.6613 34.9865 57.8602 35.4109 57.9703 35.9329C58.0839 36.4513 58.0803 37.0817 57.9596 37.8239L57.8691 38.3885H51.3598L51.5463 37.1953H56.4894C56.564 36.7763 56.5445 36.4052 56.4308 36.082C56.3172 35.7553 56.1219 35.4979 55.8449 35.3097C55.5715 35.1214 55.227 35.0273 54.8115 35.0273C54.3854 35.0273 53.9877 35.1392 53.6183 35.3629C53.249 35.5866 52.9401 35.8725 52.6915 36.2205C52.4465 36.565 52.292 36.9201 52.2281 37.2859L52.0416 38.3778C51.9493 38.9744 51.9653 39.4538 52.0896 39.8161C52.2174 40.1783 52.4411 40.4411 52.7607 40.6044C53.0803 40.7678 53.4798 40.8494 53.9593 40.8494C54.2682 40.8494 54.5541 40.8068 54.8169 40.7216C55.0832 40.6328 55.3193 40.5032 55.5253 40.3327C55.7313 40.1587 55.9035 39.9421 56.042 39.6829L57.5015 39.9545C57.3062 40.3984 57.0257 40.7873 56.6599 41.1211C56.2941 41.4513 55.8627 41.7088 55.3655 41.8935C54.8719 42.0746 54.325 42.1651 53.7249 42.1651ZM66.2173 35.8157L64.7312 36.0714C64.6992 35.8832 64.6335 35.7056 64.5341 35.5387C64.4382 35.3718 64.2908 35.2369 64.092 35.1339C63.8931 35.0273 63.6286 34.9741 63.2983 34.9741C62.8402 34.9741 62.4389 35.0788 62.0945 35.2884C61.7536 35.4979 61.5582 35.7642 61.5085 36.0874C61.4624 36.3501 61.5245 36.5632 61.695 36.7266C61.8654 36.8864 62.1655 37.0195 62.5952 37.1261L63.8523 37.4244C64.5767 37.5984 65.0952 37.87 65.4077 38.2393C65.7237 38.6051 65.8338 39.081 65.7379 39.6669C65.6563 40.1534 65.4432 40.5849 65.0987 40.9613C64.7578 41.3377 64.321 41.6325 63.7884 41.8455C63.2557 42.0586 62.6626 42.1651 62.0092 42.1651C61.0788 42.1651 60.3544 41.968 59.8359 41.5739C59.3175 41.1797 59.0511 40.6222 59.0369 39.9013L60.6136 39.6669C60.642 40.0682 60.7859 40.3718 61.0451 40.5778C61.3079 40.7802 61.6719 40.8814 62.1371 40.8814C62.6697 40.8849 63.1154 40.7731 63.4741 40.5458C63.8327 40.3185 64.0369 40.0433 64.0866 39.7202C64.1293 39.468 64.0724 39.2585 63.9162 39.0916C63.7635 38.9247 63.4936 38.7969 63.1065 38.7081L61.7855 38.4045C61.0469 38.2305 60.5249 37.9499 60.2195 37.5629C59.9141 37.1758 59.8111 36.6893 59.9105 36.1033C59.9886 35.6239 60.1911 35.2067 60.5178 34.8516C60.848 34.4929 61.2653 34.2141 61.7695 34.0153C62.2738 33.8129 62.8313 33.7116 63.4421 33.7116C64.3335 33.7116 65.0028 33.9034 65.4503 34.2869C65.8977 34.6669 66.1534 35.1765 66.2173 35.8157ZM79.4276 33.8182L75.0969 42H73.3924L71.7837 33.8182H73.4297L74.4524 40.1143H74.5376L77.6538 33.8182H79.4276ZM82.7874 42.1651C81.9848 42.1651 81.3208 41.9929 80.7952 41.6484C80.2732 41.3004 79.9074 40.8121 79.6979 40.1836C79.4884 39.5515 79.4546 38.8111 79.5967 37.9624C79.7352 37.1243 80.0139 36.3857 80.433 35.7464C80.852 35.1072 81.374 34.6083 81.999 34.2496C82.6276 33.891 83.3218 33.7116 84.0818 33.7116C84.5434 33.7116 84.9784 33.788 85.3868 33.9407C85.7987 34.0934 86.1485 34.3331 86.4362 34.6598C86.7238 34.9865 86.9227 35.4109 87.0328 35.9329C87.1464 36.4513 87.1428 37.0817 87.0221 37.8239L86.9316 38.3885H80.4223L80.6088 37.1953H85.5519C85.6265 36.7763 85.607 36.4052 85.4933 36.082C85.3797 35.7553 85.1844 35.4979 84.9074 35.3097C84.634 35.1214 84.2895 35.0273 83.874 35.0273C83.4479 35.0273 83.0502 35.1392 82.6808 35.3629C82.3115 35.5866 82.0026 35.8725 81.754 36.2205C81.509 36.565 81.3545 36.9201 81.2906 37.2859L81.1041 38.3778C81.0118 38.9744 81.0278 39.4538 81.1521 39.8161C81.2799 40.1783 81.5036 40.4411 81.8232 40.6044C82.1428 40.7678 82.5423 40.8494 83.0218 40.8494C83.3307 40.8494 83.6166 40.8068 83.8794 40.7216C84.1457 40.6328 84.3818 40.5032 84.5878 40.3327C84.7938 40.1587 84.966 39.9421 85.1045 39.6829L86.564 39.9545C86.3687 40.3984 86.0882 40.7873 85.7224 41.1211C85.3566 41.4513 84.9252 41.7088 84.428 41.8935C83.9344 42.0746 83.3875 42.1651 82.7874 42.1651ZM90.5124 37.142L89.7134 42H88.1207L89.4844 33.8182H91.0131L90.7894 35.1499H90.8906C91.1499 34.7131 91.5032 34.3651 91.9506 34.1058C92.4016 33.843 92.9343 33.7116 93.5487 33.7116C94.1026 33.7116 94.5678 33.8288 94.9442 34.0632C95.3242 34.294 95.5923 34.6385 95.7486 35.0966C95.9084 35.5547 95.9332 36.1211 95.8232 36.7958L94.9496 42H93.3569L94.1932 36.9876C94.2891 36.3945 94.2109 35.9311 93.9588 35.5973C93.7102 35.2599 93.3143 35.0913 92.771 35.0913C92.4016 35.0913 92.0589 35.1712 91.7429 35.331C91.4304 35.4908 91.1658 35.7251 90.9492 36.0341C90.7362 36.3395 90.5906 36.7088 90.5124 37.142ZM102.828 38.6069L103.627 33.8182H105.225L103.861 42H102.295L102.535 40.5831H102.45C102.194 41.0199 101.832 41.3839 101.363 41.6751C100.898 41.9627 100.358 42.1065 99.7436 42.1065C99.218 42.1065 98.7724 41.9911 98.4066 41.7603C98.0444 41.5259 97.7869 41.1797 97.6342 40.7216C97.4815 40.2635 97.4602 39.6971 97.5703 39.0224L98.4439 33.8182H100.037L99.2003 38.8306C99.1115 39.3881 99.195 39.832 99.4506 40.1623C99.7063 40.4925 100.079 40.6577 100.569 40.6577C100.868 40.6577 101.176 40.5831 101.496 40.4339C101.816 40.2848 102.098 40.0593 102.343 39.7575C102.592 39.4556 102.753 39.0721 102.828 38.6069ZM109.506 42.1651C108.704 42.1651 108.04 41.9929 107.514 41.6484C106.992 41.3004 106.626 40.8121 106.417 40.1836C106.207 39.5515 106.173 38.8111 106.315 37.9624C106.454 37.1243 106.733 36.3857 107.152 35.7464C107.571 35.1072 108.093 34.6083 108.718 34.2496C109.346 33.891 110.041 33.7116 110.801 33.7116C111.262 33.7116 111.697 33.788 112.106 33.9407C112.517 34.0934 112.867 34.3331 113.155 34.6598C113.443 34.9865 113.641 35.4109 113.752 35.9329C113.865 36.4513 113.862 37.0817 113.741 37.8239L113.65 38.3885H107.141L107.328 37.1953H112.271C112.345 36.7763 112.326 36.4052 112.212 36.082C112.098 35.7553 111.903 35.4979 111.626 35.3097C111.353 35.1214 111.008 35.0273 110.593 35.0273C110.167 35.0273 109.769 35.1392 109.4 35.3629C109.03 35.5866 108.721 35.8725 108.473 36.2205C108.228 36.565 108.073 36.9201 108.009 37.2859L107.823 38.3778C107.731 38.9744 107.747 39.4538 107.871 39.8161C107.999 40.1783 108.222 40.4411 108.542 40.6044C108.862 40.7678 109.261 40.8494 109.741 40.8494C110.049 40.8494 110.335 40.8068 110.598 40.7216C110.864 40.6328 111.101 40.5032 111.307 40.3327C111.513 40.1587 111.685 39.9421 111.823 39.6829L113.283 39.9545C113.087 40.3984 112.807 40.7873 112.441 41.1211C112.075 41.4513 111.644 41.7088 111.147 41.8935C110.653 42.0746 110.106 42.1651 109.506 42.1651ZM121.999 35.8157L120.512 36.0714C120.48 35.8832 120.415 35.7056 120.315 35.5387C120.219 35.3718 120.072 35.2369 119.873 35.1339C119.674 35.0273 119.41 34.9741 119.08 34.9741C118.621 34.9741 118.22 35.0788 117.876 35.2884C117.535 35.4979 117.339 35.7642 117.29 36.0874C117.244 36.3501 117.306 36.5632 117.476 36.7266C117.647 36.8864 117.947 37.0195 118.376 37.1261L119.634 37.4244C120.358 37.5984 120.876 37.87 121.189 38.2393C121.505 38.6051 121.615 39.081 121.519 39.6669C121.438 40.1534 121.224 40.5849 120.88 40.9613C120.539 41.3377 120.102 41.6325 119.57 41.8455C119.037 42.0586 118.444 42.1651 117.79 42.1651C116.86 42.1651 116.136 41.968 115.617 41.5739C115.099 41.1797 114.832 40.6222 114.818 39.9013L116.395 39.6669C116.423 40.0682 116.567 40.3718 116.826 40.5778C117.089 40.7802 117.453 40.8814 117.918 40.8814C118.451 40.8849 118.897 40.7731 119.255 40.5458C119.614 40.3185 119.818 40.0433 119.868 39.7202C119.911 39.468 119.854 39.2585 119.697 39.0916C119.545 38.9247 119.275 38.7969 118.888 38.7081L117.567 38.4045C116.828 38.2305 116.306 37.9499 116.001 37.5629C115.695 37.1758 115.592 36.6893 115.692 36.1033C115.77 35.6239 115.972 35.2067 116.299 34.8516C116.629 34.4929 117.047 34.2141 117.551 34.0153C118.055 33.8129 118.613 33.7116 119.223 33.7116C120.115 33.7116 120.784 33.9034 121.232 34.2869C121.679 34.6669 121.935 35.1765 121.999 35.8157ZM129.898 42.1598C129.234 42.1598 128.671 41.9911 128.21 41.6538C127.751 41.3129 127.426 40.8281 127.235 40.1996C127.047 39.5675 127.025 38.8093 127.171 37.9251C127.32 37.0408 127.595 36.2844 127.996 35.6559C128.398 35.0273 128.884 34.5462 129.456 34.2124C130.028 33.8786 130.644 33.7116 131.304 33.7116C131.812 33.7116 132.206 33.7969 132.487 33.9673C132.771 34.1342 132.98 34.3295 133.115 34.5533C133.25 34.777 133.352 34.9741 133.419 35.1445H133.51L134.186 31.0909H135.779L133.968 42H132.412L132.631 40.7269H132.498C132.373 40.9009 132.201 41.0998 131.981 41.3235C131.764 41.5472 131.487 41.7425 131.15 41.9094C130.812 42.0763 130.395 42.1598 129.898 42.1598ZM130.436 40.8015C130.894 40.8015 131.304 40.6808 131.667 40.4393C132.032 40.1942 132.336 39.8551 132.577 39.4219C132.822 38.9886 132.993 38.4844 133.089 37.9091C133.185 37.3409 133.183 36.8437 133.083 36.4176C132.984 35.9915 132.792 35.6594 132.508 35.4215C132.224 35.1836 131.849 35.0646 131.384 35.0646C130.905 35.0646 130.488 35.1889 130.132 35.4375C129.777 35.6861 129.486 36.0252 129.259 36.4549C129.035 36.8846 128.879 37.3693 128.79 37.9091C128.698 38.456 128.694 38.9478 128.779 39.3846C128.865 39.8214 129.044 40.1676 129.317 40.4233C129.591 40.6754 129.964 40.8015 130.436 40.8015ZM139.741 42.1651C138.938 42.1651 138.274 41.9929 137.748 41.6484C137.226 41.3004 136.861 40.8121 136.651 40.1836C136.441 39.5515 136.408 38.8111 136.55 37.9624C136.688 37.1243 136.967 36.3857 137.386 35.7464C137.805 35.1072 138.327 34.6083 138.952 34.2496C139.581 33.891 140.275 33.7116 141.035 33.7116C141.497 33.7116 141.932 33.788 142.34 33.9407C142.752 34.0934 143.102 34.3331 143.389 34.6598C143.677 34.9865 143.876 35.4109 143.986 35.9329C144.1 36.4513 144.096 37.0817 143.975 37.8239L143.885 38.3885H137.375L137.562 37.1953H142.505C142.58 36.7763 142.56 36.4052 142.446 36.082C142.333 35.7553 142.138 35.4979 141.861 35.3097C141.587 35.1214 141.243 35.0273 140.827 35.0273C140.401 35.0273 140.003 35.1392 139.634 35.3629C139.265 35.5866 138.956 35.8725 138.707 36.2205C138.462 36.565 138.308 36.9201 138.244 37.2859L138.057 38.3778C137.965 38.9744 137.981 39.4538 138.105 39.8161C138.233 40.1783 138.457 40.4411 138.776 40.6044C139.096 40.7678 139.495 40.8494 139.975 40.8494C140.284 40.8494 140.57 40.8068 140.832 40.7216C141.099 40.6328 141.335 40.5032 141.541 40.3327C141.747 40.1587 141.919 39.9421 142.058 39.6829L143.517 39.9545C143.322 40.3984 143.041 40.7873 142.676 41.1211C142.31 41.4513 141.878 41.7088 141.381 41.8935C140.888 42.0746 140.341 42.1651 139.741 42.1651ZM159.782 31.0909L157.971 42H156.458L152.245 33.9993H152.149L150.812 42H149.166L150.977 31.0909H152.501L156.719 39.1023H156.821L158.152 31.0909H159.782ZM163.728 42.1651C162.95 42.1651 162.3 41.9876 161.778 41.6325C161.256 41.2738 160.889 40.7731 160.676 40.1303C160.466 39.484 160.431 38.733 160.569 37.8771C160.704 37.0391 160.976 36.3075 161.384 35.6825C161.796 35.0575 162.311 34.5728 162.929 34.2283C163.55 33.8839 164.241 33.7116 165.001 33.7116C165.779 33.7116 166.427 33.891 166.945 34.2496C167.467 34.6083 167.835 35.1108 168.048 35.7571C168.261 36.4034 168.298 37.1562 168.16 38.0156C168.025 38.8466 167.75 39.5746 167.334 40.1996C166.922 40.821 166.407 41.304 165.789 41.6484C165.172 41.9929 164.484 42.1651 163.728 42.1651ZM163.819 40.8281C164.33 40.8281 164.776 40.6932 165.156 40.4233C165.539 40.1534 165.852 39.7947 166.093 39.3473C166.335 38.8999 166.5 38.4098 166.588 37.8771C166.67 37.3622 166.668 36.8917 166.583 36.4656C166.501 36.0359 166.324 35.6914 166.05 35.4322C165.777 35.1729 165.397 35.0433 164.911 35.0433C164.399 35.0433 163.95 35.18 163.563 35.4535C163.179 35.7234 162.867 36.0838 162.625 36.5348C162.387 36.9858 162.226 37.4776 162.141 38.0103C162.059 38.5217 162.059 38.9922 162.141 39.4219C162.222 39.848 162.4 40.1889 162.673 40.4446C162.947 40.7003 163.328 40.8281 163.819 40.8281ZM169.282 42L170.646 33.8182H172.185L171.967 35.1179H172.052C172.272 34.6776 172.594 34.3313 173.016 34.0792C173.439 33.8235 173.89 33.6957 174.369 33.6957C174.472 33.6957 174.59 33.6992 174.721 33.7063C174.852 33.7099 174.959 33.7188 175.041 33.733L174.785 35.2564C174.725 35.2386 174.614 35.2191 174.455 35.1978C174.295 35.1729 174.13 35.1605 173.959 35.1605C173.586 35.1605 173.24 35.2404 172.921 35.4002C172.601 35.5565 172.333 35.7749 172.116 36.0554C171.9 36.3324 171.759 36.6484 171.695 37.0036L170.875 42H169.282ZM175.074 42L176.438 33.8182H177.966L177.743 35.1499H177.844C178.092 34.6989 178.43 34.3473 178.856 34.0952C179.286 33.8395 179.772 33.7116 180.315 33.7116C180.855 33.7116 181.29 33.8395 181.62 34.0952C181.954 34.3509 182.173 34.7024 182.276 35.1499H182.361C182.624 34.7095 182.991 34.3597 183.463 34.1005C183.936 33.8413 184.467 33.7116 185.056 33.7116C185.791 33.7116 186.356 33.946 186.75 34.4148C187.148 34.88 187.268 35.5795 187.112 36.5135L186.196 42H184.598L185.493 36.6626C185.582 36.1051 185.496 35.7038 185.237 35.4588C184.978 35.2102 184.639 35.0859 184.22 35.0859C183.701 35.0859 183.272 35.2457 182.931 35.5653C182.59 35.8814 182.38 36.288 182.302 36.7852L181.423 42H179.841L180.752 36.5614C180.823 36.114 180.741 35.7571 180.507 35.4908C180.276 35.2209 179.939 35.0859 179.495 35.0859C179.193 35.0859 178.9 35.1658 178.616 35.3256C178.336 35.4854 178.096 35.7056 177.897 35.9862C177.698 36.2667 177.569 36.5898 177.508 36.9556L176.667 42H175.074ZM190.685 42.1811C190.167 42.1811 189.714 42.0852 189.327 41.8935C188.94 41.6982 188.654 41.4158 188.469 41.0465C188.285 40.6772 188.237 40.2244 188.325 39.6882C188.403 39.2266 188.556 38.8466 188.783 38.5483C189.014 38.25 189.295 38.0138 189.625 37.8398C189.955 37.6623 190.314 37.5291 190.701 37.4403C191.088 37.3516 191.479 37.2859 191.873 37.2433C192.37 37.1864 192.773 37.1385 193.082 37.0994C193.395 37.0604 193.629 37 193.785 36.9183C193.941 36.8331 194.036 36.6946 194.068 36.5028V36.4656C194.142 36.0039 194.075 35.6452 193.865 35.3896C193.659 35.1303 193.301 35.0007 192.789 35.0007C192.256 35.0007 191.809 35.1179 191.447 35.3523C191.088 35.5866 190.824 35.8494 190.653 36.1406L189.226 35.7997C189.481 35.3026 189.806 34.9013 190.2 34.5959C190.598 34.2869 191.033 34.0632 191.505 33.9247C191.978 33.7827 192.461 33.7116 192.954 33.7116C193.281 33.7116 193.62 33.7507 193.972 33.8288C194.323 33.9034 194.643 34.0419 194.93 34.2443C195.222 34.4467 195.438 34.7362 195.58 35.1126C195.722 35.4854 195.744 35.9702 195.644 36.5668L194.744 42H193.189L193.38 40.8814H193.316C193.182 41.0874 192.993 41.2898 192.752 41.4886C192.514 41.6875 192.223 41.8526 191.878 41.984C191.534 42.1154 191.136 42.1811 190.685 42.1811ZM191.228 40.9027C191.672 40.9027 192.065 40.8157 192.406 40.6417C192.75 40.4677 193.029 40.2404 193.242 39.9599C193.455 39.6758 193.588 39.3722 193.641 39.049L193.817 37.9943C193.75 38.0511 193.631 38.1026 193.46 38.1488C193.293 38.195 193.105 38.2358 192.896 38.2713C192.686 38.3068 192.48 38.337 192.278 38.3619C192.079 38.3867 191.914 38.4098 191.782 38.4311C191.47 38.4702 191.177 38.5359 190.903 38.6282C190.634 38.7205 190.408 38.8537 190.227 39.0277C190.046 39.1982 189.932 39.4254 189.886 39.7095C189.822 40.1037 189.916 40.402 190.168 40.6044C190.424 40.8033 190.777 40.9027 191.228 40.9027ZM199.262 37.142L198.463 42H196.871L198.234 33.8182H199.763L199.539 35.1499H199.641C199.9 34.7131 200.253 34.3651 200.701 34.1058C201.152 33.843 201.684 33.7116 202.299 33.7116C202.853 33.7116 203.318 33.8288 203.694 34.0632C204.074 34.294 204.342 34.6385 204.499 35.0966C204.658 35.5547 204.683 36.1211 204.573 36.7958L203.7 42H202.107L202.943 36.9876C203.039 36.3945 202.961 35.9311 202.709 35.5973C202.46 35.2599 202.064 35.0913 201.521 35.0913C201.152 35.0913 200.809 35.1712 200.493 35.331C200.18 35.4908 199.916 35.7251 199.699 36.0341C199.486 36.3395 199.341 36.7088 199.262 37.142ZM208.882 42.1598C208.218 42.1598 207.656 41.9911 207.194 41.6538C206.736 41.3129 206.411 40.8281 206.219 40.1996C206.031 39.5675 206.01 38.8093 206.155 37.9251C206.304 37.0408 206.58 36.2844 206.981 35.6559C207.382 35.0273 207.869 34.5462 208.44 34.2124C209.012 33.8786 209.628 33.7116 210.289 33.7116C210.797 33.7116 211.191 33.7969 211.471 33.9673C211.755 34.1342 211.965 34.3295 212.1 34.5533C212.235 34.777 212.336 34.9741 212.403 35.1445H212.494L213.17 31.0909H214.763L212.952 42H211.397L211.615 40.7269H211.482C211.358 40.9009 211.185 41.0998 210.965 41.3235C210.749 41.5472 210.472 41.7425 210.134 41.9094C209.797 42.0763 209.38 42.1598 208.882 42.1598ZM209.42 40.8015C209.879 40.8015 210.289 40.6808 210.651 40.4393C211.017 40.1942 211.32 39.8551 211.562 39.4219C211.807 38.9886 211.977 38.4844 212.073 37.9091C212.169 37.3409 212.167 36.8437 212.068 36.4176C211.968 35.9915 211.777 35.6594 211.493 35.4215C211.208 35.1836 210.834 35.0646 210.369 35.0646C209.889 35.0646 209.472 35.1889 209.117 35.4375C208.762 35.6861 208.471 36.0252 208.243 36.4549C208.02 36.8846 207.863 37.3693 207.775 37.9091C207.682 38.456 207.679 38.9478 207.764 39.3846C207.849 39.8214 208.028 40.1676 208.302 40.4233C208.575 40.6754 208.948 40.8015 209.42 40.8015ZM215.22 42L216.584 33.8182H218.176L216.813 42H215.22ZM217.713 32.5398C217.436 32.5398 217.201 32.4474 217.01 32.2628C216.821 32.0746 216.734 31.8509 216.749 31.5916C216.763 31.3288 216.873 31.1051 217.079 30.9205C217.285 30.7322 217.525 30.6381 217.798 30.6381C218.075 30.6381 218.308 30.7322 218.496 30.9205C218.684 31.1051 218.773 31.3288 218.762 31.5916C218.748 31.8509 218.638 32.0746 218.432 32.2628C218.229 32.4474 217.99 32.5398 217.713 32.5398ZM222.46 42.1651C221.658 42.1651 220.994 41.9929 220.468 41.6484C219.946 41.3004 219.58 40.8121 219.371 40.1836C219.161 39.5515 219.127 38.8111 219.27 37.9624C219.408 37.1243 219.687 36.3857 220.106 35.7464C220.525 35.1072 221.047 34.6083 221.672 34.2496C222.3 33.891 222.995 33.7116 223.755 33.7116C224.216 33.7116 224.651 33.788 225.06 33.9407C225.472 34.0934 225.821 34.3331 226.109 34.6598C226.397 34.9865 226.596 35.4109 226.706 35.9329C226.819 36.4513 226.816 37.0817 226.695 37.8239L226.604 38.3885H220.095L220.282 37.1953H225.225C225.299 36.7763 225.28 36.4052 225.166 36.082C225.053 35.7553 224.857 35.4979 224.58 35.3097C224.307 35.1214 223.962 35.0273 223.547 35.0273C223.121 35.0273 222.723 35.1392 222.354 35.3629C221.984 35.5866 221.675 35.8725 221.427 36.2205C221.182 36.565 221.027 36.9201 220.963 37.2859L220.777 38.3778C220.685 38.9744 220.701 39.4538 220.825 39.8161C220.953 40.1783 221.176 40.4411 221.496 40.6044C221.816 40.7678 222.215 40.8494 222.695 40.8494C223.004 40.8494 223.289 40.8068 223.552 40.7216C223.819 40.6328 224.055 40.5032 224.261 40.3327C224.467 40.1587 224.639 39.9421 224.777 39.6829L226.237 39.9545C226.042 40.3984 225.761 40.7873 225.395 41.1211C225.029 41.4513 224.598 41.7088 224.101 41.8935C223.607 42.0746 223.06 42.1651 222.46 42.1651Z" fill="white"/>
</svg>
