<svg width="246" height="52" viewBox="0 0 246 52" fill="none" xmlns="http://www.w3.org/2000/svg">
<rect width="246" height="52" fill="#333333" fill-opacity="0.5"/>
<path d="M81.3378 10.0909V21H79.0314V12.2802H78.9675L76.4692 13.8462V11.8008L79.1699 10.0909H81.3378ZM87.915 21.1491C87.1622 21.1491 86.491 21.0107 85.9015 20.7337C85.3156 20.4567 84.8504 20.0749 84.5059 19.5884C84.1614 19.1019 83.9821 18.5444 83.9679 17.9158H86.2051C86.23 18.3384 86.4075 18.6811 86.7378 18.9439C87.068 19.2067 87.4604 19.3381 87.915 19.3381C88.2772 19.3381 88.5968 19.2582 88.8738 19.0984C89.1543 18.935 89.3727 18.7095 89.529 18.4219C89.6888 18.1307 89.7687 17.7969 89.7687 17.4205C89.7687 17.0369 89.687 16.6996 89.5237 16.4084C89.3639 16.1172 89.1419 15.8899 88.8578 15.7266C88.5737 15.5632 88.2488 15.4798 87.883 15.4762C87.5634 15.4762 87.2527 15.5419 86.9509 15.6733C86.6526 15.8047 86.42 15.984 86.2531 16.2113L84.2023 15.8438L84.719 10.0909H91.388V11.9766H86.6206L86.3383 14.7092H86.4022C86.594 14.4393 86.8834 14.2156 87.2705 14.038C87.6575 13.8604 88.0908 13.7717 88.5702 13.7717C89.2271 13.7717 89.8131 13.9261 90.328 14.2351C90.8429 14.544 91.2495 14.9684 91.5478 15.5082C91.8461 16.0444 91.9935 16.6623 91.9899 17.3619C91.9935 18.0969 91.823 18.7504 91.4786 19.3221C91.1377 19.8903 90.66 20.3377 90.0457 20.6644C89.4349 20.9876 88.7247 21.1491 87.915 21.1491ZM99.4247 21.1545C98.9027 21.1545 98.4375 21.0639 98.0291 20.8828C97.6207 20.6982 97.2975 20.4265 97.0596 20.0678C96.8252 19.7056 96.7081 19.2546 96.7081 18.7148C96.7081 18.2603 96.7915 17.8786 96.9584 17.5696C97.1253 17.2607 97.3526 17.0121 97.6402 16.8239C97.9279 16.6357 98.2546 16.4936 98.6203 16.3977C98.9897 16.3018 99.3767 16.2344 99.7816 16.1953C100.257 16.1456 100.641 16.0994 100.932 16.0568C101.223 16.0107 101.435 15.9432 101.566 15.8544C101.697 15.7656 101.763 15.6342 101.763 15.4602V15.4283C101.763 15.0909 101.657 14.8299 101.443 14.6452C101.234 14.4606 100.936 14.3683 100.549 14.3683C100.14 14.3683 99.8153 14.4588 99.5738 14.6399C99.3323 14.8175 99.1725 15.0412 99.0944 15.3111L96.9957 15.1406C97.1022 14.6435 97.3117 14.2138 97.6242 13.8516C97.9367 13.4858 98.3398 13.2053 98.8334 13.0099C99.3306 12.8111 99.9059 12.7116 100.559 12.7116C101.014 12.7116 101.449 12.7649 101.864 12.8714C102.283 12.978 102.654 13.1431 102.978 13.3668C103.304 13.5906 103.562 13.8782 103.75 14.2298C103.938 14.5778 104.032 14.995 104.032 15.4815V21H101.88V19.8654H101.816C101.685 20.1211 101.509 20.3466 101.289 20.5419C101.069 20.7337 100.804 20.8846 100.495 20.9947C100.186 21.1012 99.8295 21.1545 99.4247 21.1545ZM100.075 19.5884C100.408 19.5884 100.703 19.5227 100.959 19.3913C101.214 19.2564 101.415 19.0753 101.561 18.848C101.706 18.6207 101.779 18.3633 101.779 18.0756V17.2074C101.708 17.2536 101.61 17.2962 101.486 17.3352C101.365 17.3707 101.229 17.4045 101.076 17.4364C100.923 17.4648 100.771 17.4915 100.618 17.5163C100.465 17.5376 100.327 17.5572 100.202 17.5749C99.936 17.614 99.7034 17.6761 99.5046 17.7614C99.3057 17.8466 99.1512 17.962 99.0411 18.1076C98.9311 18.2496 98.876 18.4272 98.876 18.6403C98.876 18.9492 98.9879 19.1854 99.2116 19.3487C99.4389 19.5085 99.7265 19.5884 100.075 19.5884ZM109.489 21.1598C108.662 21.1598 107.947 20.984 107.343 20.6325C106.743 20.2773 106.279 19.7837 105.953 19.1516C105.626 18.516 105.462 17.7791 105.462 16.9411C105.462 16.0959 105.626 15.3572 105.953 14.7251C106.279 14.0895 106.743 13.5959 107.343 13.2443C107.947 12.8892 108.662 12.7116 109.489 12.7116C110.317 12.7116 111.031 12.8892 111.631 13.2443C112.235 13.5959 112.7 14.0895 113.026 14.7251C113.353 15.3572 113.516 16.0959 113.516 16.9411C113.516 17.7791 113.353 18.516 113.026 19.1516C112.7 19.7837 112.235 20.2773 111.631 20.6325C111.031 20.984 110.317 21.1598 109.489 21.1598ZM109.5 19.402C109.877 19.402 110.191 19.2955 110.443 19.0824C110.695 18.8658 110.885 18.571 111.013 18.1982C111.144 17.8253 111.21 17.4009 111.21 16.9251C111.21 16.4492 111.144 16.0249 111.013 15.652C110.885 15.2791 110.695 14.9844 110.443 14.7678C110.191 14.5511 109.877 14.4428 109.5 14.4428C109.12 14.4428 108.801 14.5511 108.541 14.7678C108.286 14.9844 108.092 15.2791 107.961 15.652C107.833 16.0249 107.769 16.4492 107.769 16.9251C107.769 17.4009 107.833 17.8253 107.961 18.1982C108.092 18.571 108.286 18.8658 108.541 19.0824C108.801 19.2955 109.12 19.402 109.5 19.402ZM120.239 17.5163V12.8182H122.508V21H120.329V19.5138H120.244C120.059 19.9933 119.752 20.3786 119.323 20.6697C118.896 20.9609 118.376 21.1065 117.762 21.1065C117.215 21.1065 116.734 20.9822 116.318 20.7337C115.903 20.4851 115.578 20.1317 115.344 19.6737C115.113 19.2156 114.996 18.6669 114.992 18.0277V12.8182H117.261V17.6229C117.265 18.1058 117.394 18.4876 117.65 18.7681C117.906 19.0487 118.248 19.1889 118.678 19.1889C118.951 19.1889 119.207 19.1268 119.445 19.0025C119.683 18.8746 119.875 18.6864 120.02 18.4379C120.17 18.1893 120.242 17.8821 120.239 17.5163ZM119.834 11.8381L118.763 10.5384L117.693 11.8381H115.759V11.7635L117.916 9.41974H119.605L121.768 11.7635V11.8381H119.834ZM128.675 12.8182V14.5227H123.748V12.8182H128.675ZM124.866 10.858H127.136V18.4858C127.136 18.6953 127.167 18.8587 127.231 18.9759C127.295 19.0895 127.384 19.1694 127.498 19.2156C127.615 19.2617 127.75 19.2848 127.903 19.2848C128.009 19.2848 128.116 19.2759 128.222 19.2582C128.329 19.2369 128.41 19.2209 128.467 19.2102L128.824 20.8988C128.71 20.9343 128.551 20.9751 128.345 21.0213C128.139 21.071 127.888 21.1012 127.594 21.1119C127.047 21.1332 126.567 21.0604 126.155 20.8935C125.747 20.7266 125.429 20.4673 125.202 20.1158C124.975 19.7642 124.863 19.3203 124.866 18.7841V10.858ZM138.35 10.0909V21H136.043V12.2802H135.979L133.481 13.8462V11.8008L136.182 10.0909H138.35ZM144.889 9.94176C145.451 9.94176 145.99 10.0359 146.509 10.2241C147.031 10.4123 147.496 10.7124 147.904 11.1243C148.316 11.5362 148.641 12.0831 148.879 12.7649C149.121 13.4432 149.243 14.2759 149.247 15.2631C149.247 16.19 149.142 17.0174 148.932 17.7454C148.726 18.4698 148.43 19.0859 148.043 19.5938C147.656 20.1016 147.189 20.4886 146.642 20.755C146.095 21.0178 145.484 21.1491 144.81 21.1491C144.082 21.1491 143.439 21.0089 142.881 20.7283C142.324 20.4442 141.875 20.0589 141.534 19.5724C141.196 19.0824 140.992 18.532 140.921 17.9212H143.196C143.284 18.3189 143.471 18.6278 143.755 18.848C144.039 19.0646 144.39 19.1729 144.81 19.1729C145.52 19.1729 146.06 18.864 146.429 18.2461C146.798 17.6246 146.985 16.7741 146.988 15.6946H146.914C146.75 16.0142 146.53 16.2894 146.253 16.5202C145.976 16.7475 145.658 16.9233 145.3 17.0476C144.944 17.1719 144.566 17.234 144.165 17.234C143.522 17.234 142.949 17.0831 142.444 16.7812C141.94 16.4794 141.542 16.0639 141.251 15.5348C140.96 15.0057 140.814 14.402 140.814 13.7237C140.811 12.9922 140.98 12.3406 141.321 11.7688C141.661 11.1971 142.137 10.7496 142.748 10.4265C143.362 10.0998 144.076 9.93821 144.889 9.94176ZM144.905 11.7528C144.547 11.7528 144.227 11.8381 143.947 12.0085C143.67 12.179 143.449 12.408 143.286 12.6957C143.126 12.9833 143.048 13.3047 143.052 13.6598C143.052 14.0185 143.13 14.3416 143.286 14.6293C143.446 14.9134 143.663 15.1406 143.936 15.3111C144.213 15.478 144.529 15.5614 144.884 15.5614C145.15 15.5614 145.397 15.5117 145.625 15.4123C145.852 15.3129 146.049 15.1761 146.216 15.0021C146.386 14.8246 146.519 14.6204 146.615 14.3896C146.711 14.1587 146.759 13.9137 146.759 13.6545C146.756 13.31 146.674 12.994 146.514 12.7063C146.354 12.4187 146.134 12.1879 145.854 12.0138C145.573 11.8398 145.257 11.7528 144.905 11.7528ZM150.68 19.0824V17.266L155.234 10.0909H156.8V12.6051H155.873L153.002 17.1488V17.234H159.474V19.0824H150.68ZM155.916 21V18.5284L155.958 17.7241V10.0909H158.121V21H155.916ZM160.846 19.0824V17.266L165.4 10.0909H166.966V12.6051H166.039L163.168 17.1488V17.234H169.64V19.0824H160.846ZM166.082 21V18.5284L166.124 17.7241V10.0909H168.287V21H166.082Z" fill="white"/>
<path d="M27.2472 42L29.0582 31.0909H30.7042L29.1275 40.5831H34.0707L33.8363 42H27.2472ZM39.0911 42.1651C38.2885 42.1651 37.6245 41.9929 37.0989 41.6484C36.5769 41.3004 36.2111 40.8121 36.0016 40.1836C35.7921 39.5515 35.7583 38.8111 35.9004 37.9624C36.0389 37.1243 36.3176 36.3857 36.7367 35.7464C37.1557 35.1072 37.6777 34.6083 38.3027 34.2496C38.9313 33.891 39.6255 33.7116 40.3855 33.7116C40.8471 33.7116 41.2821 33.788 41.6905 33.9407C42.1025 34.0934 42.4522 34.3331 42.7399 34.6598C43.0275 34.9865 43.2264 35.4109 43.3365 35.9329C43.4501 36.4513 43.4466 37.0817 43.3258 37.8239L43.2353 38.3885H36.726L36.9125 37.1953H41.8556C41.9302 36.7763 41.9107 36.4052 41.7971 36.082C41.6834 35.7553 41.4881 35.4979 41.2111 35.3097C40.9377 35.1214 40.5932 35.0273 40.1777 35.0273C39.7516 35.0273 39.3539 35.1392 38.9846 35.3629C38.6152 35.5866 38.3063 35.8725 38.0577 36.2205C37.8127 36.565 37.6582 36.9201 37.5943 37.2859L37.4078 38.3778C37.3155 38.9744 37.3315 39.4538 37.4558 39.8161C37.5836 40.1783 37.8074 40.4411 38.127 40.6044C38.4466 40.7678 38.8461 40.8494 39.3255 40.8494C39.6344 40.8494 39.9203 40.8068 40.1831 40.7216C40.4494 40.6328 40.6855 40.5032 40.8915 40.3327C41.0975 40.1587 41.2697 39.9421 41.4082 39.6829L42.8677 39.9545C42.6724 40.3984 42.3919 40.7873 42.0261 41.1211C41.6603 41.4513 41.2289 41.7088 40.7317 41.8935C40.2381 42.0746 39.6912 42.1651 39.0911 42.1651ZM49.7525 33.8182H51.3452L49.9016 42.5327C49.8093 43.0795 49.6317 43.5412 49.369 43.9176C49.1062 44.294 48.7653 44.5799 48.3462 44.7752C47.9272 44.9705 47.4354 45.0682 46.8707 45.0682C46.8175 45.0682 46.766 45.0682 46.7163 45.0682C46.663 45.0682 46.608 45.0664 46.5511 45.0629L46.7802 43.6939C46.8263 43.6939 46.869 43.6939 46.908 43.6939C46.9471 43.6939 46.9897 43.6939 47.0359 43.6939C47.4123 43.6939 47.7035 43.5927 47.9094 43.3903C48.1119 43.1879 48.2468 42.8984 48.3143 42.522L49.7525 33.8182ZM50.8445 32.5558C50.571 32.5558 50.3384 32.4634 50.1467 32.2788C49.9585 32.0906 49.8714 31.8668 49.8857 31.6076C49.8963 31.3448 50.0046 31.1211 50.2106 30.9364C50.4165 30.7482 50.658 30.6541 50.935 30.6541C51.212 30.6541 51.4446 30.7482 51.6328 30.9364C51.821 31.1211 51.908 31.3448 51.8938 31.6076C51.8832 31.8668 51.7749 32.0906 51.5689 32.2788C51.3629 32.4634 51.1214 32.5558 50.8445 32.5558ZM55.6079 42.1651C54.8302 42.1651 54.1803 41.9876 53.6583 41.6325C53.1363 41.2738 52.7687 40.7731 52.5557 40.1303C52.3461 39.484 52.3106 38.733 52.4491 37.8771C52.5841 37.0391 52.8557 36.3075 53.2641 35.6825C53.676 35.0575 54.191 34.5728 54.8089 34.2283C55.4303 33.8839 56.121 33.7116 56.8809 33.7116C57.6586 33.7116 58.3067 33.891 58.8252 34.2496C59.3472 34.6083 59.7148 35.1108 59.9278 35.7571C60.1409 36.4034 60.1782 37.1562 60.0397 38.0156C59.9047 38.8466 59.6295 39.5746 59.214 40.1996C58.8021 40.821 58.2872 41.304 57.6693 41.6484C57.0514 41.9929 56.3643 42.1651 55.6079 42.1651ZM55.6984 40.8281C56.2098 40.8281 56.6555 40.6932 57.0354 40.4233C57.4189 40.1534 57.7314 39.7947 57.9729 39.3473C58.2144 38.8999 58.3795 38.4098 58.4683 37.8771C58.55 37.3622 58.5482 36.8917 58.463 36.4656C58.3813 36.0359 58.2037 35.6914 57.9303 35.4322C57.6569 35.1729 57.2769 35.0433 56.7904 35.0433C56.279 35.0433 55.8298 35.18 55.4427 35.4535C55.0592 35.7234 54.7467 36.0838 54.5052 36.5348C54.2673 36.9858 54.1057 37.4776 54.0205 38.0103C53.9388 38.5217 53.9388 38.9922 54.0205 39.4219C54.1022 39.848 54.2797 40.1889 54.5532 40.4446C54.8266 40.7003 55.2084 40.8281 55.6984 40.8281ZM66.9098 38.6069L67.7088 33.8182H69.3068L67.9432 42H66.3771L66.6168 40.5831H66.5316C66.2759 41.0199 65.9137 41.3839 65.445 41.6751C64.9798 41.9627 64.44 42.1065 63.8256 42.1065C63.3001 42.1065 62.8544 41.9911 62.4886 41.7603C62.1264 41.5259 61.869 41.1797 61.7163 40.7216C61.5636 40.2635 61.5423 39.6971 61.6523 39.0224L62.5259 33.8182H64.1186L63.2823 38.8306C63.1935 39.3881 63.277 39.832 63.5327 40.1623C63.7884 40.4925 64.1612 40.6577 64.6513 40.6577C64.9496 40.6577 65.2585 40.5831 65.5781 40.4339C65.8977 40.2848 66.18 40.0593 66.4251 39.7575C66.6737 39.4556 66.8352 39.0721 66.9098 38.6069ZM70.0832 42L71.4468 33.8182H72.9862L72.7678 35.1179H72.8531C73.0732 34.6776 73.3946 34.3313 73.8172 34.0792C74.2398 33.8235 74.6908 33.6957 75.1702 33.6957C75.2732 33.6957 75.3904 33.6992 75.5218 33.7063C75.6531 33.7099 75.7597 33.7188 75.8414 33.733L75.5857 35.2564C75.5253 35.2386 75.4152 35.2191 75.2554 35.1978C75.0956 35.1729 74.9305 35.1605 74.76 35.1605C74.3872 35.1605 74.0409 35.2404 73.7213 35.4002C73.4017 35.5565 73.1336 35.7749 72.917 36.0554C72.7004 36.3324 72.5601 36.6484 72.4962 37.0036L71.6759 42H70.0832ZM86.018 31.0909H87.6586L86.3696 38.8572C86.2559 39.5568 86.0269 40.1516 85.6824 40.6417C85.3415 41.1317 84.9065 41.5064 84.3774 41.7656C83.8518 42.0213 83.2517 42.1491 82.577 42.1491C81.9484 42.1491 81.4033 42.0373 80.9417 41.8136C80.4836 41.5863 80.1462 41.2596 79.9296 40.8335C79.7165 40.4038 79.6579 39.8835 79.7538 39.2727H81.3518C81.3092 39.5852 81.3358 39.8516 81.4317 40.0717C81.5312 40.2919 81.691 40.4606 81.9111 40.5778C82.1313 40.695 82.3976 40.7536 82.7101 40.7536C83.0653 40.7536 83.3831 40.6772 83.6636 40.5245C83.9442 40.3718 84.1768 40.1499 84.3614 39.8587C84.5461 39.5675 84.6739 39.2124 84.7449 38.7933L86.018 31.0909ZM95.1373 42.1598C94.4733 42.1598 93.9104 41.9911 93.4488 41.6538C92.9907 41.3129 92.6657 40.8281 92.474 40.1996C92.2858 39.5675 92.2645 38.8093 92.4101 37.9251C92.5592 37.0408 92.8344 36.2844 93.2357 35.6559C93.637 35.0273 94.1235 34.5462 94.6952 34.2124C95.267 33.8786 95.8831 33.7116 96.5436 33.7116C97.0514 33.7116 97.4456 33.7969 97.7261 33.9673C98.0102 34.1342 98.2197 34.3295 98.3547 34.5533C98.4896 34.777 98.5908 34.9741 98.6583 35.1445H98.7488L99.4253 31.0909H101.018L99.2069 42H97.6515L97.8699 40.7269H97.7368C97.6125 40.9009 97.4403 41.0998 97.2201 41.3235C97.0035 41.5472 96.7265 41.7425 96.3891 41.9094C96.0518 42.0763 95.6345 42.1598 95.1373 42.1598ZM95.6753 40.8015C96.1334 40.8015 96.5436 40.6808 96.9058 40.4393C97.2716 40.1942 97.5752 39.8551 97.8167 39.4219C98.0617 38.9886 98.2322 38.4844 98.328 37.9091C98.4239 37.3409 98.4221 36.8437 98.3227 36.4176C98.2233 35.9915 98.0315 35.6594 97.7474 35.4215C97.4633 35.1836 97.0887 35.0646 96.6235 35.0646C96.1441 35.0646 95.7268 35.1889 95.3717 35.4375C95.0166 35.6861 94.7254 36.0252 94.4981 36.4549C94.2744 36.8846 94.1182 37.3693 94.0294 37.9091C93.9371 38.456 93.9335 38.9478 94.0187 39.3846C94.104 39.8214 94.2833 40.1676 94.5567 40.4233C94.8302 40.6754 95.203 40.8015 95.6753 40.8015ZM107.222 38.6069L108.021 33.8182H109.619L108.256 42H106.69L106.929 40.5831H106.844C106.588 41.0199 106.226 41.3839 105.757 41.6751C105.292 41.9627 104.752 42.1065 104.138 42.1065C103.613 42.1065 103.167 41.9911 102.801 41.7603C102.439 41.5259 102.181 41.1797 102.029 40.7216C101.876 40.2635 101.855 39.6971 101.965 39.0224L102.838 33.8182H104.431L103.595 38.8306C103.506 39.3881 103.589 39.832 103.845 40.1623C104.101 40.4925 104.474 40.6577 104.964 40.6577C105.262 40.6577 105.571 40.5831 105.891 40.4339C106.21 40.2848 106.493 40.0593 106.738 39.7575C106.986 39.4556 107.148 39.0721 107.222 38.6069ZM117.418 42.1598C116.754 42.1598 116.191 41.9911 115.729 41.6538C115.271 41.3129 114.946 40.8281 114.754 40.1996C114.566 39.5675 114.545 38.8093 114.69 37.9251C114.839 37.0408 115.115 36.2844 115.516 35.6559C115.917 35.0273 116.404 34.5462 116.975 34.2124C117.547 33.8786 118.163 33.7116 118.824 33.7116C119.332 33.7116 119.726 33.7969 120.006 33.9673C120.29 34.1342 120.5 34.3295 120.635 34.5533C120.77 34.777 120.871 34.9741 120.939 35.1445H121.029L121.706 31.0909H123.298L121.487 42H119.932L120.15 40.7269H120.017C119.893 40.9009 119.721 41.0998 119.5 41.3235C119.284 41.5472 119.007 41.7425 118.669 41.9094C118.332 42.0763 117.915 42.1598 117.418 42.1598ZM117.956 40.8015C118.414 40.8015 118.824 40.6808 119.186 40.4393C119.552 40.1942 119.855 39.8551 120.097 39.4219C120.342 38.9886 120.512 38.4844 120.608 37.9091C120.704 37.3409 120.702 36.8437 120.603 36.4176C120.504 35.9915 120.312 35.6594 120.028 35.4215C119.744 35.1836 119.369 35.0646 118.904 35.0646C118.424 35.0646 118.007 35.1889 117.652 35.4375C117.297 35.6861 117.006 36.0252 116.778 36.4549C116.555 36.8846 116.398 37.3693 116.31 37.9091C116.217 38.456 116.214 38.9478 116.299 39.3846C116.384 39.8214 116.564 40.1676 116.837 40.4233C117.11 40.6754 117.483 40.8015 117.956 40.8015ZM127.26 42.1651C126.457 42.1651 125.793 41.9929 125.268 41.6484C124.746 41.3004 124.38 40.8121 124.171 40.1836C123.961 39.5515 123.927 38.8111 124.069 37.9624C124.208 37.1243 124.487 36.3857 124.906 35.7464C125.325 35.1072 125.847 34.6083 126.472 34.2496C127.1 33.891 127.794 33.7116 128.554 33.7116C129.016 33.7116 129.451 33.788 129.859 33.9407C130.271 34.0934 130.621 34.3331 130.909 34.6598C131.196 34.9865 131.395 35.4109 131.505 35.9329C131.619 36.4513 131.616 37.0817 131.495 37.8239L131.404 38.3885H124.895L125.081 37.1953H130.025C130.099 36.7763 130.08 36.4052 129.966 36.082C129.852 35.7553 129.657 35.4979 129.38 35.3097C129.107 35.1214 128.762 35.0273 128.347 35.0273C127.921 35.0273 127.523 35.1392 127.153 35.3629C126.784 35.5866 126.475 35.8725 126.227 36.2205C125.982 36.565 125.827 36.9201 125.763 37.2859L125.577 38.3778C125.484 38.9744 125.5 39.4538 125.625 39.8161C125.753 40.1783 125.976 40.4411 126.296 40.6044C126.616 40.7678 127.015 40.8494 127.494 40.8494C127.803 40.8494 128.089 40.8068 128.352 40.7216C128.618 40.6328 128.854 40.5032 129.06 40.3327C129.266 40.1587 129.439 39.9421 129.577 39.6829L131.037 39.9545C130.841 40.3984 130.561 40.7873 130.195 41.1211C129.829 41.4513 129.398 41.7088 128.901 41.8935C128.407 42.0746 127.86 42.1651 127.26 42.1651ZM127.979 32.7262L129.63 30.2706H131.308L129.258 32.7262H127.979ZM132.716 42L134.527 31.0909H136.12L135.454 35.1445H135.55C135.67 34.9741 135.836 34.777 136.045 34.5533C136.258 34.3295 136.533 34.1342 136.871 33.9673C137.208 33.7969 137.631 33.7116 138.138 33.7116C138.799 33.7116 139.36 33.8786 139.822 34.2124C140.283 34.5462 140.61 35.0273 140.802 35.6559C140.994 36.2844 141.017 37.0408 140.871 37.9251C140.725 38.8093 140.452 39.5675 140.051 40.1996C139.653 40.8281 139.168 41.3129 138.597 41.6538C138.025 41.9911 137.409 42.1598 136.748 42.1598C136.251 42.1598 135.859 42.0763 135.571 41.9094C135.287 41.7425 135.074 41.5472 134.932 41.3235C134.793 41.0998 134.689 40.9009 134.618 40.7269H134.484L134.271 42H132.716ZM134.958 37.9091C134.866 38.4844 134.866 38.9886 134.958 39.4219C135.054 39.8551 135.241 40.1942 135.518 40.4393C135.798 40.6808 136.166 40.8015 136.62 40.8015C137.096 40.8015 137.515 40.6754 137.877 40.4233C138.24 40.1676 138.538 39.8214 138.772 39.3846C139.007 38.9478 139.17 38.456 139.262 37.9091C139.348 37.3693 139.346 36.8846 139.257 36.4549C139.168 36.0252 138.984 35.6861 138.703 35.4375C138.426 35.1889 138.048 35.0646 137.569 35.0646C137.107 35.0646 136.697 35.1836 136.338 35.4215C135.979 35.6594 135.683 35.9915 135.449 36.4176C135.214 36.8437 135.051 37.3409 134.958 37.9091ZM144.337 42.1811C143.819 42.1811 143.366 42.0852 142.979 41.8935C142.592 41.6982 142.306 41.4158 142.122 41.0465C141.937 40.6772 141.889 40.2244 141.978 39.6882C142.056 39.2266 142.209 38.8466 142.436 38.5483C142.667 38.25 142.947 38.0138 143.277 37.8398C143.608 37.6623 143.966 37.5291 144.353 37.4403C144.741 37.3516 145.131 37.2859 145.525 37.2433C146.022 37.1864 146.426 37.1385 146.734 37.0994C147.047 37.0604 147.281 37 147.438 36.9183C147.594 36.8331 147.688 36.6946 147.72 36.5028V36.4656C147.794 36.0039 147.727 35.6452 147.517 35.3896C147.312 35.1303 146.953 35.0007 146.441 35.0007C145.909 35.0007 145.461 35.1179 145.099 35.3523C144.741 35.5866 144.476 35.8494 144.305 36.1406L142.878 35.7997C143.134 35.3026 143.459 34.9013 143.853 34.5959C144.25 34.2869 144.685 34.0632 145.158 33.9247C145.63 33.7827 146.113 33.7116 146.607 33.7116C146.933 33.7116 147.272 33.7507 147.624 33.8288C147.976 33.9034 148.295 34.0419 148.583 34.2443C148.874 34.4467 149.091 34.7362 149.233 35.1126C149.375 35.4854 149.396 35.9702 149.297 36.5668L148.396 42H146.841L147.033 40.8814H146.969C146.834 41.0874 146.646 41.2898 146.404 41.4886C146.166 41.6875 145.875 41.8526 145.531 41.984C145.186 42.1154 144.788 42.1811 144.337 42.1811ZM144.881 40.9027C145.325 40.9027 145.717 40.8157 146.058 40.6417C146.402 40.4677 146.681 40.2404 146.894 39.9599C147.107 39.6758 147.241 39.3722 147.294 39.049L147.47 37.9943C147.402 38.0511 147.283 38.1026 147.113 38.1488C146.946 38.195 146.758 38.2358 146.548 38.2713C146.339 38.3068 146.133 38.337 145.93 38.3619C145.731 38.3867 145.566 38.4098 145.435 38.4311C145.122 38.4702 144.829 38.5359 144.556 38.6282C144.286 38.7205 144.06 38.8537 143.879 39.0277C143.698 39.1982 143.585 39.4254 143.538 39.7095C143.475 40.1037 143.569 40.402 143.821 40.6044C144.076 40.8033 144.43 40.9027 144.881 40.9027ZM150.518 42L151.881 33.8182H153.421L153.202 35.1179H153.288C153.508 34.6776 153.829 34.3313 154.252 34.0792C154.674 33.8235 155.125 33.6957 155.605 33.6957C155.708 33.6957 155.825 33.6992 155.956 33.7063C156.088 33.7099 156.194 33.7188 156.276 33.733L156.02 35.2564C155.96 35.2386 155.85 35.2191 155.69 35.1978C155.53 35.1729 155.365 35.1605 155.195 35.1605C154.822 35.1605 154.475 35.2404 154.156 35.4002C153.836 35.5565 153.568 35.7749 153.352 36.0554C153.135 36.3324 152.995 36.6484 152.931 37.0036L152.11 42H150.518ZM161.023 45.0682L161.737 40.7269H161.647C161.522 40.9009 161.352 41.0998 161.135 41.3235C160.919 41.5472 160.64 41.7425 160.299 41.9094C159.962 42.0763 159.544 42.1598 159.047 42.1598C158.383 42.1598 157.822 41.9911 157.364 41.6538C156.906 41.3129 156.581 40.8281 156.389 40.1996C156.201 39.5675 156.18 38.8093 156.325 37.9251C156.471 37.0408 156.744 36.2844 157.146 35.6559C157.547 35.0273 158.033 34.5462 158.605 34.2124C159.177 33.8786 159.793 33.7116 160.453 33.7116C160.961 33.7116 161.355 33.7969 161.636 33.9673C161.92 34.1342 162.13 34.3295 162.264 34.5533C162.399 34.777 162.501 34.9741 162.568 35.1445H162.696L162.925 33.8182H164.48L162.616 45.0682H161.023ZM159.617 40.8015C160.079 40.8015 160.489 40.6808 160.848 40.4393C161.206 40.1942 161.503 39.8551 161.737 39.4219C161.975 38.9886 162.142 38.4844 162.238 37.9091C162.334 37.3409 162.334 36.8437 162.238 36.4176C162.146 35.9915 161.961 35.6594 161.684 35.4215C161.407 35.1836 161.038 35.0646 160.576 35.0646C160.093 35.0646 159.67 35.1889 159.308 35.4375C158.946 35.6861 158.649 36.0252 158.419 36.4549C158.188 36.8846 158.026 37.3693 157.934 37.9091C157.845 38.456 157.847 38.9478 157.939 39.3846C158.032 39.8214 158.216 40.1676 158.493 40.4233C158.774 40.6754 159.148 40.8015 159.617 40.8015ZM171.016 38.6069L171.815 33.8182H173.413L172.05 42H170.484L170.723 40.5831H170.638C170.382 41.0199 170.02 41.3839 169.551 41.6751C169.086 41.9627 168.546 42.1065 167.932 42.1065C167.407 42.1065 166.961 41.9911 166.595 41.7603C166.233 41.5259 165.975 41.1797 165.823 40.7216C165.67 40.2635 165.649 39.6971 165.759 39.0224L166.632 33.8182H168.225L167.389 38.8306C167.3 39.3881 167.383 39.832 167.639 40.1623C167.895 40.4925 168.268 40.6577 168.758 40.6577C169.056 40.6577 169.365 40.5831 169.685 40.4339C170.004 40.2848 170.286 40.0593 170.532 39.7575C170.78 39.4556 170.942 39.0721 171.016 38.6069ZM177.695 42.1651C176.892 42.1651 176.228 41.9929 175.702 41.6484C175.18 41.3004 174.815 40.8121 174.605 40.1836C174.396 39.5515 174.362 38.8111 174.504 37.9624C174.642 37.1243 174.921 36.3857 175.34 35.7464C175.759 35.1072 176.281 34.6083 176.906 34.2496C177.535 33.891 178.229 33.7116 178.989 33.7116C179.451 33.7116 179.886 33.788 180.294 33.9407C180.706 34.0934 181.056 34.3331 181.343 34.6598C181.631 34.9865 181.83 35.4109 181.94 35.9329C182.054 36.4513 182.05 37.0817 181.929 37.8239L181.839 38.3885H175.33L175.516 37.1953H180.459C180.534 36.7763 180.514 36.4052 180.401 36.082C180.287 35.7553 180.092 35.4979 179.815 35.3097C179.541 35.1214 179.197 35.0273 178.781 35.0273C178.355 35.0273 177.957 35.1392 177.588 35.3629C177.219 35.5866 176.91 35.8725 176.661 36.2205C176.416 36.565 176.262 36.9201 176.198 37.2859L176.011 38.3778C175.919 38.9744 175.935 39.4538 176.059 39.8161C176.187 40.1783 176.411 40.4411 176.73 40.6044C177.05 40.7678 177.45 40.8494 177.929 40.8494C178.238 40.8494 178.524 40.8068 178.787 40.7216C179.053 40.6328 179.289 40.5032 179.495 40.3327C179.701 40.1587 179.873 39.9421 180.012 39.6829L181.471 39.9545C181.276 40.3984 180.995 40.7873 180.63 41.1211C180.264 41.4513 179.832 41.7088 179.335 41.8935C178.842 42.0746 178.295 42.1651 177.695 42.1651ZM183.028 42L184.392 33.8182H185.92L185.697 35.1499H185.798C186.046 34.6989 186.384 34.3473 186.81 34.0952C187.24 33.8395 187.726 33.7116 188.269 33.7116C188.809 33.7116 189.244 33.8395 189.574 34.0952C189.908 34.3509 190.127 34.7024 190.23 35.1499H190.315C190.578 34.7095 190.945 34.3597 191.418 34.1005C191.89 33.8413 192.421 33.7116 193.01 33.7116C193.745 33.7116 194.31 33.946 194.704 34.4148C195.102 34.88 195.223 35.5795 195.066 36.5135L194.15 42H192.552L193.447 36.6626C193.536 36.1051 193.451 35.7038 193.191 35.4588C192.932 35.2102 192.593 35.0859 192.174 35.0859C191.655 35.0859 191.226 35.2457 190.885 35.5653C190.544 35.8814 190.334 36.288 190.256 36.7852L189.377 42H187.795L188.706 36.5614C188.777 36.114 188.696 35.7571 188.461 35.4908C188.23 35.2209 187.893 35.0859 187.449 35.0859C187.147 35.0859 186.854 35.1658 186.57 35.3256C186.29 35.4854 186.05 35.7056 185.851 35.9862C185.652 36.2667 185.523 36.5898 185.462 36.9556L184.621 42H183.028ZM199.784 42.1651C198.982 42.1651 198.318 41.9929 197.792 41.6484C197.27 41.3004 196.904 40.8121 196.695 40.1836C196.485 39.5515 196.452 38.8111 196.594 37.9624C196.732 37.1243 197.011 36.3857 197.43 35.7464C197.849 35.1072 198.371 34.6083 198.996 34.2496C199.625 33.891 200.319 33.7116 201.079 33.7116C201.54 33.7116 201.975 33.788 202.384 33.9407C202.796 34.0934 203.146 34.3331 203.433 34.6598C203.721 34.9865 203.92 35.4109 204.03 35.9329C204.143 36.4513 204.14 37.0817 204.019 37.8239L203.929 38.3885H197.419L197.606 37.1953H202.549C202.624 36.7763 202.604 36.4052 202.49 36.082C202.377 35.7553 202.181 35.4979 201.904 35.3097C201.631 35.1214 201.287 35.0273 200.871 35.0273C200.445 35.0273 200.047 35.1392 199.678 35.3629C199.309 35.5866 199 35.8725 198.751 36.2205C198.506 36.565 198.352 36.9201 198.288 37.2859L198.101 38.3778C198.009 38.9744 198.025 39.4538 198.149 39.8161C198.277 40.1783 198.501 40.4411 198.82 40.6044C199.14 40.7678 199.539 40.8494 200.019 40.8494C200.328 40.8494 200.614 40.8068 200.876 40.7216C201.143 40.6328 201.379 40.5032 201.585 40.3327C201.791 40.1587 201.963 39.9421 202.102 39.6829L203.561 39.9545C203.366 40.3984 203.085 40.7873 202.719 41.1211C202.354 41.4513 201.922 41.7088 201.425 41.8935C200.931 42.0746 200.385 42.1651 199.784 42.1651ZM207.509 37.142L206.71 42H205.118L206.481 33.8182H208.01L207.786 35.1499H207.888C208.147 34.7131 208.5 34.3651 208.948 34.1058C209.399 33.843 209.931 33.7116 210.546 33.7116C211.1 33.7116 211.565 33.8288 211.941 34.0632C212.321 34.294 212.589 34.6385 212.746 35.0966C212.905 35.5547 212.93 36.1211 212.82 36.7958L211.947 42H210.354L211.19 36.9876C211.286 36.3945 211.208 35.9311 210.956 35.5973C210.707 35.2599 210.311 35.0913 209.768 35.0913C209.399 35.0913 209.056 35.1712 208.74 35.331C208.427 35.4908 208.163 35.7251 207.946 36.0341C207.733 36.3395 207.588 36.7088 207.509 37.142ZM219.26 33.8182L219.052 35.0966H214.583L214.791 33.8182H219.26ZM216.309 31.858H217.902L216.613 39.5977C216.563 39.9066 216.572 40.1392 216.639 40.2955C216.707 40.4482 216.81 40.5529 216.948 40.6097C217.09 40.663 217.248 40.6896 217.422 40.6896C217.55 40.6896 217.662 40.6808 217.758 40.663C217.854 40.6452 217.93 40.631 217.987 40.6204L218.072 41.9361C217.966 41.9716 217.822 42.0071 217.641 42.0426C217.463 42.0817 217.247 42.103 216.991 42.1065C216.572 42.1136 216.194 42.0391 215.856 41.8828C215.519 41.723 215.267 41.4815 215.1 41.1584C214.933 40.8317 214.892 40.4215 214.978 39.9279L216.309 31.858Z" fill="white"/>
</svg>
