<svg width="246" height="52" viewBox="0 0 246 52" fill="none" xmlns="http://www.w3.org/2000/svg">
<rect width="246" height="52" fill="#333333" fill-opacity="0.5"/>
<path d="M65.371 10.0909V21H63.0646V12.2802H63.0007L60.5024 13.8462V11.8008L63.2031 10.0909H65.371ZM72.1506 21.1491C71.5895 21.1456 71.048 21.0515 70.526 20.8668C70.0075 20.6822 69.5423 20.3821 69.1304 19.9666C68.7184 19.5511 68.3917 19.0007 68.1503 18.3153C67.9123 17.63 67.7934 16.7884 67.7934 15.7905C67.7969 14.8743 67.9017 14.0558 68.1076 13.3349C68.3172 12.6104 68.6155 11.9961 69.0025 11.4918C69.3932 10.9876 69.8601 10.604 70.4035 10.3413C70.9468 10.0749 71.5558 9.94176 72.2305 9.94176C72.9585 9.94176 73.6013 10.0838 74.1588 10.3679C74.7163 10.6484 75.1638 11.0302 75.5011 11.5131C75.842 11.9961 76.048 12.5376 76.119 13.1378H73.8445C73.7557 12.7578 73.5693 12.4595 73.2852 12.2429C73.0011 12.0263 72.6495 11.918 72.2305 11.918C71.5203 11.918 70.9805 12.2269 70.6112 12.8448C70.2454 13.4627 70.059 14.3026 70.0519 15.3643H70.1265C70.2898 15.0412 70.51 14.766 70.787 14.5387C71.0675 14.3079 71.3853 14.1321 71.7405 14.0114C72.0991 13.8871 72.4773 13.8249 72.875 13.8249C73.5214 13.8249 74.0966 13.9776 74.6009 14.283C75.1052 14.5849 75.5029 15.0004 75.7941 15.5295C76.0853 16.0586 76.2309 16.6641 76.2309 17.3459C76.2309 18.0845 76.0586 18.7415 75.7142 19.3168C75.3733 19.892 74.8956 20.343 74.2813 20.6697C73.6705 20.9929 72.9603 21.1527 72.1506 21.1491ZM72.14 19.3381C72.4951 19.3381 72.8129 19.2528 73.0934 19.0824C73.374 18.9119 73.5941 18.6811 73.754 18.3899C73.9138 18.0987 73.9937 17.772 73.9937 17.4098C73.9937 17.0476 73.9138 16.7227 73.754 16.435C73.5977 16.1474 73.3811 15.9183 73.1041 15.7479C72.8271 15.5774 72.5111 15.4922 72.1559 15.4922C71.8896 15.4922 71.6428 15.5419 71.4155 15.6413C71.1918 15.7408 70.9947 15.8793 70.8243 16.0568C70.6574 16.2344 70.526 16.4403 70.4301 16.6747C70.3342 16.9055 70.2863 17.1523 70.2863 17.4151C70.2863 17.7667 70.3662 18.0881 70.526 18.3793C70.6893 18.6705 70.9095 18.9031 71.1865 19.0771C71.467 19.2511 71.7848 19.3381 72.14 19.3381ZM87.9536 14.6452V16.4457H80.4536V14.6452H87.9536ZM97.0556 10.0909V21H94.7492V12.2802H94.6852L92.187 13.8462V11.8008L94.8877 10.0909H97.0556ZM103.718 21.1491C102.898 21.1491 102.168 21.016 101.529 20.7496C100.893 20.4798 100.394 20.1122 100.032 19.647C99.6697 19.1818 99.4886 18.6545 99.4886 18.065C99.4886 17.6104 99.5916 17.1932 99.7975 16.8132C100.007 16.4297 100.291 16.1119 100.65 15.8597C101.008 15.604 101.41 15.4407 101.854 15.3697V15.2951C101.271 15.1779 100.799 14.8956 100.437 14.4482C100.075 13.9972 99.8934 13.4734 99.8934 12.8768C99.8934 12.3121 100.059 11.8097 100.389 11.3693C100.719 10.9254 101.172 10.5774 101.747 10.3253C102.326 10.0696 102.983 9.94176 103.718 9.94176C104.453 9.94176 105.108 10.0696 105.684 10.3253C106.262 10.581 106.717 10.9308 107.047 11.3746C107.377 11.815 107.544 12.3157 107.548 12.8768C107.544 13.4769 107.36 14.0007 106.994 14.4482C106.628 14.8956 106.159 15.1779 105.588 15.2951V15.3697C106.024 15.4407 106.42 15.604 106.776 15.8597C107.134 16.1119 107.418 16.4297 107.628 16.8132C107.841 17.1932 107.949 17.6104 107.953 18.065C107.949 18.6545 107.766 19.1818 107.404 19.647C107.042 20.1122 106.541 20.4798 105.902 20.7496C105.266 21.016 104.538 21.1491 103.718 21.1491ZM103.718 19.4553C104.084 19.4553 104.403 19.3896 104.677 19.2582C104.95 19.1232 105.163 18.9386 105.316 18.7042C105.472 18.4663 105.55 18.1928 105.55 17.8839C105.55 17.5678 105.47 17.2891 105.311 17.0476C105.151 16.8026 104.934 16.6108 104.661 16.4723C104.387 16.3303 104.073 16.2592 103.718 16.2592C103.366 16.2592 103.052 16.3303 102.775 16.4723C102.498 16.6108 102.28 16.8026 102.12 17.0476C101.964 17.2891 101.886 17.5678 101.886 17.8839C101.886 18.1928 101.962 18.4663 102.115 18.7042C102.267 18.9386 102.482 19.1232 102.759 19.2582C103.036 19.3896 103.356 19.4553 103.718 19.4553ZM103.718 14.5813C104.023 14.5813 104.295 14.5192 104.533 14.3949C104.771 14.2706 104.957 14.0984 105.092 13.8782C105.227 13.658 105.295 13.4041 105.295 13.1165C105.295 12.8324 105.227 12.5838 105.092 12.3707C104.957 12.1541 104.773 11.9854 104.538 11.8647C104.304 11.7404 104.03 11.6783 103.718 11.6783C103.409 11.6783 103.136 11.7404 102.898 11.8647C102.66 11.9854 102.473 12.1541 102.338 12.3707C102.207 12.5838 102.141 12.8324 102.141 13.1165C102.141 13.4041 102.209 13.658 102.344 13.8782C102.479 14.0984 102.665 14.2706 102.903 14.3949C103.141 14.5192 103.413 14.5813 103.718 14.5813ZM115.391 21.1545C114.869 21.1545 114.404 21.0639 113.996 20.8828C113.587 20.6982 113.264 20.4265 113.026 20.0678C112.792 19.7056 112.675 19.2546 112.675 18.7148C112.675 18.2603 112.758 17.8786 112.925 17.5696C113.092 17.2607 113.319 17.0121 113.607 16.8239C113.895 16.6357 114.221 16.4936 114.587 16.3977C114.956 16.3018 115.344 16.2344 115.748 16.1953C116.224 16.1456 116.608 16.0994 116.899 16.0568C117.19 16.0107 117.401 15.9432 117.533 15.8544C117.664 15.7656 117.73 15.6342 117.73 15.4602V15.4283C117.73 15.0909 117.623 14.8299 117.41 14.6452C117.201 14.4606 116.902 14.3683 116.515 14.3683C116.107 14.3683 115.782 14.4588 115.541 14.6399C115.299 14.8175 115.139 15.0412 115.061 15.3111L112.962 15.1406C113.069 14.6435 113.279 14.2138 113.591 13.8516C113.904 13.4858 114.307 13.2053 114.8 13.0099C115.297 12.8111 115.873 12.7116 116.526 12.7116C116.981 12.7116 117.416 12.7649 117.831 12.8714C118.25 12.978 118.621 13.1431 118.944 13.3668C119.271 13.5906 119.529 13.8782 119.717 14.2298C119.905 14.5778 119.999 14.995 119.999 15.4815V21H117.847V19.8654H117.783C117.652 20.1211 117.476 20.3466 117.256 20.5419C117.036 20.7337 116.771 20.8846 116.462 20.9947C116.153 21.1012 115.796 21.1545 115.391 21.1545ZM116.041 19.5884C116.375 19.5884 116.67 19.5227 116.926 19.3913C117.181 19.2564 117.382 19.0753 117.527 18.848C117.673 18.6207 117.746 18.3633 117.746 18.0756V17.2074C117.675 17.2536 117.577 17.2962 117.453 17.3352C117.332 17.3707 117.195 17.4045 117.043 17.4364C116.89 17.4648 116.737 17.4915 116.585 17.5163C116.432 17.5376 116.293 17.5572 116.169 17.5749C115.903 17.614 115.67 17.6761 115.471 17.7614C115.273 17.8466 115.118 17.962 115.008 18.1076C114.898 18.2496 114.843 18.4272 114.843 18.6403C114.843 18.9492 114.955 19.1854 115.178 19.3487C115.406 19.5085 115.693 19.5884 116.041 19.5884ZM125.456 21.1598C124.629 21.1598 123.913 20.984 123.31 20.6325C122.709 20.2773 122.246 19.7837 121.919 19.1516C121.593 18.516 121.429 17.7791 121.429 16.9411C121.429 16.0959 121.593 15.3572 121.919 14.7251C122.246 14.0895 122.709 13.5959 123.31 13.2443C123.913 12.8892 124.629 12.7116 125.456 12.7116C126.284 12.7116 126.997 12.8892 127.598 13.2443C128.201 13.5959 128.667 14.0895 128.993 14.7251C129.32 15.3572 129.483 16.0959 129.483 16.9411C129.483 17.7791 129.32 18.516 128.993 19.1516C128.667 19.7837 128.201 20.2773 127.598 20.6325C126.997 20.984 126.284 21.1598 125.456 21.1598ZM125.467 19.402C125.843 19.402 126.158 19.2955 126.41 19.0824C126.662 18.8658 126.852 18.571 126.98 18.1982C127.111 17.8253 127.177 17.4009 127.177 16.9251C127.177 16.4492 127.111 16.0249 126.98 15.652C126.852 15.2791 126.662 14.9844 126.41 14.7678C126.158 14.5511 125.843 14.4428 125.467 14.4428C125.087 14.4428 124.767 14.5511 124.508 14.7678C124.252 14.9844 124.059 15.2791 123.928 15.652C123.8 16.0249 123.736 16.4492 123.736 16.9251C123.736 17.4009 123.8 17.8253 123.928 18.1982C124.059 18.571 124.252 18.8658 124.508 19.0824C124.767 19.2955 125.087 19.402 125.467 19.402ZM136.206 17.5163V12.8182H138.475V21H136.296V19.5138H136.211C136.026 19.9933 135.719 20.3786 135.289 20.6697C134.863 20.9609 134.343 21.1065 133.729 21.1065C133.182 21.1065 132.701 20.9822 132.285 20.7337C131.87 20.4851 131.545 20.1317 131.31 19.6737C131.08 19.2156 130.962 18.6669 130.959 18.0277V12.8182H133.228V17.6229C133.231 18.1058 133.361 18.4876 133.617 18.7681C133.872 19.0487 134.215 19.1889 134.645 19.1889C134.918 19.1889 135.174 19.1268 135.412 19.0025C135.65 18.8746 135.842 18.6864 135.987 18.4379C136.136 18.1893 136.209 17.8821 136.206 17.5163ZM135.801 11.8381L134.73 10.5384L133.659 11.8381H131.726V11.7635L133.883 9.41974H135.572L137.734 11.7635V11.8381H135.801ZM144.642 12.8182V14.5227H139.715V12.8182H144.642ZM140.833 10.858H143.102V18.4858C143.102 18.6953 143.134 18.8587 143.198 18.9759C143.262 19.0895 143.351 19.1694 143.465 19.2156C143.582 19.2617 143.717 19.2848 143.869 19.2848C143.976 19.2848 144.082 19.2759 144.189 19.2582C144.295 19.2369 144.377 19.2209 144.434 19.2102L144.791 20.8988C144.677 20.9343 144.517 20.9751 144.311 21.0213C144.106 21.071 143.855 21.1012 143.56 21.1119C143.014 21.1332 142.534 21.0604 142.122 20.8935C141.714 20.7266 141.396 20.4673 141.169 20.1158C140.941 19.7642 140.83 19.3203 140.833 18.7841V10.858ZM154.316 10.0909V21H152.01V12.2802H151.946L149.448 13.8462V11.8008L152.148 10.0909H154.316ZM160.856 9.94176C161.417 9.94176 161.957 10.0359 162.476 10.2241C162.998 10.4123 163.463 10.7124 163.871 11.1243C164.283 11.5362 164.608 12.0831 164.846 12.7649C165.087 13.4432 165.21 14.2759 165.213 15.2631C165.213 16.19 165.109 17.0174 164.899 17.7454C164.693 18.4698 164.397 19.0859 164.01 19.5938C163.623 20.1016 163.156 20.4886 162.609 20.755C162.062 21.0178 161.451 21.1491 160.776 21.1491C160.048 21.1491 159.406 21.0089 158.848 20.7283C158.291 20.4442 157.841 20.0589 157.5 19.5724C157.163 19.0824 156.959 18.532 156.888 17.9212H159.162C159.251 18.3189 159.438 18.6278 159.722 18.848C160.006 19.0646 160.357 19.1729 160.776 19.1729C161.487 19.1729 162.026 18.864 162.396 18.2461C162.765 17.6246 162.951 16.7741 162.955 15.6946H162.88C162.717 16.0142 162.497 16.2894 162.22 16.5202C161.943 16.7475 161.625 16.9233 161.266 17.0476C160.911 17.1719 160.533 17.234 160.132 17.234C159.489 17.234 158.916 17.0831 158.411 16.7812C157.907 16.4794 157.509 16.0639 157.218 15.5348C156.927 15.0057 156.781 14.402 156.781 13.7237C156.778 12.9922 156.946 12.3406 157.287 11.7688C157.628 11.1971 158.104 10.7496 158.715 10.4265C159.329 10.0998 160.043 9.93821 160.856 9.94176ZM160.872 11.7528C160.514 11.7528 160.194 11.8381 159.913 12.0085C159.636 12.179 159.416 12.408 159.253 12.6957C159.093 12.9833 159.015 13.3047 159.019 13.6598C159.019 14.0185 159.097 14.3416 159.253 14.6293C159.413 14.9134 159.629 15.1406 159.903 15.3111C160.18 15.478 160.496 15.5614 160.851 15.5614C161.117 15.5614 161.364 15.5117 161.591 15.4123C161.819 15.3129 162.016 15.1761 162.183 15.0021C162.353 14.8246 162.486 14.6204 162.582 14.3896C162.678 14.1587 162.726 13.9137 162.726 13.6545C162.722 13.31 162.641 12.994 162.481 12.7063C162.321 12.4187 162.101 12.1879 161.82 12.0138C161.54 11.8398 161.224 11.7528 160.872 11.7528ZM166.646 19.0824V17.266L171.201 10.0909H172.767V12.6051H171.84L168.969 17.1488V17.234H175.441V19.0824H166.646ZM171.883 21V18.5284L171.925 17.7241V10.0909H174.088V21H171.883ZM176.812 19.0824V17.266L181.367 10.0909H182.933V12.6051H182.006L179.135 17.1488V17.234H185.607V19.0824H176.812ZM182.049 21V18.5284L182.091 17.7241V10.0909H184.254V21H182.049Z" fill="white"/>
<path d="M33.4508 42L35.2619 31.0909H36.9078L35.3311 40.5831H40.2743L40.0399 42H33.4508ZM44.3692 31.0909L44.2094 32.1136C44.1597 32.4155 44.0496 32.7333 43.8791 33.0671C43.7122 33.3974 43.5009 33.7152 43.2453 34.0206C42.9931 34.326 42.7144 34.5888 42.409 34.8089L41.7058 34.2443C41.9651 33.9389 42.1994 33.614 42.409 33.2695C42.6185 32.9251 42.7587 32.5451 42.8298 32.1296L43.0055 31.0909H44.3692ZM45.6875 42.1811C45.1691 42.1811 44.7163 42.0852 44.3292 41.8935C43.9422 41.6982 43.6563 41.4158 43.4716 41.0465C43.287 40.6772 43.239 40.2244 43.3278 39.6882C43.4059 39.2266 43.5586 38.8466 43.7859 38.5483C44.0167 38.25 44.2973 38.0138 44.6275 37.8398C44.9578 37.6623 45.3165 37.5291 45.7035 37.4403C46.0906 37.3516 46.4812 37.2859 46.8754 37.2433C47.3726 37.1864 47.7756 37.1385 48.0846 37.0994C48.3971 37.0604 48.6314 37 48.7877 36.9183C48.9439 36.8331 49.038 36.6946 49.07 36.5028V36.4656C49.1446 36.0039 49.0771 35.6452 48.8676 35.3896C48.6616 35.1303 48.303 35.0007 47.7916 35.0007C47.2589 35.0007 46.8115 35.1179 46.4493 35.3523C46.0906 35.5866 45.826 35.8494 45.6556 36.1406L44.228 35.7997C44.4837 35.3026 44.8086 34.9013 45.2028 34.5959C45.6005 34.2869 46.0356 34.0632 46.5079 33.9247C46.9802 33.7827 47.4631 33.7116 47.9567 33.7116C48.2834 33.7116 48.6226 33.7507 48.9741 33.8288C49.3257 33.9034 49.6453 34.0419 49.9329 34.2443C50.2241 34.4467 50.4407 34.7362 50.5828 35.1126C50.7248 35.4854 50.7461 35.9702 50.6467 36.5668L49.7465 42H48.1911L48.3829 40.8814H48.3189C48.184 41.0874 47.9958 41.2898 47.7543 41.4886C47.5164 41.6875 47.2252 41.8526 46.8807 41.984C46.5363 42.1154 46.1385 42.1811 45.6875 42.1811ZM46.2309 40.9027C46.6748 40.9027 47.0672 40.8157 47.4081 40.6417C47.7525 40.4677 48.0313 40.2404 48.2444 39.9599C48.4574 39.6758 48.5906 39.3722 48.6439 39.049L48.8196 37.9943C48.7522 38.0511 48.6332 38.1026 48.4628 38.1488C48.2959 38.195 48.1076 38.2358 47.8981 38.2713C47.6886 38.3068 47.4826 38.337 47.2802 38.3619C47.0814 38.3867 46.9162 38.4098 46.7848 38.4311C46.4723 38.4702 46.1794 38.5359 45.9059 38.6282C45.6361 38.7205 45.4106 38.8537 45.2294 39.0277C45.0483 39.1982 44.9347 39.4254 44.8885 39.7095C44.8246 40.1037 44.9187 40.402 45.1709 40.6044C45.4265 40.8033 45.7799 40.9027 46.2309 40.9027ZM59.9378 33.8182L55.6072 42H53.9027L52.294 33.8182H53.9399L54.9627 40.1143H55.0479L58.164 33.8182H59.9378ZM62.1963 42.1811C61.6779 42.1811 61.2251 42.0852 60.838 41.8935C60.4509 41.6982 60.1651 41.4158 59.9804 41.0465C59.7958 40.6772 59.7478 40.2244 59.8366 39.6882C59.9147 39.2266 60.0674 38.8466 60.2947 38.5483C60.5255 38.25 60.8061 38.0138 61.1363 37.8398C61.4666 37.6623 61.8252 37.5291 62.2123 37.4403C62.5994 37.3516 62.99 37.2859 63.3842 37.2433C63.8813 37.1864 64.2844 37.1385 64.5934 37.0994C64.9059 37.0604 65.1402 37 65.2965 36.9183C65.4527 36.8331 65.5468 36.6946 65.5788 36.5028V36.4656C65.6534 36.0039 65.5859 35.6452 65.3764 35.3896C65.1704 35.1303 64.8117 35.0007 64.3004 35.0007C63.7677 35.0007 63.3203 35.1179 62.9581 35.3523C62.5994 35.5866 62.3348 35.8494 62.1644 36.1406L60.7368 35.7997C60.9925 35.3026 61.3174 34.9013 61.7116 34.5959C62.1093 34.2869 62.5443 34.0632 63.0166 33.9247C63.4889 33.7827 63.9719 33.7116 64.4655 33.7116C64.7922 33.7116 65.1313 33.7507 65.4829 33.8288C65.8345 33.9034 66.1541 34.0419 66.4417 34.2443C66.7329 34.4467 66.9495 34.7362 67.0916 35.1126C67.2336 35.4854 67.2549 35.9702 67.1555 36.5668L66.2553 42H64.6999L64.8916 40.8814H64.8277C64.6928 41.0874 64.5046 41.2898 64.2631 41.4886C64.0252 41.6875 63.734 41.8526 63.3895 41.984C63.0451 42.1154 62.6473 42.1811 62.1963 42.1811ZM62.7397 40.9027C63.1835 40.9027 63.5759 40.8157 63.9169 40.6417C64.2613 40.4677 64.5401 40.2404 64.7532 39.9599C64.9662 39.6758 65.0994 39.3722 65.1527 39.049L65.3284 37.9943C65.261 38.0511 65.142 38.1026 64.9715 38.1488C64.8046 38.195 64.6164 38.2358 64.4069 38.2713C64.1974 38.3068 63.9914 38.337 63.789 38.3619C63.5902 38.3867 63.425 38.4098 63.2936 38.4311C62.9811 38.4702 62.6882 38.5359 62.4147 38.6282C62.1448 38.7205 61.9193 38.8537 61.7382 39.0277C61.5571 39.1982 61.4435 39.4254 61.3973 39.7095C61.3334 40.1037 61.4275 40.402 61.6796 40.6044C61.9353 40.8033 62.2887 40.9027 62.7397 40.9027ZM70.7737 37.142L69.9747 42H68.382L69.7456 33.8182H71.2744L71.0506 35.1499H71.1519C71.4111 34.7131 71.7644 34.3651 72.2119 34.1058C72.6629 33.843 73.1955 33.7116 73.8099 33.7116C74.3639 33.7116 74.8291 33.8288 75.2055 34.0632C75.5854 34.294 75.8536 34.6385 76.0098 35.0966C76.1696 35.5547 76.1945 36.1211 76.0844 36.7958L75.2108 42H73.6181L74.4544 36.9876C74.5503 36.3945 74.4722 35.9311 74.22 35.5973C73.9715 35.2599 73.5755 35.0913 73.0322 35.0913C72.6629 35.0913 72.3202 35.1712 72.0041 35.331C71.6916 35.4908 71.4271 35.7251 71.2104 36.0341C70.9974 36.3395 70.8518 36.7088 70.7737 37.142ZM80.7666 42.1651C79.9711 42.1651 79.3195 41.9858 78.8117 41.6271C78.3038 41.2649 77.9505 40.766 77.7516 40.1303C77.5528 39.4947 77.5208 38.7667 77.6558 37.9464C77.7907 37.1154 78.0659 36.3821 78.4814 35.7464C78.9004 35.1072 79.4242 34.6083 80.0528 34.2496C80.6849 33.891 81.3862 33.7116 82.1568 33.7116C82.7783 33.7116 83.3127 33.8271 83.7602 34.0579C84.2076 34.2852 84.5467 34.6048 84.7776 35.0167C85.0084 35.4286 85.1078 35.9098 85.0759 36.4602H83.5258C83.5009 36.0767 83.3589 35.7464 83.0997 35.4695C82.8404 35.1925 82.4587 35.054 81.9544 35.054C81.5105 35.054 81.1021 35.1712 80.7293 35.4055C80.3564 35.6364 80.0421 35.9666 79.7864 36.3963C79.5308 36.8224 79.3568 37.3267 79.2644 37.9091C79.165 38.5057 79.1703 39.0206 79.2804 39.4538C79.3905 39.8871 79.5929 40.2227 79.8877 40.4606C80.1824 40.6985 80.5535 40.8175 81.0009 40.8175C81.3063 40.8175 81.5904 40.7624 81.8532 40.6523C82.1195 40.5387 82.3539 40.3771 82.5563 40.1676C82.7623 39.9581 82.9221 39.706 83.0357 39.4112H84.5911C84.4384 39.9403 84.1828 40.4126 83.8241 40.8281C83.469 41.2436 83.0322 41.5703 82.5137 41.8082C81.9953 42.0462 81.4129 42.1651 80.7666 42.1651ZM89.3572 42.1651C88.5546 42.1651 87.8906 41.9929 87.365 41.6484C86.843 41.3004 86.4772 40.8121 86.2677 40.1836C86.0582 39.5515 86.0245 38.8111 86.1665 37.9624C86.305 37.1243 86.5838 36.3857 87.0028 35.7464C87.4218 35.1072 87.9438 34.6083 88.5688 34.2496C89.1974 33.891 89.8916 33.7116 90.6516 33.7116C91.1132 33.7116 91.5483 33.788 91.9566 33.9407C92.3686 34.0934 92.7184 34.3331 93.006 34.6598C93.2936 34.9865 93.4925 35.4109 93.6026 35.9329C93.7162 36.4513 93.7127 37.0817 93.5919 37.8239L93.5014 38.3885H86.9921L87.1786 37.1953H92.1218C92.1963 36.7763 92.1768 36.4052 92.0632 36.082C91.9495 35.7553 91.7542 35.4979 91.4772 35.3097C91.2038 35.1214 90.8593 35.0273 90.4438 35.0273C90.0177 35.0273 89.62 35.1392 89.2507 35.3629C88.8813 35.5866 88.5724 35.8725 88.3238 36.2205C88.0788 36.565 87.9243 36.9201 87.8604 37.2859L87.674 38.3778C87.5816 38.9744 87.5976 39.4538 87.7219 39.8161C87.8497 40.1783 88.0735 40.4411 88.3931 40.6044C88.7127 40.7678 89.1122 40.8494 89.5916 40.8494C89.9005 40.8494 90.1864 40.8068 90.4492 40.7216C90.7155 40.6328 90.9517 40.5032 91.1576 40.3327C91.3636 40.1587 91.5358 39.9421 91.6743 39.6829L93.1338 39.9545C92.9385 40.3984 92.658 40.7873 92.2922 41.1211C91.9264 41.4513 91.495 41.7088 90.9978 41.8935C90.5042 42.0746 89.9573 42.1651 89.3572 42.1651ZM90.0763 32.7262L91.7276 30.2706H93.4055L91.3547 32.7262H90.0763ZM98.1902 42.1651C97.3877 42.1651 96.7236 41.9929 96.198 41.6484C95.676 41.3004 95.3102 40.8121 95.1007 40.1836C94.8912 39.5515 94.8575 38.8111 94.9995 37.9624C95.138 37.1243 95.4168 36.3857 95.8358 35.7464C96.2548 35.1072 96.7769 34.6083 97.4019 34.2496C98.0304 33.891 98.7247 33.7116 99.4846 33.7116C99.9462 33.7116 100.381 33.788 100.79 33.9407C101.202 34.0934 101.551 34.3331 101.839 34.6598C102.127 34.9865 102.326 35.4109 102.436 35.9329C102.549 36.4513 102.546 37.0817 102.425 37.8239L102.334 38.3885H95.8252L96.0116 37.1953H100.955C101.029 36.7763 101.01 36.4052 100.896 36.082C100.783 35.7553 100.587 35.4979 100.31 35.3097C100.037 35.1214 99.6923 35.0273 99.2769 35.0273C98.8507 35.0273 98.453 35.1392 98.0837 35.3629C97.7144 35.5866 97.4054 35.8725 97.1568 36.2205C96.9118 36.565 96.7573 36.9201 96.6934 37.2859L96.507 38.3778C96.4146 38.9744 96.4306 39.4538 96.5549 39.8161C96.6828 40.1783 96.9065 40.4411 97.2261 40.6044C97.5457 40.7678 97.9452 40.8494 98.4246 40.8494C98.7335 40.8494 99.0194 40.8068 99.2822 40.7216C99.5485 40.6328 99.7847 40.5032 99.9906 40.3327C100.197 40.1587 100.369 39.9421 100.507 39.6829L101.967 39.9545C101.772 40.3984 101.491 40.7873 101.125 41.1211C100.759 41.4513 100.328 41.7088 99.8308 41.8935C99.3372 42.0746 98.7903 42.1651 98.1902 42.1651ZM110.54 42.1598C109.876 42.1598 109.313 41.9911 108.852 41.6538C108.394 41.3129 108.069 40.8281 107.877 40.1996C107.689 39.5675 107.667 38.8093 107.813 37.9251C107.962 37.0408 108.237 36.2844 108.639 35.6559C109.04 35.0273 109.526 34.5462 110.098 34.2124C110.67 33.8786 111.286 33.7116 111.946 33.7116C112.454 33.7116 112.848 33.7969 113.129 33.9673C113.413 34.1342 113.623 34.3295 113.758 34.5533C113.892 34.777 113.994 34.9741 114.061 35.1445H114.152L114.828 31.0909H116.421L114.61 42H113.054L113.273 40.7269H113.14C113.015 40.9009 112.843 41.0998 112.623 41.3235C112.406 41.5472 112.129 41.7425 111.792 41.9094C111.455 42.0763 111.037 42.1598 110.54 42.1598ZM111.078 40.8015C111.536 40.8015 111.946 40.6808 112.309 40.4393C112.674 40.1942 112.978 39.8551 113.22 39.4219C113.465 38.9886 113.635 38.4844 113.731 37.9091C113.827 37.3409 113.825 36.8437 113.726 36.4176C113.626 35.9915 113.434 35.6594 113.15 35.4215C112.866 35.1836 112.492 35.0646 112.026 35.0646C111.547 35.0646 111.13 35.1889 110.775 35.4375C110.419 35.6861 110.128 36.0252 109.901 36.4549C109.677 36.8846 109.521 37.3693 109.432 37.9091C109.34 38.456 109.336 38.9478 109.422 39.3846C109.507 39.8214 109.686 40.1676 109.96 40.4233C110.233 40.6754 110.606 40.8015 111.078 40.8015ZM119.237 42.1811C118.719 42.1811 118.266 42.0852 117.879 41.8935C117.492 41.6982 117.206 41.4158 117.021 41.0465C116.837 40.6772 116.789 40.2244 116.878 39.6882C116.956 39.2266 117.108 38.8466 117.336 38.5483C117.567 38.25 117.847 38.0138 118.177 37.8398C118.508 37.6623 118.866 37.5291 119.253 37.4403C119.64 37.3516 120.031 37.2859 120.425 37.2433C120.922 37.1864 121.325 37.1385 121.634 37.0994C121.947 37.0604 122.181 37 122.337 36.9183C122.494 36.8331 122.588 36.6946 122.62 36.5028V36.4656C122.694 36.0039 122.627 35.6452 122.417 35.3896C122.211 35.1303 121.853 35.0007 121.341 35.0007C120.809 35.0007 120.361 35.1179 119.999 35.3523C119.64 35.5866 119.376 35.8494 119.205 36.1406L117.778 35.7997C118.034 35.3026 118.358 34.9013 118.753 34.5959C119.15 34.2869 119.585 34.0632 120.058 33.9247C120.53 33.7827 121.013 33.7116 121.507 33.7116C121.833 33.7116 122.172 33.7507 122.524 33.8288C122.875 33.9034 123.195 34.0419 123.483 34.2443C123.774 34.4467 123.991 34.7362 124.133 35.1126C124.275 35.4854 124.296 35.9702 124.197 36.5668L123.296 42H121.741L121.933 40.8814H121.869C121.734 41.0874 121.546 41.2898 121.304 41.4886C121.066 41.6875 120.775 41.8526 120.431 41.984C120.086 42.1154 119.688 42.1811 119.237 42.1811ZM119.781 40.9027C120.225 40.9027 120.617 40.8157 120.958 40.6417C121.302 40.4677 121.581 40.2404 121.794 39.9599C122.007 39.6758 122.14 39.3722 122.194 39.049L122.369 37.9943C122.302 38.0511 122.183 38.1026 122.013 38.1488C121.846 38.195 121.657 38.2358 121.448 38.2713C121.238 38.3068 121.032 38.337 120.83 38.3619C120.631 38.3867 120.466 38.4098 120.335 38.4311C120.022 38.4702 119.729 38.5359 119.456 38.6282C119.186 38.7205 118.96 38.8537 118.779 39.0277C118.598 39.1982 118.485 39.4254 118.438 39.7095C118.374 40.1037 118.469 40.402 118.721 40.6044C118.976 40.8033 119.33 40.9027 119.781 40.9027ZM127.815 37.142L127.016 42H125.423L126.787 33.8182H128.315L128.092 35.1499H128.193C128.452 34.7131 128.805 34.3651 129.253 34.1058C129.704 33.843 130.237 33.7116 130.851 33.7116C131.405 33.7116 131.87 33.8288 132.246 34.0632C132.626 34.294 132.895 34.6385 133.051 35.0966C133.211 35.5547 133.235 36.1211 133.125 36.7958L132.252 42H130.659L131.495 36.9876C131.591 36.3945 131.513 35.9311 131.261 35.5973C131.012 35.2599 130.617 35.0913 130.073 35.0913C129.704 35.0913 129.361 35.1712 129.045 35.331C128.733 35.4908 128.468 35.7251 128.251 36.0341C128.038 36.3395 127.893 36.7088 127.815 37.142ZM141.547 35.8157L140.061 36.0714C140.029 35.8832 139.963 35.7056 139.864 35.5387C139.768 35.3718 139.62 35.2369 139.422 35.1339C139.223 35.0273 138.958 34.9741 138.628 34.9741C138.17 34.9741 137.769 35.0788 137.424 35.2884C137.083 35.4979 136.888 35.7642 136.838 36.0874C136.792 36.3501 136.854 36.5632 137.025 36.7266C137.195 36.8864 137.495 37.0195 137.925 37.1261L139.182 37.4244C139.906 37.5984 140.425 37.87 140.737 38.2393C141.053 38.6051 141.163 39.081 141.068 39.6669C140.986 40.1534 140.773 40.5849 140.428 40.9613C140.087 41.3377 139.651 41.6325 139.118 41.8455C138.585 42.0586 137.992 42.1651 137.339 42.1651C136.408 42.1651 135.684 41.968 135.166 41.5739C134.647 41.1797 134.381 40.6222 134.367 39.9013L135.943 39.6669C135.972 40.0682 136.115 40.3718 136.375 40.5778C136.637 40.7802 137.001 40.8814 137.467 40.8814C137.999 40.8849 138.445 40.7731 138.804 40.5458C139.162 40.3185 139.367 40.0433 139.416 39.7202C139.459 39.468 139.402 39.2585 139.246 39.0916C139.093 38.9247 138.823 38.7969 138.436 38.7081L137.115 38.4045C136.376 38.2305 135.854 37.9499 135.549 37.5629C135.244 37.1758 135.141 36.6893 135.24 36.1033C135.318 35.6239 135.521 35.2067 135.847 34.8516C136.178 34.4929 136.595 34.2141 137.099 34.0153C137.603 33.8129 138.161 33.7116 138.772 33.7116C139.663 33.7116 140.332 33.9034 140.78 34.2869C141.227 34.6669 141.483 35.1765 141.547 35.8157ZM149.798 31.0909L147.987 42H146.394L148.205 31.0909H149.798ZM153.635 42.1651C152.832 42.1651 152.168 41.9929 151.642 41.6484C151.12 41.3004 150.755 40.8121 150.545 40.1836C150.336 39.5515 150.302 38.8111 150.444 37.9624C150.582 37.1243 150.861 36.3857 151.28 35.7464C151.699 35.1072 152.221 34.6083 152.846 34.2496C153.475 33.891 154.169 33.7116 154.929 33.7116C155.391 33.7116 155.826 33.788 156.234 33.9407C156.646 34.0934 156.996 34.3331 157.283 34.6598C157.571 34.9865 157.77 35.4109 157.88 35.9329C157.994 36.4513 157.99 37.0817 157.869 37.8239L157.779 38.3885H151.269L151.456 37.1953H156.399C156.474 36.7763 156.454 36.4052 156.341 36.082C156.227 35.7553 156.032 35.4979 155.755 35.3097C155.481 35.1214 155.137 35.0273 154.721 35.0273C154.295 35.0273 153.897 35.1392 153.528 35.3629C153.159 35.5866 152.85 35.8725 152.601 36.2205C152.356 36.565 152.202 36.9201 152.138 37.2859L151.951 38.3778C151.859 38.9744 151.875 39.4538 151.999 39.8161C152.127 40.1783 152.351 40.4411 152.67 40.6044C152.99 40.7678 153.39 40.8494 153.869 40.8494C154.178 40.8494 154.464 40.8068 154.727 40.7216C154.993 40.6328 155.229 40.5032 155.435 40.3327C155.641 40.1587 155.813 39.9421 155.952 39.6829L157.411 39.9545C157.216 40.3984 156.935 40.7873 156.57 41.1211C156.204 41.4513 155.772 41.7088 155.275 41.8935C154.782 42.0746 154.235 42.1651 153.635 42.1651ZM166.127 35.8157L164.641 36.0714C164.609 35.8832 164.543 35.7056 164.444 35.5387C164.348 35.3718 164.201 35.2369 164.002 35.1339C163.803 35.0273 163.538 34.9741 163.208 34.9741C162.75 34.9741 162.349 35.0788 162.004 35.2884C161.663 35.4979 161.468 35.7642 161.418 36.0874C161.372 36.3501 161.434 36.5632 161.605 36.7266C161.775 36.8864 162.075 37.0195 162.505 37.1261L163.762 37.4244C164.486 37.5984 165.005 37.87 165.317 38.2393C165.633 38.6051 165.743 39.081 165.648 39.6669C165.566 40.1534 165.353 40.5849 165.008 40.9613C164.667 41.3377 164.231 41.6325 163.698 41.8455C163.165 42.0586 162.572 42.1651 161.919 42.1651C160.989 42.1651 160.264 41.968 159.746 41.5739C159.227 41.1797 158.961 40.6222 158.947 39.9013L160.523 39.6669C160.552 40.0682 160.696 40.3718 160.955 40.5778C161.218 40.7802 161.582 40.8814 162.047 40.8814C162.579 40.8849 163.025 40.7731 163.384 40.5458C163.742 40.3185 163.947 40.0433 163.996 39.7202C164.039 39.468 163.982 39.2585 163.826 39.0916C163.673 38.9247 163.403 38.7969 163.016 38.7081L161.695 38.4045C160.957 38.2305 160.435 37.9499 160.129 37.5629C159.824 37.1758 159.721 36.6893 159.82 36.1033C159.898 35.6239 160.101 35.2067 160.427 34.8516C160.758 34.4929 161.175 34.2141 161.679 34.0153C162.183 33.8129 162.741 33.7116 163.352 33.7116C164.243 33.7116 164.913 33.9034 165.36 34.2869C165.807 34.6669 166.063 35.1765 166.127 35.8157ZM176.157 33.8182L175.949 35.0966H171.48L171.688 33.8182H176.157ZM173.206 31.858H174.799L173.51 39.5977C173.46 39.9066 173.469 40.1392 173.536 40.2955C173.604 40.4482 173.707 40.5529 173.845 40.6097C173.987 40.663 174.145 40.6896 174.319 40.6896C174.447 40.6896 174.559 40.6808 174.655 40.663C174.751 40.6452 174.827 40.631 174.884 40.6204L174.969 41.9361C174.863 41.9716 174.719 42.0071 174.538 42.0426C174.36 42.0817 174.144 42.103 173.888 42.1065C173.469 42.1136 173.091 42.0391 172.753 41.8828C172.416 41.723 172.164 41.4815 171.997 41.1584C171.83 40.8317 171.789 40.4215 171.875 39.9279L173.206 31.858ZM179.972 42.1651C179.17 42.1651 178.506 41.9929 177.98 41.6484C177.458 41.3004 177.092 40.8121 176.883 40.1836C176.673 39.5515 176.64 38.8111 176.782 37.9624C176.92 37.1243 177.199 36.3857 177.618 35.7464C178.037 35.1072 178.559 34.6083 179.184 34.2496C179.813 33.891 180.507 33.7116 181.267 33.7116C181.728 33.7116 182.163 33.788 182.572 33.9407C182.984 34.0934 183.334 34.3331 183.621 34.6598C183.909 34.9865 184.108 35.4109 184.218 35.9329C184.331 36.4513 184.328 37.0817 184.207 37.8239L184.117 38.3885H177.607L177.794 37.1953H182.737C182.812 36.7763 182.792 36.4052 182.678 36.082C182.565 35.7553 182.369 35.4979 182.092 35.3097C181.819 35.1214 181.475 35.0273 181.059 35.0273C180.633 35.0273 180.235 35.1392 179.866 35.3629C179.497 35.5866 179.188 35.8725 178.939 36.2205C178.694 36.565 178.54 36.9201 178.476 37.2859L178.289 38.3778C178.197 38.9744 178.213 39.4538 178.337 39.8161C178.465 40.1783 178.689 40.4411 179.008 40.6044C179.328 40.7678 179.727 40.8494 180.207 40.8494C180.516 40.8494 180.802 40.8068 181.064 40.7216C181.331 40.6328 181.567 40.5032 181.773 40.3327C181.979 40.1587 182.151 39.9421 182.29 39.6829L183.749 39.9545C183.554 40.3984 183.273 40.7873 182.907 41.1211C182.542 41.4513 182.11 41.7088 181.613 41.8935C181.119 42.0746 180.573 42.1651 179.972 42.1651ZM185.3 42L186.664 33.8182H188.204L187.985 35.1179H188.07C188.291 34.6776 188.612 34.3313 189.034 34.0792C189.457 33.8235 189.908 33.6957 190.387 33.6957C190.49 33.6957 190.608 33.6992 190.739 33.7063C190.87 33.7099 190.977 33.7188 191.059 33.733L190.803 35.2564C190.743 35.2386 190.633 35.2191 190.473 35.1978C190.313 35.1729 190.148 35.1605 189.977 35.1605C189.604 35.1605 189.258 35.2404 188.939 35.4002C188.619 35.5565 188.351 35.7749 188.134 36.0554C187.918 36.3324 187.777 36.6484 187.713 37.0036L186.893 42H185.3ZM191.087 42L192.45 33.8182H193.99L193.771 35.1179H193.856C194.077 34.6776 194.398 34.3313 194.821 34.0792C195.243 33.8235 195.694 33.6957 196.174 33.6957C196.277 33.6957 196.394 33.6992 196.525 33.7063C196.657 33.7099 196.763 33.7188 196.845 33.733L196.589 35.2564C196.529 35.2386 196.419 35.2191 196.259 35.1978C196.099 35.1729 195.934 35.1605 195.763 35.1605C195.391 35.1605 195.044 35.2404 194.725 35.4002C194.405 35.5565 194.137 35.7749 193.92 36.0554C193.704 36.3324 193.564 36.6484 193.5 37.0036L192.679 42H191.087ZM200.085 42.1651C199.282 42.1651 198.618 41.9929 198.093 41.6484C197.571 41.3004 197.205 40.8121 196.995 40.1836C196.786 39.5515 196.752 38.8111 196.894 37.9624C197.033 37.1243 197.311 36.3857 197.73 35.7464C198.149 35.1072 198.671 34.6083 199.296 34.2496C199.925 33.891 200.619 33.7116 201.379 33.7116C201.841 33.7116 202.276 33.788 202.684 33.9407C203.096 34.0934 203.446 34.3331 203.734 34.6598C204.021 34.9865 204.22 35.4109 204.33 35.9329C204.444 36.4513 204.44 37.0817 204.319 37.8239L204.229 38.3885H197.72L197.906 37.1953H202.849C202.924 36.7763 202.904 36.4052 202.791 36.082C202.677 35.7553 202.482 35.4979 202.205 35.3097C201.931 35.1214 201.587 35.0273 201.171 35.0273C200.745 35.0273 200.348 35.1392 199.978 35.3629C199.609 35.5866 199.3 35.8725 199.051 36.2205C198.806 36.565 198.652 36.9201 198.588 37.2859L198.402 38.3778C198.309 38.9744 198.325 39.4538 198.449 39.8161C198.577 40.1783 198.801 40.4411 199.121 40.6044C199.44 40.7678 199.84 40.8494 200.319 40.8494C200.628 40.8494 200.914 40.8068 201.177 40.7216C201.443 40.6328 201.679 40.5032 201.885 40.3327C202.091 40.1587 202.263 39.9421 202.402 39.6829L203.861 39.9545C203.666 40.3984 203.386 40.7873 203.02 41.1211C202.654 41.4513 202.223 41.7088 201.725 41.8935C201.232 42.0746 200.685 42.1651 200.085 42.1651ZM212.577 35.8157L211.091 36.0714C211.059 35.8832 210.993 35.7056 210.894 35.5387C210.798 35.3718 210.651 35.2369 210.452 35.1339C210.253 35.0273 209.988 34.9741 209.658 34.9741C209.2 34.9741 208.799 35.0788 208.454 35.2884C208.113 35.4979 207.918 35.7642 207.868 36.0874C207.822 36.3501 207.884 36.5632 208.055 36.7266C208.225 36.8864 208.525 37.0195 208.955 37.1261L210.212 37.4244C210.937 37.5984 211.455 37.87 211.768 38.2393C212.084 38.6051 212.194 39.081 212.098 39.6669C212.016 40.1534 211.803 40.5849 211.459 40.9613C211.118 41.3377 210.681 41.6325 210.148 41.8455C209.616 42.0586 209.023 42.1651 208.369 42.1651C207.439 42.1651 206.714 41.968 206.196 41.5739C205.677 41.1797 205.411 40.6222 205.397 39.9013L206.973 39.6669C207.002 40.0682 207.146 40.3718 207.405 40.5778C207.668 40.7802 208.032 40.8814 208.497 40.8814C209.03 40.8849 209.475 40.7731 209.834 40.5458C210.193 40.3185 210.397 40.0433 210.447 39.7202C210.489 39.468 210.432 39.2585 210.276 39.0916C210.123 38.9247 209.853 38.7969 209.466 38.7081L208.145 38.4045C207.407 38.2305 206.885 37.9499 206.579 37.5629C206.274 37.1758 206.171 36.6893 206.27 36.1033C206.348 35.6239 206.551 35.2067 206.878 34.8516C207.208 34.4929 207.625 34.2141 208.129 34.0153C208.634 33.8129 209.191 33.7116 209.802 33.7116C210.693 33.7116 211.363 33.9034 211.81 34.2869C212.258 34.6669 212.513 35.1765 212.577 35.8157Z" fill="white"/>
</svg>
