<svg width="203" height="519" viewBox="0 0 203 519" fill="none" xmlns="http://www.w3.org/2000/svg">
<rect width="203" height="519" rx="20" transform="matrix(-1 0 0 1 203 0)" fill="#99BED3" fill-opacity="0.5"/>
<g clip-path="url(#clip0_1498_4373)">
<path d="M57.2262 151V164.018L76.9998 163.853V170.114H57.2262V182.885C57.2262 182.977 56.9444 183.142 56.8093 183.139L52.5398 182.964L51.7884 183.132V170.114H31.1909V164.018H51.7884V151H57.2262Z" fill="black"/>
<path d="M49.9763 151L49.8922 161.053L35.8052 151H49.9763Z" fill="black"/>
<path d="M59.0388 173.493C59.0355 173.419 58.6153 173.206 59.1179 173.247C63.6015 176.579 68.2483 179.697 72.7139 183.05C72.6183 183.114 72.2574 183.133 72.1371 183.133H59.0371C58.9284 179.936 59.1838 176.686 59.0371 173.493H59.0388Z" fill="black"/>
<path d="M72.8806 151L59.0391 160.722V151H72.8806Z" fill="black"/>
<path d="M36.1348 183.133L49.8115 173.658V182.721C49.8115 182.759 50.0158 182.848 49.9054 182.975C49.8494 183.065 49.5034 183.133 49.3996 183.133H36.1348Z" fill="black"/>
<path d="M49.4816 172.094L34.1489 183.043L31.0263 182.968C30.7593 182.739 32.5719 181.511 32.7861 181.351C36.9551 178.253 41.3514 175.432 45.5335 172.348L49.4816 172.095V172.094Z" fill="black"/>
<path d="M76.9999 151L76.9637 151.954L63.076 161.875H59.7804C59.7524 161.875 59.4921 162.228 59.3701 161.958L74.6106 151H76.9999Z" fill="black"/>
<path d="M31.1909 151.164L46.3507 161.875H42.6431L31.1909 153.553V151.164Z" fill="black"/>
<path d="M40.9131 172.256L31.1104 179.178L31.1911 172.256H40.9131Z" fill="black"/>
<path d="M77.0002 182.802L62.4995 172.256H66.0423L77.0002 180.248V182.802Z" fill="black"/>
<path d="M40.5834 161.875H31.1909V155.119L40.5834 161.875Z" fill="black"/>
<path d="M77.0001 161.875H67.7725L77.0001 155.119V161.875Z" fill="black"/>
<path d="M77.0001 172.256V178.847L67.7725 172.256H77.0001Z" fill="black"/>
</g>
<path d="M26.1669 197V189.3H29.4999C30.1892 189.3 30.7832 189.414 31.2819 189.641C31.7806 189.861 32.1656 190.18 32.4369 190.598C32.7082 191.016 32.8439 191.515 32.8439 192.094C32.8439 192.666 32.7082 193.161 32.4369 193.579C32.1656 193.99 31.7806 194.305 31.2819 194.525C30.7832 194.745 30.1892 194.855 29.4999 194.855H27.1569L27.9489 194.074V197H26.1669ZM31.0619 197L29.1369 194.206H31.0399L32.9869 197H31.0619ZM27.9489 194.272L27.1569 193.436H29.4009C29.9509 193.436 30.3616 193.319 30.6329 193.084C30.9042 192.842 31.0399 192.512 31.0399 192.094C31.0399 191.669 30.9042 191.339 30.6329 191.104C30.3616 190.869 29.9509 190.752 29.4009 190.752H27.1569L27.9489 189.905V194.272ZM36.9508 197.088C36.3201 197.088 35.7591 196.956 35.2678 196.692C34.7838 196.428 34.3988 196.069 34.1128 195.614C33.8341 195.152 33.6948 194.628 33.6948 194.041C33.6948 193.447 33.8341 192.923 34.1128 192.468C34.3988 192.006 34.7838 191.647 35.2678 191.39C35.7591 191.126 36.3201 190.994 36.9508 190.994C37.5741 190.994 38.1314 191.126 38.6228 191.39C39.1141 191.647 39.4991 192.002 39.7778 192.457C40.0564 192.912 40.1958 193.44 40.1958 194.041C40.1958 194.628 40.0564 195.152 39.7778 195.614C39.4991 196.069 39.1141 196.428 38.6228 196.692C38.1314 196.956 37.5741 197.088 36.9508 197.088ZM36.9508 195.68C37.2368 195.68 37.4934 195.614 37.7208 195.482C37.9481 195.35 38.1278 195.163 38.2598 194.921C38.3918 194.672 38.4578 194.378 38.4578 194.041C38.4578 193.696 38.3918 193.403 38.2598 193.161C38.1278 192.919 37.9481 192.732 37.7208 192.6C37.4934 192.468 37.2368 192.402 36.9508 192.402C36.6648 192.402 36.4081 192.468 36.1808 192.6C35.9534 192.732 35.7701 192.919 35.6308 193.161C35.4988 193.403 35.4328 193.696 35.4328 194.041C35.4328 194.378 35.4988 194.672 35.6308 194.921C35.7701 195.163 35.9534 195.35 36.1808 195.482C36.4081 195.614 36.6648 195.68 36.9508 195.68ZM41.9296 199.222C41.6216 199.222 41.3173 199.174 41.0166 199.079C40.716 198.984 40.4703 198.852 40.2796 198.683L40.9066 197.462C41.0386 197.579 41.189 197.671 41.3576 197.737C41.5336 197.803 41.706 197.836 41.8746 197.836C42.1166 197.836 42.3073 197.777 42.4466 197.66C42.5933 197.55 42.7253 197.363 42.8426 197.099L43.1506 196.373L43.2826 196.186L45.4056 191.082H47.0556L44.3826 197.363C44.192 197.84 43.972 198.214 43.7226 198.485C43.4806 198.756 43.2093 198.947 42.9086 199.057C42.6153 199.167 42.289 199.222 41.9296 199.222ZM42.9416 197.231L40.3016 191.082H42.0726L44.1186 196.032L42.9416 197.231ZM51.1925 197V195.845L51.0825 195.592V193.524C51.0825 193.157 50.9688 192.871 50.7415 192.666C50.5215 192.461 50.1805 192.358 49.7185 192.358C49.4032 192.358 49.0915 192.409 48.7835 192.512C48.4828 192.607 48.2262 192.739 48.0135 192.908L47.3975 191.709C47.7202 191.482 48.1088 191.306 48.5635 191.181C49.0182 191.056 49.4802 190.994 49.9495 190.994C50.8515 190.994 51.5518 191.207 52.0505 191.632C52.5492 192.057 52.7985 192.721 52.7985 193.623V197H51.1925ZM49.3885 197.088C48.9265 197.088 48.5305 197.011 48.2005 196.857C47.8705 196.696 47.6175 196.479 47.4415 196.208C47.2655 195.937 47.1775 195.632 47.1775 195.295C47.1775 194.943 47.2618 194.635 47.4305 194.371C47.6065 194.107 47.8815 193.902 48.2555 193.755C48.6295 193.601 49.1172 193.524 49.7185 193.524H51.2915V194.525H49.9055C49.5022 194.525 49.2235 194.591 49.0695 194.723C48.9228 194.855 48.8495 195.02 48.8495 195.218C48.8495 195.438 48.9338 195.614 49.1025 195.746C49.2785 195.871 49.5168 195.933 49.8175 195.933C50.1035 195.933 50.3602 195.867 50.5875 195.735C50.8148 195.596 50.9798 195.394 51.0825 195.13L51.3465 195.922C51.2218 196.303 50.9945 196.593 50.6645 196.791C50.3345 196.989 49.9092 197.088 49.3885 197.088ZM56.8486 197.088C56.3572 197.088 55.9172 196.993 55.5286 196.802C55.1472 196.611 54.8502 196.322 54.6376 195.933C54.4249 195.537 54.3186 195.035 54.3186 194.426V191.082H56.0346V194.173C56.0346 194.664 56.1372 195.027 56.3426 195.262C56.5552 195.489 56.8522 195.603 57.2336 195.603C57.4976 195.603 57.7322 195.548 57.9376 195.438C58.1429 195.321 58.3042 195.145 58.4216 194.91C58.5389 194.668 58.5976 194.367 58.5976 194.008V191.082H60.3136V197H58.6856V195.372L58.9826 195.845C58.7846 196.256 58.4912 196.567 58.1026 196.78C57.7212 196.985 57.3032 197.088 56.8486 197.088ZM69.4823 190.994C69.9517 190.994 70.366 191.089 70.7253 191.28C71.092 191.463 71.378 191.749 71.5833 192.138C71.796 192.519 71.9023 193.011 71.9023 193.612V197H70.1863V193.876C70.1863 193.399 70.0873 193.047 69.8893 192.82C69.6913 192.593 69.4127 192.479 69.0533 192.479C68.804 192.479 68.5803 192.538 68.3823 192.655C68.1843 192.765 68.0303 192.934 67.9203 193.161C67.8103 193.388 67.7553 193.678 67.7553 194.03V197H66.0393V193.876C66.0393 193.399 65.9403 193.047 65.7423 192.82C65.5517 192.593 65.2767 192.479 64.9173 192.479C64.668 192.479 64.4443 192.538 64.2463 192.655C64.0483 192.765 63.8943 192.934 63.7843 193.161C63.6743 193.388 63.6193 193.678 63.6193 194.03V197H61.9033V191.082H63.5423V192.699L63.2343 192.226C63.4397 191.823 63.7293 191.518 64.1033 191.313C64.4847 191.1 64.9173 190.994 65.4013 190.994C65.944 190.994 66.417 191.133 66.8203 191.412C67.231 191.683 67.5023 192.101 67.6343 192.666L67.0293 192.501C67.2273 192.039 67.5427 191.672 67.9753 191.401C68.4153 191.13 68.9177 190.994 69.4823 190.994ZM76.4204 197.088C75.7457 197.088 75.1517 196.956 74.6384 196.692C74.1324 196.428 73.7401 196.069 73.4614 195.614C73.1827 195.152 73.0434 194.628 73.0434 194.041C73.0434 193.447 73.1791 192.923 73.4504 192.468C73.7291 192.006 74.1067 191.647 74.5834 191.39C75.0601 191.126 75.5991 190.994 76.2004 190.994C76.7797 190.994 77.3004 191.119 77.7624 191.368C78.2317 191.61 78.6021 191.962 78.8734 192.424C79.1447 192.879 79.2804 193.425 79.2804 194.063C79.2804 194.129 79.2767 194.206 79.2694 194.294C79.2621 194.375 79.2547 194.452 79.2474 194.525H74.4404V193.524H78.3454L77.6854 193.821C77.6854 193.513 77.6231 193.245 77.4984 193.018C77.3737 192.791 77.2014 192.615 76.9814 192.49C76.7614 192.358 76.5047 192.292 76.2114 192.292C75.9181 192.292 75.6577 192.358 75.4304 192.49C75.2104 192.615 75.0381 192.794 74.9134 193.029C74.7887 193.256 74.7264 193.528 74.7264 193.843V194.107C74.7264 194.43 74.7961 194.716 74.9354 194.965C75.0821 195.207 75.2837 195.394 75.5404 195.526C75.8044 195.651 76.1124 195.713 76.4644 195.713C76.7797 195.713 77.0547 195.665 77.2894 195.57C77.5314 195.475 77.7514 195.332 77.9494 195.141L78.8624 196.131C78.5911 196.439 78.2501 196.677 77.8394 196.846C77.4287 197.007 76.9557 197.088 76.4204 197.088ZM39.737 207.591V206.216H42.85V207.591H39.737ZM47.7422 210.132C46.6495 210.132 45.7952 209.828 45.1792 209.219C44.5632 208.61 44.2552 207.741 44.2552 206.612V202.3H46.0372V206.546C46.0372 207.279 46.1875 207.807 46.4882 208.13C46.7889 208.453 47.2105 208.614 47.7532 208.614C48.2959 208.614 48.7175 208.453 49.0182 208.13C49.3189 207.807 49.4692 207.279 49.4692 206.546V202.3H51.2292V206.612C51.2292 207.741 50.9212 208.61 50.3052 209.219C49.6892 209.828 48.8349 210.132 47.7422 210.132ZM56.4661 203.994C56.9355 203.994 57.3535 204.089 57.7201 204.28C58.0941 204.463 58.3875 204.749 58.6001 205.138C58.8128 205.519 58.9191 206.011 58.9191 206.612V210H57.2031V206.876C57.2031 206.399 57.0968 206.047 56.8841 205.82C56.6788 205.593 56.3855 205.479 56.0041 205.479C55.7328 205.479 55.4871 205.538 55.2671 205.655C55.0545 205.765 54.8858 205.937 54.7611 206.172C54.6438 206.407 54.5851 206.707 54.5851 207.074V210H52.8691V204.082H54.5081V205.721L54.2001 205.226C54.4128 204.83 54.7171 204.526 55.1131 204.313C55.5091 204.1 55.9601 203.994 56.4661 203.994ZM60.4746 210V204.082H62.1906V210H60.4746ZM61.3326 203.257C61.0173 203.257 60.7606 203.165 60.5626 202.982C60.3646 202.799 60.2656 202.571 60.2656 202.3C60.2656 202.029 60.3646 201.801 60.5626 201.618C60.7606 201.435 61.0173 201.343 61.3326 201.343C61.648 201.343 61.9046 201.431 62.1026 201.607C62.3006 201.776 62.3996 201.996 62.3996 202.267C62.3996 202.553 62.3006 202.791 62.1026 202.982C61.912 203.165 61.6553 203.257 61.3326 203.257ZM65.7742 210.088C65.2682 210.088 64.7805 210.029 64.3112 209.912C63.8492 209.787 63.4825 209.633 63.2112 209.45L63.7832 208.218C64.0545 208.387 64.3735 208.526 64.7402 208.636C65.1142 208.739 65.4809 208.79 65.8402 208.79C66.2362 208.79 66.5149 208.742 66.6762 208.647C66.8449 208.552 66.9292 208.42 66.9292 208.251C66.9292 208.112 66.8632 208.009 66.7312 207.943C66.6065 207.87 66.4379 207.815 66.2252 207.778C66.0125 207.741 65.7779 207.705 65.5212 207.668C65.2719 207.631 65.0189 207.584 64.7622 207.525C64.5055 207.459 64.2709 207.364 64.0582 207.239C63.8455 207.114 63.6732 206.946 63.5412 206.733C63.4165 206.52 63.3542 206.245 63.3542 205.908C63.3542 205.534 63.4605 205.204 63.6732 204.918C63.8932 204.632 64.2085 204.408 64.6192 204.247C65.0299 204.078 65.5212 203.994 66.0932 203.994C66.4965 203.994 66.9072 204.038 67.3252 204.126C67.7432 204.214 68.0915 204.342 68.3702 204.511L67.7982 205.732C67.5122 205.563 67.2225 205.45 66.9292 205.391C66.6432 205.325 66.3645 205.292 66.0932 205.292C65.7119 205.292 65.4332 205.343 65.2572 205.446C65.0812 205.549 64.9932 205.681 64.9932 205.842C64.9932 205.989 65.0555 206.099 65.1802 206.172C65.3122 206.245 65.4845 206.304 65.6972 206.348C65.9099 206.392 66.1409 206.432 66.3902 206.469C66.6469 206.498 66.9035 206.546 67.1602 206.612C67.4169 206.678 67.6479 206.773 67.8532 206.898C68.0659 207.015 68.2382 207.18 68.3702 207.393C68.5022 207.598 68.5682 207.87 68.5682 208.207C68.5682 208.574 68.4582 208.9 68.2382 209.186C68.0182 209.465 67.6992 209.685 67.2812 209.846C66.8705 210.007 66.3682 210.088 65.7742 210.088Z" fill="#191919"/>
<path d="M101.32 168.82H104.69V170.08H101.32V168.82ZM101.44 171.7H105.25V173H99.83V166H105.12V167.3H101.44V171.7ZM109.699 167.54C110.126 167.54 110.506 167.627 110.839 167.8C111.179 167.967 111.446 168.227 111.639 168.58C111.832 168.927 111.929 169.373 111.929 169.92V173H110.369V170.16C110.369 169.727 110.272 169.407 110.079 169.2C109.892 168.993 109.626 168.89 109.279 168.89C109.032 168.89 108.809 168.943 108.609 169.05C108.416 169.15 108.262 169.307 108.149 169.52C108.042 169.733 107.989 170.007 107.989 170.34V173H106.429V167.62H107.919V169.11L107.639 168.66C107.832 168.3 108.109 168.023 108.469 167.83C108.829 167.637 109.239 167.54 109.699 167.54ZM114.705 173L112.445 167.62H114.055L115.935 172.25H115.135L117.085 167.62H118.585L116.315 173H114.705ZM119.222 173V167.62H120.782V173H119.222ZM120.002 166.87C119.715 166.87 119.482 166.787 119.302 166.62C119.122 166.453 119.032 166.247 119.032 166C119.032 165.753 119.122 165.547 119.302 165.38C119.482 165.213 119.715 165.13 120.002 165.13C120.289 165.13 120.522 165.21 120.702 165.37C120.882 165.523 120.972 165.723 120.972 165.97C120.972 166.23 120.882 166.447 120.702 166.62C120.529 166.787 120.295 166.87 120.002 166.87ZM122.23 173V167.62H123.72V169.14L123.51 168.7C123.67 168.32 123.926 168.033 124.28 167.84C124.633 167.64 125.063 167.54 125.57 167.54V168.98C125.503 168.973 125.443 168.97 125.39 168.97C125.336 168.963 125.28 168.96 125.22 168.96C124.793 168.96 124.446 169.083 124.18 169.33C123.92 169.57 123.79 169.947 123.79 170.46V173H122.23ZM129.018 173.08C128.445 173.08 127.935 172.96 127.488 172.72C127.048 172.48 126.698 172.153 126.438 171.74C126.185 171.32 126.058 170.843 126.058 170.31C126.058 169.77 126.185 169.293 126.438 168.88C126.698 168.46 127.048 168.133 127.488 167.9C127.935 167.66 128.445 167.54 129.018 167.54C129.585 167.54 130.092 167.66 130.538 167.9C130.985 168.133 131.335 168.457 131.588 168.87C131.842 169.283 131.968 169.763 131.968 170.31C131.968 170.843 131.842 171.32 131.588 171.74C131.335 172.153 130.985 172.48 130.538 172.72C130.092 172.96 129.585 173.08 129.018 173.08ZM129.018 171.8C129.278 171.8 129.512 171.74 129.718 171.62C129.925 171.5 130.088 171.33 130.208 171.11C130.328 170.883 130.388 170.617 130.388 170.31C130.388 169.997 130.328 169.73 130.208 169.51C130.088 169.29 129.925 169.12 129.718 169C129.512 168.88 129.278 168.82 129.018 168.82C128.758 168.82 128.525 168.88 128.318 169C128.112 169.12 127.945 169.29 127.818 169.51C127.698 169.73 127.638 169.997 127.638 170.31C127.638 170.617 127.698 170.883 127.818 171.11C127.945 171.33 128.112 171.5 128.318 171.62C128.525 171.74 128.758 171.8 129.018 171.8ZM136.281 167.54C136.708 167.54 137.088 167.627 137.421 167.8C137.761 167.967 138.028 168.227 138.221 168.58C138.414 168.927 138.511 169.373 138.511 169.92V173H136.951V170.16C136.951 169.727 136.854 169.407 136.661 169.2C136.474 168.993 136.208 168.89 135.861 168.89C135.614 168.89 135.391 168.943 135.191 169.05C134.998 169.15 134.844 169.307 134.731 169.52C134.624 169.733 134.571 170.007 134.571 170.34V173H133.011V167.62H134.501V169.11L134.221 168.66C134.414 168.3 134.691 168.023 135.051 167.83C135.411 167.637 135.821 167.54 136.281 167.54ZM141.735 173.08C141.275 173.08 140.832 173.027 140.405 172.92C139.985 172.807 139.652 172.667 139.405 172.5L139.925 171.38C140.172 171.533 140.462 171.66 140.795 171.76C141.135 171.853 141.468 171.9 141.795 171.9C142.155 171.9 142.408 171.857 142.555 171.77C142.708 171.683 142.785 171.563 142.785 171.41C142.785 171.283 142.725 171.19 142.605 171.13C142.492 171.063 142.338 171.013 142.145 170.98C141.952 170.947 141.738 170.913 141.505 170.88C141.278 170.847 141.048 170.803 140.815 170.75C140.582 170.69 140.368 170.603 140.175 170.49C139.982 170.377 139.825 170.223 139.705 170.03C139.592 169.837 139.535 169.587 139.535 169.28C139.535 168.94 139.632 168.64 139.825 168.38C140.025 168.12 140.312 167.917 140.685 167.77C141.058 167.617 141.505 167.54 142.025 167.54C142.392 167.54 142.765 167.58 143.145 167.66C143.525 167.74 143.842 167.857 144.095 168.01L143.575 169.12C143.315 168.967 143.052 168.863 142.785 168.81C142.525 168.75 142.272 168.72 142.025 168.72C141.678 168.72 141.425 168.767 141.265 168.86C141.105 168.953 141.025 169.073 141.025 169.22C141.025 169.353 141.082 169.453 141.195 169.52C141.315 169.587 141.472 169.64 141.665 169.68C141.858 169.72 142.068 169.757 142.295 169.79C142.528 169.817 142.762 169.86 142.995 169.92C143.228 169.98 143.438 170.067 143.625 170.18C143.818 170.287 143.975 170.437 144.095 170.63C144.215 170.817 144.275 171.063 144.275 171.37C144.275 171.703 144.175 172 143.975 172.26C143.775 172.513 143.485 172.713 143.105 172.86C142.732 173.007 142.275 173.08 141.735 173.08ZM101.646 195V183.48L102.906 184.74H99.126V182.4H104.562V195H101.646ZM112.151 195.216C111.119 195.216 110.195 194.964 109.379 194.46C108.563 193.944 107.921 193.2 107.453 192.228C106.985 191.256 106.751 190.08 106.751 188.7C106.751 187.32 106.985 186.144 107.453 185.172C107.921 184.2 108.563 183.462 109.379 182.958C110.195 182.442 111.119 182.184 112.151 182.184C113.195 182.184 114.119 182.442 114.923 182.958C115.739 183.462 116.381 184.2 116.849 185.172C117.317 186.144 117.551 187.32 117.551 188.7C117.551 190.08 117.317 191.256 116.849 192.228C116.381 193.2 115.739 193.944 114.923 194.46C114.119 194.964 113.195 195.216 112.151 195.216ZM112.151 192.75C112.643 192.75 113.069 192.612 113.429 192.336C113.801 192.06 114.089 191.622 114.293 191.022C114.509 190.422 114.617 189.648 114.617 188.7C114.617 187.752 114.509 186.978 114.293 186.378C114.089 185.778 113.801 185.34 113.429 185.064C113.069 184.788 112.643 184.65 112.151 184.65C111.671 184.65 111.245 184.788 110.873 185.064C110.513 185.34 110.225 185.778 110.009 186.378C109.805 186.978 109.703 187.752 109.703 188.7C109.703 189.648 109.805 190.422 110.009 191.022C110.225 191.622 110.513 192.06 110.873 192.336C111.245 192.612 111.671 192.75 112.151 192.75ZM118.847 197.772L120.035 193.452L120.431 195.072C119.915 195.072 119.489 194.922 119.153 194.622C118.829 194.322 118.667 193.908 118.667 193.38C118.667 192.852 118.835 192.432 119.171 192.12C119.507 191.808 119.921 191.652 120.413 191.652C120.917 191.652 121.331 191.814 121.655 192.138C121.979 192.45 122.141 192.864 122.141 193.38C122.141 193.536 122.129 193.692 122.105 193.848C122.081 193.992 122.033 194.172 121.961 194.388C121.901 194.592 121.799 194.856 121.655 195.18L120.629 197.772H118.847ZM128.622 195.216C127.59 195.216 126.666 194.964 125.85 194.46C125.034 193.944 124.392 193.2 123.924 192.228C123.456 191.256 123.222 190.08 123.222 188.7C123.222 187.32 123.456 186.144 123.924 185.172C124.392 184.2 125.034 183.462 125.85 182.958C126.666 182.442 127.59 182.184 128.622 182.184C129.666 182.184 130.59 182.442 131.394 182.958C132.21 183.462 132.852 184.2 133.32 185.172C133.788 186.144 134.022 187.32 134.022 188.7C134.022 190.08 133.788 191.256 133.32 192.228C132.852 193.2 132.21 193.944 131.394 194.46C130.59 194.964 129.666 195.216 128.622 195.216ZM128.622 192.75C129.114 192.75 129.54 192.612 129.9 192.336C130.272 192.06 130.56 191.622 130.764 191.022C130.98 190.422 131.088 189.648 131.088 188.7C131.088 187.752 130.98 186.978 130.764 186.378C130.56 185.778 130.272 185.34 129.9 185.064C129.54 184.788 129.114 184.65 128.622 184.65C128.142 184.65 127.716 184.788 127.344 185.064C126.984 185.34 126.696 185.778 126.48 186.378C126.276 186.978 126.174 187.752 126.174 188.7C126.174 189.648 126.276 190.422 126.48 191.022C126.696 191.622 126.984 192.06 127.344 192.336C127.716 192.612 128.142 192.75 128.622 192.75ZM140.838 195.216C139.806 195.216 138.882 194.964 138.066 194.46C137.25 193.944 136.608 193.2 136.14 192.228C135.672 191.256 135.438 190.08 135.438 188.7C135.438 187.32 135.672 186.144 136.14 185.172C136.608 184.2 137.25 183.462 138.066 182.958C138.882 182.442 139.806 182.184 140.838 182.184C141.882 182.184 142.806 182.442 143.61 182.958C144.426 183.462 145.068 184.2 145.536 185.172C146.004 186.144 146.238 187.32 146.238 188.7C146.238 190.08 146.004 191.256 145.536 192.228C145.068 193.2 144.426 193.944 143.61 194.46C142.806 194.964 141.882 195.216 140.838 195.216ZM140.838 192.75C141.33 192.75 141.756 192.612 142.116 192.336C142.488 192.06 142.776 191.622 142.98 191.022C143.196 190.422 143.304 189.648 143.304 188.7C143.304 187.752 143.196 186.978 142.98 186.378C142.776 185.778 142.488 185.34 142.116 185.064C141.756 184.788 141.33 184.65 140.838 184.65C140.358 184.65 139.932 184.788 139.56 185.064C139.2 185.34 138.912 185.778 138.696 186.378C138.492 186.978 138.39 187.752 138.39 188.7C138.39 189.648 138.492 190.422 138.696 191.022C138.912 191.622 139.2 192.06 139.56 192.336C139.932 192.612 140.358 192.75 140.838 192.75ZM153.055 195.216C152.023 195.216 151.099 194.964 150.283 194.46C149.467 193.944 148.825 193.2 148.357 192.228C147.889 191.256 147.655 190.08 147.655 188.7C147.655 187.32 147.889 186.144 148.357 185.172C148.825 184.2 149.467 183.462 150.283 182.958C151.099 182.442 152.023 182.184 153.055 182.184C154.099 182.184 155.023 182.442 155.827 182.958C156.643 183.462 157.285 184.2 157.753 185.172C158.221 186.144 158.455 187.32 158.455 188.7C158.455 190.08 158.221 191.256 157.753 192.228C157.285 193.2 156.643 193.944 155.827 194.46C155.023 194.964 154.099 195.216 153.055 195.216ZM153.055 192.75C153.547 192.75 153.973 192.612 154.333 192.336C154.705 192.06 154.993 191.622 155.197 191.022C155.413 190.422 155.521 189.648 155.521 188.7C155.521 187.752 155.413 186.978 155.197 186.378C154.993 185.778 154.705 185.34 154.333 185.064C153.973 184.788 153.547 184.65 153.055 184.65C152.575 184.65 152.149 184.788 151.777 185.064C151.417 185.34 151.129 185.778 150.913 186.378C150.709 186.978 150.607 187.752 150.607 188.7C150.607 189.648 150.709 190.422 150.913 191.022C151.129 191.622 151.417 192.06 151.777 192.336C152.149 192.612 152.575 192.75 153.055 192.75Z" fill="#191919"/>
<path d="M81 12H121" stroke="#367293" stroke-width="4" stroke-linecap="round"/>
<path d="M82.0412 491.871C81.3692 491.871 80.7252 491.783 80.1092 491.607C79.4932 491.423 78.9972 491.187 78.6212 490.899L79.2812 489.435C79.6412 489.691 80.0652 489.903 80.5532 490.071C81.0492 490.231 81.5492 490.311 82.0532 490.311C82.4372 490.311 82.7452 490.275 82.9772 490.203C83.2172 490.123 83.3932 490.015 83.5052 489.879C83.6172 489.743 83.6732 489.587 83.6732 489.411C83.6732 489.187 83.5852 489.011 83.4092 488.883C83.2332 488.747 83.0012 488.639 82.7132 488.559C82.4252 488.471 82.1052 488.391 81.7532 488.319C81.4092 488.239 81.0612 488.143 80.7092 488.031C80.3652 487.919 80.0492 487.775 79.7612 487.599C79.4732 487.423 79.2372 487.191 79.0532 486.903C78.8772 486.615 78.7892 486.247 78.7892 485.799C78.7892 485.319 78.9172 484.883 79.1732 484.491C79.4372 484.091 79.8292 483.775 80.3492 483.543C80.8772 483.303 81.5372 483.183 82.3292 483.183C82.8572 483.183 83.3772 483.247 83.8892 483.375C84.4012 483.495 84.8532 483.679 85.2452 483.927L84.6452 485.403C84.2532 485.179 83.8612 485.015 83.4692 484.911C83.0772 484.799 82.6932 484.743 82.3172 484.743C81.9412 484.743 81.6332 484.787 81.3932 484.875C81.1532 484.963 80.9812 485.079 80.8772 485.223C80.7732 485.359 80.7212 485.519 80.7212 485.703C80.7212 485.919 80.8092 486.095 80.9852 486.231C81.1612 486.359 81.3932 486.463 81.6812 486.543C81.9692 486.623 82.2852 486.703 82.6292 486.783C82.9812 486.863 83.3292 486.955 83.6732 487.059C84.0252 487.163 84.3452 487.303 84.6332 487.479C84.9212 487.655 85.1532 487.887 85.3292 488.175C85.5132 488.463 85.6052 488.827 85.6052 489.267C85.6052 489.739 85.4732 490.171 85.2092 490.563C84.9452 490.955 84.5492 491.271 84.0212 491.511C83.5012 491.751 82.8412 491.871 82.0412 491.871ZM89.8735 491.823C89.1855 491.823 88.5735 491.679 88.0375 491.391C87.5095 491.103 87.0895 490.711 86.7775 490.215C86.4735 489.711 86.3215 489.139 86.3215 488.499C86.3215 487.851 86.4735 487.279 86.7775 486.783C87.0895 486.279 87.5095 485.887 88.0375 485.607C88.5735 485.319 89.1855 485.175 89.8735 485.175C90.5535 485.175 91.1615 485.319 91.6975 485.607C92.2335 485.887 92.6535 486.275 92.9575 486.771C93.2615 487.267 93.4135 487.843 93.4135 488.499C93.4135 489.139 93.2615 489.711 92.9575 490.215C92.6535 490.711 92.2335 491.103 91.6975 491.391C91.1615 491.679 90.5535 491.823 89.8735 491.823ZM89.8735 490.287C90.1855 490.287 90.4655 490.215 90.7135 490.071C90.9615 489.927 91.1575 489.723 91.3015 489.459C91.4455 489.187 91.5175 488.867 91.5175 488.499C91.5175 488.123 91.4455 487.803 91.3015 487.539C91.1575 487.275 90.9615 487.071 90.7135 486.927C90.4655 486.783 90.1855 486.711 89.8735 486.711C89.5615 486.711 89.2815 486.783 89.0335 486.927C88.7855 487.071 88.5855 487.275 88.4335 487.539C88.2895 487.803 88.2175 488.123 88.2175 488.499C88.2175 488.867 88.2895 489.187 88.4335 489.459C88.5855 489.723 88.7855 489.927 89.0335 490.071C89.2815 490.215 89.5615 490.287 89.8735 490.287ZM94.6648 491.727V482.823H96.5368V491.727H94.6648ZM101.046 491.823C100.438 491.823 99.8902 491.687 99.4022 491.415C98.9142 491.135 98.5262 490.747 98.2382 490.251C97.9582 489.755 97.8182 489.171 97.8182 488.499C97.8182 487.819 97.9582 487.231 98.2382 486.735C98.5262 486.239 98.9142 485.855 99.4022 485.583C99.8902 485.311 100.438 485.175 101.046 485.175C101.59 485.175 102.066 485.295 102.474 485.535C102.882 485.775 103.198 486.139 103.422 486.627C103.646 487.115 103.758 487.739 103.758 488.499C103.758 489.251 103.65 489.875 103.434 490.371C103.218 490.859 102.906 491.223 102.498 491.463C102.098 491.703 101.614 491.823 101.046 491.823ZM101.37 490.287C101.674 490.287 101.95 490.215 102.198 490.071C102.446 489.927 102.642 489.723 102.786 489.459C102.938 489.187 103.014 488.867 103.014 488.499C103.014 488.123 102.938 487.803 102.786 487.539C102.642 487.275 102.446 487.071 102.198 486.927C101.95 486.783 101.674 486.711 101.37 486.711C101.058 486.711 100.778 486.783 100.53 486.927C100.282 487.071 100.082 487.275 99.9302 487.539C99.7862 487.803 99.7142 488.123 99.7142 488.499C99.7142 488.867 99.7862 489.187 99.9302 489.459C100.082 489.723 100.282 489.927 100.53 490.071C100.778 490.215 101.058 490.287 101.37 490.287ZM103.062 491.727V490.407L103.098 488.487L102.978 486.579V482.823H104.85V491.727H103.062ZM110.543 491.727V490.467L110.423 490.191V487.935C110.423 487.535 110.299 487.223 110.051 486.999C109.811 486.775 109.439 486.663 108.935 486.663C108.591 486.663 108.251 486.719 107.915 486.831C107.587 486.935 107.307 487.079 107.075 487.263L106.403 485.955C106.755 485.707 107.179 485.515 107.675 485.379C108.171 485.243 108.675 485.175 109.187 485.175C110.171 485.175 110.935 485.407 111.479 485.871C112.023 486.335 112.295 487.059 112.295 488.043V491.727H110.543ZM108.575 491.823C108.071 491.823 107.639 491.739 107.279 491.571C106.919 491.395 106.643 491.159 106.451 490.863C106.259 490.567 106.163 490.235 106.163 489.867C106.163 489.483 106.255 489.147 106.439 488.859C106.631 488.571 106.931 488.347 107.339 488.187C107.747 488.019 108.279 487.935 108.935 487.935H110.651V489.027H109.139C108.699 489.027 108.395 489.099 108.227 489.243C108.067 489.387 107.987 489.567 107.987 489.783C107.987 490.023 108.079 490.215 108.263 490.359C108.455 490.495 108.715 490.563 109.043 490.563C109.355 490.563 109.635 490.491 109.883 490.347C110.131 490.195 110.311 489.975 110.423 489.687L110.711 490.551C110.575 490.967 110.327 491.283 109.967 491.499C109.607 491.715 109.143 491.823 108.575 491.823ZM116.629 491.823C115.869 491.823 115.277 491.631 114.853 491.247C114.429 490.855 114.217 490.275 114.217 489.507V483.843H116.089V489.483C116.089 489.755 116.161 489.967 116.305 490.119C116.449 490.263 116.645 490.335 116.893 490.335C117.189 490.335 117.441 490.255 117.649 490.095L118.153 491.415C117.961 491.551 117.729 491.655 117.457 491.727C117.193 491.791 116.917 491.823 116.629 491.823ZM113.221 486.855V485.415H117.697V486.855H113.221ZM121.376 491.823C120.824 491.823 120.292 491.759 119.78 491.631C119.276 491.495 118.876 491.327 118.58 491.127L119.204 489.783C119.5 489.967 119.848 490.119 120.248 490.239C120.656 490.351 121.056 490.407 121.448 490.407C121.88 490.407 122.184 490.355 122.36 490.251C122.544 490.147 122.636 490.003 122.636 489.819C122.636 489.667 122.564 489.555 122.42 489.483C122.284 489.403 122.1 489.343 121.868 489.303C121.636 489.263 121.38 489.223 121.1 489.183C120.828 489.143 120.552 489.091 120.272 489.027C119.992 488.955 119.736 488.851 119.504 488.715C119.272 488.579 119.084 488.395 118.94 488.163C118.804 487.931 118.736 487.631 118.736 487.263C118.736 486.855 118.852 486.495 119.084 486.183C119.324 485.871 119.668 485.627 120.116 485.451C120.564 485.267 121.1 485.175 121.724 485.175C122.164 485.175 122.612 485.223 123.068 485.319C123.524 485.415 123.904 485.555 124.208 485.739L123.584 487.071C123.272 486.887 122.956 486.763 122.636 486.699C122.324 486.627 122.02 486.591 121.724 486.591C121.308 486.591 121.004 486.647 120.812 486.759C120.62 486.871 120.524 487.015 120.524 487.191C120.524 487.351 120.592 487.471 120.728 487.551C120.872 487.631 121.06 487.695 121.292 487.743C121.524 487.791 121.776 487.835 122.048 487.875C122.328 487.907 122.608 487.959 122.888 488.031C123.168 488.103 123.42 488.207 123.644 488.343C123.876 488.471 124.064 488.651 124.208 488.883C124.352 489.107 124.424 489.403 124.424 489.771C124.424 490.171 124.304 490.527 124.064 490.839C123.824 491.143 123.476 491.383 123.02 491.559C122.572 491.735 122.024 491.823 121.376 491.823Z" fill="#333333"/>
<g clip-path="url(#clip1_1498_4373)">
<path d="M111.875 416.904C111.772 417.69 112.389 418.334 112.783 419.004C112.76 419.254 112.098 419.5 112.027 419.645C111.928 419.841 112.004 420.047 111.946 420.235C111.781 420.742 111.705 420.807 111.597 421.423C111.459 422.205 110.448 422.422 109.598 422.317C108.998 422.241 108.305 421.701 107.894 422.255C107.84 422.331 107.625 422.914 107.634 422.979C107.648 423.077 108.998 423.606 109.267 423.761C111.02 424.775 111.723 426.593 112.841 428.019L112.796 428.207L98.8934 436.107C97.9451 435.484 96.8268 434.847 95.95 434.167C95.7935 434.043 95.3998 433.765 95.3506 433.616C95.2075 433.196 96.2632 430.778 96.1334 430.669L95.8114 430.742L92.5906 432.852L98.6474 437.512L119.43 425.702C119.842 425.402 118.746 424.714 118.795 424.529C119.005 424.424 119.434 424.037 119.663 424.185L121.099 425.655L127.352 422.092L127.558 422.064C127.746 422.1 128.13 422.574 128.036 422.719L122.118 426.18C121.367 426.517 122.118 426.788 121.756 427.139C121.3 427.552 118.755 428.696 118.562 429.051C118.441 429.272 118.848 429.699 118.929 429.931C119.511 431.56 118.043 432.371 116.42 432.928C115.923 434.214 115.686 435.821 114.286 436.705C113.329 437.309 111.293 437.28 110.564 436.408C110.336 436.136 110.148 435.238 109.83 435.264L106.641 437.074C106.561 437.153 106.596 437.215 106.641 437.295C106.704 437.4 107.272 437.906 107.419 438.048C107.876 438.479 108.412 438.884 108.913 439.286C109.168 439.489 109.804 439.713 109.625 440.072C109.544 440.227 107.759 441.838 107.594 441.9C107.495 441.936 107.424 441.958 107.325 441.9L103.317 439.174C103.134 439.029 101.953 439.666 101.908 439.728C101.823 439.851 101.832 440.202 101.747 440.405C101.036 442.103 99.636 443.073 97.3323 442.682C96.451 443.551 95.3909 444.333 94.4023 445.133C93.5434 445.828 92.2999 447.052 91.356 447.602C90.5598 448.069 89.8709 447.989 89.2715 447.374C88.8018 446.892 87.2809 444.177 87.0751 443.554C87.0483 443.471 86.9991 443.399 87.0438 443.308C88.0727 442.685 89.1328 442.092 90.193 441.505C90.5911 441.284 93.0872 440.075 93.038 439.847C92.1075 439.029 91.0742 438.287 90.1304 437.483C89.3118 436.788 88.4126 436.024 87.6298 435.311C85.7466 433.595 84.7043 432.295 86.856 430.267C89.446 427.824 93.1498 425.13 96.0529 422.838C96.2363 422.693 96.3347 422.516 96.5539 422.36C97.1578 421.93 99.4168 421.024 100.182 421.039C100.947 421.053 101.761 421.676 102.463 420.807C102.884 420.286 102.655 418.414 102.195 417.94C101.85 417.589 100.343 417.911 99.7836 417.828C100.897 417.205 100.526 416.151 100.705 415.188C101.434 411.231 107.612 409.721 111.248 412.234C112.599 413.168 112.702 414.131 113.575 415.21C113.785 415.471 114.568 416.046 114.603 416.227C114.648 416.474 114.196 416.575 113.959 416.636C113.329 416.803 112.546 416.865 111.884 416.908L111.875 416.904Z" fill="#2A2A2A"/>
<path d="M81.403 472.733C80.5442 472.465 79.73 472.092 78.9964 471.65C77.2698 470.615 75.9099 469.239 74.5724 467.881C74.2101 467.512 73.8254 467.023 74.0893 466.6C74.2548 466.332 74.6261 466.201 74.9481 466.057C76.6301 465.286 77.4218 463.714 78.4373 462.382C80.6068 459.536 84.154 457.491 86.1715 454.569C87.2316 453.034 87.8266 451.318 88.5423 449.656C88.6675 449.363 88.8375 449.037 89.1909 448.918C89.4414 448.834 89.7277 448.874 89.9961 448.889C91.4722 448.957 92.7874 448.128 93.7446 447.216C94.8316 446.181 95.7308 444.884 97.274 444.24C98.5981 443.686 100.405 443.874 101.474 442.933C102.253 442.249 102.32 441.145 103.197 440.551C104.216 441.235 105.236 441.919 106.261 442.604C105.509 443.172 105.957 444.178 106.467 444.899C108.734 448.085 111.521 451.064 113.154 454.497C114.576 457.487 115.064 460.713 115.247 463.913C115.306 464.956 115.337 466.017 115.726 467.012C116.115 468.008 116.916 468.953 118.106 469.355C119.014 469.663 120.038 469.623 120.987 469.822C121.935 470.021 122.919 470.608 122.879 471.4C119.461 472.414 115.842 472.983 112.206 473.073C111.803 473.084 111.369 473.08 111.043 472.888C110.43 472.53 110.564 471.784 110.631 471.172C110.891 468.902 109.401 466.774 108.605 464.587C107.773 462.31 107.665 459.855 106.44 457.701C104.735 454.707 101.13 452.73 98.8173 450.018C95.2969 455.724 90.7207 461.118 84.5432 465.079C83.6128 465.677 82.6242 466.259 81.989 467.07C81.3538 467.881 81.1525 469.007 81.8548 469.786C82.4274 470.419 83.4249 470.676 84.2211 471.122C85.0174 471.567 85.6302 472.501 85.0219 473.113C83.8007 473.254 82.5661 473.091 81.412 472.733H81.403Z" fill="#2A2A2A"/>
</g>
<path d="M101.32 332.82H104.69V334.08H101.32V332.82ZM101.44 335.7H105.25V337H99.83V330H105.12V331.3H101.44V335.7ZM109.699 331.54C110.126 331.54 110.506 331.627 110.839 331.8C111.179 331.967 111.446 332.227 111.639 332.58C111.832 332.927 111.929 333.373 111.929 333.92V337H110.369V334.16C110.369 333.727 110.272 333.407 110.079 333.2C109.892 332.993 109.626 332.89 109.279 332.89C109.032 332.89 108.809 332.943 108.609 333.05C108.416 333.15 108.262 333.307 108.149 333.52C108.042 333.733 107.989 334.007 107.989 334.34V337H106.429V331.62H107.919V333.11L107.639 332.66C107.832 332.3 108.109 332.023 108.469 331.83C108.829 331.637 109.239 331.54 109.699 331.54ZM114.705 337L112.445 331.62H114.055L115.935 336.25H115.135L117.085 331.62H118.585L116.315 337H114.705ZM119.222 337V331.62H120.782V337H119.222ZM120.002 330.87C119.715 330.87 119.482 330.787 119.302 330.62C119.122 330.453 119.032 330.247 119.032 330C119.032 329.753 119.122 329.547 119.302 329.38C119.482 329.213 119.715 329.13 120.002 329.13C120.289 329.13 120.522 329.21 120.702 329.37C120.882 329.523 120.972 329.723 120.972 329.97C120.972 330.23 120.882 330.447 120.702 330.62C120.529 330.787 120.295 330.87 120.002 330.87ZM122.23 337V331.62H123.72V333.14L123.51 332.7C123.67 332.32 123.926 332.033 124.28 331.84C124.633 331.64 125.063 331.54 125.57 331.54V332.98C125.503 332.973 125.443 332.97 125.39 332.97C125.336 332.963 125.28 332.96 125.22 332.96C124.793 332.96 124.446 333.083 124.18 333.33C123.92 333.57 123.79 333.947 123.79 334.46V337H122.23ZM129.018 337.08C128.445 337.08 127.935 336.96 127.488 336.72C127.048 336.48 126.698 336.153 126.438 335.74C126.185 335.32 126.058 334.843 126.058 334.31C126.058 333.77 126.185 333.293 126.438 332.88C126.698 332.46 127.048 332.133 127.488 331.9C127.935 331.66 128.445 331.54 129.018 331.54C129.585 331.54 130.092 331.66 130.538 331.9C130.985 332.133 131.335 332.457 131.588 332.87C131.842 333.283 131.968 333.763 131.968 334.31C131.968 334.843 131.842 335.32 131.588 335.74C131.335 336.153 130.985 336.48 130.538 336.72C130.092 336.96 129.585 337.08 129.018 337.08ZM129.018 335.8C129.278 335.8 129.512 335.74 129.718 335.62C129.925 335.5 130.088 335.33 130.208 335.11C130.328 334.883 130.388 334.617 130.388 334.31C130.388 333.997 130.328 333.73 130.208 333.51C130.088 333.29 129.925 333.12 129.718 333C129.512 332.88 129.278 332.82 129.018 332.82C128.758 332.82 128.525 332.88 128.318 333C128.112 333.12 127.945 333.29 127.818 333.51C127.698 333.73 127.638 333.997 127.638 334.31C127.638 334.617 127.698 334.883 127.818 335.11C127.945 335.33 128.112 335.5 128.318 335.62C128.525 335.74 128.758 335.8 129.018 335.8ZM136.281 331.54C136.708 331.54 137.088 331.627 137.421 331.8C137.761 331.967 138.028 332.227 138.221 332.58C138.414 332.927 138.511 333.373 138.511 333.92V337H136.951V334.16C136.951 333.727 136.854 333.407 136.661 333.2C136.474 332.993 136.208 332.89 135.861 332.89C135.614 332.89 135.391 332.943 135.191 333.05C134.998 333.15 134.844 333.307 134.731 333.52C134.624 333.733 134.571 334.007 134.571 334.34V337H133.011V331.62H134.501V333.11L134.221 332.66C134.414 332.3 134.691 332.023 135.051 331.83C135.411 331.637 135.821 331.54 136.281 331.54ZM141.735 337.08C141.275 337.08 140.832 337.027 140.405 336.92C139.985 336.807 139.652 336.667 139.405 336.5L139.925 335.38C140.172 335.533 140.462 335.66 140.795 335.76C141.135 335.853 141.468 335.9 141.795 335.9C142.155 335.9 142.408 335.857 142.555 335.77C142.708 335.683 142.785 335.563 142.785 335.41C142.785 335.283 142.725 335.19 142.605 335.13C142.492 335.063 142.338 335.013 142.145 334.98C141.952 334.947 141.738 334.913 141.505 334.88C141.278 334.847 141.048 334.803 140.815 334.75C140.582 334.69 140.368 334.603 140.175 334.49C139.982 334.377 139.825 334.223 139.705 334.03C139.592 333.837 139.535 333.587 139.535 333.28C139.535 332.94 139.632 332.64 139.825 332.38C140.025 332.12 140.312 331.917 140.685 331.77C141.058 331.617 141.505 331.54 142.025 331.54C142.392 331.54 142.765 331.58 143.145 331.66C143.525 331.74 143.842 331.857 144.095 332.01L143.575 333.12C143.315 332.967 143.052 332.863 142.785 332.81C142.525 332.75 142.272 332.72 142.025 332.72C141.678 332.72 141.425 332.767 141.265 332.86C141.105 332.953 141.025 333.073 141.025 333.22C141.025 333.353 141.082 333.453 141.195 333.52C141.315 333.587 141.472 333.64 141.665 333.68C141.858 333.72 142.068 333.757 142.295 333.79C142.528 333.817 142.762 333.86 142.995 333.92C143.228 333.98 143.438 334.067 143.625 334.18C143.818 334.287 143.975 334.437 144.095 334.63C144.215 334.817 144.275 335.063 144.275 335.37C144.275 335.703 144.175 336 143.975 336.26C143.775 336.513 143.485 336.713 143.105 336.86C142.732 337.007 142.275 337.08 141.735 337.08ZM99.594 359V357.11L104.454 352.52C104.838 352.172 105.12 351.86 105.3 351.584C105.48 351.308 105.6 351.056 105.66 350.828C105.732 350.6 105.768 350.39 105.768 350.198C105.768 349.694 105.594 349.31 105.246 349.046C104.91 348.77 104.412 348.632 103.752 348.632C103.224 348.632 102.732 348.734 102.276 348.938C101.832 349.142 101.454 349.46 101.142 349.892L99.018 348.524C99.498 347.804 100.17 347.234 101.034 346.814C101.898 346.394 102.894 346.184 104.022 346.184C104.958 346.184 105.774 346.34 106.47 346.652C107.178 346.952 107.724 347.378 108.108 347.93C108.504 348.482 108.702 349.142 108.702 349.91C108.702 350.318 108.648 350.726 108.54 351.134C108.444 351.53 108.24 351.95 107.928 352.394C107.628 352.838 107.184 353.336 106.596 353.888L102.564 357.686L102.006 356.624H109.116V359H99.594ZM114.603 359.216C113.727 359.216 112.857 359.102 111.993 358.874C111.141 358.634 110.409 358.298 109.797 357.866L110.949 355.634C111.429 355.982 111.981 356.258 112.605 356.462C113.241 356.666 113.883 356.768 114.531 356.768C115.263 356.768 115.839 356.624 116.259 356.336C116.679 356.048 116.889 355.646 116.889 355.13C116.889 354.806 116.805 354.518 116.637 354.266C116.469 354.014 116.169 353.822 115.737 353.69C115.317 353.558 114.723 353.492 113.955 353.492H110.733L111.381 346.4H119.067V348.74H112.425L113.937 347.408L113.487 352.466L111.975 351.134H114.639C115.887 351.134 116.889 351.308 117.645 351.656C118.413 351.992 118.971 352.454 119.319 353.042C119.667 353.63 119.841 354.296 119.841 355.04C119.841 355.784 119.655 356.474 119.283 357.11C118.911 357.734 118.335 358.244 117.555 358.64C116.787 359.024 115.803 359.216 114.603 359.216ZM126.424 359.216C125.392 359.216 124.468 358.964 123.652 358.46C122.836 357.944 122.194 357.2 121.726 356.228C121.258 355.256 121.024 354.08 121.024 352.7C121.024 351.32 121.258 350.144 121.726 349.172C122.194 348.2 122.836 347.462 123.652 346.958C124.468 346.442 125.392 346.184 126.424 346.184C127.468 346.184 128.392 346.442 129.196 346.958C130.012 347.462 130.654 348.2 131.122 349.172C131.59 350.144 131.824 351.32 131.824 352.7C131.824 354.08 131.59 355.256 131.122 356.228C130.654 357.2 130.012 357.944 129.196 358.46C128.392 358.964 127.468 359.216 126.424 359.216ZM126.424 356.75C126.916 356.75 127.342 356.612 127.702 356.336C128.074 356.06 128.362 355.622 128.566 355.022C128.782 354.422 128.89 353.648 128.89 352.7C128.89 351.752 128.782 350.978 128.566 350.378C128.362 349.778 128.074 349.34 127.702 349.064C127.342 348.788 126.916 348.65 126.424 348.65C125.944 348.65 125.518 348.788 125.146 349.064C124.786 349.34 124.498 349.778 124.282 350.378C124.078 350.978 123.976 351.752 123.976 352.7C123.976 353.648 124.078 354.422 124.282 355.022C124.498 355.622 124.786 356.06 125.146 356.336C125.518 356.612 125.944 356.75 126.424 356.75ZM133.121 361.772L134.309 357.452L134.705 359.072C134.189 359.072 133.763 358.922 133.427 358.622C133.103 358.322 132.941 357.908 132.941 357.38C132.941 356.852 133.109 356.432 133.445 356.12C133.781 355.808 134.195 355.652 134.687 355.652C135.191 355.652 135.605 355.814 135.929 356.138C136.253 356.45 136.415 356.864 136.415 357.38C136.415 357.536 136.403 357.692 136.379 357.848C136.355 357.992 136.307 358.172 136.235 358.388C136.175 358.592 136.073 358.856 135.929 359.18L134.903 361.772H133.121ZM142.895 359.216C141.863 359.216 140.939 358.964 140.123 358.46C139.307 357.944 138.665 357.2 138.197 356.228C137.729 355.256 137.495 354.08 137.495 352.7C137.495 351.32 137.729 350.144 138.197 349.172C138.665 348.2 139.307 347.462 140.123 346.958C140.939 346.442 141.863 346.184 142.895 346.184C143.939 346.184 144.863 346.442 145.667 346.958C146.483 347.462 147.125 348.2 147.593 349.172C148.061 350.144 148.295 351.32 148.295 352.7C148.295 354.08 148.061 355.256 147.593 356.228C147.125 357.2 146.483 357.944 145.667 358.46C144.863 358.964 143.939 359.216 142.895 359.216ZM142.895 356.75C143.387 356.75 143.813 356.612 144.173 356.336C144.545 356.06 144.833 355.622 145.037 355.022C145.253 354.422 145.361 353.648 145.361 352.7C145.361 351.752 145.253 350.978 145.037 350.378C144.833 349.778 144.545 349.34 144.173 349.064C143.813 348.788 143.387 348.65 142.895 348.65C142.415 348.65 141.989 348.788 141.617 349.064C141.257 349.34 140.969 349.778 140.753 350.378C140.549 350.978 140.447 351.752 140.447 352.7C140.447 353.648 140.549 354.422 140.753 355.022C140.969 355.622 141.257 356.06 141.617 356.336C141.989 356.612 142.415 356.75 142.895 356.75ZM155.112 359.216C154.08 359.216 153.156 358.964 152.34 358.46C151.524 357.944 150.882 357.2 150.414 356.228C149.946 355.256 149.712 354.08 149.712 352.7C149.712 351.32 149.946 350.144 150.414 349.172C150.882 348.2 151.524 347.462 152.34 346.958C153.156 346.442 154.08 346.184 155.112 346.184C156.156 346.184 157.08 346.442 157.884 346.958C158.7 347.462 159.342 348.2 159.81 349.172C160.278 350.144 160.512 351.32 160.512 352.7C160.512 354.08 160.278 355.256 159.81 356.228C159.342 357.2 158.7 357.944 157.884 358.46C157.08 358.964 156.156 359.216 155.112 359.216ZM155.112 356.75C155.604 356.75 156.03 356.612 156.39 356.336C156.762 356.06 157.05 355.622 157.254 355.022C157.47 354.422 157.578 353.648 157.578 352.7C157.578 351.752 157.47 350.978 157.254 350.378C157.05 349.778 156.762 349.34 156.39 349.064C156.03 348.788 155.604 348.65 155.112 348.65C154.632 348.65 154.206 348.788 153.834 349.064C153.474 349.34 153.186 349.778 152.97 350.378C152.766 350.978 152.664 351.752 152.664 352.7C152.664 353.648 152.766 354.422 152.97 355.022C153.186 355.622 153.474 356.06 153.834 356.336C154.206 356.612 154.632 356.75 155.112 356.75ZM167.329 359.216C166.297 359.216 165.373 358.964 164.557 358.46C163.741 357.944 163.099 357.2 162.631 356.228C162.163 355.256 161.929 354.08 161.929 352.7C161.929 351.32 162.163 350.144 162.631 349.172C163.099 348.2 163.741 347.462 164.557 346.958C165.373 346.442 166.297 346.184 167.329 346.184C168.373 346.184 169.297 346.442 170.101 346.958C170.917 347.462 171.559 348.2 172.027 349.172C172.495 350.144 172.729 351.32 172.729 352.7C172.729 354.08 172.495 355.256 172.027 356.228C171.559 357.2 170.917 357.944 170.101 358.46C169.297 358.964 168.373 359.216 167.329 359.216ZM167.329 356.75C167.821 356.75 168.247 356.612 168.607 356.336C168.979 356.06 169.267 355.622 169.471 355.022C169.687 354.422 169.795 353.648 169.795 352.7C169.795 351.752 169.687 350.978 169.471 350.378C169.267 349.778 168.979 349.34 168.607 349.064C168.247 348.788 167.821 348.65 167.329 348.65C166.849 348.65 166.423 348.788 166.051 349.064C165.691 349.34 165.403 349.778 165.187 350.378C164.983 350.978 164.881 351.752 164.881 352.7C164.881 353.648 164.983 354.422 165.187 355.022C165.403 355.622 165.691 356.06 166.051 356.336C166.423 356.612 166.849 356.75 167.329 356.75Z" fill="#191919"/>
<path d="M26.9626 365.402H30.6696V366.788H26.9626V365.402ZM27.0946 368.57H31.2856V370H25.3236V362.3H31.1426V363.73H27.0946V368.57ZM27.2376 361.673L28.7226 360.089H30.5706L28.5796 361.673H27.2376ZM34.9381 370.088C34.2414 370.088 33.6987 369.912 33.3101 369.56C32.9214 369.201 32.7271 368.669 32.7271 367.965V362.773H34.4431V367.943C34.4431 368.192 34.5091 368.387 34.6411 368.526C34.7731 368.658 34.9527 368.724 35.1801 368.724C35.4514 368.724 35.6824 368.651 35.8731 368.504L36.3351 369.714C36.1591 369.839 35.9464 369.934 35.6971 370C35.4551 370.059 35.2021 370.088 34.9381 370.088ZM31.8141 365.534V364.214H35.9171V365.534H31.8141ZM40.9283 370V368.845L40.8183 368.592V366.524C40.8183 366.157 40.7047 365.871 40.4773 365.666C40.2573 365.461 39.9163 365.358 39.4543 365.358C39.139 365.358 38.8273 365.409 38.5193 365.512C38.2187 365.607 37.962 365.739 37.7493 365.908L37.1333 364.709C37.456 364.482 37.8447 364.306 38.2993 364.181C38.754 364.056 39.216 363.994 39.6853 363.994C40.5873 363.994 41.2877 364.207 41.7863 364.632C42.285 365.057 42.5343 365.721 42.5343 366.623V370H40.9283ZM39.1243 370.088C38.6623 370.088 38.2663 370.011 37.9363 369.857C37.6063 369.696 37.3533 369.479 37.1773 369.208C37.0013 368.937 36.9133 368.632 36.9133 368.295C36.9133 367.943 36.9977 367.635 37.1663 367.371C37.3423 367.107 37.6173 366.902 37.9913 366.755C38.3653 366.601 38.853 366.524 39.4543 366.524H41.0273V367.525H39.6413C39.238 367.525 38.9593 367.591 38.8053 367.723C38.6587 367.855 38.5853 368.02 38.5853 368.218C38.5853 368.438 38.6697 368.614 38.8383 368.746C39.0143 368.871 39.2527 368.933 39.5533 368.933C39.8393 368.933 40.096 368.867 40.3233 368.735C40.5507 368.596 40.7157 368.394 40.8183 368.13L41.0823 368.922C40.9577 369.303 40.7303 369.593 40.4003 369.791C40.0703 369.989 39.645 370.088 39.1243 370.088ZM46.5074 370.088C45.8107 370.088 45.2681 369.912 44.8794 369.56C44.4907 369.201 44.2964 368.669 44.2964 367.965V362.773H46.0124V367.943C46.0124 368.192 46.0784 368.387 46.2104 368.526C46.3424 368.658 46.5221 368.724 46.7494 368.724C47.0207 368.724 47.2517 368.651 47.4424 368.504L47.9044 369.714C47.7284 369.839 47.5157 369.934 47.2664 370C47.0244 370.059 46.7714 370.088 46.5074 370.088ZM43.3834 365.534V364.214H47.4864V365.534H43.3834ZM50.8587 370.088C50.3527 370.088 49.865 370.029 49.3957 369.912C48.9337 369.787 48.567 369.633 48.2957 369.45L48.8677 368.218C49.139 368.387 49.458 368.526 49.8247 368.636C50.1987 368.739 50.5654 368.79 50.9247 368.79C51.3207 368.79 51.5994 368.742 51.7607 368.647C51.9294 368.552 52.0137 368.42 52.0137 368.251C52.0137 368.112 51.9477 368.009 51.8157 367.943C51.691 367.87 51.5224 367.815 51.3097 367.778C51.097 367.741 50.8624 367.705 50.6057 367.668C50.3564 367.631 50.1034 367.584 49.8467 367.525C49.59 367.459 49.3554 367.364 49.1427 367.239C48.93 367.114 48.7577 366.946 48.6257 366.733C48.501 366.52 48.4387 366.245 48.4387 365.908C48.4387 365.534 48.545 365.204 48.7577 364.918C48.9777 364.632 49.293 364.408 49.7037 364.247C50.1144 364.078 50.6057 363.994 51.1777 363.994C51.581 363.994 51.9917 364.038 52.4097 364.126C52.8277 364.214 53.176 364.342 53.4547 364.511L52.8827 365.732C52.5967 365.563 52.307 365.45 52.0137 365.391C51.7277 365.325 51.449 365.292 51.1777 365.292C50.7964 365.292 50.5177 365.343 50.3417 365.446C50.1657 365.549 50.0777 365.681 50.0777 365.842C50.0777 365.989 50.14 366.099 50.2647 366.172C50.3967 366.245 50.569 366.304 50.7817 366.348C50.9944 366.392 51.2254 366.432 51.4747 366.469C51.7314 366.498 51.988 366.546 52.2447 366.612C52.5014 366.678 52.7324 366.773 52.9377 366.898C53.1504 367.015 53.3227 367.18 53.4547 367.393C53.5867 367.598 53.6527 367.87 53.6527 368.207C53.6527 368.574 53.5427 368.9 53.3227 369.186C53.1027 369.465 52.7837 369.685 52.3657 369.846C51.955 370.007 51.4527 370.088 50.8587 370.088ZM54.4914 367.591V366.216H57.6044V367.591H54.4914ZM62.4966 370.132C61.4039 370.132 60.5496 369.828 59.9336 369.219C59.3176 368.61 59.0096 367.741 59.0096 366.612V362.3H60.7916V366.546C60.7916 367.279 60.9419 367.807 61.2426 368.13C61.5433 368.453 61.9649 368.614 62.5076 368.614C63.0503 368.614 63.4719 368.453 63.7726 368.13C64.0733 367.807 64.2236 367.279 64.2236 366.546V362.3H65.9836V366.612C65.9836 367.741 65.6756 368.61 65.0596 369.219C64.4436 369.828 63.5893 370.132 62.4966 370.132ZM71.2205 363.994C71.6899 363.994 72.1079 364.089 72.4745 364.28C72.8485 364.463 73.1419 364.749 73.3545 365.138C73.5672 365.519 73.6735 366.011 73.6735 366.612V370H71.9575V366.876C71.9575 366.399 71.8512 366.047 71.6385 365.82C71.4332 365.593 71.1399 365.479 70.7585 365.479C70.4872 365.479 70.2415 365.538 70.0215 365.655C69.8089 365.765 69.6402 365.937 69.5155 366.172C69.3982 366.407 69.3395 366.707 69.3395 367.074V370H67.6235V364.082H69.2625V365.721L68.9545 365.226C69.1672 364.83 69.4715 364.526 69.8675 364.313C70.2635 364.1 70.7145 363.994 71.2205 363.994ZM75.229 370V364.082H76.945V370H75.229ZM76.087 363.257C75.7717 363.257 75.515 363.165 75.317 362.982C75.119 362.799 75.02 362.571 75.02 362.3C75.02 362.029 75.119 361.801 75.317 361.618C75.515 361.435 75.7717 361.343 76.087 361.343C76.4023 361.343 76.659 361.431 76.857 361.607C77.055 361.776 77.154 361.996 77.154 362.267C77.154 362.553 77.055 362.791 76.857 362.982C76.6663 363.165 76.4097 363.257 76.087 363.257ZM80.5286 370.088C80.0226 370.088 79.5349 370.029 79.0656 369.912C78.6036 369.787 78.2369 369.633 77.9656 369.45L78.5376 368.218C78.8089 368.387 79.1279 368.526 79.4946 368.636C79.8686 368.739 80.2353 368.79 80.5946 368.79C80.9906 368.79 81.2693 368.742 81.4306 368.647C81.5993 368.552 81.6836 368.42 81.6836 368.251C81.6836 368.112 81.6176 368.009 81.4856 367.943C81.3609 367.87 81.1923 367.815 80.9796 367.778C80.7669 367.741 80.5323 367.705 80.2756 367.668C80.0263 367.631 79.7733 367.584 79.5166 367.525C79.2599 367.459 79.0253 367.364 78.8126 367.239C78.5999 367.114 78.4276 366.946 78.2956 366.733C78.1709 366.52 78.1086 366.245 78.1086 365.908C78.1086 365.534 78.2149 365.204 78.4276 364.918C78.6476 364.632 78.9629 364.408 79.3736 364.247C79.7843 364.078 80.2756 363.994 80.8476 363.994C81.2509 363.994 81.6616 364.038 82.0796 364.126C82.4976 364.214 82.8459 364.342 83.1246 364.511L82.5526 365.732C82.2666 365.563 81.9769 365.45 81.6836 365.391C81.3976 365.325 81.1189 365.292 80.8476 365.292C80.4663 365.292 80.1876 365.343 80.0116 365.446C79.8356 365.549 79.7476 365.681 79.7476 365.842C79.7476 365.989 79.8099 366.099 79.9346 366.172C80.0666 366.245 80.2389 366.304 80.4516 366.348C80.6643 366.392 80.8953 366.432 81.1446 366.469C81.4013 366.498 81.6579 366.546 81.9146 366.612C82.1713 366.678 82.4023 366.773 82.6076 366.898C82.8203 367.015 82.9926 367.18 83.1246 367.393C83.2566 367.598 83.3226 367.87 83.3226 368.207C83.3226 368.574 83.2126 368.9 82.9926 369.186C82.7726 369.465 82.4536 369.685 82.0356 369.846C81.6249 370.007 81.1226 370.088 80.5286 370.088Z" fill="#191919"/>
<g clip-path="url(#clip2_1498_4373)">
<path d="M79.1534 318C79.2702 318.595 79.6207 321.123 79.0684 321.356L51.2939 321.239V324.298H79.1534L79.3339 327.538H51.2939V330.597H79.1534L79.3339 333.836H29V318.266L29.2655 318H79.1427H79.1534ZM36.2118 320.857L35.925 319.976L35.6701 320.793L34.9373 320.868C35.4577 321.473 35.6276 321.579 35.1178 322.302L35.9463 321.781L36.7322 322.312C36.5304 321.463 36.3605 321.42 37.0934 320.878L36.2118 320.857ZM40.3435 320.857L40.0461 319.976L39.7487 320.857L38.8777 320.878C39.3451 321.441 39.7168 321.261 39.4194 322.132C40.2266 321.484 40.1204 322.164 40.8533 322.312L40.5134 321.526L41.2038 320.878L40.3328 320.857H40.3435ZM48.2563 320.857L47.9589 319.976L47.6615 320.857L46.7905 320.878L47.449 321.505L47.141 322.312L47.9482 321.781L48.7555 322.312L48.4368 321.494L49.1166 320.878L48.2456 320.857H48.2563ZM32.2288 320.156L31.8677 320.284L31.6978 320.793L30.7844 320.878C30.7844 321.186 31.2729 321.112 31.4216 321.42C31.5597 321.686 31.2517 322.025 31.326 322.323L31.9739 321.792L32.7599 322.323C32.5581 321.473 32.3882 321.431 33.121 320.889C32.4944 320.953 32.1757 320.846 32.2182 320.167L32.2288 320.156ZM44.9955 320.878C44.2733 320.953 44.1777 320.804 44.0078 320.156L43.7104 320.857L42.8394 320.878C43.5723 321.42 43.4024 321.463 43.2006 322.312C44.1034 321.547 43.944 321.962 44.815 322.312L44.4539 321.686L44.9955 320.878ZM35.2878 323.396C34.523 323.459 34.2894 323.449 34.1194 322.673L33.822 323.374L32.9511 323.396C33.429 323.948 33.599 324.086 33.3122 324.829L34.1194 324.33L34.7461 324.829C34.4593 323.874 34.6717 324.001 35.2878 323.396ZM38.3679 323.364C38.2405 323.279 38.2511 322.663 38.0705 322.663L37.7731 323.364L36.9022 323.385L37.6138 323.937L37.2633 324.819L38.0705 324.288L38.8777 324.819L38.5378 324.033L39.2282 323.385C38.9839 323.342 38.5378 323.47 38.3573 323.364H38.3679ZM42.1172 322.673C41.5437 322.557 41.7986 323.034 41.7561 323.396H40.6727C40.6727 323.704 41.1613 323.629 41.31 323.937C41.4481 324.203 41.14 324.543 41.2144 324.84L41.8623 324.309L42.6483 324.84C42.3721 324.086 42.5208 323.959 43.0094 323.406C42.3827 323.47 42.0641 323.364 42.1066 322.684L42.1172 322.673ZM46.2807 323.364C46.1745 323.279 46.2807 322.705 45.8983 322.673L45.7284 323.321L44.815 323.396L45.5054 324.043L45.1655 324.829L45.9727 324.33L46.7799 324.84L46.4188 323.948L47.141 323.406C46.9074 323.364 46.4082 323.502 46.2701 323.374L46.2807 323.364ZM33.1317 326.093C32.1545 326.285 32.4307 325.605 31.8783 325.191L31.804 325.923L30.9862 326.093L31.5385 326.571L31.3473 327.347C32.1757 326.996 32.0695 326.869 32.7812 327.527C32.5793 326.678 32.4094 326.635 33.1423 326.093H33.1317ZM40.3435 326.062L40.0461 325.18L39.7487 326.062L38.8777 326.083L39.5681 326.709L39.2388 327.517L40.0461 326.975L40.8533 327.336L40.524 326.709L41.2144 326.083L40.3435 326.062ZM48.2456 326.083L48.0545 325.191L47.6827 326.072L46.8012 325.902L47.3322 326.55L47.1623 327.336C47.9695 327.049 48.0651 326.901 48.7767 327.517L48.4474 326.709L49.1378 325.902L48.2456 326.072V326.083ZM36.1906 325.371C35.6276 325.201 35.9357 325.828 35.6701 326.008C35.4896 326.136 35.1603 326.072 34.9373 326.093L35.4896 326.571L35.2984 327.538L36.0843 327.007L36.7322 327.538L36.5411 326.571L37.0934 326.093C36.4667 326.157 36.1481 326.051 36.1906 325.371ZM44.3052 326.062L44.0078 325.371C43.6679 325.87 43.5298 326.21 42.8394 326.093C42.797 326.401 43.2749 326.263 43.3705 326.561C43.4555 326.816 43.1156 327.219 43.2006 327.527C43.806 327.007 43.9122 326.837 44.6344 327.347L44.4539 326.454L45.1761 326.093L44.3052 326.062ZM35.1072 328.611C34.4805 328.664 34.1619 328.579 34.2044 327.888C33.6415 328.441 34.0238 328.802 32.9511 328.611C33.4397 329.174 33.5884 329.29 33.3122 330.044L34.0982 329.513L34.7461 330.044C34.4699 329.29 34.6186 329.163 35.1072 328.611ZM38.3679 328.579L38.0705 327.878L37.7731 328.579L36.9022 328.6C37.3058 329.11 37.6775 329.343 37.2633 330.034L38.0705 329.503L38.8777 330.034L38.5272 329.248L39.2388 328.6L38.3679 328.579ZM43.02 328.611C42.2447 328.77 42.234 328.26 41.7667 327.888L41.5968 328.536L40.6833 328.791C41.5118 328.961 41.4268 329.386 41.225 330.055L42.011 329.524L42.6589 330.055C42.4571 329.205 42.2871 329.163 43.02 328.621V328.611ZM46.2807 328.579C46.1745 328.494 46.2807 327.92 45.8983 327.888L45.7284 328.536L44.815 328.611L45.4735 329.237L45.1655 330.044L45.9727 329.545L46.5993 329.864C46.4931 329.258 46.833 329.035 47.141 328.611C46.9074 328.568 46.4082 328.706 46.2701 328.579H46.2807ZM32.2395 330.406C31.6765 330.204 31.8465 331.202 31.6978 331.308L30.9862 331.128L31.5385 331.786L31.3473 332.753L31.9952 332.222L32.7812 332.753L32.6112 331.786L33.1423 331.138L32.42 331.245L32.2501 330.427L32.2395 330.406ZM36.1906 330.406C35.5533 330.246 36.01 331 35.6595 331.223L34.9266 331.298L35.4789 331.776L35.2878 332.742L35.9357 332.211L36.7216 332.742C36.5198 331.893 36.3499 331.85 37.0827 331.308L36.3499 331.234L36.1799 330.416L36.1906 330.406ZM45.1761 331.308C44.9 331.308 44.5813 331.33 44.3477 331.149C44.0503 330.915 44.2521 330.416 43.9228 330.416C43.8803 330.629 43.806 331 43.6573 331.138C43.3599 331.436 42.8607 331.138 42.8394 331.489L43.3705 331.776L43.2006 332.562C43.5511 332.657 43.6785 332.201 43.9759 332.232C44.2414 332.254 44.4645 332.657 44.815 332.562L44.4857 331.935L45.1761 331.308ZM48.2563 331.277L48.0545 330.406L47.6827 331.287L46.8012 331.117C46.6525 331.648 47.2791 331.489 47.4278 331.829C47.5128 332.02 47.2897 332.328 47.3428 332.562C48.0226 332.041 48.1076 332.328 48.7767 332.562L48.4581 331.935L48.9573 331.308L48.2669 331.287L48.2563 331.277ZM40.3541 331.277C40.2266 331.192 40.2372 330.576 40.0567 330.576L39.7593 331.277L38.8883 331.298L39.6 331.924L39.2495 332.732L40.0885 332.222L40.8639 332.732L40.5346 331.924L41.225 331.298C40.9807 331.255 40.5346 331.383 40.3541 331.277Z" fill="black"/>
<path d="M79.3444 349.461H29.0742V353.051H79.3444V349.461Z" fill="black"/>
<path d="M79.3339 336.873H29V340.113H79.3339V336.873Z" fill="black"/>
<path d="M79.3339 343.162H29V346.402H79.3339V343.162Z" fill="black"/>
</g>
<path d="M101.32 247.82H104.69V249.08H101.32V247.82ZM101.44 250.7H105.25V252H99.83V245H105.12V246.3H101.44V250.7ZM109.699 246.54C110.126 246.54 110.506 246.627 110.839 246.8C111.179 246.967 111.446 247.227 111.639 247.58C111.832 247.927 111.929 248.373 111.929 248.92V252H110.369V249.16C110.369 248.727 110.272 248.407 110.079 248.2C109.892 247.993 109.626 247.89 109.279 247.89C109.032 247.89 108.809 247.943 108.609 248.05C108.416 248.15 108.262 248.307 108.149 248.52C108.042 248.733 107.989 249.007 107.989 249.34V252H106.429V246.62H107.919V248.11L107.639 247.66C107.832 247.3 108.109 247.023 108.469 246.83C108.829 246.637 109.239 246.54 109.699 246.54ZM114.705 252L112.445 246.62H114.055L115.935 251.25H115.135L117.085 246.62H118.585L116.315 252H114.705ZM119.222 252V246.62H120.782V252H119.222ZM120.002 245.87C119.715 245.87 119.482 245.787 119.302 245.62C119.122 245.453 119.032 245.247 119.032 245C119.032 244.753 119.122 244.547 119.302 244.38C119.482 244.213 119.715 244.13 120.002 244.13C120.289 244.13 120.522 244.21 120.702 244.37C120.882 244.523 120.972 244.723 120.972 244.97C120.972 245.23 120.882 245.447 120.702 245.62C120.529 245.787 120.295 245.87 120.002 245.87ZM122.23 252V246.62H123.72V248.14L123.51 247.7C123.67 247.32 123.926 247.033 124.28 246.84C124.633 246.64 125.063 246.54 125.57 246.54V247.98C125.503 247.973 125.443 247.97 125.39 247.97C125.336 247.963 125.28 247.96 125.22 247.96C124.793 247.96 124.446 248.083 124.18 248.33C123.92 248.57 123.79 248.947 123.79 249.46V252H122.23ZM129.018 252.08C128.445 252.08 127.935 251.96 127.488 251.72C127.048 251.48 126.698 251.153 126.438 250.74C126.185 250.32 126.058 249.843 126.058 249.31C126.058 248.77 126.185 248.293 126.438 247.88C126.698 247.46 127.048 247.133 127.488 246.9C127.935 246.66 128.445 246.54 129.018 246.54C129.585 246.54 130.092 246.66 130.538 246.9C130.985 247.133 131.335 247.457 131.588 247.87C131.842 248.283 131.968 248.763 131.968 249.31C131.968 249.843 131.842 250.32 131.588 250.74C131.335 251.153 130.985 251.48 130.538 251.72C130.092 251.96 129.585 252.08 129.018 252.08ZM129.018 250.8C129.278 250.8 129.512 250.74 129.718 250.62C129.925 250.5 130.088 250.33 130.208 250.11C130.328 249.883 130.388 249.617 130.388 249.31C130.388 248.997 130.328 248.73 130.208 248.51C130.088 248.29 129.925 248.12 129.718 248C129.512 247.88 129.278 247.82 129.018 247.82C128.758 247.82 128.525 247.88 128.318 248C128.112 248.12 127.945 248.29 127.818 248.51C127.698 248.73 127.638 248.997 127.638 249.31C127.638 249.617 127.698 249.883 127.818 250.11C127.945 250.33 128.112 250.5 128.318 250.62C128.525 250.74 128.758 250.8 129.018 250.8ZM136.281 246.54C136.708 246.54 137.088 246.627 137.421 246.8C137.761 246.967 138.028 247.227 138.221 247.58C138.414 247.927 138.511 248.373 138.511 248.92V252H136.951V249.16C136.951 248.727 136.854 248.407 136.661 248.2C136.474 247.993 136.208 247.89 135.861 247.89C135.614 247.89 135.391 247.943 135.191 248.05C134.998 248.15 134.844 248.307 134.731 248.52C134.624 248.733 134.571 249.007 134.571 249.34V252H133.011V246.62H134.501V248.11L134.221 247.66C134.414 247.3 134.691 247.023 135.051 246.83C135.411 246.637 135.821 246.54 136.281 246.54ZM141.735 252.08C141.275 252.08 140.832 252.027 140.405 251.92C139.985 251.807 139.652 251.667 139.405 251.5L139.925 250.38C140.172 250.533 140.462 250.66 140.795 250.76C141.135 250.853 141.468 250.9 141.795 250.9C142.155 250.9 142.408 250.857 142.555 250.77C142.708 250.683 142.785 250.563 142.785 250.41C142.785 250.283 142.725 250.19 142.605 250.13C142.492 250.063 142.338 250.013 142.145 249.98C141.952 249.947 141.738 249.913 141.505 249.88C141.278 249.847 141.048 249.803 140.815 249.75C140.582 249.69 140.368 249.603 140.175 249.49C139.982 249.377 139.825 249.223 139.705 249.03C139.592 248.837 139.535 248.587 139.535 248.28C139.535 247.94 139.632 247.64 139.825 247.38C140.025 247.12 140.312 246.917 140.685 246.77C141.058 246.617 141.505 246.54 142.025 246.54C142.392 246.54 142.765 246.58 143.145 246.66C143.525 246.74 143.842 246.857 144.095 247.01L143.575 248.12C143.315 247.967 143.052 247.863 142.785 247.81C142.525 247.75 142.272 247.72 142.025 247.72C141.678 247.72 141.425 247.767 141.265 247.86C141.105 247.953 141.025 248.073 141.025 248.22C141.025 248.353 141.082 248.453 141.195 248.52C141.315 248.587 141.472 248.64 141.665 248.68C141.858 248.72 142.068 248.757 142.295 248.79C142.528 248.817 142.762 248.86 142.995 248.92C143.228 248.98 143.438 249.067 143.625 249.18C143.818 249.287 143.975 249.437 144.095 249.63C144.215 249.817 144.275 250.063 144.275 250.37C144.275 250.703 144.175 251 143.975 251.26C143.775 251.513 143.485 251.713 143.105 251.86C142.732 252.007 142.275 252.08 141.735 252.08ZM99.594 274V272.11L104.454 267.52C104.838 267.172 105.12 266.86 105.3 266.584C105.48 266.308 105.6 266.056 105.66 265.828C105.732 265.6 105.768 265.39 105.768 265.198C105.768 264.694 105.594 264.31 105.246 264.046C104.91 263.77 104.412 263.632 103.752 263.632C103.224 263.632 102.732 263.734 102.276 263.938C101.832 264.142 101.454 264.46 101.142 264.892L99.018 263.524C99.498 262.804 100.17 262.234 101.034 261.814C101.898 261.394 102.894 261.184 104.022 261.184C104.958 261.184 105.774 261.34 106.47 261.652C107.178 261.952 107.724 262.378 108.108 262.93C108.504 263.482 108.702 264.142 108.702 264.91C108.702 265.318 108.648 265.726 108.54 266.134C108.444 266.53 108.24 266.95 107.928 267.394C107.628 267.838 107.184 268.336 106.596 268.888L102.564 272.686L102.006 271.624H109.116V274H99.594ZM115.953 274.216C114.801 274.216 113.799 273.976 112.947 273.496C112.107 273.016 111.459 272.314 111.003 271.39C110.547 270.466 110.319 269.326 110.319 267.97C110.319 266.518 110.589 265.288 111.129 264.28C111.681 263.272 112.437 262.504 113.397 261.976C114.369 261.448 115.485 261.184 116.745 261.184C117.417 261.184 118.059 261.256 118.671 261.4C119.283 261.544 119.811 261.76 120.255 262.048L119.175 264.19C118.827 263.95 118.455 263.788 118.059 263.704C117.663 263.608 117.249 263.56 116.817 263.56C115.725 263.56 114.861 263.89 114.225 264.55C113.589 265.21 113.271 266.188 113.271 267.484C113.271 267.7 113.271 267.94 113.271 268.204C113.283 268.468 113.319 268.732 113.379 268.996L112.569 268.24C112.797 267.772 113.091 267.382 113.451 267.07C113.811 266.746 114.237 266.506 114.729 266.35C115.233 266.182 115.785 266.098 116.385 266.098C117.201 266.098 117.933 266.26 118.581 266.584C119.229 266.908 119.745 267.364 120.129 267.952C120.525 268.54 120.723 269.23 120.723 270.022C120.723 270.874 120.507 271.618 120.075 272.254C119.655 272.878 119.085 273.364 118.365 273.712C117.657 274.048 116.853 274.216 115.953 274.216ZM115.791 272.038C116.199 272.038 116.559 271.966 116.871 271.822C117.195 271.666 117.447 271.444 117.627 271.156C117.807 270.868 117.897 270.538 117.897 270.166C117.897 269.59 117.699 269.134 117.303 268.798C116.919 268.45 116.403 268.276 115.755 268.276C115.323 268.276 114.945 268.36 114.621 268.528C114.297 268.684 114.039 268.906 113.847 269.194C113.667 269.47 113.577 269.794 113.577 270.166C113.577 270.526 113.667 270.85 113.847 271.138C114.027 271.414 114.279 271.636 114.603 271.804C114.927 271.96 115.323 272.038 115.791 272.038ZM127.18 274.216C126.148 274.216 125.224 273.964 124.408 273.46C123.592 272.944 122.95 272.2 122.482 271.228C122.014 270.256 121.78 269.08 121.78 267.7C121.78 266.32 122.014 265.144 122.482 264.172C122.95 263.2 123.592 262.462 124.408 261.958C125.224 261.442 126.148 261.184 127.18 261.184C128.224 261.184 129.148 261.442 129.952 261.958C130.768 262.462 131.41 263.2 131.878 264.172C132.346 265.144 132.58 266.32 132.58 267.7C132.58 269.08 132.346 270.256 131.878 271.228C131.41 272.2 130.768 272.944 129.952 273.46C129.148 273.964 128.224 274.216 127.18 274.216ZM127.18 271.75C127.672 271.75 128.098 271.612 128.458 271.336C128.83 271.06 129.118 270.622 129.322 270.022C129.538 269.422 129.646 268.648 129.646 267.7C129.646 266.752 129.538 265.978 129.322 265.378C129.118 264.778 128.83 264.34 128.458 264.064C128.098 263.788 127.672 263.65 127.18 263.65C126.7 263.65 126.274 263.788 125.902 264.064C125.542 264.34 125.254 264.778 125.038 265.378C124.834 265.978 124.732 266.752 124.732 267.7C124.732 268.648 124.834 269.422 125.038 270.022C125.254 270.622 125.542 271.06 125.902 271.336C126.274 271.612 126.7 271.75 127.18 271.75ZM133.876 276.772L135.064 272.452L135.46 274.072C134.944 274.072 134.518 273.922 134.182 273.622C133.858 273.322 133.696 272.908 133.696 272.38C133.696 271.852 133.864 271.432 134.2 271.12C134.536 270.808 134.95 270.652 135.442 270.652C135.946 270.652 136.36 270.814 136.684 271.138C137.008 271.45 137.17 271.864 137.17 272.38C137.17 272.536 137.158 272.692 137.134 272.848C137.11 272.992 137.062 273.172 136.99 273.388C136.93 273.592 136.828 273.856 136.684 274.18L135.658 276.772H133.876ZM143.651 274.216C142.619 274.216 141.695 273.964 140.879 273.46C140.063 272.944 139.421 272.2 138.953 271.228C138.485 270.256 138.251 269.08 138.251 267.7C138.251 266.32 138.485 265.144 138.953 264.172C139.421 263.2 140.063 262.462 140.879 261.958C141.695 261.442 142.619 261.184 143.651 261.184C144.695 261.184 145.619 261.442 146.423 261.958C147.239 262.462 147.881 263.2 148.349 264.172C148.817 265.144 149.051 266.32 149.051 267.7C149.051 269.08 148.817 270.256 148.349 271.228C147.881 272.2 147.239 272.944 146.423 273.46C145.619 273.964 144.695 274.216 143.651 274.216ZM143.651 271.75C144.143 271.75 144.569 271.612 144.929 271.336C145.301 271.06 145.589 270.622 145.793 270.022C146.009 269.422 146.117 268.648 146.117 267.7C146.117 266.752 146.009 265.978 145.793 265.378C145.589 264.778 145.301 264.34 144.929 264.064C144.569 263.788 144.143 263.65 143.651 263.65C143.171 263.65 142.745 263.788 142.373 264.064C142.013 264.34 141.725 264.778 141.509 265.378C141.305 265.978 141.203 266.752 141.203 267.7C141.203 268.648 141.305 269.422 141.509 270.022C141.725 270.622 142.013 271.06 142.373 271.336C142.745 271.612 143.171 271.75 143.651 271.75ZM155.868 274.216C154.836 274.216 153.912 273.964 153.096 273.46C152.28 272.944 151.638 272.2 151.17 271.228C150.702 270.256 150.468 269.08 150.468 267.7C150.468 266.32 150.702 265.144 151.17 264.172C151.638 263.2 152.28 262.462 153.096 261.958C153.912 261.442 154.836 261.184 155.868 261.184C156.912 261.184 157.836 261.442 158.64 261.958C159.456 262.462 160.098 263.2 160.566 264.172C161.034 265.144 161.268 266.32 161.268 267.7C161.268 269.08 161.034 270.256 160.566 271.228C160.098 272.2 159.456 272.944 158.64 273.46C157.836 273.964 156.912 274.216 155.868 274.216ZM155.868 271.75C156.36 271.75 156.786 271.612 157.146 271.336C157.518 271.06 157.806 270.622 158.01 270.022C158.226 269.422 158.334 268.648 158.334 267.7C158.334 266.752 158.226 265.978 158.01 265.378C157.806 264.778 157.518 264.34 157.146 264.064C156.786 263.788 156.36 263.65 155.868 263.65C155.388 263.65 154.962 263.788 154.59 264.064C154.23 264.34 153.942 264.778 153.726 265.378C153.522 265.978 153.42 266.752 153.42 267.7C153.42 268.648 153.522 269.422 153.726 270.022C153.942 270.622 154.23 271.06 154.59 271.336C154.962 271.612 155.388 271.75 155.868 271.75ZM168.084 274.216C167.052 274.216 166.128 273.964 165.312 273.46C164.496 272.944 163.854 272.2 163.386 271.228C162.918 270.256 162.684 269.08 162.684 267.7C162.684 266.32 162.918 265.144 163.386 264.172C163.854 263.2 164.496 262.462 165.312 261.958C166.128 261.442 167.052 261.184 168.084 261.184C169.128 261.184 170.052 261.442 170.856 261.958C171.672 262.462 172.314 263.2 172.782 264.172C173.25 265.144 173.484 266.32 173.484 267.7C173.484 269.08 173.25 270.256 172.782 271.228C172.314 272.2 171.672 272.944 170.856 273.46C170.052 273.964 169.128 274.216 168.084 274.216ZM168.084 271.75C168.576 271.75 169.002 271.612 169.362 271.336C169.734 271.06 170.022 270.622 170.226 270.022C170.442 269.422 170.55 268.648 170.55 267.7C170.55 266.752 170.442 265.978 170.226 265.378C170.022 264.778 169.734 264.34 169.362 264.064C169.002 263.788 168.576 263.65 168.084 263.65C167.604 263.65 167.178 263.788 166.806 264.064C166.446 264.34 166.158 264.778 165.942 265.378C165.738 265.978 165.636 266.752 165.636 267.7C165.636 268.648 165.738 269.422 165.942 270.022C166.158 270.622 166.446 271.06 166.806 271.336C167.178 271.612 167.604 271.75 168.084 271.75Z" fill="#191919"/>
<path d="M36.563 278.765H40.259V280.195H36.563V278.765ZM36.695 283H34.913V275.3H40.732V276.73H36.695V283ZM41.71 283V277.082H43.349V278.754L43.118 278.27C43.294 277.852 43.5763 277.537 43.965 277.324C44.3536 277.104 44.8266 276.994 45.384 276.994V278.578C45.3106 278.571 45.2446 278.567 45.186 278.567C45.1273 278.56 45.065 278.556 44.999 278.556C44.5296 278.556 44.1483 278.692 43.855 278.963C43.569 279.227 43.426 279.641 43.426 280.206V283H41.71ZM49.6476 283V281.845L49.5376 281.592V279.524C49.5376 279.157 49.4239 278.871 49.1966 278.666C48.9766 278.461 48.6356 278.358 48.1736 278.358C47.8583 278.358 47.5466 278.409 47.2386 278.512C46.9379 278.607 46.6813 278.739 46.4686 278.908L45.8526 277.709C46.1753 277.482 46.5639 277.306 47.0186 277.181C47.4733 277.056 47.9353 276.994 48.4046 276.994C49.3066 276.994 50.0069 277.207 50.5056 277.632C51.0043 278.057 51.2536 278.721 51.2536 279.623V283H49.6476ZM47.8436 283.088C47.3816 283.088 46.9856 283.011 46.6556 282.857C46.3256 282.696 46.0726 282.479 45.8966 282.208C45.7206 281.937 45.6326 281.632 45.6326 281.295C45.6326 280.943 45.7169 280.635 45.8856 280.371C46.0616 280.107 46.3366 279.902 46.7106 279.755C47.0846 279.601 47.5723 279.524 48.1736 279.524H49.7466V280.525H48.3606C47.9573 280.525 47.6786 280.591 47.5246 280.723C47.3779 280.855 47.3046 281.02 47.3046 281.218C47.3046 281.438 47.3889 281.614 47.5576 281.746C47.7336 281.871 47.9719 281.933 48.2726 281.933C48.5586 281.933 48.8153 281.867 49.0426 281.735C49.2699 281.596 49.4349 281.394 49.5376 281.13L49.8016 281.922C49.6769 282.303 49.4496 282.593 49.1196 282.791C48.7896 282.989 48.3643 283.088 47.8436 283.088ZM56.4036 276.994C56.873 276.994 57.291 277.089 57.6576 277.28C58.0316 277.463 58.325 277.749 58.5376 278.138C58.7503 278.519 58.8566 279.011 58.8566 279.612V283H57.1406V279.876C57.1406 279.399 57.0343 279.047 56.8216 278.82C56.6163 278.593 56.323 278.479 55.9416 278.479C55.6703 278.479 55.4246 278.538 55.2046 278.655C54.992 278.765 54.8233 278.937 54.6986 279.172C54.5813 279.407 54.5226 279.707 54.5226 280.074V283H52.8066V277.082H54.4456V278.721L54.1376 278.226C54.3503 277.83 54.6546 277.526 55.0506 277.313C55.4466 277.1 55.8976 276.994 56.4036 276.994ZM63.3151 283.088C62.6771 283.088 62.1088 282.96 61.6101 282.703C61.1114 282.439 60.7191 282.076 60.4331 281.614C60.1544 281.152 60.0151 280.628 60.0151 280.041C60.0151 279.447 60.1544 278.923 60.4331 278.468C60.7191 278.006 61.1114 277.647 61.6101 277.39C62.1088 277.126 62.6771 276.994 63.3151 276.994C63.9384 276.994 64.4811 277.126 64.9431 277.39C65.4051 277.647 65.7461 278.017 65.9661 278.501L64.6351 279.216C64.4811 278.937 64.2868 278.732 64.0521 278.6C63.8248 278.468 63.5754 278.402 63.3041 278.402C63.0108 278.402 62.7468 278.468 62.5121 278.6C62.2774 278.732 62.0904 278.919 61.9511 279.161C61.8191 279.403 61.7531 279.696 61.7531 280.041C61.7531 280.386 61.8191 280.679 61.9511 280.921C62.0904 281.163 62.2774 281.35 62.5121 281.482C62.7468 281.614 63.0108 281.68 63.3041 281.68C63.5754 281.68 63.8248 281.618 64.0521 281.493C64.2868 281.361 64.4811 281.152 64.6351 280.866L65.9661 281.592C65.7461 282.069 65.4051 282.439 64.9431 282.703C64.4811 282.96 63.9384 283.088 63.3151 283.088ZM69.8159 283.088C69.1412 283.088 68.5472 282.956 68.0339 282.692C67.5279 282.428 67.1356 282.069 66.8569 281.614C66.5782 281.152 66.4389 280.628 66.4389 280.041C66.4389 279.447 66.5746 278.923 66.8459 278.468C67.1246 278.006 67.5022 277.647 67.9789 277.39C68.4556 277.126 68.9946 276.994 69.5959 276.994C70.1752 276.994 70.6959 277.119 71.1579 277.368C71.6272 277.61 71.9976 277.962 72.2689 278.424C72.5402 278.879 72.6759 279.425 72.6759 280.063C72.6759 280.129 72.6722 280.206 72.6649 280.294C72.6576 280.375 72.6502 280.452 72.6429 280.525H67.8359V279.524H71.7409L71.0809 279.821C71.0809 279.513 71.0186 279.245 70.8939 279.018C70.7692 278.791 70.5969 278.615 70.3769 278.49C70.1569 278.358 69.9002 278.292 69.6069 278.292C69.3136 278.292 69.0532 278.358 68.8259 278.49C68.6059 278.615 68.4336 278.794 68.3089 279.029C68.1842 279.256 68.1219 279.528 68.1219 279.843V280.107C68.1219 280.43 68.1916 280.716 68.3309 280.965C68.4776 281.207 68.6792 281.394 68.9359 281.526C69.1999 281.651 69.5079 281.713 69.8599 281.713C70.1752 281.713 70.4502 281.665 70.6849 281.57C70.9269 281.475 71.1469 281.332 71.3449 281.141L72.2579 282.131C71.9866 282.439 71.6456 282.677 71.2349 282.846C70.8242 283.007 70.3512 283.088 69.8159 283.088Z" fill="#191919"/>
<g clip-path="url(#clip3_1498_4373)">
<path d="M31 236H77V267.48H31V236ZM61.0169 236.807H46.9831V266.511H61.0169V236.807Z" fill="black"/>
</g>
<path d="M101.32 78.82H104.69V80.08H101.32V78.82ZM101.44 81.7H105.25V83H99.83V76H105.12V77.3H101.44V81.7ZM109.699 77.54C110.126 77.54 110.506 77.6267 110.839 77.8C111.179 77.9667 111.446 78.2267 111.639 78.58C111.832 78.9267 111.929 79.3733 111.929 79.92V83H110.369V80.16C110.369 79.7267 110.272 79.4067 110.079 79.2C109.892 78.9933 109.626 78.89 109.279 78.89C109.032 78.89 108.809 78.9433 108.609 79.05C108.416 79.15 108.262 79.3067 108.149 79.52C108.042 79.7333 107.989 80.0067 107.989 80.34V83H106.429V77.62H107.919V79.11L107.639 78.66C107.832 78.3 108.109 78.0233 108.469 77.83C108.829 77.6367 109.239 77.54 109.699 77.54ZM114.705 83L112.445 77.62H114.055L115.935 82.25H115.135L117.085 77.62H118.585L116.315 83H114.705ZM119.222 83V77.62H120.782V83H119.222ZM120.002 76.87C119.715 76.87 119.482 76.7867 119.302 76.62C119.122 76.4533 119.032 76.2467 119.032 76C119.032 75.7533 119.122 75.5467 119.302 75.38C119.482 75.2133 119.715 75.13 120.002 75.13C120.289 75.13 120.522 75.21 120.702 75.37C120.882 75.5233 120.972 75.7233 120.972 75.97C120.972 76.23 120.882 76.4467 120.702 76.62C120.529 76.7867 120.295 76.87 120.002 76.87ZM122.23 83V77.62H123.72V79.14L123.51 78.7C123.67 78.32 123.926 78.0333 124.28 77.84C124.633 77.64 125.063 77.54 125.57 77.54V78.98C125.503 78.9733 125.443 78.97 125.39 78.97C125.336 78.9633 125.28 78.96 125.22 78.96C124.793 78.96 124.446 79.0833 124.18 79.33C123.92 79.57 123.79 79.9467 123.79 80.46V83H122.23ZM129.018 83.08C128.445 83.08 127.935 82.96 127.488 82.72C127.048 82.48 126.698 82.1533 126.438 81.74C126.185 81.32 126.058 80.8433 126.058 80.31C126.058 79.77 126.185 79.2933 126.438 78.88C126.698 78.46 127.048 78.1333 127.488 77.9C127.935 77.66 128.445 77.54 129.018 77.54C129.585 77.54 130.092 77.66 130.538 77.9C130.985 78.1333 131.335 78.4567 131.588 78.87C131.842 79.2833 131.968 79.7633 131.968 80.31C131.968 80.8433 131.842 81.32 131.588 81.74C131.335 82.1533 130.985 82.48 130.538 82.72C130.092 82.96 129.585 83.08 129.018 83.08ZM129.018 81.8C129.278 81.8 129.512 81.74 129.718 81.62C129.925 81.5 130.088 81.33 130.208 81.11C130.328 80.8833 130.388 80.6167 130.388 80.31C130.388 79.9967 130.328 79.73 130.208 79.51C130.088 79.29 129.925 79.12 129.718 79C129.512 78.88 129.278 78.82 129.018 78.82C128.758 78.82 128.525 78.88 128.318 79C128.112 79.12 127.945 79.29 127.818 79.51C127.698 79.73 127.638 79.9967 127.638 80.31C127.638 80.6167 127.698 80.8833 127.818 81.11C127.945 81.33 128.112 81.5 128.318 81.62C128.525 81.74 128.758 81.8 129.018 81.8ZM136.281 77.54C136.708 77.54 137.088 77.6267 137.421 77.8C137.761 77.9667 138.028 78.2267 138.221 78.58C138.414 78.9267 138.511 79.3733 138.511 79.92V83H136.951V80.16C136.951 79.7267 136.854 79.4067 136.661 79.2C136.474 78.9933 136.208 78.89 135.861 78.89C135.614 78.89 135.391 78.9433 135.191 79.05C134.998 79.15 134.844 79.3067 134.731 79.52C134.624 79.7333 134.571 80.0067 134.571 80.34V83H133.011V77.62H134.501V79.11L134.221 78.66C134.414 78.3 134.691 78.0233 135.051 77.83C135.411 77.6367 135.821 77.54 136.281 77.54ZM141.735 83.08C141.275 83.08 140.832 83.0267 140.405 82.92C139.985 82.8067 139.652 82.6667 139.405 82.5L139.925 81.38C140.172 81.5333 140.462 81.66 140.795 81.76C141.135 81.8533 141.468 81.9 141.795 81.9C142.155 81.9 142.408 81.8567 142.555 81.77C142.708 81.6833 142.785 81.5633 142.785 81.41C142.785 81.2833 142.725 81.19 142.605 81.13C142.492 81.0633 142.338 81.0133 142.145 80.98C141.952 80.9467 141.738 80.9133 141.505 80.88C141.278 80.8467 141.048 80.8033 140.815 80.75C140.582 80.69 140.368 80.6033 140.175 80.49C139.982 80.3767 139.825 80.2233 139.705 80.03C139.592 79.8367 139.535 79.5867 139.535 79.28C139.535 78.94 139.632 78.64 139.825 78.38C140.025 78.12 140.312 77.9167 140.685 77.77C141.058 77.6167 141.505 77.54 142.025 77.54C142.392 77.54 142.765 77.58 143.145 77.66C143.525 77.74 143.842 77.8567 144.095 78.01L143.575 79.12C143.315 78.9667 143.052 78.8633 142.785 78.81C142.525 78.75 142.272 78.72 142.025 78.72C141.678 78.72 141.425 78.7667 141.265 78.86C141.105 78.9533 141.025 79.0733 141.025 79.22C141.025 79.3533 141.082 79.4533 141.195 79.52C141.315 79.5867 141.472 79.64 141.665 79.68C141.858 79.72 142.068 79.7567 142.295 79.79C142.528 79.8167 142.762 79.86 142.995 79.92C143.228 79.98 143.438 80.0667 143.625 80.18C143.818 80.2867 143.975 80.4367 144.095 80.63C144.215 80.8167 144.275 81.0633 144.275 81.37C144.275 81.7033 144.175 82 143.975 82.26C143.775 82.5133 143.485 82.7133 143.105 82.86C142.732 83.0067 142.275 83.08 141.735 83.08ZM99.594 105V103.11L104.454 98.52C104.838 98.172 105.12 97.86 105.3 97.584C105.48 97.308 105.6 97.056 105.66 96.828C105.732 96.6 105.768 96.39 105.768 96.198C105.768 95.694 105.594 95.31 105.246 95.046C104.91 94.77 104.412 94.632 103.752 94.632C103.224 94.632 102.732 94.734 102.276 94.938C101.832 95.142 101.454 95.46 101.142 95.892L99.018 94.524C99.498 93.804 100.17 93.234 101.034 92.814C101.898 92.394 102.894 92.184 104.022 92.184C104.958 92.184 105.774 92.34 106.47 92.652C107.178 92.952 107.724 93.378 108.108 93.93C108.504 94.482 108.702 95.142 108.702 95.91C108.702 96.318 108.648 96.726 108.54 97.134C108.444 97.53 108.24 97.95 107.928 98.394C107.628 98.838 107.184 99.336 106.596 99.888L102.564 103.686L102.006 102.624H109.116V105H99.594ZM110.603 107.772L111.791 103.452L112.187 105.072C111.671 105.072 111.245 104.922 110.909 104.622C110.585 104.322 110.423 103.908 110.423 103.38C110.423 102.852 110.591 102.432 110.927 102.12C111.263 101.808 111.677 101.652 112.169 101.652C112.673 101.652 113.087 101.814 113.411 102.138C113.735 102.45 113.897 102.864 113.897 103.38C113.897 103.536 113.885 103.692 113.861 103.848C113.837 103.992 113.789 104.172 113.717 104.388C113.657 104.592 113.555 104.856 113.411 105.18L112.385 107.772H110.603ZM115.274 105V103.11L120.134 98.52C120.518 98.172 120.8 97.86 120.98 97.584C121.16 97.308 121.28 97.056 121.34 96.828C121.412 96.6 121.448 96.39 121.448 96.198C121.448 95.694 121.274 95.31 120.926 95.046C120.59 94.77 120.092 94.632 119.432 94.632C118.904 94.632 118.412 94.734 117.956 94.938C117.512 95.142 117.134 95.46 116.822 95.892L114.698 94.524C115.178 93.804 115.85 93.234 116.714 92.814C117.578 92.394 118.574 92.184 119.702 92.184C120.638 92.184 121.454 92.34 122.15 92.652C122.858 92.952 123.404 93.378 123.788 93.93C124.184 94.482 124.382 95.142 124.382 95.91C124.382 96.318 124.328 96.726 124.22 97.134C124.124 97.53 123.92 97.95 123.608 98.394C123.308 98.838 122.864 99.336 122.276 99.888L118.244 103.686L117.686 102.624H124.796V105H115.274ZM130.283 105.216C129.407 105.216 128.537 105.102 127.673 104.874C126.821 104.634 126.089 104.298 125.477 103.866L126.629 101.634C127.109 101.982 127.661 102.258 128.285 102.462C128.921 102.666 129.563 102.768 130.211 102.768C130.943 102.768 131.519 102.624 131.939 102.336C132.359 102.048 132.569 101.646 132.569 101.13C132.569 100.806 132.485 100.518 132.317 100.266C132.149 100.014 131.849 99.822 131.417 99.69C130.997 99.558 130.403 99.492 129.635 99.492H126.413L127.061 92.4H134.747V94.74H128.105L129.617 93.408L129.167 98.466L127.655 97.134H130.319C131.567 97.134 132.569 97.308 133.325 97.656C134.093 97.992 134.651 98.454 134.999 99.042C135.347 99.63 135.521 100.296 135.521 101.04C135.521 101.784 135.335 102.474 134.963 103.11C134.591 103.734 134.015 104.244 133.235 104.64C132.467 105.024 131.483 105.216 130.283 105.216ZM142.104 105.216C141.072 105.216 140.148 104.964 139.332 104.46C138.516 103.944 137.874 103.2 137.406 102.228C136.938 101.256 136.704 100.08 136.704 98.7C136.704 97.32 136.938 96.144 137.406 95.172C137.874 94.2 138.516 93.462 139.332 92.958C140.148 92.442 141.072 92.184 142.104 92.184C143.148 92.184 144.072 92.442 144.876 92.958C145.692 93.462 146.334 94.2 146.802 95.172C147.27 96.144 147.504 97.32 147.504 98.7C147.504 100.08 147.27 101.256 146.802 102.228C146.334 103.2 145.692 103.944 144.876 104.46C144.072 104.964 143.148 105.216 142.104 105.216ZM142.104 102.75C142.596 102.75 143.022 102.612 143.382 102.336C143.754 102.06 144.042 101.622 144.246 101.022C144.462 100.422 144.57 99.648 144.57 98.7C144.57 97.752 144.462 96.978 144.246 96.378C144.042 95.778 143.754 95.34 143.382 95.064C143.022 94.788 142.596 94.65 142.104 94.65C141.624 94.65 141.198 94.788 140.826 95.064C140.466 95.34 140.178 95.778 139.962 96.378C139.758 96.978 139.656 97.752 139.656 98.7C139.656 99.648 139.758 100.422 139.962 101.022C140.178 101.622 140.466 102.06 140.826 102.336C141.198 102.612 141.624 102.75 142.104 102.75Z" fill="#191919"/>
<path d="M34.3605 109L37.7925 101.3H39.5525L42.9955 109H41.1255L38.3095 102.202H39.0135L36.1865 109H34.3605ZM36.0765 107.35L36.5495 105.997H40.5095L40.9935 107.35H36.0765ZM46.0629 109.088C45.5716 109.088 45.1316 108.993 44.7429 108.802C44.3616 108.611 44.0646 108.322 43.8519 107.933C43.6393 107.537 43.5329 107.035 43.5329 106.426V103.082H45.2489V106.173C45.2489 106.664 45.3516 107.027 45.5569 107.262C45.7696 107.489 46.0666 107.603 46.4479 107.603C46.7119 107.603 46.9466 107.548 47.1519 107.438C47.3573 107.321 47.5186 107.145 47.6359 106.91C47.7533 106.668 47.8119 106.367 47.8119 106.008V103.082H49.5279V109H47.8999V107.372L48.1969 107.845C47.9989 108.256 47.7056 108.567 47.3169 108.78C46.9356 108.985 46.5176 109.088 46.0629 109.088ZM53.5377 109.088C52.841 109.088 52.2984 108.912 51.9097 108.56C51.521 108.201 51.3267 107.669 51.3267 106.965V101.773H53.0427V106.943C53.0427 107.192 53.1087 107.387 53.2407 107.526C53.3727 107.658 53.5524 107.724 53.7797 107.724C54.051 107.724 54.282 107.651 54.4727 107.504L54.9347 108.714C54.7587 108.839 54.546 108.934 54.2967 109C54.0547 109.059 53.8017 109.088 53.5377 109.088ZM50.4137 104.534V103.214H54.5167V104.534H50.4137ZM55.898 109V103.082H57.537V104.754L57.306 104.27C57.482 103.852 57.7643 103.537 58.153 103.324C58.5416 103.104 59.0146 102.994 59.572 102.994V104.578C59.4986 104.571 59.4326 104.567 59.374 104.567C59.3153 104.56 59.253 104.556 59.187 104.556C58.7176 104.556 58.3363 104.692 58.043 104.963C57.757 105.227 57.614 105.641 57.614 106.206V109H55.898ZM63.4863 109.088C62.8117 109.088 62.2177 108.956 61.7043 108.692C61.1983 108.428 60.806 108.069 60.5273 107.614C60.2487 107.152 60.1093 106.628 60.1093 106.041C60.1093 105.447 60.245 104.923 60.5163 104.468C60.795 104.006 61.1727 103.647 61.6493 103.39C62.126 103.126 62.665 102.994 63.2663 102.994C63.8457 102.994 64.3663 103.119 64.8283 103.368C65.2977 103.61 65.668 103.962 65.9393 104.424C66.2107 104.879 66.3463 105.425 66.3463 106.063C66.3463 106.129 66.3427 106.206 66.3353 106.294C66.328 106.375 66.3207 106.452 66.3133 106.525H61.5063V105.524H65.4113L64.7513 105.821C64.7513 105.513 64.689 105.245 64.5643 105.018C64.4397 104.791 64.2673 104.615 64.0473 104.49C63.8273 104.358 63.5707 104.292 63.2773 104.292C62.984 104.292 62.7237 104.358 62.4963 104.49C62.2763 104.615 62.104 104.794 61.9793 105.029C61.8547 105.256 61.7923 105.528 61.7923 105.843V106.107C61.7923 106.43 61.862 106.716 62.0013 106.965C62.148 107.207 62.3497 107.394 62.6063 107.526C62.8703 107.651 63.1783 107.713 63.5303 107.713C63.8457 107.713 64.1207 107.665 64.3553 107.57C64.5973 107.475 64.8173 107.332 65.0153 107.141L65.9283 108.131C65.657 108.439 65.316 108.677 64.9053 108.846C64.4947 109.007 64.0217 109.088 63.4863 109.088ZM69.4798 109.088C68.9738 109.088 68.4861 109.029 68.0168 108.912C67.5548 108.787 67.1881 108.633 66.9168 108.45L67.4888 107.218C67.7601 107.387 68.0791 107.526 68.4458 107.636C68.8198 107.739 69.1864 107.79 69.5458 107.79C69.9418 107.79 70.2204 107.742 70.3818 107.647C70.5504 107.552 70.6348 107.42 70.6348 107.251C70.6348 107.112 70.5688 107.009 70.4368 106.943C70.3121 106.87 70.1434 106.815 69.9308 106.778C69.7181 106.741 69.4834 106.705 69.2268 106.668C68.9774 106.631 68.7244 106.584 68.4678 106.525C68.2111 106.459 67.9764 106.364 67.7638 106.239C67.5511 106.114 67.3788 105.946 67.2468 105.733C67.1221 105.52 67.0598 105.245 67.0598 104.908C67.0598 104.534 67.1661 104.204 67.3788 103.918C67.5988 103.632 67.9141 103.408 68.3248 103.247C68.7354 103.078 69.2268 102.994 69.7988 102.994C70.2021 102.994 70.6128 103.038 71.0308 103.126C71.4488 103.214 71.7971 103.342 72.0758 103.511L71.5038 104.732C71.2178 104.563 70.9281 104.45 70.6348 104.391C70.3488 104.325 70.0701 104.292 69.7988 104.292C69.4174 104.292 69.1388 104.343 68.9628 104.446C68.7868 104.549 68.6988 104.681 68.6988 104.842C68.6988 104.989 68.7611 105.099 68.8858 105.172C69.0178 105.245 69.1901 105.304 69.4028 105.348C69.6154 105.392 69.8464 105.432 70.0958 105.469C70.3524 105.498 70.6091 105.546 70.8658 105.612C71.1224 105.678 71.3534 105.773 71.5588 105.898C71.7714 106.015 71.9438 106.18 72.0758 106.393C72.2078 106.598 72.2738 106.87 72.2738 107.207C72.2738 107.574 72.1638 107.9 71.9438 108.186C71.7238 108.465 71.4048 108.685 70.9868 108.846C70.5761 109.007 70.0738 109.088 69.4798 109.088ZM40.9584 122V114.3H44.2914C44.9807 114.3 45.5747 114.414 46.0734 114.641C46.5721 114.861 46.9571 115.18 47.2284 115.598C47.4997 116.016 47.6354 116.515 47.6354 117.094C47.6354 117.666 47.4997 118.161 47.2284 118.579C46.9571 118.997 46.5721 119.32 46.0734 119.547C45.5747 119.767 44.9807 119.877 44.2914 119.877H41.9484L42.7404 119.074V122H40.9584ZM42.7404 119.272L41.9484 118.425H44.1924C44.7424 118.425 45.1531 118.308 45.4244 118.073C45.6957 117.838 45.8314 117.512 45.8314 117.094C45.8314 116.669 45.6957 116.339 45.4244 116.104C45.1531 115.869 44.7424 115.752 44.1924 115.752H41.9484L42.7404 114.905V119.272ZM52.3629 122V120.845L52.2529 120.592V118.524C52.2529 118.157 52.1393 117.871 51.9119 117.666C51.6919 117.461 51.3509 117.358 50.8889 117.358C50.5736 117.358 50.2619 117.409 49.9539 117.512C49.6533 117.607 49.3966 117.739 49.1839 117.908L48.5679 116.709C48.8906 116.482 49.2793 116.306 49.7339 116.181C50.1886 116.056 50.6506 115.994 51.1199 115.994C52.0219 115.994 52.7223 116.207 53.2209 116.632C53.7196 117.057 53.9689 117.721 53.9689 118.623V122H52.3629ZM50.5589 122.088C50.0969 122.088 49.7009 122.011 49.3709 121.857C49.0409 121.696 48.7879 121.479 48.6119 121.208C48.4359 120.937 48.3479 120.632 48.3479 120.295C48.3479 119.943 48.4323 119.635 48.6009 119.371C48.7769 119.107 49.0519 118.902 49.4259 118.755C49.7999 118.601 50.2876 118.524 50.8889 118.524H52.4619V119.525H51.0759C50.6726 119.525 50.3939 119.591 50.2399 119.723C50.0933 119.855 50.0199 120.02 50.0199 120.218C50.0199 120.438 50.1043 120.614 50.2729 120.746C50.4489 120.871 50.6873 120.933 50.9879 120.933C51.2739 120.933 51.5306 120.867 51.7579 120.735C51.9853 120.596 52.1503 120.394 52.2529 120.13L52.5169 120.922C52.3923 121.303 52.1649 121.593 51.8349 121.791C51.5049 121.989 51.0796 122.088 50.5589 122.088ZM56.1626 124.222C55.8546 124.222 55.5502 124.174 55.2496 124.079C54.9489 123.984 54.7032 123.852 54.5126 123.683L55.1396 122.462C55.2716 122.579 55.4219 122.671 55.5906 122.737C55.7666 122.803 55.9389 122.836 56.1076 122.836C56.3496 122.836 56.5402 122.777 56.6796 122.66C56.8262 122.55 56.9582 122.363 57.0756 122.099L57.3836 121.373L57.5156 121.186L59.6386 116.082H61.2886L58.6156 122.363C58.4249 122.84 58.2049 123.214 57.9556 123.485C57.7136 123.756 57.4422 123.947 57.1416 124.057C56.8482 124.167 56.5219 124.222 56.1626 124.222ZM57.1746 122.231L54.5346 116.082H56.3056L58.3516 121.032L57.1746 122.231ZM63.8938 122.088C63.3878 122.088 62.9002 122.029 62.4308 121.912C61.9688 121.787 61.6022 121.633 61.3308 121.45L61.9028 120.218C62.1742 120.387 62.4932 120.526 62.8598 120.636C63.2338 120.739 63.6005 120.79 63.9598 120.79C64.3558 120.79 64.6345 120.742 64.7958 120.647C64.9645 120.552 65.0488 120.42 65.0488 120.251C65.0488 120.112 64.9828 120.009 64.8508 119.943C64.7262 119.87 64.5575 119.815 64.3448 119.778C64.1322 119.741 63.8975 119.705 63.6408 119.668C63.3915 119.631 63.1385 119.584 62.8818 119.525C62.6252 119.459 62.3905 119.364 62.1778 119.239C61.9652 119.114 61.7928 118.946 61.6608 118.733C61.5362 118.52 61.4738 118.245 61.4738 117.908C61.4738 117.534 61.5802 117.204 61.7928 116.918C62.0128 116.632 62.3282 116.408 62.7388 116.247C63.1495 116.078 63.6408 115.994 64.2128 115.994C64.6162 115.994 65.0268 116.038 65.4448 116.126C65.8628 116.214 66.2112 116.342 66.4898 116.511L65.9178 117.732C65.6318 117.563 65.3422 117.45 65.0488 117.391C64.7628 117.325 64.4842 117.292 64.2128 117.292C63.8315 117.292 63.5528 117.343 63.3768 117.446C63.2008 117.549 63.1128 117.681 63.1128 117.842C63.1128 117.989 63.1752 118.099 63.2998 118.172C63.4318 118.245 63.6042 118.304 63.8168 118.348C64.0295 118.392 64.2605 118.432 64.5098 118.469C64.7665 118.498 65.0232 118.546 65.2798 118.612C65.5365 118.678 65.7675 118.773 65.9728 118.898C66.1855 119.015 66.3578 119.18 66.4898 119.393C66.6218 119.598 66.6878 119.87 66.6878 120.207C66.6878 120.574 66.5778 120.9 66.3578 121.186C66.1378 121.465 65.8188 121.685 65.4008 121.846C64.9902 122.007 64.4878 122.088 63.8938 122.088Z" fill="#191919"/>
<g clip-path="url(#clip4_1498_4373)">
<path d="M60.1664 69.6395C60.0696 69.9464 60.1429 70.283 60.1224 70.6018C60.0608 71.5105 59.8996 72.6486 59.1226 73.2087C59.061 73.2534 58.9261 73.2832 58.8997 73.316C58.803 73.4381 58.5156 74.4213 58.3837 74.6924C58.1462 75.1781 57.7532 75.5237 57.5304 75.9289C57.3076 76.3341 57.6858 76.6946 57.6096 77.1504L57.806 76.9716C58.1872 77.3679 58.5655 77.788 58.9026 78.2259C59.0229 78.3838 59.5067 79.0095 59.536 79.1495C59.5565 79.2449 59.4656 79.4177 59.4568 79.5428C59.3865 80.7703 59.2574 81.1874 58.9935 82.3374C58.7854 83.2372 58.8528 83.127 59.5331 83.5351C59.5682 83.556 59.6064 83.5232 59.5888 83.6126L58.1168 85.2482L55.2375 83.8629C55.1026 84.137 54.8944 84.4408 54.7067 84.6852C54.3637 85.1321 54.0177 85.3853 53.786 85.8948C53.7421 85.9901 53.5192 86.1838 53.5192 86.2046C53.5192 86.2374 53.5837 86.2791 53.6512 86.2493C53.8242 86.1718 54.2288 85.8411 54.393 85.7071C54.7331 85.43 55.0175 85.135 55.3049 84.8013L58.237 85.9931C58.3162 85.9782 58.3631 85.9156 58.4247 85.8679C58.8264 85.5432 59.6122 84.6554 59.9875 84.2353C60.313 83.8688 60.8203 83.3862 60.7059 82.8648L59.9406 82.5549C60.2045 81.4853 60.3892 80.3234 60.0726 79.2479L60.4772 79.3045L66.8195 82.0127C66.8957 82.0723 66.796 82.403 66.7989 82.5311C66.8136 82.9214 67.3238 83.2461 67.573 83.5351C67.9777 84.0088 68.2386 84.4408 68.4175 85.0456C68.8192 86.4072 69.1124 88.1114 69.3763 89.5266C69.5845 90.6408 69.8337 91.8832 69.9627 93.0005C69.992 93.2448 70.0507 93.4355 69.9363 93.6738C69.8044 93.9509 69.4349 94.0284 69.1593 94.0462H36.8617C36.155 93.9688 35.9527 93.8198 36.0055 93.0839C36.1052 91.7194 36.4981 89.9496 36.7649 88.5791C36.9848 87.4649 37.2341 85.9782 37.5654 84.9205C37.7765 84.2442 38.2427 83.6901 38.7089 83.1776C38.9142 82.9512 39.1341 82.9124 39.1722 82.5758C39.1898 82.4089 39.1106 82.0723 39.2426 81.9769L45.3913 79.3283L45.9044 79.2479C45.6024 80.3234 45.7344 81.4585 45.9953 82.5281C45.9836 82.5817 45.2066 82.7814 45.2007 82.978C45.2007 83.0108 45.3532 83.5172 45.3737 83.553C45.4118 83.6096 45.6259 83.7556 45.705 83.8539C46.2446 84.4945 46.8896 85.3168 47.5288 85.8441C47.5875 85.8918 47.6989 85.9931 47.7693 85.9961L50.675 84.8013C51.1149 85.4121 51.7072 85.8531 52.3229 86.2672C52.3405 85.6862 51.8596 85.3942 51.5312 84.992C51.2468 84.6405 50.9536 84.2502 50.7337 83.8569L47.8338 85.284C47.8279 85.2065 47.7927 85.141 47.7458 85.0814C47.3353 84.5839 46.7899 84.1191 46.3824 83.6066C46.3824 83.559 46.9893 83.2521 47.0656 83.0048C47.1946 82.5877 46.7313 81.4317 46.6521 80.9163C46.5554 80.2996 46.5906 79.6679 46.4762 79.0542C46.5114 78.8486 47.5171 77.636 47.7224 77.4126C47.8719 77.2487 48.0947 76.9299 48.3176 77.0551C48.3 76.7393 48.5463 76.3936 48.4906 76.0957C48.4642 75.9557 47.8836 75.2853 47.7517 75.0559C47.4761 74.5733 47.3119 73.7808 47.048 73.3994C46.9747 73.2922 46.8808 73.2683 46.8163 73.1879C46.0129 72.1689 45.8868 70.9415 45.8311 69.6723C45.7109 69.4965 44.0308 69.8898 43.8461 69.276C43.6086 68.4865 44.3797 67.7536 44.714 67.113C45.1421 66.2907 45.0658 65.0722 45.2476 64.1218C45.9924 60.2963 48.6988 58.1899 52.4871 58.0111C56.598 57.8175 59.8761 59.7719 60.7147 64.0026C60.9141 65.0036 60.8467 66.2967 61.3011 67.1637C61.4829 67.5093 61.7468 67.834 61.9316 68.1766C62.8552 69.8957 61.3598 69.6157 60.1664 69.6395ZM47.1389 67.3573C47.1565 67.408 47.1828 67.4556 47.1828 67.5122C47.2943 70.7597 47.6549 74.7252 50.6604 76.5873C53.443 78.3123 56.3106 76.5873 57.6184 73.9148C58.6036 71.9008 58.627 69.5769 58.8323 67.3782L58.803 67.3335C55.6421 66.7793 52.4226 66.6006 49.2324 66.9998C48.5316 67.0892 47.8338 67.2292 47.1418 67.3573H47.1389ZM41.6675 81.9918C41.4358 81.7565 40.9256 81.7833 40.7145 82.0425C40.348 82.4864 40.7145 83.1895 41.2658 83.1389C41.7584 83.0942 42.0076 82.3345 41.6675 81.9888V81.9918ZM64.5969 81.8518C63.7612 82.0097 64.2773 83.6036 65.1335 83.0227C65.7609 82.5996 65.3798 81.7028 64.5969 81.8518Z" fill="black"/>
</g>
<defs>
<clipPath id="clip0_1498_4373">
<rect width="46" height="32.1387" fill="white" transform="translate(31 151)"/>
</clipPath>
<clipPath id="clip1_1498_4373">
<rect width="54.05" height="62.1627" fill="white" transform="translate(74 411)"/>
</clipPath>
<clipPath id="clip2_1498_4373">
<rect width="50.3658" height="35.05" fill="white" transform="translate(29 318)"/>
</clipPath>
<clipPath id="clip3_1498_4373">
<rect width="46" height="31.48" fill="white" transform="translate(31 236)"/>
</clipPath>
<clipPath id="clip4_1498_4373">
<rect width="34.01" height="36.05" fill="white" transform="translate(36 58)"/>
</clipPath>
</defs>
</svg>
