<svg width="75" height="62" viewBox="0 0 75 62" fill="none" xmlns="http://www.w3.org/2000/svg">
<g clip-path="url(#clip0_1122_4852)">
<path d="M63.6553 55.8202L63.7254 55.2138C66.9472 48.863 70.3298 42.5928 74.092 36.5452C74.3766 35.7697 74.1539 35.3283 73.3392 35.1777C49.1615 38.911 25.0498 43.0383 0.880318 46.8293C-0.173668 47.1016 -0.0994186 47.6791 0.176971 48.564C1.01645 51.2391 2.33031 53.9329 3.22548 56.606C3.95358 57.8601 6.72364 57.2887 7.86632 56.8824C10.2816 56.0223 11.2118 55.3458 14.017 55.552C17.3955 55.8016 19.0208 58.1715 22.7211 57.2207C25.4582 56.5173 26.4152 55.321 29.7112 55.5479C33.7745 55.8284 34.5212 58.5655 39.3559 56.9051C41.6413 56.1213 42.7612 55.3643 45.3952 55.552C48.7077 55.7871 50.4135 57.9941 54.0106 57.3114C55.4276 57.0433 56.626 56.2595 57.9935 55.8841C59.8519 55.3746 61.7763 55.4675 63.6532 55.8202H63.6553ZM33.2568 48.9517C33.2568 47.7554 34.2262 46.786 35.4225 46.786C36.6188 46.786 37.5883 47.7554 37.5883 48.9517C37.5883 50.148 36.6188 51.1174 35.4225 51.1174C34.2262 51.1174 33.2568 50.148 33.2568 48.9517ZM25.2787 49.0095C25.2787 47.8359 26.2296 46.885 27.4032 46.885C28.5768 46.885 29.5276 47.8359 29.5276 49.0095C29.5276 50.1831 28.5768 51.1339 27.4032 51.1339C26.2296 51.1339 25.2787 50.1831 25.2787 49.0095ZM17.1356 49.0301C17.1356 47.8359 18.103 46.8685 19.2972 46.8685C20.4914 46.8685 21.4588 47.8359 21.4588 49.0301C21.4588 50.2243 20.4914 51.1917 19.2972 51.1917C18.103 51.1917 17.1356 50.2243 17.1356 49.0301Z" fill="#367293"/>
<path d="M26.7782 5.95641H22.4056C22.2839 5.95641 21.7868 6.28849 21.6878 6.41225C21.2835 6.91964 21.3681 7.95094 21.9126 8.34283C21.9724 8.38615 22.3746 8.57178 22.4056 8.57178H26.1471L23.9937 18.6187C23.837 18.8497 21.958 18.2742 21.2402 19.3076C21.1536 19.4334 20.9184 19.9532 20.9184 20.0687V26.8773H18.5299C18.3072 26.8773 17.7173 27.2877 17.6946 27.5765L16.6798 34.5419L11.3232 34.5501C10.6508 34.6863 10.2507 35.0637 10.1847 35.7567C10.0094 37.6151 10.0548 40.9957 10.1847 42.8871C10.1991 43.0831 10.2466 43.2708 10.2878 43.4605L10.4095 43.4791L39.752 38.7723L38.2978 27.7601C38.3205 27.5394 37.9039 27.0609 37.7347 27.0609H35.9774V19.982C35.9774 19.85 35.6515 19.2952 35.5298 19.1673C34.7213 18.3155 32.9805 18.8043 31.9203 18.6744L29.9361 8.57591H33.8591C34.3603 8.57591 34.8017 7.62299 34.7894 7.17541C34.777 6.72782 34.2386 5.96054 33.7684 5.96054H29.4864V1.22277C29.4864 0.164656 27.9622 -0.435558 27.197 0.37504C27.001 0.583362 26.7824 1.13407 26.7824 1.40221V5.95641H26.7782ZM26.6875 18.6702L27.9498 12.6289L29.3008 18.6702H26.6854H26.6875Z" fill="#367293"/>
<path d="M61.6901 57.3795C57.7052 57.0248 55.5292 59.5205 51.7051 59.2503C49.4445 59.0894 47.6583 57.5095 45.2162 57.3527C41.0869 57.0908 38.9398 60.2486 34.4866 58.976C32.7994 58.4954 31.4794 57.4868 29.623 57.3486C25.3576 57.031 22.967 60.3435 18.5717 58.9327C16.146 58.153 15.1808 57.1506 12.3034 57.3486C10.0965 57.5012 8.44845 58.8997 6.44567 59.0647C5.1545 59.1699 3.26103 58.5779 3.51473 60.6467C3.65705 61.812 5.10087 61.81 5.99603 61.7708C7.91837 61.6883 8.80116 61.1149 10.4615 60.4652C14.6465 58.8295 17.3609 62.2411 21.5995 61.9544C25.24 61.7089 26.8468 59.1431 30.8173 60.3043C33.4842 61.084 34.3752 62.1854 37.5599 61.9544C41.2849 61.6842 42.5596 58.9533 46.8704 60.393C49.8509 61.3872 50.7811 62.371 54.304 61.8368C57.765 61.3108 58.6746 59.1822 62.7586 60.2837C63.9611 60.6075 65.0728 61.3872 66.3227 61.4985C67.156 61.5728 69.2289 61.4841 69.8415 60.8715C70.3076 60.4074 70.32 59.2586 69.7899 58.844C69.101 58.3036 68.6452 58.7965 67.9357 58.877C65.7617 59.1224 63.9363 57.5796 61.6963 57.3816L61.6901 57.3795Z" fill="#367293"/>
<path d="M44.542 38.0571L55.5624 36.1389C56.3483 35.8275 55.4944 33.9773 55.3603 33.3688L64.4027 31.1846C65.6073 30.671 65.2339 28.6373 63.8809 28.6723L54.6879 30.8442C54.459 29.9924 54.1228 29.1962 53.1533 29.0374C50.868 29.2684 47.9783 28.7342 45.7651 29.0477C45.3176 29.1117 44.54 29.7016 44.54 30.1677V38.0571H44.542Z" fill="#367293"/>
</g>
<defs>
<clipPath id="clip0_1122_4852">
<rect width="74.21" height="61.9871" fill="white" transform="matrix(-1 0 0 1 74.21 0)"/>
</clipPath>
</defs>
</svg>
